<?xml version="1.0" encoding="utf-8" standalone="no"?>
<!DOCTYPE svg PUBLIC "-//W3C//DTD SVG 1.1//EN"
  "http://www.w3.org/Graphics/SVG/1.1/DTD/svg11.dtd">
<!-- Created with matplotlib (https://matplotlib.org/) -->
<svg height="345.6pt" version="1.1" viewBox="0 0 460.8 345.6" width="460.8pt" xmlns="http://www.w3.org/2000/svg" xmlns:xlink="http://www.w3.org/1999/xlink">
 <defs>
  <style type="text/css">
*{stroke-linecap:butt;stroke-linejoin:round;}
  </style>
 </defs>
 <g id="figure_1">
  <g id="patch_1">
   <path d="M 0 345.6 
L 460.8 345.6 
L 460.8 0 
L 0 0 
z
" style="fill:#ffffff;"/>
  </g>
  <g id="axes_1">
   <g id="patch_2">
    <path d="M 57.6 307.584 
L 414.72 307.584 
L 414.72 41.472 
L 57.6 41.472 
z
" style="fill:#ffffff;"/>
   </g>
   <g id="matplotlib.axis_1">
    <g id="xtick_1">
     <g id="line2d_1">
      <defs>
       <path d="M 0 0 
L 0 3.5 
" id="m12ffe01afd" style="stroke:#000000;stroke-width:0.8;"/>
      </defs>
      <g>
       <use style="stroke:#000000;stroke-width:0.8;" x="73.832727" xlink:href="#m12ffe01afd" y="307.584"/>
      </g>
     </g>
     <g id="text_1">
      <!-- 0.0 -->
      <defs>
       <path d="M 31.78125 66.40625 
Q 24.171875 66.40625 20.328125 58.90625 
Q 16.5 51.421875 16.5 36.375 
Q 16.5 21.390625 20.328125 13.890625 
Q 24.171875 6.390625 31.78125 6.390625 
Q 39.453125 6.390625 43.28125 13.890625 
Q 47.125 21.390625 47.125 36.375 
Q 47.125 51.421875 43.28125 58.90625 
Q 39.453125 66.40625 31.78125 66.40625 
z
M 31.78125 74.21875 
Q 44.046875 74.21875 50.515625 64.515625 
Q 56.984375 54.828125 56.984375 36.375 
Q 56.984375 17.96875 50.515625 8.265625 
Q 44.046875 -1.421875 31.78125 -1.421875 
Q 19.53125 -1.421875 13.0625 8.265625 
Q 6.59375 17.96875 6.59375 36.375 
Q 6.59375 54.828125 13.0625 64.515625 
Q 19.53125 74.21875 31.78125 74.21875 
z
" id="DejaVuSans-48"/>
       <path d="M 10.6875 12.40625 
L 21 12.40625 
L 21 0 
L 10.6875 0 
z
" id="DejaVuSans-46"/>
      </defs>
      <g transform="translate(65.881165 322.182437)scale(0.1 -0.1)">
       <use xlink:href="#DejaVuSans-48"/>
       <use x="63.623047" xlink:href="#DejaVuSans-46"/>
       <use x="95.410156" xlink:href="#DejaVuSans-48"/>
      </g>
     </g>
    </g>
    <g id="xtick_2">
     <g id="line2d_2">
      <g>
       <use style="stroke:#000000;stroke-width:0.8;" x="138.763636" xlink:href="#m12ffe01afd" y="307.584"/>
      </g>
     </g>
     <g id="text_2">
      <!-- 0.2 -->
      <defs>
       <path d="M 19.1875 8.296875 
L 53.609375 8.296875 
L 53.609375 0 
L 7.328125 0 
L 7.328125 8.296875 
Q 12.9375 14.109375 22.625 23.890625 
Q 32.328125 33.6875 34.8125 36.53125 
Q 39.546875 41.84375 41.421875 45.53125 
Q 43.3125 49.21875 43.3125 52.78125 
Q 43.3125 58.59375 39.234375 62.25 
Q 35.15625 65.921875 28.609375 65.921875 
Q 23.96875 65.921875 18.8125 64.3125 
Q 13.671875 62.703125 7.8125 59.421875 
L 7.8125 69.390625 
Q 13.765625 71.78125 18.9375 73 
Q 24.125 74.21875 28.421875 74.21875 
Q 39.75 74.21875 46.484375 68.546875 
Q 53.21875 62.890625 53.21875 53.421875 
Q 53.21875 48.921875 51.53125 44.890625 
Q 49.859375 40.875 45.40625 35.40625 
Q 44.1875 33.984375 37.640625 27.21875 
Q 31.109375 20.453125 19.1875 8.296875 
z
" id="DejaVuSans-50"/>
      </defs>
      <g transform="translate(130.812074 322.182437)scale(0.1 -0.1)">
       <use xlink:href="#DejaVuSans-48"/>
       <use x="63.623047" xlink:href="#DejaVuSans-46"/>
       <use x="95.410156" xlink:href="#DejaVuSans-50"/>
      </g>
     </g>
    </g>
    <g id="xtick_3">
     <g id="line2d_3">
      <g>
       <use style="stroke:#000000;stroke-width:0.8;" x="203.694545" xlink:href="#m12ffe01afd" y="307.584"/>
      </g>
     </g>
     <g id="text_3">
      <!-- 0.4 -->
      <defs>
       <path d="M 37.796875 64.3125 
L 12.890625 25.390625 
L 37.796875 25.390625 
z
M 35.203125 72.90625 
L 47.609375 72.90625 
L 47.609375 25.390625 
L 58.015625 25.390625 
L 58.015625 17.1875 
L 47.609375 17.1875 
L 47.609375 0 
L 37.796875 0 
L 37.796875 17.1875 
L 4.890625 17.1875 
L 4.890625 26.703125 
z
" id="DejaVuSans-52"/>
      </defs>
      <g transform="translate(195.742983 322.182437)scale(0.1 -0.1)">
       <use xlink:href="#DejaVuSans-48"/>
       <use x="63.623047" xlink:href="#DejaVuSans-46"/>
       <use x="95.410156" xlink:href="#DejaVuSans-52"/>
      </g>
     </g>
    </g>
    <g id="xtick_4">
     <g id="line2d_4">
      <g>
       <use style="stroke:#000000;stroke-width:0.8;" x="268.625455" xlink:href="#m12ffe01afd" y="307.584"/>
      </g>
     </g>
     <g id="text_4">
      <!-- 0.6 -->
      <defs>
       <path d="M 33.015625 40.375 
Q 26.375 40.375 22.484375 35.828125 
Q 18.609375 31.296875 18.609375 23.390625 
Q 18.609375 15.53125 22.484375 10.953125 
Q 26.375 6.390625 33.015625 6.390625 
Q 39.65625 6.390625 43.53125 10.953125 
Q 47.40625 15.53125 47.40625 23.390625 
Q 47.40625 31.296875 43.53125 35.828125 
Q 39.65625 40.375 33.015625 40.375 
z
M 52.59375 71.296875 
L 52.59375 62.3125 
Q 48.875 64.0625 45.09375 64.984375 
Q 41.3125 65.921875 37.59375 65.921875 
Q 27.828125 65.921875 22.671875 59.328125 
Q 17.53125 52.734375 16.796875 39.40625 
Q 19.671875 43.65625 24.015625 45.921875 
Q 28.375 48.1875 33.59375 48.1875 
Q 44.578125 48.1875 50.953125 41.515625 
Q 57.328125 34.859375 57.328125 23.390625 
Q 57.328125 12.15625 50.6875 5.359375 
Q 44.046875 -1.421875 33.015625 -1.421875 
Q 20.359375 -1.421875 13.671875 8.265625 
Q 6.984375 17.96875 6.984375 36.375 
Q 6.984375 53.65625 15.1875 63.9375 
Q 23.390625 74.21875 37.203125 74.21875 
Q 40.921875 74.21875 44.703125 73.484375 
Q 48.484375 72.75 52.59375 71.296875 
z
" id="DejaVuSans-54"/>
      </defs>
      <g transform="translate(260.673892 322.182437)scale(0.1 -0.1)">
       <use xlink:href="#DejaVuSans-48"/>
       <use x="63.623047" xlink:href="#DejaVuSans-46"/>
       <use x="95.410156" xlink:href="#DejaVuSans-54"/>
      </g>
     </g>
    </g>
    <g id="xtick_5">
     <g id="line2d_5">
      <g>
       <use style="stroke:#000000;stroke-width:0.8;" x="333.556364" xlink:href="#m12ffe01afd" y="307.584"/>
      </g>
     </g>
     <g id="text_5">
      <!-- 0.8 -->
      <defs>
       <path d="M 31.78125 34.625 
Q 24.75 34.625 20.71875 30.859375 
Q 16.703125 27.09375 16.703125 20.515625 
Q 16.703125 13.921875 20.71875 10.15625 
Q 24.75 6.390625 31.78125 6.390625 
Q 38.8125 6.390625 42.859375 10.171875 
Q 46.921875 13.96875 46.921875 20.515625 
Q 46.921875 27.09375 42.890625 30.859375 
Q 38.875 34.625 31.78125 34.625 
z
M 21.921875 38.8125 
Q 15.578125 40.375 12.03125 44.71875 
Q 8.5 49.078125 8.5 55.328125 
Q 8.5 64.0625 14.71875 69.140625 
Q 20.953125 74.21875 31.78125 74.21875 
Q 42.671875 74.21875 48.875 69.140625 
Q 55.078125 64.0625 55.078125 55.328125 
Q 55.078125 49.078125 51.53125 44.71875 
Q 48 40.375 41.703125 38.8125 
Q 48.828125 37.15625 52.796875 32.3125 
Q 56.78125 27.484375 56.78125 20.515625 
Q 56.78125 9.90625 50.3125 4.234375 
Q 43.84375 -1.421875 31.78125 -1.421875 
Q 19.734375 -1.421875 13.25 4.234375 
Q 6.78125 9.90625 6.78125 20.515625 
Q 6.78125 27.484375 10.78125 32.3125 
Q 14.796875 37.15625 21.921875 38.8125 
z
M 18.3125 54.390625 
Q 18.3125 48.734375 21.84375 45.5625 
Q 25.390625 42.390625 31.78125 42.390625 
Q 38.140625 42.390625 41.71875 45.5625 
Q 45.3125 48.734375 45.3125 54.390625 
Q 45.3125 60.0625 41.71875 63.234375 
Q 38.140625 66.40625 31.78125 66.40625 
Q 25.390625 66.40625 21.84375 63.234375 
Q 18.3125 60.0625 18.3125 54.390625 
z
" id="DejaVuSans-56"/>
      </defs>
      <g transform="translate(325.604801 322.182437)scale(0.1 -0.1)">
       <use xlink:href="#DejaVuSans-48"/>
       <use x="63.623047" xlink:href="#DejaVuSans-46"/>
       <use x="95.410156" xlink:href="#DejaVuSans-56"/>
      </g>
     </g>
    </g>
    <g id="xtick_6">
     <g id="line2d_6">
      <g>
       <use style="stroke:#000000;stroke-width:0.8;" x="398.487273" xlink:href="#m12ffe01afd" y="307.584"/>
      </g>
     </g>
     <g id="text_6">
      <!-- 1.0 -->
      <defs>
       <path d="M 12.40625 8.296875 
L 28.515625 8.296875 
L 28.515625 63.921875 
L 10.984375 60.40625 
L 10.984375 69.390625 
L 28.421875 72.90625 
L 38.28125 72.90625 
L 38.28125 8.296875 
L 54.390625 8.296875 
L 54.390625 0 
L 12.40625 0 
z
" id="DejaVuSans-49"/>
      </defs>
      <g transform="translate(390.53571 322.182437)scale(0.1 -0.1)">
       <use xlink:href="#DejaVuSans-49"/>
       <use x="63.623047" xlink:href="#DejaVuSans-46"/>
       <use x="95.410156" xlink:href="#DejaVuSans-48"/>
      </g>
     </g>
    </g>
    <g id="text_7">
     <!-- False positive rate -->
     <defs>
      <path d="M 9.8125 72.90625 
L 51.703125 72.90625 
L 51.703125 64.59375 
L 19.671875 64.59375 
L 19.671875 43.109375 
L 48.578125 43.109375 
L 48.578125 34.8125 
L 19.671875 34.8125 
L 19.671875 0 
L 9.8125 0 
z
" id="DejaVuSans-70"/>
      <path d="M 34.28125 27.484375 
Q 23.390625 27.484375 19.1875 25 
Q 14.984375 22.515625 14.984375 16.5 
Q 14.984375 11.71875 18.140625 8.90625 
Q 21.296875 6.109375 26.703125 6.109375 
Q 34.1875 6.109375 38.703125 11.40625 
Q 43.21875 16.703125 43.21875 25.484375 
L 43.21875 27.484375 
z
M 52.203125 31.203125 
L 52.203125 0 
L 43.21875 0 
L 43.21875 8.296875 
Q 40.140625 3.328125 35.546875 0.953125 
Q 30.953125 -1.421875 24.3125 -1.421875 
Q 15.921875 -1.421875 10.953125 3.296875 
Q 6 8.015625 6 15.921875 
Q 6 25.140625 12.171875 29.828125 
Q 18.359375 34.515625 30.609375 34.515625 
L 43.21875 34.515625 
L 43.21875 35.40625 
Q 43.21875 41.609375 39.140625 45 
Q 35.0625 48.390625 27.6875 48.390625 
Q 23 48.390625 18.546875 47.265625 
Q 14.109375 46.140625 10.015625 43.890625 
L 10.015625 52.203125 
Q 14.9375 54.109375 19.578125 55.046875 
Q 24.21875 56 28.609375 56 
Q 40.484375 56 46.34375 49.84375 
Q 52.203125 43.703125 52.203125 31.203125 
z
" id="DejaVuSans-97"/>
      <path d="M 9.421875 75.984375 
L 18.40625 75.984375 
L 18.40625 0 
L 9.421875 0 
z
" id="DejaVuSans-108"/>
      <path d="M 44.28125 53.078125 
L 44.28125 44.578125 
Q 40.484375 46.53125 36.375 47.5 
Q 32.28125 48.484375 27.875 48.484375 
Q 21.1875 48.484375 17.84375 46.4375 
Q 14.5 44.390625 14.5 40.28125 
Q 14.5 37.15625 16.890625 35.375 
Q 19.28125 33.59375 26.515625 31.984375 
L 29.59375 31.296875 
Q 39.15625 29.25 43.1875 25.515625 
Q 47.21875 21.78125 47.21875 15.09375 
Q 47.21875 7.46875 41.1875 3.015625 
Q 35.15625 -1.421875 24.609375 -1.421875 
Q 20.21875 -1.421875 15.453125 -0.5625 
Q 10.6875 0.296875 5.421875 2 
L 5.421875 11.28125 
Q 10.40625 8.6875 15.234375 7.390625 
Q 20.0625 6.109375 24.8125 6.109375 
Q 31.15625 6.109375 34.5625 8.28125 
Q 37.984375 10.453125 37.984375 14.40625 
Q 37.984375 18.0625 35.515625 20.015625 
Q 33.0625 21.96875 24.703125 23.78125 
L 21.578125 24.515625 
Q 13.234375 26.265625 9.515625 29.90625 
Q 5.8125 33.546875 5.8125 39.890625 
Q 5.8125 47.609375 11.28125 51.796875 
Q 16.75 56 26.8125 56 
Q 31.78125 56 36.171875 55.265625 
Q 40.578125 54.546875 44.28125 53.078125 
z
" id="DejaVuSans-115"/>
      <path d="M 56.203125 29.59375 
L 56.203125 25.203125 
L 14.890625 25.203125 
Q 15.484375 15.921875 20.484375 11.0625 
Q 25.484375 6.203125 34.421875 6.203125 
Q 39.59375 6.203125 44.453125 7.46875 
Q 49.3125 8.734375 54.109375 11.28125 
L 54.109375 2.78125 
Q 49.265625 0.734375 44.1875 -0.34375 
Q 39.109375 -1.421875 33.890625 -1.421875 
Q 20.796875 -1.421875 13.15625 6.1875 
Q 5.515625 13.8125 5.515625 26.8125 
Q 5.515625 40.234375 12.765625 48.109375 
Q 20.015625 56 32.328125 56 
Q 43.359375 56 49.78125 48.890625 
Q 56.203125 41.796875 56.203125 29.59375 
z
M 47.21875 32.234375 
Q 47.125 39.59375 43.09375 43.984375 
Q 39.0625 48.390625 32.421875 48.390625 
Q 24.90625 48.390625 20.390625 44.140625 
Q 15.875 39.890625 15.1875 32.171875 
z
" id="DejaVuSans-101"/>
      <path id="DejaVuSans-32"/>
      <path d="M 18.109375 8.203125 
L 18.109375 -20.796875 
L 9.078125 -20.796875 
L 9.078125 54.6875 
L 18.109375 54.6875 
L 18.109375 46.390625 
Q 20.953125 51.265625 25.265625 53.625 
Q 29.59375 56 35.59375 56 
Q 45.5625 56 51.78125 48.09375 
Q 58.015625 40.1875 58.015625 27.296875 
Q 58.015625 14.40625 51.78125 6.484375 
Q 45.5625 -1.421875 35.59375 -1.421875 
Q 29.59375 -1.421875 25.265625 0.953125 
Q 20.953125 3.328125 18.109375 8.203125 
z
M 48.6875 27.296875 
Q 48.6875 37.203125 44.609375 42.84375 
Q 40.53125 48.484375 33.40625 48.484375 
Q 26.265625 48.484375 22.1875 42.84375 
Q 18.109375 37.203125 18.109375 27.296875 
Q 18.109375 17.390625 22.1875 11.75 
Q 26.265625 6.109375 33.40625 6.109375 
Q 40.53125 6.109375 44.609375 11.75 
Q 48.6875 17.390625 48.6875 27.296875 
z
" id="DejaVuSans-112"/>
      <path d="M 30.609375 48.390625 
Q 23.390625 48.390625 19.1875 42.75 
Q 14.984375 37.109375 14.984375 27.296875 
Q 14.984375 17.484375 19.15625 11.84375 
Q 23.34375 6.203125 30.609375 6.203125 
Q 37.796875 6.203125 41.984375 11.859375 
Q 46.1875 17.53125 46.1875 27.296875 
Q 46.1875 37.015625 41.984375 42.703125 
Q 37.796875 48.390625 30.609375 48.390625 
z
M 30.609375 56 
Q 42.328125 56 49.015625 48.375 
Q 55.71875 40.765625 55.71875 27.296875 
Q 55.71875 13.875 49.015625 6.21875 
Q 42.328125 -1.421875 30.609375 -1.421875 
Q 18.84375 -1.421875 12.171875 6.21875 
Q 5.515625 13.875 5.515625 27.296875 
Q 5.515625 40.765625 12.171875 48.375 
Q 18.84375 56 30.609375 56 
z
" id="DejaVuSans-111"/>
      <path d="M 9.421875 54.6875 
L 18.40625 54.6875 
L 18.40625 0 
L 9.421875 0 
z
M 9.421875 75.984375 
L 18.40625 75.984375 
L 18.40625 64.59375 
L 9.421875 64.59375 
z
" id="DejaVuSans-105"/>
      <path d="M 18.3125 70.21875 
L 18.3125 54.6875 
L 36.8125 54.6875 
L 36.8125 47.703125 
L 18.3125 47.703125 
L 18.3125 18.015625 
Q 18.3125 11.328125 20.140625 9.421875 
Q 21.96875 7.515625 27.59375 7.515625 
L 36.8125 7.515625 
L 36.8125 0 
L 27.59375 0 
Q 17.1875 0 13.234375 3.875 
Q 9.28125 7.765625 9.28125 18.015625 
L 9.28125 47.703125 
L 2.6875 47.703125 
L 2.6875 54.6875 
L 9.28125 54.6875 
L 9.28125 70.21875 
z
" id="DejaVuSans-116"/>
      <path d="M 2.984375 54.6875 
L 12.5 54.6875 
L 29.59375 8.796875 
L 46.6875 54.6875 
L 56.203125 54.6875 
L 35.6875 0 
L 23.484375 0 
z
" id="DejaVuSans-118"/>
      <path d="M 41.109375 46.296875 
Q 39.59375 47.171875 37.8125 47.578125 
Q 36.03125 48 33.890625 48 
Q 26.265625 48 22.1875 43.046875 
Q 18.109375 38.09375 18.109375 28.8125 
L 18.109375 0 
L 9.078125 0 
L 9.078125 54.6875 
L 18.109375 54.6875 
L 18.109375 46.1875 
Q 20.953125 51.171875 25.484375 53.578125 
Q 30.03125 56 36.53125 56 
Q 37.453125 56 38.578125 55.875 
Q 39.703125 55.765625 41.0625 55.515625 
z
" id="DejaVuSans-114"/>
     </defs>
     <g transform="translate(190.21 335.860562)scale(0.1 -0.1)">
      <use xlink:href="#DejaVuSans-70"/>
      <use x="57.378906" xlink:href="#DejaVuSans-97"/>
      <use x="118.658203" xlink:href="#DejaVuSans-108"/>
      <use x="146.441406" xlink:href="#DejaVuSans-115"/>
      <use x="198.541016" xlink:href="#DejaVuSans-101"/>
      <use x="260.064453" xlink:href="#DejaVuSans-32"/>
      <use x="291.851562" xlink:href="#DejaVuSans-112"/>
      <use x="355.328125" xlink:href="#DejaVuSans-111"/>
      <use x="416.509766" xlink:href="#DejaVuSans-115"/>
      <use x="468.609375" xlink:href="#DejaVuSans-105"/>
      <use x="496.392578" xlink:href="#DejaVuSans-116"/>
      <use x="535.601562" xlink:href="#DejaVuSans-105"/>
      <use x="563.384766" xlink:href="#DejaVuSans-118"/>
      <use x="622.564453" xlink:href="#DejaVuSans-101"/>
      <use x="684.087891" xlink:href="#DejaVuSans-32"/>
      <use x="715.875" xlink:href="#DejaVuSans-114"/>
      <use x="756.988281" xlink:href="#DejaVuSans-97"/>
      <use x="818.267578" xlink:href="#DejaVuSans-116"/>
      <use x="857.476562" xlink:href="#DejaVuSans-101"/>
     </g>
    </g>
   </g>
   <g id="matplotlib.axis_2">
    <g id="ytick_1">
     <g id="line2d_7">
      <defs>
       <path d="M 0 0 
L -3.5 0 
" id="m21c8832881" style="stroke:#000000;stroke-width:0.8;"/>
      </defs>
      <g>
       <use style="stroke:#000000;stroke-width:0.8;" x="57.6" xlink:href="#m21c8832881" y="295.488"/>
      </g>
     </g>
     <g id="text_8">
      <!-- 0.0 -->
      <g transform="translate(34.696875 299.287219)scale(0.1 -0.1)">
       <use xlink:href="#DejaVuSans-48"/>
       <use x="63.623047" xlink:href="#DejaVuSans-46"/>
       <use x="95.410156" xlink:href="#DejaVuSans-48"/>
      </g>
     </g>
    </g>
    <g id="ytick_2">
     <g id="line2d_8">
      <g>
       <use style="stroke:#000000;stroke-width:0.8;" x="57.6" xlink:href="#m21c8832881" y="247.104"/>
      </g>
     </g>
     <g id="text_9">
      <!-- 0.2 -->
      <g transform="translate(34.696875 250.903219)scale(0.1 -0.1)">
       <use xlink:href="#DejaVuSans-48"/>
       <use x="63.623047" xlink:href="#DejaVuSans-46"/>
       <use x="95.410156" xlink:href="#DejaVuSans-50"/>
      </g>
     </g>
    </g>
    <g id="ytick_3">
     <g id="line2d_9">
      <g>
       <use style="stroke:#000000;stroke-width:0.8;" x="57.6" xlink:href="#m21c8832881" y="198.72"/>
      </g>
     </g>
     <g id="text_10">
      <!-- 0.4 -->
      <g transform="translate(34.696875 202.519219)scale(0.1 -0.1)">
       <use xlink:href="#DejaVuSans-48"/>
       <use x="63.623047" xlink:href="#DejaVuSans-46"/>
       <use x="95.410156" xlink:href="#DejaVuSans-52"/>
      </g>
     </g>
    </g>
    <g id="ytick_4">
     <g id="line2d_10">
      <g>
       <use style="stroke:#000000;stroke-width:0.8;" x="57.6" xlink:href="#m21c8832881" y="150.336"/>
      </g>
     </g>
     <g id="text_11">
      <!-- 0.6 -->
      <g transform="translate(34.696875 154.135219)scale(0.1 -0.1)">
       <use xlink:href="#DejaVuSans-48"/>
       <use x="63.623047" xlink:href="#DejaVuSans-46"/>
       <use x="95.410156" xlink:href="#DejaVuSans-54"/>
      </g>
     </g>
    </g>
    <g id="ytick_5">
     <g id="line2d_11">
      <g>
       <use style="stroke:#000000;stroke-width:0.8;" x="57.6" xlink:href="#m21c8832881" y="101.952"/>
      </g>
     </g>
     <g id="text_12">
      <!-- 0.8 -->
      <g transform="translate(34.696875 105.751219)scale(0.1 -0.1)">
       <use xlink:href="#DejaVuSans-48"/>
       <use x="63.623047" xlink:href="#DejaVuSans-46"/>
       <use x="95.410156" xlink:href="#DejaVuSans-56"/>
      </g>
     </g>
    </g>
    <g id="ytick_6">
     <g id="line2d_12">
      <g>
       <use style="stroke:#000000;stroke-width:0.8;" x="57.6" xlink:href="#m21c8832881" y="53.568"/>
      </g>
     </g>
     <g id="text_13">
      <!-- 1.0 -->
      <g transform="translate(34.696875 57.367219)scale(0.1 -0.1)">
       <use xlink:href="#DejaVuSans-49"/>
       <use x="63.623047" xlink:href="#DejaVuSans-46"/>
       <use x="95.410156" xlink:href="#DejaVuSans-48"/>
      </g>
     </g>
    </g>
    <g id="text_14">
     <!-- True positive rate -->
     <defs>
      <path d="M -0.296875 72.90625 
L 61.375 72.90625 
L 61.375 64.59375 
L 35.5 64.59375 
L 35.5 0 
L 25.59375 0 
L 25.59375 64.59375 
L -0.296875 64.59375 
z
" id="DejaVuSans-84"/>
      <path d="M 8.5 21.578125 
L 8.5 54.6875 
L 17.484375 54.6875 
L 17.484375 21.921875 
Q 17.484375 14.15625 20.5 10.265625 
Q 23.53125 6.390625 29.59375 6.390625 
Q 36.859375 6.390625 41.078125 11.03125 
Q 45.3125 15.671875 45.3125 23.6875 
L 45.3125 54.6875 
L 54.296875 54.6875 
L 54.296875 0 
L 45.3125 0 
L 45.3125 8.40625 
Q 42.046875 3.421875 37.71875 1 
Q 33.40625 -1.421875 27.6875 -1.421875 
Q 18.265625 -1.421875 13.375 4.4375 
Q 8.5 10.296875 8.5 21.578125 
z
M 31.109375 56 
z
" id="DejaVuSans-117"/>
     </defs>
     <g transform="translate(28.617187 218.818625)rotate(-90)scale(0.1 -0.1)">
      <use xlink:href="#DejaVuSans-84"/>
      <use x="60.865234" xlink:href="#DejaVuSans-114"/>
      <use x="101.978516" xlink:href="#DejaVuSans-117"/>
      <use x="165.357422" xlink:href="#DejaVuSans-101"/>
      <use x="226.880859" xlink:href="#DejaVuSans-32"/>
      <use x="258.667969" xlink:href="#DejaVuSans-112"/>
      <use x="322.144531" xlink:href="#DejaVuSans-111"/>
      <use x="383.326172" xlink:href="#DejaVuSans-115"/>
      <use x="435.425781" xlink:href="#DejaVuSans-105"/>
      <use x="463.208984" xlink:href="#DejaVuSans-116"/>
      <use x="502.417969" xlink:href="#DejaVuSans-105"/>
      <use x="530.201172" xlink:href="#DejaVuSans-118"/>
      <use x="589.380859" xlink:href="#DejaVuSans-101"/>
      <use x="650.904297" xlink:href="#DejaVuSans-32"/>
      <use x="682.691406" xlink:href="#DejaVuSans-114"/>
      <use x="723.804688" xlink:href="#DejaVuSans-97"/>
      <use x="785.083984" xlink:href="#DejaVuSans-116"/>
      <use x="824.292969" xlink:href="#DejaVuSans-101"/>
     </g>
    </g>
   </g>
   <g id="line2d_13">
    <path clip-path="url(#p114a62f84c)" d="M 73.832727 295.488 
L 398.487273 53.568 
" style="fill:none;stroke:#000000;stroke-dasharray:5.55,2.4;stroke-dashoffset:0;stroke-width:1.5;"/>
   </g>
   <g id="line2d_14">
    <path clip-path="url(#p114a62f84c)" d="M 73.832727 295.488 
L 73.832727 294.419449 
L 76.369091 294.419449 
L 76.369091 292.496057 
L 78.905455 292.496057 
L 78.905455 287.367011 
L 81.441818 287.367011 
L 81.441818 287.1533 
L 83.978182 287.1533 
L 83.978182 280.741993 
L 86.514545 280.741993 
L 86.514545 279.887152 
L 89.050909 279.887152 
L 89.050909 255.951604 
L 91.587273 255.951604 
L 91.587273 229.237823 
L 94.123636 229.237823 
L 94.123636 228.169272 
L 99.196364 228.169272 
L 99.196364 225.177329 
L 101.732727 225.177329 
L 101.732727 223.467647 
L 104.269091 223.467647 
L 104.269091 218.979731 
L 106.805455 218.979731 
L 106.805455 216.415208 
L 109.341818 216.415208 
L 109.341818 214.705527 
L 111.878182 214.705527 
L 111.878182 203.165173 
L 114.414545 203.165173 
L 114.414545 193.334502 
L 116.950909 193.334502 
L 116.950909 184.572382 
L 119.487273 184.572382 
L 119.487273 182.648989 
L 122.023636 182.648989 
L 122.023636 180.084466 
L 124.56 180.084466 
L 124.56 174.31429 
L 127.096364 174.31429 
L 127.096364 168.757823 
L 132.169091 168.757823 
L 132.169091 162.773936 
L 134.705455 162.773936 
L 134.705455 159.995703 
L 137.241818 159.995703 
L 137.241818 154.439237 
L 139.778182 154.439237 
L 139.778182 152.088424 
L 142.314545 152.088424 
L 142.314545 146.959378 
L 144.850909 146.959378 
L 144.850909 144.181145 
L 147.387273 144.181145 
L 147.387273 140.548071 
L 149.923636 140.548071 
L 149.923636 135.846445 
L 152.46 135.846445 
L 152.46 134.777894 
L 154.996364 134.777894 
L 154.996364 133.281922 
L 157.532727 133.281922 
L 157.532727 131.57224 
L 160.069091 131.57224 
L 160.069091 131.14482 
L 162.605455 131.14482 
L 162.605455 129.648848 
L 165.141818 129.648848 
L 165.141818 129.221428 
L 167.678182 129.221428 
L 167.678182 126.229484 
L 170.214545 126.229484 
L 170.214545 123.878671 
L 172.750909 123.878671 
L 172.750909 123.02383 
L 175.287273 123.02383 
L 175.287273 122.59641 
L 177.823636 122.59641 
L 177.823636 121.527859 
L 180.36 121.527859 
L 180.36 116.398813 
L 182.896364 116.398813 
L 182.896364 115.543972 
L 185.432727 115.543972 
L 185.432727 114.048 
L 187.969091 114.048 
L 187.969091 113.83429 
L 195.578182 113.83429 
L 195.578182 113.62058 
L 200.650909 113.62058 
L 200.650909 112.979449 
L 205.723636 112.979449 
L 205.723636 112.765739 
L 210.796364 112.765739 
L 210.796364 112.552028 
L 213.332727 112.552028 
L 213.332727 112.338318 
L 215.869091 112.338318 
L 215.869091 112.124608 
L 218.405455 112.124608 
L 218.405455 111.910898 
L 220.941818 111.910898 
L 220.941818 111.697187 
L 223.478182 111.697187 
L 223.478182 111.483477 
L 226.014545 111.483477 
L 226.014545 110.628636 
L 228.550909 110.628636 
L 228.550909 109.773795 
L 231.087273 109.773795 
L 231.087273 108.918954 
L 238.696364 108.918954 
L 238.696364 108.491534 
L 241.232727 108.491534 
L 241.232727 108.277823 
L 248.841818 108.277823 
L 248.841818 107.850403 
L 251.378182 107.850403 
L 251.378182 107.636693 
L 256.450909 107.636693 
L 256.450909 107.209272 
L 258.987273 107.209272 
L 258.987273 106.568141 
L 261.523636 106.568141 
L 261.523636 105.7133 
L 264.06 105.7133 
L 264.06 105.49959 
L 266.596364 105.49959 
L 266.596364 104.217329 
L 271.669091 104.217329 
L 271.669091 102.721357 
L 274.205455 102.721357 
L 274.205455 101.866516 
L 276.741818 101.866516 
L 276.741818 101.011675 
L 279.278182 101.011675 
L 279.278182 100.584254 
L 281.814545 100.584254 
L 281.814545 99.729413 
L 284.350909 99.729413 
L 284.350909 99.515703 
L 286.887273 99.515703 
L 286.887273 97.592311 
L 294.496364 97.592311 
L 294.496364 95.027788 
L 297.032727 95.027788 
L 297.032727 94.600367 
L 299.569091 94.600367 
L 299.569091 93.104396 
L 302.105455 93.104396 
L 302.105455 91.608424 
L 304.641818 91.608424 
L 304.641818 90.112452 
L 309.714545 90.112452 
L 309.714545 89.257611 
L 314.787273 89.257611 
L 314.787273 88.830191 
L 317.323636 88.830191 
L 317.323636 88.616481 
L 319.86 88.616481 
L 319.86 87.334219 
L 322.396364 87.334219 
L 322.396364 86.906799 
L 324.932727 86.906799 
L 324.932727 86.051958 
L 327.469091 86.051958 
L 327.469091 85.838247 
L 332.541818 85.838247 
L 332.541818 85.410827 
L 335.078182 85.410827 
L 335.078182 85.197117 
L 337.614545 85.197117 
L 337.614545 84.983406 
L 342.687273 84.983406 
L 342.687273 81.350332 
L 345.223636 81.350332 
L 345.223636 80.068071 
L 347.76 80.068071 
L 347.76 78.572099 
L 350.296364 78.572099 
L 350.296364 78.358389 
L 352.832727 78.358389 
L 352.832727 77.503548 
L 355.369091 77.503548 
L 355.369091 77.076127 
L 357.905455 77.076127 
L 357.905455 75.580155 
L 360.441818 75.580155 
L 360.441818 75.152735 
L 368.050909 75.152735 
L 368.050909 74.297894 
L 370.587273 74.297894 
L 370.587273 73.870473 
L 373.123636 73.870473 
L 373.123636 68.314007 
L 380.732727 68.314007 
L 380.732727 67.031746 
L 383.269091 67.031746 
L 383.269091 66.604325 
L 385.805455 66.604325 
L 385.805455 66.390615 
L 388.341818 66.390615 
L 388.341818 65.535774 
L 390.878182 65.535774 
L 390.878182 64.894643 
L 393.414545 64.894643 
L 393.414545 64.467223 
L 395.950909 64.467223 
L 395.950909 63.612382 
L 398.487273 63.612382 
L 398.487273 53.568 
L 398.487273 53.568 
" style="fill:none;stroke:#1f77b4;stroke-linecap:square;stroke-width:1.5;"/>
   </g>
   <g id="line2d_15">
    <path clip-path="url(#p114a62f84c)" d="M 73.832727 295.488 
L 73.832727 276.895208 
L 76.369091 276.895208 
L 76.369091 257.661286 
L 78.905455 257.661286 
L 78.905455 249.112876 
L 81.441818 249.112876 
L 81.441818 244.624961 
L 83.978182 244.624961 
L 83.978182 220.261993 
L 86.514545 220.261993 
L 86.514545 218.766021 
L 89.050909 218.766021 
L 89.050909 215.560367 
L 91.587273 215.560367 
L 91.587273 214.919237 
L 94.123636 214.919237 
L 94.123636 210.645032 
L 96.66 210.645032 
L 96.66 197.181286 
L 99.196364 197.181286 
L 99.196364 194.616763 
L 101.732727 194.616763 
L 101.732727 191.197399 
L 104.269091 191.197399 
L 104.269091 188.846587 
L 106.805455 188.846587 
L 106.805455 187.991746 
L 109.341818 187.991746 
L 109.341818 153.584396 
L 111.878182 153.584396 
L 111.878182 151.661004 
L 114.414545 151.661004 
L 114.414545 140.548071 
L 119.487273 140.548071 
L 119.487273 136.487576 
L 124.56 136.487576 
L 124.56 136.060155 
L 127.096364 136.060155 
L 127.096364 128.366587 
L 129.632727 128.366587 
L 129.632727 127.511746 
L 132.169091 127.511746 
L 132.169091 125.588353 
L 134.705455 125.588353 
L 134.705455 123.664961 
L 142.314545 123.664961 
L 142.314545 121.741569 
L 144.850909 121.741569 
L 144.850909 121.100438 
L 147.387273 121.100438 
L 147.387273 120.673018 
L 149.923636 120.673018 
L 149.923636 120.245597 
L 152.46 120.245597 
L 152.46 119.177046 
L 154.996364 119.177046 
L 154.996364 118.963336 
L 157.532727 118.963336 
L 157.532727 118.535915 
L 160.069091 118.535915 
L 160.069091 117.894784 
L 162.605455 117.894784 
L 162.605455 116.612523 
L 165.141818 116.612523 
L 165.141818 115.116551 
L 167.678182 115.116551 
L 167.678182 113.83429 
L 170.214545 113.83429 
L 170.214545 111.910898 
L 172.750909 111.910898 
L 172.750909 111.056057 
L 175.287273 111.056057 
L 175.287273 110.414926 
L 177.823636 110.414926 
L 177.823636 110.201216 
L 180.36 110.201216 
L 180.36 109.987505 
L 182.896364 109.987505 
L 182.896364 109.560085 
L 185.432727 109.560085 
L 185.432727 105.927011 
L 187.969091 105.927011 
L 187.969091 105.49959 
L 190.505455 105.49959 
L 190.505455 105.07217 
L 193.041818 105.07217 
L 193.041818 104.431039 
L 195.578182 104.431039 
L 195.578182 104.003618 
L 205.723636 104.003618 
L 205.723636 103.576198 
L 208.26 103.576198 
L 208.26 103.362488 
L 213.332727 103.362488 
L 213.332727 100.156834 
L 215.869091 100.156834 
L 215.869091 99.943124 
L 218.405455 99.943124 
L 218.405455 99.729413 
L 220.941818 99.729413 
L 220.941818 99.301993 
L 226.014545 99.301993 
L 226.014545 98.233442 
L 228.550909 98.233442 
L 228.550909 97.592311 
L 231.087273 97.592311 
L 231.087273 97.378601 
L 233.623636 97.378601 
L 233.623636 97.16489 
L 236.16 97.16489 
L 236.16 96.95118 
L 238.696364 96.95118 
L 238.696364 96.310049 
L 241.232727 96.310049 
L 241.232727 96.096339 
L 246.305455 96.096339 
L 246.305455 95.668919 
L 248.841818 95.668919 
L 248.841818 94.814078 
L 251.378182 94.814078 
L 251.378182 94.600367 
L 253.914545 94.600367 
L 253.914545 93.959237 
L 256.450909 93.959237 
L 256.450909 93.531816 
L 261.523636 93.531816 
L 261.523636 92.676975 
L 264.06 92.676975 
L 264.06 92.035845 
L 266.596364 92.035845 
L 266.596364 91.394714 
L 269.132727 91.394714 
L 269.132727 90.967293 
L 271.669091 90.967293 
L 271.669091 90.112452 
L 274.205455 90.112452 
L 274.205455 89.471322 
L 279.278182 89.471322 
L 279.278182 88.830191 
L 281.814545 88.830191 
L 281.814545 88.40277 
L 284.350909 88.40277 
L 284.350909 82.418883 
L 286.887273 82.418883 
L 286.887273 81.777753 
L 291.96 81.777753 
L 291.96 81.136622 
L 294.496364 81.136622 
L 294.496364 80.922912 
L 297.032727 80.922912 
L 297.032727 80.709201 
L 299.569091 80.709201 
L 299.569091 80.495491 
L 304.641818 80.495491 
L 304.641818 78.572099 
L 312.250909 78.572099 
L 312.250909 77.717258 
L 314.787273 77.717258 
L 314.787273 75.580155 
L 322.396364 75.580155 
L 322.396364 74.725314 
L 324.932727 74.725314 
L 324.932727 73.656763 
L 327.469091 73.656763 
L 327.469091 72.588212 
L 330.005455 72.588212 
L 330.005455 71.733371 
L 332.541818 71.733371 
L 332.541818 71.519661 
L 337.614545 71.519661 
L 337.614545 70.87853 
L 340.150909 70.87853 
L 340.150909 69.596269 
L 342.687273 69.596269 
L 342.687273 67.459166 
L 347.76 67.459166 
L 347.76 66.604325 
L 350.296364 66.604325 
L 350.296364 66.390615 
L 355.369091 66.390615 
L 355.369091 63.826092 
L 357.905455 63.826092 
L 357.905455 62.971251 
L 360.441818 62.971251 
L 360.441818 62.54383 
L 362.978182 62.54383 
L 362.978182 61.9027 
L 365.514545 61.9027 
L 365.514545 61.688989 
L 370.587273 61.688989 
L 370.587273 59.551887 
L 375.66 59.551887 
L 375.66 58.269625 
L 380.732727 58.269625 
L 380.732727 56.773654 
L 383.269091 56.773654 
L 383.269091 55.491392 
L 385.805455 55.491392 
L 385.805455 55.277682 
L 388.341818 55.277682 
L 388.341818 55.063972 
L 393.414545 55.063972 
L 393.414545 54.850261 
L 395.950909 54.850261 
L 395.950909 54.636551 
L 398.487273 54.636551 
L 398.487273 53.568 
L 398.487273 53.568 
" style="fill:none;stroke:#ff7f0e;stroke-linecap:square;stroke-width:1.5;"/>
   </g>
   <g id="line2d_16">
    <path clip-path="url(#p114a62f84c)" d="M 73.832727 295.488 
L 73.832727 94.386657 
L 76.369091 94.386657 
L 76.369091 92.676975 
L 81.441818 92.676975 
L 81.441818 92.463265 
L 83.978182 92.463265 
L 83.978182 90.112452 
L 89.050909 90.112452 
L 89.050909 89.043901 
L 91.587273 89.043901 
L 91.587273 88.18906 
L 96.66 88.18906 
L 96.66 87.76164 
L 99.196364 87.76164 
L 99.196364 87.120509 
L 106.805455 87.120509 
L 106.805455 86.479378 
L 114.414545 86.479378 
L 114.414545 85.410827 
L 116.950909 85.410827 
L 116.950909 84.769696 
L 119.487273 84.769696 
L 119.487273 84.555986 
L 122.023636 84.555986 
L 122.023636 83.487435 
L 124.56 83.487435 
L 124.56 83.060014 
L 127.096364 83.060014 
L 127.096364 81.564042 
L 129.632727 81.564042 
L 129.632727 81.136622 
L 137.241818 81.136622 
L 137.241818 80.495491 
L 142.314545 80.495491 
L 142.314545 80.281781 
L 144.850909 80.281781 
L 144.850909 79.42694 
L 147.387273 79.42694 
L 147.387273 79.21323 
L 149.923636 79.21323 
L 149.923636 78.999519 
L 152.46 78.999519 
L 152.46 78.572099 
L 154.996364 78.572099 
L 154.996364 78.144678 
L 157.532727 78.144678 
L 157.532727 77.717258 
L 160.069091 77.717258 
L 160.069091 77.503548 
L 162.605455 77.503548 
L 162.605455 77.289837 
L 167.678182 77.289837 
L 167.678182 77.076127 
L 172.750909 77.076127 
L 172.750909 76.862417 
L 175.287273 76.862417 
L 175.287273 76.648707 
L 185.432727 76.648707 
L 185.432727 75.793866 
L 187.969091 75.793866 
L 187.969091 75.580155 
L 190.505455 75.580155 
L 190.505455 74.084184 
L 193.041818 74.084184 
L 193.041818 73.870473 
L 195.578182 73.870473 
L 195.578182 73.656763 
L 200.650909 73.656763 
L 200.650909 73.229343 
L 210.796364 73.229343 
L 210.796364 72.801922 
L 213.332727 72.801922 
L 213.332727 72.588212 
L 218.405455 72.588212 
L 218.405455 72.374502 
L 223.478182 72.374502 
L 223.478182 72.160792 
L 231.087273 72.160792 
L 231.087273 71.947081 
L 233.623636 71.947081 
L 233.623636 71.305951 
L 236.16 71.305951 
L 236.16 71.09224 
L 243.769091 71.09224 
L 243.769091 70.87853 
L 251.378182 70.87853 
L 251.378182 70.66482 
L 274.205455 70.66482 
L 274.205455 70.45111 
L 279.278182 70.45111 
L 279.278182 70.237399 
L 281.814545 70.237399 
L 281.814545 70.023689 
L 297.032727 70.023689 
L 297.032727 69.809979 
L 299.569091 69.809979 
L 299.569091 69.596269 
L 304.641818 69.596269 
L 304.641818 69.168848 
L 307.178182 69.168848 
L 307.178182 68.955138 
L 317.323636 68.955138 
L 317.323636 68.741428 
L 330.005455 68.741428 
L 330.005455 68.527717 
L 342.687273 68.527717 
L 342.687273 68.314007 
L 345.223636 68.314007 
L 345.223636 68.100297 
L 350.296364 68.100297 
L 350.296364 67.672876 
L 355.369091 67.672876 
L 355.369091 67.459166 
L 357.905455 67.459166 
L 357.905455 67.031746 
L 360.441818 67.031746 
L 360.441818 66.604325 
L 362.978182 66.604325 
L 362.978182 65.535774 
L 373.123636 65.535774 
L 373.123636 65.322064 
L 375.66 65.322064 
L 375.66 64.894643 
L 380.732727 64.894643 
L 380.732727 64.253512 
L 385.805455 64.253512 
L 385.805455 61.9027 
L 388.341818 61.9027 
L 388.341818 60.834148 
L 390.878182 60.834148 
L 390.878182 59.551887 
L 395.950909 59.551887 
L 395.950909 56.559943 
L 398.487273 56.559943 
L 398.487273 53.568 
L 398.487273 53.568 
" style="fill:none;stroke:#2ca02c;stroke-linecap:square;stroke-width:1.5;"/>
   </g>
   <g id="line2d_17">
    <path clip-path="url(#p114a62f84c)" d="M 73.832727 295.488 
L 73.832727 235.649131 
L 76.369091 235.649131 
L 76.369091 232.229767 
L 78.905455 232.229767 
L 78.905455 224.749908 
L 81.441818 224.749908 
L 81.441818 222.399095 
L 83.978182 222.399095 
L 83.978182 221.544254 
L 86.514545 221.544254 
L 86.514545 208.72164 
L 89.050909 208.72164 
L 89.050909 195.685314 
L 91.587273 195.685314 
L 91.587273 193.761922 
L 94.123636 193.761922 
L 94.123636 192.693371 
L 96.66 192.693371 
L 96.66 185.854643 
L 99.196364 185.854643 
L 99.196364 184.144961 
L 101.732727 184.144961 
L 101.732727 178.374784 
L 106.805455 178.374784 
L 106.805455 177.519943 
L 109.341818 177.519943 
L 109.341818 175.810261 
L 111.878182 175.810261 
L 111.878182 175.596551 
L 114.414545 175.596551 
L 114.414545 172.390898 
L 116.950909 172.390898 
L 116.950909 170.894926 
L 119.487273 170.894926 
L 119.487273 170.253795 
L 122.023636 170.253795 
L 122.023636 169.612664 
L 124.56 169.612664 
L 124.56 167.902982 
L 127.096364 167.902982 
L 127.096364 167.689272 
L 129.632727 167.689272 
L 129.632727 160.850544 
L 134.705455 160.850544 
L 134.705455 158.499731 
L 137.241818 158.499731 
L 137.241818 155.721498 
L 139.778182 155.721498 
L 139.778182 154.439237 
L 142.314545 154.439237 
L 142.314545 152.302134 
L 144.850909 152.302134 
L 144.850909 151.019873 
L 147.387273 151.019873 
L 147.387273 149.310191 
L 149.923636 149.310191 
L 149.923636 147.600509 
L 152.46 147.600509 
L 152.46 147.386799 
L 154.996364 147.386799 
L 154.996364 146.104537 
L 160.069091 146.104537 
L 160.069091 145.677117 
L 162.605455 145.677117 
L 162.605455 143.540014 
L 165.141818 143.540014 
L 165.141818 141.830332 
L 167.678182 141.830332 
L 167.678182 139.69323 
L 170.214545 139.69323 
L 170.214545 137.983548 
L 172.750909 137.983548 
L 172.750909 131.785951 
L 175.287273 131.785951 
L 175.287273 123.237541 
L 177.823636 123.237541 
L 177.823636 119.604466 
L 180.36 119.604466 
L 180.36 117.894784 
L 182.896364 117.894784 
L 182.896364 113.83429 
L 187.969091 113.83429 
L 187.969091 111.056057 
L 190.505455 111.056057 
L 190.505455 110.628636 
L 193.041818 110.628636 
L 193.041818 109.987505 
L 195.578182 109.987505 
L 195.578182 108.491534 
L 198.114545 108.491534 
L 198.114545 106.781852 
L 203.187273 106.781852 
L 203.187273 103.576198 
L 205.723636 103.576198 
L 205.723636 102.935067 
L 208.26 102.935067 
L 208.26 100.584254 
L 210.796364 100.584254 
L 210.796364 100.156834 
L 213.332727 100.156834 
L 213.332727 97.592311 
L 215.869091 97.592311 
L 215.869091 97.378601 
L 218.405455 97.378601 
L 218.405455 96.95118 
L 223.478182 96.95118 
L 223.478182 95.882629 
L 226.014545 95.882629 
L 226.014545 93.959237 
L 228.550909 93.959237 
L 228.550909 93.531816 
L 231.087273 93.531816 
L 231.087273 92.676975 
L 233.623636 92.676975 
L 233.623636 92.249555 
L 236.16 92.249555 
L 236.16 91.822134 
L 238.696364 91.822134 
L 238.696364 91.608424 
L 241.232727 91.608424 
L 241.232727 90.112452 
L 246.305455 90.112452 
L 246.305455 89.898742 
L 248.841818 89.898742 
L 248.841818 89.685032 
L 251.378182 89.685032 
L 251.378182 89.471322 
L 256.450909 89.471322 
L 256.450909 88.18906 
L 258.987273 88.18906 
L 258.987273 87.547929 
L 261.523636 87.547929 
L 261.523636 86.265668 
L 264.06 86.265668 
L 264.06 86.051958 
L 266.596364 86.051958 
L 266.596364 84.769696 
L 269.132727 84.769696 
L 269.132727 83.060014 
L 271.669091 83.060014 
L 271.669091 80.709201 
L 274.205455 80.709201 
L 274.205455 77.289837 
L 276.741818 77.289837 
L 276.741818 76.007576 
L 279.278182 76.007576 
L 279.278182 75.152735 
L 281.814545 75.152735 
L 281.814545 74.511604 
L 284.350909 74.511604 
L 284.350909 73.229343 
L 286.887273 73.229343 
L 286.887273 72.160792 
L 289.423636 72.160792 
L 289.423636 71.947081 
L 297.032727 71.947081 
L 297.032727 71.519661 
L 302.105455 71.519661 
L 302.105455 70.237399 
L 304.641818 70.237399 
L 304.641818 69.809979 
L 309.714545 69.809979 
L 309.714545 69.382558 
L 312.250909 69.382558 
L 312.250909 67.886587 
L 317.323636 67.886587 
L 317.323636 67.245456 
L 324.932727 67.245456 
L 324.932727 66.390615 
L 330.005455 66.390615 
L 330.005455 65.963194 
L 340.150909 65.963194 
L 340.150909 65.749484 
L 342.687273 65.749484 
L 342.687273 65.535774 
L 347.76 65.535774 
L 347.76 65.322064 
L 350.296364 65.322064 
L 350.296364 64.680933 
L 352.832727 64.680933 
L 352.832727 64.467223 
L 360.441818 64.467223 
L 360.441818 64.253512 
L 365.514545 64.253512 
L 365.514545 63.826092 
L 368.050909 63.826092 
L 368.050909 63.612382 
L 370.587273 63.612382 
L 370.587273 63.398671 
L 380.732727 63.398671 
L 380.732727 62.971251 
L 385.805455 62.971251 
L 385.805455 58.055915 
L 388.341818 58.055915 
L 388.341818 57.201074 
L 390.878182 57.201074 
L 390.878182 56.559943 
L 395.950909 56.559943 
L 395.950909 56.346233 
L 398.487273 56.346233 
L 398.487273 53.568 
L 398.487273 53.568 
" style="fill:none;stroke:#d62728;stroke-linecap:square;stroke-width:1.5;"/>
   </g>
   <g id="patch_3">
    <path d="M 57.6 307.584 
L 57.6 41.472 
" style="fill:none;stroke:#000000;stroke-linecap:square;stroke-linejoin:miter;stroke-width:0.8;"/>
   </g>
   <g id="patch_4">
    <path d="M 414.72 307.584 
L 414.72 41.472 
" style="fill:none;stroke:#000000;stroke-linecap:square;stroke-linejoin:miter;stroke-width:0.8;"/>
   </g>
   <g id="patch_5">
    <path d="M 57.6 307.584 
L 414.72 307.584 
" style="fill:none;stroke:#000000;stroke-linecap:square;stroke-linejoin:miter;stroke-width:0.8;"/>
   </g>
   <g id="patch_6">
    <path d="M 57.6 41.472 
L 414.72 41.472 
" style="fill:none;stroke:#000000;stroke-linecap:square;stroke-linejoin:miter;stroke-width:0.8;"/>
   </g>
   <g id="text_15">
    <!-- ORI ROC -->
    <defs>
     <path d="M 39.40625 66.21875 
Q 28.65625 66.21875 22.328125 58.203125 
Q 16.015625 50.203125 16.015625 36.375 
Q 16.015625 22.609375 22.328125 14.59375 
Q 28.65625 6.59375 39.40625 6.59375 
Q 50.140625 6.59375 56.421875 14.59375 
Q 62.703125 22.609375 62.703125 36.375 
Q 62.703125 50.203125 56.421875 58.203125 
Q 50.140625 66.21875 39.40625 66.21875 
z
M 39.40625 74.21875 
Q 54.734375 74.21875 63.90625 63.9375 
Q 73.09375 53.65625 73.09375 36.375 
Q 73.09375 19.140625 63.90625 8.859375 
Q 54.734375 -1.421875 39.40625 -1.421875 
Q 24.03125 -1.421875 14.8125 8.828125 
Q 5.609375 19.09375 5.609375 36.375 
Q 5.609375 53.65625 14.8125 63.9375 
Q 24.03125 74.21875 39.40625 74.21875 
z
" id="DejaVuSans-79"/>
     <path d="M 44.390625 34.1875 
Q 47.5625 33.109375 50.5625 29.59375 
Q 53.5625 26.078125 56.59375 19.921875 
L 66.609375 0 
L 56 0 
L 46.6875 18.703125 
Q 43.0625 26.03125 39.671875 28.421875 
Q 36.28125 30.8125 30.421875 30.8125 
L 19.671875 30.8125 
L 19.671875 0 
L 9.8125 0 
L 9.8125 72.90625 
L 32.078125 72.90625 
Q 44.578125 72.90625 50.734375 67.671875 
Q 56.890625 62.453125 56.890625 51.90625 
Q 56.890625 45.015625 53.6875 40.46875 
Q 50.484375 35.9375 44.390625 34.1875 
z
M 19.671875 64.796875 
L 19.671875 38.921875 
L 32.078125 38.921875 
Q 39.203125 38.921875 42.84375 42.21875 
Q 46.484375 45.515625 46.484375 51.90625 
Q 46.484375 58.296875 42.84375 61.546875 
Q 39.203125 64.796875 32.078125 64.796875 
z
" id="DejaVuSans-82"/>
     <path d="M 9.8125 72.90625 
L 19.671875 72.90625 
L 19.671875 0 
L 9.8125 0 
z
" id="DejaVuSans-73"/>
     <path d="M 64.40625 67.28125 
L 64.40625 56.890625 
Q 59.421875 61.53125 53.78125 63.8125 
Q 48.140625 66.109375 41.796875 66.109375 
Q 29.296875 66.109375 22.65625 58.46875 
Q 16.015625 50.828125 16.015625 36.375 
Q 16.015625 21.96875 22.65625 14.328125 
Q 29.296875 6.6875 41.796875 6.6875 
Q 48.140625 6.6875 53.78125 8.984375 
Q 59.421875 11.28125 64.40625 15.921875 
L 64.40625 5.609375 
Q 59.234375 2.09375 53.4375 0.328125 
Q 47.65625 -1.421875 41.21875 -1.421875 
Q 24.65625 -1.421875 15.125 8.703125 
Q 5.609375 18.84375 5.609375 36.375 
Q 5.609375 53.953125 15.125 64.078125 
Q 24.65625 74.21875 41.21875 74.21875 
Q 47.75 74.21875 53.53125 72.484375 
Q 59.328125 70.75 64.40625 67.28125 
z
" id="DejaVuSans-67"/>
    </defs>
    <g transform="translate(210.509062 35.472)scale(0.12 -0.12)">
     <use xlink:href="#DejaVuSans-79"/>
     <use x="78.710938" xlink:href="#DejaVuSans-82"/>
     <use x="148.193359" xlink:href="#DejaVuSans-73"/>
     <use x="177.685547" xlink:href="#DejaVuSans-32"/>
     <use x="209.472656" xlink:href="#DejaVuSans-82"/>
     <use x="278.955078" xlink:href="#DejaVuSans-79"/>
     <use x="357.666016" xlink:href="#DejaVuSans-67"/>
    </g>
   </g>
   <g id="legend_1">
    <g id="patch_7">
     <path d="M 318.545 302.584 
L 407.72 302.584 
Q 409.72 302.584 409.72 300.584 
L 409.72 242.8715 
Q 409.72 240.8715 407.72 240.8715 
L 318.545 240.8715 
Q 316.545 240.8715 316.545 242.8715 
L 316.545 300.584 
Q 316.545 302.584 318.545 302.584 
z
" style="fill:#ffffff;opacity:0.8;stroke:#cccccc;stroke-linejoin:miter;"/>
    </g>
    <g id="line2d_18">
     <path d="M 320.545 248.969937 
L 340.545 248.969937 
" style="fill:none;stroke:#1f77b4;stroke-linecap:square;stroke-width:1.5;"/>
    </g>
    <g id="line2d_19"/>
    <g id="text_16">
     <!-- iForest -->
     <g transform="translate(348.545 252.469937)scale(0.1 -0.1)">
      <use xlink:href="#DejaVuSans-105"/>
      <use x="27.783203" xlink:href="#DejaVuSans-70"/>
      <use x="85.255859" xlink:href="#DejaVuSans-111"/>
      <use x="146.4375" xlink:href="#DejaVuSans-114"/>
      <use x="187.519531" xlink:href="#DejaVuSans-101"/>
      <use x="249.042969" xlink:href="#DejaVuSans-115"/>
      <use x="301.142578" xlink:href="#DejaVuSans-116"/>
     </g>
    </g>
    <g id="line2d_20">
     <path d="M 320.545 263.648062 
L 340.545 263.648062 
" style="fill:none;stroke:#ff7f0e;stroke-linecap:square;stroke-width:1.5;"/>
    </g>
    <g id="line2d_21"/>
    <g id="text_17">
     <!-- OC-SVM -->
     <defs>
      <path d="M 4.890625 31.390625 
L 31.203125 31.390625 
L 31.203125 23.390625 
L 4.890625 23.390625 
z
" id="DejaVuSans-45"/>
      <path d="M 53.515625 70.515625 
L 53.515625 60.890625 
Q 47.90625 63.578125 42.921875 64.890625 
Q 37.9375 66.21875 33.296875 66.21875 
Q 25.25 66.21875 20.875 63.09375 
Q 16.5 59.96875 16.5 54.203125 
Q 16.5 49.359375 19.40625 46.890625 
Q 22.3125 44.4375 30.421875 42.921875 
L 36.375 41.703125 
Q 47.40625 39.59375 52.65625 34.296875 
Q 57.90625 29 57.90625 20.125 
Q 57.90625 9.515625 50.796875 4.046875 
Q 43.703125 -1.421875 29.984375 -1.421875 
Q 24.8125 -1.421875 18.96875 -0.25 
Q 13.140625 0.921875 6.890625 3.21875 
L 6.890625 13.375 
Q 12.890625 10.015625 18.65625 8.296875 
Q 24.421875 6.59375 29.984375 6.59375 
Q 38.421875 6.59375 43.015625 9.90625 
Q 47.609375 13.234375 47.609375 19.390625 
Q 47.609375 24.75 44.3125 27.78125 
Q 41.015625 30.8125 33.5 32.328125 
L 27.484375 33.5 
Q 16.453125 35.6875 11.515625 40.375 
Q 6.59375 45.0625 6.59375 53.421875 
Q 6.59375 63.09375 13.40625 68.65625 
Q 20.21875 74.21875 32.171875 74.21875 
Q 37.3125 74.21875 42.625 73.28125 
Q 47.953125 72.359375 53.515625 70.515625 
z
" id="DejaVuSans-83"/>
      <path d="M 28.609375 0 
L 0.78125 72.90625 
L 11.078125 72.90625 
L 34.1875 11.53125 
L 57.328125 72.90625 
L 67.578125 72.90625 
L 39.796875 0 
z
" id="DejaVuSans-86"/>
      <path d="M 9.8125 72.90625 
L 24.515625 72.90625 
L 43.109375 23.296875 
L 61.8125 72.90625 
L 76.515625 72.90625 
L 76.515625 0 
L 66.890625 0 
L 66.890625 64.015625 
L 48.09375 14.015625 
L 38.1875 14.015625 
L 19.390625 64.015625 
L 19.390625 0 
L 9.8125 0 
z
" id="DejaVuSans-77"/>
     </defs>
     <g transform="translate(348.545 267.148062)scale(0.1 -0.1)">
      <use xlink:href="#DejaVuSans-79"/>
      <use x="78.710938" xlink:href="#DejaVuSans-67"/>
      <use x="148.535156" xlink:href="#DejaVuSans-45"/>
      <use x="184.619141" xlink:href="#DejaVuSans-83"/>
      <use x="248.095703" xlink:href="#DejaVuSans-86"/>
      <use x="316.503906" xlink:href="#DejaVuSans-77"/>
     </g>
    </g>
    <g id="line2d_22">
     <path d="M 320.545 278.326187 
L 340.545 278.326187 
" style="fill:none;stroke:#2ca02c;stroke-linecap:square;stroke-width:1.5;"/>
    </g>
    <g id="line2d_23"/>
    <g id="text_18">
     <!-- Gaussion-D -->
     <defs>
      <path d="M 59.515625 10.40625 
L 59.515625 29.984375 
L 43.40625 29.984375 
L 43.40625 38.09375 
L 69.28125 38.09375 
L 69.28125 6.78125 
Q 63.578125 2.734375 56.6875 0.65625 
Q 49.8125 -1.421875 42 -1.421875 
Q 24.90625 -1.421875 15.25 8.5625 
Q 5.609375 18.5625 5.609375 36.375 
Q 5.609375 54.25 15.25 64.234375 
Q 24.90625 74.21875 42 74.21875 
Q 49.125 74.21875 55.546875 72.453125 
Q 61.96875 70.703125 67.390625 67.28125 
L 67.390625 56.78125 
Q 61.921875 61.421875 55.765625 63.765625 
Q 49.609375 66.109375 42.828125 66.109375 
Q 29.4375 66.109375 22.71875 58.640625 
Q 16.015625 51.171875 16.015625 36.375 
Q 16.015625 21.625 22.71875 14.15625 
Q 29.4375 6.6875 42.828125 6.6875 
Q 48.046875 6.6875 52.140625 7.59375 
Q 56.25 8.5 59.515625 10.40625 
z
" id="DejaVuSans-71"/>
      <path d="M 54.890625 33.015625 
L 54.890625 0 
L 45.90625 0 
L 45.90625 32.71875 
Q 45.90625 40.484375 42.875 44.328125 
Q 39.84375 48.1875 33.796875 48.1875 
Q 26.515625 48.1875 22.3125 43.546875 
Q 18.109375 38.921875 18.109375 30.90625 
L 18.109375 0 
L 9.078125 0 
L 9.078125 54.6875 
L 18.109375 54.6875 
L 18.109375 46.1875 
Q 21.34375 51.125 25.703125 53.5625 
Q 30.078125 56 35.796875 56 
Q 45.21875 56 50.046875 50.171875 
Q 54.890625 44.34375 54.890625 33.015625 
z
" id="DejaVuSans-110"/>
      <path d="M 19.671875 64.796875 
L 19.671875 8.109375 
L 31.59375 8.109375 
Q 46.6875 8.109375 53.6875 14.9375 
Q 60.6875 21.78125 60.6875 36.53125 
Q 60.6875 51.171875 53.6875 57.984375 
Q 46.6875 64.796875 31.59375 64.796875 
z
M 9.8125 72.90625 
L 30.078125 72.90625 
Q 51.265625 72.90625 61.171875 64.09375 
Q 71.09375 55.28125 71.09375 36.53125 
Q 71.09375 17.671875 61.125 8.828125 
Q 51.171875 0 30.078125 0 
L 9.8125 0 
z
" id="DejaVuSans-68"/>
     </defs>
     <g transform="translate(348.545 281.826187)scale(0.1 -0.1)">
      <use xlink:href="#DejaVuSans-71"/>
      <use x="77.490234" xlink:href="#DejaVuSans-97"/>
      <use x="138.769531" xlink:href="#DejaVuSans-117"/>
      <use x="202.148438" xlink:href="#DejaVuSans-115"/>
      <use x="254.248047" xlink:href="#DejaVuSans-115"/>
      <use x="306.347656" xlink:href="#DejaVuSans-105"/>
      <use x="334.130859" xlink:href="#DejaVuSans-111"/>
      <use x="395.3125" xlink:href="#DejaVuSans-110"/>
      <use x="458.691406" xlink:href="#DejaVuSans-45"/>
      <use x="494.775391" xlink:href="#DejaVuSans-68"/>
     </g>
    </g>
    <g id="line2d_24">
     <path d="M 320.545 293.004312 
L 340.545 293.004312 
" style="fill:none;stroke:#d62728;stroke-linecap:square;stroke-width:1.5;"/>
    </g>
    <g id="line2d_25"/>
    <g id="text_19">
     <!-- LOF -->
     <defs>
      <path d="M 9.8125 72.90625 
L 19.671875 72.90625 
L 19.671875 8.296875 
L 55.171875 8.296875 
L 55.171875 0 
L 9.8125 0 
z
" id="DejaVuSans-76"/>
     </defs>
     <g transform="translate(348.545 296.504312)scale(0.1 -0.1)">
      <use xlink:href="#DejaVuSans-76"/>
      <use x="55.666016" xlink:href="#DejaVuSans-79"/>
      <use x="134.376953" xlink:href="#DejaVuSans-70"/>
     </g>
    </g>
   </g>
  </g>
 </g>
 <defs>
  <clipPath id="p114a62f84c">
   <rect height="266.112" width="357.12" x="57.6" y="41.472"/>
  </clipPath>
 </defs>
</svg>
