<?xml version="1.0" encoding="utf-8" standalone="no"?>
<!DOCTYPE svg PUBLIC "-//W3C//DTD SVG 1.1//EN"
  "http://www.w3.org/Graphics/SVG/1.1/DTD/svg11.dtd">
<!-- Created with matplotlib (https://matplotlib.org/) -->
<svg height="345.6pt" version="1.1" viewBox="0 0 460.8 345.6" width="460.8pt" xmlns="http://www.w3.org/2000/svg" xmlns:xlink="http://www.w3.org/1999/xlink">
 <defs>
  <style type="text/css">
*{stroke-linecap:butt;stroke-linejoin:round;}
  </style>
 </defs>
 <g id="figure_1">
  <g id="patch_1">
   <path d="M 0 345.6 
L 460.8 345.6 
L 460.8 0 
L 0 0 
z
" style="fill:#ffffff;"/>
  </g>
  <g id="axes_1">
   <g id="patch_2">
    <path d="M 57.6 307.584 
L 414.72 307.584 
L 414.72 41.472 
L 57.6 41.472 
z
" style="fill:#ffffff;"/>
   </g>
   <g id="matplotlib.axis_1">
    <g id="xtick_1">
     <g id="line2d_1">
      <defs>
       <path d="M 0 0 
L 0 3.5 
" id="mdf3f4a69ca" style="stroke:#000000;stroke-width:0.8;"/>
      </defs>
      <g>
       <use style="stroke:#000000;stroke-width:0.8;" x="73.832727" xlink:href="#mdf3f4a69ca" y="307.584"/>
      </g>
     </g>
     <g id="text_1">
      <!-- 0.0 -->
      <defs>
       <path d="M 31.78125 66.40625 
Q 24.171875 66.40625 20.328125 58.90625 
Q 16.5 51.421875 16.5 36.375 
Q 16.5 21.390625 20.328125 13.890625 
Q 24.171875 6.390625 31.78125 6.390625 
Q 39.453125 6.390625 43.28125 13.890625 
Q 47.125 21.390625 47.125 36.375 
Q 47.125 51.421875 43.28125 58.90625 
Q 39.453125 66.40625 31.78125 66.40625 
z
M 31.78125 74.21875 
Q 44.046875 74.21875 50.515625 64.515625 
Q 56.984375 54.828125 56.984375 36.375 
Q 56.984375 17.96875 50.515625 8.265625 
Q 44.046875 -1.421875 31.78125 -1.421875 
Q 19.53125 -1.421875 13.0625 8.265625 
Q 6.59375 17.96875 6.59375 36.375 
Q 6.59375 54.828125 13.0625 64.515625 
Q 19.53125 74.21875 31.78125 74.21875 
z
" id="DejaVuSans-48"/>
       <path d="M 10.6875 12.40625 
L 21 12.40625 
L 21 0 
L 10.6875 0 
z
" id="DejaVuSans-46"/>
      </defs>
      <g transform="translate(65.881165 322.182437)scale(0.1 -0.1)">
       <use xlink:href="#DejaVuSans-48"/>
       <use x="63.623047" xlink:href="#DejaVuSans-46"/>
       <use x="95.410156" xlink:href="#DejaVuSans-48"/>
      </g>
     </g>
    </g>
    <g id="xtick_2">
     <g id="line2d_2">
      <g>
       <use style="stroke:#000000;stroke-width:0.8;" x="138.763636" xlink:href="#mdf3f4a69ca" y="307.584"/>
      </g>
     </g>
     <g id="text_2">
      <!-- 0.2 -->
      <defs>
       <path d="M 19.1875 8.296875 
L 53.609375 8.296875 
L 53.609375 0 
L 7.328125 0 
L 7.328125 8.296875 
Q 12.9375 14.109375 22.625 23.890625 
Q 32.328125 33.6875 34.8125 36.53125 
Q 39.546875 41.84375 41.421875 45.53125 
Q 43.3125 49.21875 43.3125 52.78125 
Q 43.3125 58.59375 39.234375 62.25 
Q 35.15625 65.921875 28.609375 65.921875 
Q 23.96875 65.921875 18.8125 64.3125 
Q 13.671875 62.703125 7.8125 59.421875 
L 7.8125 69.390625 
Q 13.765625 71.78125 18.9375 73 
Q 24.125 74.21875 28.421875 74.21875 
Q 39.75 74.21875 46.484375 68.546875 
Q 53.21875 62.890625 53.21875 53.421875 
Q 53.21875 48.921875 51.53125 44.890625 
Q 49.859375 40.875 45.40625 35.40625 
Q 44.1875 33.984375 37.640625 27.21875 
Q 31.109375 20.453125 19.1875 8.296875 
z
" id="DejaVuSans-50"/>
      </defs>
      <g transform="translate(130.812074 322.182437)scale(0.1 -0.1)">
       <use xlink:href="#DejaVuSans-48"/>
       <use x="63.623047" xlink:href="#DejaVuSans-46"/>
       <use x="95.410156" xlink:href="#DejaVuSans-50"/>
      </g>
     </g>
    </g>
    <g id="xtick_3">
     <g id="line2d_3">
      <g>
       <use style="stroke:#000000;stroke-width:0.8;" x="203.694545" xlink:href="#mdf3f4a69ca" y="307.584"/>
      </g>
     </g>
     <g id="text_3">
      <!-- 0.4 -->
      <defs>
       <path d="M 37.796875 64.3125 
L 12.890625 25.390625 
L 37.796875 25.390625 
z
M 35.203125 72.90625 
L 47.609375 72.90625 
L 47.609375 25.390625 
L 58.015625 25.390625 
L 58.015625 17.1875 
L 47.609375 17.1875 
L 47.609375 0 
L 37.796875 0 
L 37.796875 17.1875 
L 4.890625 17.1875 
L 4.890625 26.703125 
z
" id="DejaVuSans-52"/>
      </defs>
      <g transform="translate(195.742983 322.182437)scale(0.1 -0.1)">
       <use xlink:href="#DejaVuSans-48"/>
       <use x="63.623047" xlink:href="#DejaVuSans-46"/>
       <use x="95.410156" xlink:href="#DejaVuSans-52"/>
      </g>
     </g>
    </g>
    <g id="xtick_4">
     <g id="line2d_4">
      <g>
       <use style="stroke:#000000;stroke-width:0.8;" x="268.625455" xlink:href="#mdf3f4a69ca" y="307.584"/>
      </g>
     </g>
     <g id="text_4">
      <!-- 0.6 -->
      <defs>
       <path d="M 33.015625 40.375 
Q 26.375 40.375 22.484375 35.828125 
Q 18.609375 31.296875 18.609375 23.390625 
Q 18.609375 15.53125 22.484375 10.953125 
Q 26.375 6.390625 33.015625 6.390625 
Q 39.65625 6.390625 43.53125 10.953125 
Q 47.40625 15.53125 47.40625 23.390625 
Q 47.40625 31.296875 43.53125 35.828125 
Q 39.65625 40.375 33.015625 40.375 
z
M 52.59375 71.296875 
L 52.59375 62.3125 
Q 48.875 64.0625 45.09375 64.984375 
Q 41.3125 65.921875 37.59375 65.921875 
Q 27.828125 65.921875 22.671875 59.328125 
Q 17.53125 52.734375 16.796875 39.40625 
Q 19.671875 43.65625 24.015625 45.921875 
Q 28.375 48.1875 33.59375 48.1875 
Q 44.578125 48.1875 50.953125 41.515625 
Q 57.328125 34.859375 57.328125 23.390625 
Q 57.328125 12.15625 50.6875 5.359375 
Q 44.046875 -1.421875 33.015625 -1.421875 
Q 20.359375 -1.421875 13.671875 8.265625 
Q 6.984375 17.96875 6.984375 36.375 
Q 6.984375 53.65625 15.1875 63.9375 
Q 23.390625 74.21875 37.203125 74.21875 
Q 40.921875 74.21875 44.703125 73.484375 
Q 48.484375 72.75 52.59375 71.296875 
z
" id="DejaVuSans-54"/>
      </defs>
      <g transform="translate(260.673892 322.182437)scale(0.1 -0.1)">
       <use xlink:href="#DejaVuSans-48"/>
       <use x="63.623047" xlink:href="#DejaVuSans-46"/>
       <use x="95.410156" xlink:href="#DejaVuSans-54"/>
      </g>
     </g>
    </g>
    <g id="xtick_5">
     <g id="line2d_5">
      <g>
       <use style="stroke:#000000;stroke-width:0.8;" x="333.556364" xlink:href="#mdf3f4a69ca" y="307.584"/>
      </g>
     </g>
     <g id="text_5">
      <!-- 0.8 -->
      <defs>
       <path d="M 31.78125 34.625 
Q 24.75 34.625 20.71875 30.859375 
Q 16.703125 27.09375 16.703125 20.515625 
Q 16.703125 13.921875 20.71875 10.15625 
Q 24.75 6.390625 31.78125 6.390625 
Q 38.8125 6.390625 42.859375 10.171875 
Q 46.921875 13.96875 46.921875 20.515625 
Q 46.921875 27.09375 42.890625 30.859375 
Q 38.875 34.625 31.78125 34.625 
z
M 21.921875 38.8125 
Q 15.578125 40.375 12.03125 44.71875 
Q 8.5 49.078125 8.5 55.328125 
Q 8.5 64.0625 14.71875 69.140625 
Q 20.953125 74.21875 31.78125 74.21875 
Q 42.671875 74.21875 48.875 69.140625 
Q 55.078125 64.0625 55.078125 55.328125 
Q 55.078125 49.078125 51.53125 44.71875 
Q 48 40.375 41.703125 38.8125 
Q 48.828125 37.15625 52.796875 32.3125 
Q 56.78125 27.484375 56.78125 20.515625 
Q 56.78125 9.90625 50.3125 4.234375 
Q 43.84375 -1.421875 31.78125 -1.421875 
Q 19.734375 -1.421875 13.25 4.234375 
Q 6.78125 9.90625 6.78125 20.515625 
Q 6.78125 27.484375 10.78125 32.3125 
Q 14.796875 37.15625 21.921875 38.8125 
z
M 18.3125 54.390625 
Q 18.3125 48.734375 21.84375 45.5625 
Q 25.390625 42.390625 31.78125 42.390625 
Q 38.140625 42.390625 41.71875 45.5625 
Q 45.3125 48.734375 45.3125 54.390625 
Q 45.3125 60.0625 41.71875 63.234375 
Q 38.140625 66.40625 31.78125 66.40625 
Q 25.390625 66.40625 21.84375 63.234375 
Q 18.3125 60.0625 18.3125 54.390625 
z
" id="DejaVuSans-56"/>
      </defs>
      <g transform="translate(325.604801 322.182437)scale(0.1 -0.1)">
       <use xlink:href="#DejaVuSans-48"/>
       <use x="63.623047" xlink:href="#DejaVuSans-46"/>
       <use x="95.410156" xlink:href="#DejaVuSans-56"/>
      </g>
     </g>
    </g>
    <g id="xtick_6">
     <g id="line2d_6">
      <g>
       <use style="stroke:#000000;stroke-width:0.8;" x="398.487273" xlink:href="#mdf3f4a69ca" y="307.584"/>
      </g>
     </g>
     <g id="text_6">
      <!-- 1.0 -->
      <defs>
       <path d="M 12.40625 8.296875 
L 28.515625 8.296875 
L 28.515625 63.921875 
L 10.984375 60.40625 
L 10.984375 69.390625 
L 28.421875 72.90625 
L 38.28125 72.90625 
L 38.28125 8.296875 
L 54.390625 8.296875 
L 54.390625 0 
L 12.40625 0 
z
" id="DejaVuSans-49"/>
      </defs>
      <g transform="translate(390.53571 322.182437)scale(0.1 -0.1)">
       <use xlink:href="#DejaVuSans-49"/>
       <use x="63.623047" xlink:href="#DejaVuSans-46"/>
       <use x="95.410156" xlink:href="#DejaVuSans-48"/>
      </g>
     </g>
    </g>
    <g id="text_7">
     <!-- False positive rate -->
     <defs>
      <path d="M 9.8125 72.90625 
L 51.703125 72.90625 
L 51.703125 64.59375 
L 19.671875 64.59375 
L 19.671875 43.109375 
L 48.578125 43.109375 
L 48.578125 34.8125 
L 19.671875 34.8125 
L 19.671875 0 
L 9.8125 0 
z
" id="DejaVuSans-70"/>
      <path d="M 34.28125 27.484375 
Q 23.390625 27.484375 19.1875 25 
Q 14.984375 22.515625 14.984375 16.5 
Q 14.984375 11.71875 18.140625 8.90625 
Q 21.296875 6.109375 26.703125 6.109375 
Q 34.1875 6.109375 38.703125 11.40625 
Q 43.21875 16.703125 43.21875 25.484375 
L 43.21875 27.484375 
z
M 52.203125 31.203125 
L 52.203125 0 
L 43.21875 0 
L 43.21875 8.296875 
Q 40.140625 3.328125 35.546875 0.953125 
Q 30.953125 -1.421875 24.3125 -1.421875 
Q 15.921875 -1.421875 10.953125 3.296875 
Q 6 8.015625 6 15.921875 
Q 6 25.140625 12.171875 29.828125 
Q 18.359375 34.515625 30.609375 34.515625 
L 43.21875 34.515625 
L 43.21875 35.40625 
Q 43.21875 41.609375 39.140625 45 
Q 35.0625 48.390625 27.6875 48.390625 
Q 23 48.390625 18.546875 47.265625 
Q 14.109375 46.140625 10.015625 43.890625 
L 10.015625 52.203125 
Q 14.9375 54.109375 19.578125 55.046875 
Q 24.21875 56 28.609375 56 
Q 40.484375 56 46.34375 49.84375 
Q 52.203125 43.703125 52.203125 31.203125 
z
" id="DejaVuSans-97"/>
      <path d="M 9.421875 75.984375 
L 18.40625 75.984375 
L 18.40625 0 
L 9.421875 0 
z
" id="DejaVuSans-108"/>
      <path d="M 44.28125 53.078125 
L 44.28125 44.578125 
Q 40.484375 46.53125 36.375 47.5 
Q 32.28125 48.484375 27.875 48.484375 
Q 21.1875 48.484375 17.84375 46.4375 
Q 14.5 44.390625 14.5 40.28125 
Q 14.5 37.15625 16.890625 35.375 
Q 19.28125 33.59375 26.515625 31.984375 
L 29.59375 31.296875 
Q 39.15625 29.25 43.1875 25.515625 
Q 47.21875 21.78125 47.21875 15.09375 
Q 47.21875 7.46875 41.1875 3.015625 
Q 35.15625 -1.421875 24.609375 -1.421875 
Q 20.21875 -1.421875 15.453125 -0.5625 
Q 10.6875 0.296875 5.421875 2 
L 5.421875 11.28125 
Q 10.40625 8.6875 15.234375 7.390625 
Q 20.0625 6.109375 24.8125 6.109375 
Q 31.15625 6.109375 34.5625 8.28125 
Q 37.984375 10.453125 37.984375 14.40625 
Q 37.984375 18.0625 35.515625 20.015625 
Q 33.0625 21.96875 24.703125 23.78125 
L 21.578125 24.515625 
Q 13.234375 26.265625 9.515625 29.90625 
Q 5.8125 33.546875 5.8125 39.890625 
Q 5.8125 47.609375 11.28125 51.796875 
Q 16.75 56 26.8125 56 
Q 31.78125 56 36.171875 55.265625 
Q 40.578125 54.546875 44.28125 53.078125 
z
" id="DejaVuSans-115"/>
      <path d="M 56.203125 29.59375 
L 56.203125 25.203125 
L 14.890625 25.203125 
Q 15.484375 15.921875 20.484375 11.0625 
Q 25.484375 6.203125 34.421875 6.203125 
Q 39.59375 6.203125 44.453125 7.46875 
Q 49.3125 8.734375 54.109375 11.28125 
L 54.109375 2.78125 
Q 49.265625 0.734375 44.1875 -0.34375 
Q 39.109375 -1.421875 33.890625 -1.421875 
Q 20.796875 -1.421875 13.15625 6.1875 
Q 5.515625 13.8125 5.515625 26.8125 
Q 5.515625 40.234375 12.765625 48.109375 
Q 20.015625 56 32.328125 56 
Q 43.359375 56 49.78125 48.890625 
Q 56.203125 41.796875 56.203125 29.59375 
z
M 47.21875 32.234375 
Q 47.125 39.59375 43.09375 43.984375 
Q 39.0625 48.390625 32.421875 48.390625 
Q 24.90625 48.390625 20.390625 44.140625 
Q 15.875 39.890625 15.1875 32.171875 
z
" id="DejaVuSans-101"/>
      <path id="DejaVuSans-32"/>
      <path d="M 18.109375 8.203125 
L 18.109375 -20.796875 
L 9.078125 -20.796875 
L 9.078125 54.6875 
L 18.109375 54.6875 
L 18.109375 46.390625 
Q 20.953125 51.265625 25.265625 53.625 
Q 29.59375 56 35.59375 56 
Q 45.5625 56 51.78125 48.09375 
Q 58.015625 40.1875 58.015625 27.296875 
Q 58.015625 14.40625 51.78125 6.484375 
Q 45.5625 -1.421875 35.59375 -1.421875 
Q 29.59375 -1.421875 25.265625 0.953125 
Q 20.953125 3.328125 18.109375 8.203125 
z
M 48.6875 27.296875 
Q 48.6875 37.203125 44.609375 42.84375 
Q 40.53125 48.484375 33.40625 48.484375 
Q 26.265625 48.484375 22.1875 42.84375 
Q 18.109375 37.203125 18.109375 27.296875 
Q 18.109375 17.390625 22.1875 11.75 
Q 26.265625 6.109375 33.40625 6.109375 
Q 40.53125 6.109375 44.609375 11.75 
Q 48.6875 17.390625 48.6875 27.296875 
z
" id="DejaVuSans-112"/>
      <path d="M 30.609375 48.390625 
Q 23.390625 48.390625 19.1875 42.75 
Q 14.984375 37.109375 14.984375 27.296875 
Q 14.984375 17.484375 19.15625 11.84375 
Q 23.34375 6.203125 30.609375 6.203125 
Q 37.796875 6.203125 41.984375 11.859375 
Q 46.1875 17.53125 46.1875 27.296875 
Q 46.1875 37.015625 41.984375 42.703125 
Q 37.796875 48.390625 30.609375 48.390625 
z
M 30.609375 56 
Q 42.328125 56 49.015625 48.375 
Q 55.71875 40.765625 55.71875 27.296875 
Q 55.71875 13.875 49.015625 6.21875 
Q 42.328125 -1.421875 30.609375 -1.421875 
Q 18.84375 -1.421875 12.171875 6.21875 
Q 5.515625 13.875 5.515625 27.296875 
Q 5.515625 40.765625 12.171875 48.375 
Q 18.84375 56 30.609375 56 
z
" id="DejaVuSans-111"/>
      <path d="M 9.421875 54.6875 
L 18.40625 54.6875 
L 18.40625 0 
L 9.421875 0 
z
M 9.421875 75.984375 
L 18.40625 75.984375 
L 18.40625 64.59375 
L 9.421875 64.59375 
z
" id="DejaVuSans-105"/>
      <path d="M 18.3125 70.21875 
L 18.3125 54.6875 
L 36.8125 54.6875 
L 36.8125 47.703125 
L 18.3125 47.703125 
L 18.3125 18.015625 
Q 18.3125 11.328125 20.140625 9.421875 
Q 21.96875 7.515625 27.59375 7.515625 
L 36.8125 7.515625 
L 36.8125 0 
L 27.59375 0 
Q 17.1875 0 13.234375 3.875 
Q 9.28125 7.765625 9.28125 18.015625 
L 9.28125 47.703125 
L 2.6875 47.703125 
L 2.6875 54.6875 
L 9.28125 54.6875 
L 9.28125 70.21875 
z
" id="DejaVuSans-116"/>
      <path d="M 2.984375 54.6875 
L 12.5 54.6875 
L 29.59375 8.796875 
L 46.6875 54.6875 
L 56.203125 54.6875 
L 35.6875 0 
L 23.484375 0 
z
" id="DejaVuSans-118"/>
      <path d="M 41.109375 46.296875 
Q 39.59375 47.171875 37.8125 47.578125 
Q 36.03125 48 33.890625 48 
Q 26.265625 48 22.1875 43.046875 
Q 18.109375 38.09375 18.109375 28.8125 
L 18.109375 0 
L 9.078125 0 
L 9.078125 54.6875 
L 18.109375 54.6875 
L 18.109375 46.1875 
Q 20.953125 51.171875 25.484375 53.578125 
Q 30.03125 56 36.53125 56 
Q 37.453125 56 38.578125 55.875 
Q 39.703125 55.765625 41.0625 55.515625 
z
" id="DejaVuSans-114"/>
     </defs>
     <g transform="translate(190.21 335.860562)scale(0.1 -0.1)">
      <use xlink:href="#DejaVuSans-70"/>
      <use x="57.378906" xlink:href="#DejaVuSans-97"/>
      <use x="118.658203" xlink:href="#DejaVuSans-108"/>
      <use x="146.441406" xlink:href="#DejaVuSans-115"/>
      <use x="198.541016" xlink:href="#DejaVuSans-101"/>
      <use x="260.064453" xlink:href="#DejaVuSans-32"/>
      <use x="291.851562" xlink:href="#DejaVuSans-112"/>
      <use x="355.328125" xlink:href="#DejaVuSans-111"/>
      <use x="416.509766" xlink:href="#DejaVuSans-115"/>
      <use x="468.609375" xlink:href="#DejaVuSans-105"/>
      <use x="496.392578" xlink:href="#DejaVuSans-116"/>
      <use x="535.601562" xlink:href="#DejaVuSans-105"/>
      <use x="563.384766" xlink:href="#DejaVuSans-118"/>
      <use x="622.564453" xlink:href="#DejaVuSans-101"/>
      <use x="684.087891" xlink:href="#DejaVuSans-32"/>
      <use x="715.875" xlink:href="#DejaVuSans-114"/>
      <use x="756.988281" xlink:href="#DejaVuSans-97"/>
      <use x="818.267578" xlink:href="#DejaVuSans-116"/>
      <use x="857.476562" xlink:href="#DejaVuSans-101"/>
     </g>
    </g>
   </g>
   <g id="matplotlib.axis_2">
    <g id="ytick_1">
     <g id="line2d_7">
      <defs>
       <path d="M 0 0 
L -3.5 0 
" id="m35f7e175d0" style="stroke:#000000;stroke-width:0.8;"/>
      </defs>
      <g>
       <use style="stroke:#000000;stroke-width:0.8;" x="57.6" xlink:href="#m35f7e175d0" y="295.488"/>
      </g>
     </g>
     <g id="text_8">
      <!-- 0.0 -->
      <g transform="translate(34.696875 299.287219)scale(0.1 -0.1)">
       <use xlink:href="#DejaVuSans-48"/>
       <use x="63.623047" xlink:href="#DejaVuSans-46"/>
       <use x="95.410156" xlink:href="#DejaVuSans-48"/>
      </g>
     </g>
    </g>
    <g id="ytick_2">
     <g id="line2d_8">
      <g>
       <use style="stroke:#000000;stroke-width:0.8;" x="57.6" xlink:href="#m35f7e175d0" y="247.104"/>
      </g>
     </g>
     <g id="text_9">
      <!-- 0.2 -->
      <g transform="translate(34.696875 250.903219)scale(0.1 -0.1)">
       <use xlink:href="#DejaVuSans-48"/>
       <use x="63.623047" xlink:href="#DejaVuSans-46"/>
       <use x="95.410156" xlink:href="#DejaVuSans-50"/>
      </g>
     </g>
    </g>
    <g id="ytick_3">
     <g id="line2d_9">
      <g>
       <use style="stroke:#000000;stroke-width:0.8;" x="57.6" xlink:href="#m35f7e175d0" y="198.72"/>
      </g>
     </g>
     <g id="text_10">
      <!-- 0.4 -->
      <g transform="translate(34.696875 202.519219)scale(0.1 -0.1)">
       <use xlink:href="#DejaVuSans-48"/>
       <use x="63.623047" xlink:href="#DejaVuSans-46"/>
       <use x="95.410156" xlink:href="#DejaVuSans-52"/>
      </g>
     </g>
    </g>
    <g id="ytick_4">
     <g id="line2d_10">
      <g>
       <use style="stroke:#000000;stroke-width:0.8;" x="57.6" xlink:href="#m35f7e175d0" y="150.336"/>
      </g>
     </g>
     <g id="text_11">
      <!-- 0.6 -->
      <g transform="translate(34.696875 154.135219)scale(0.1 -0.1)">
       <use xlink:href="#DejaVuSans-48"/>
       <use x="63.623047" xlink:href="#DejaVuSans-46"/>
       <use x="95.410156" xlink:href="#DejaVuSans-54"/>
      </g>
     </g>
    </g>
    <g id="ytick_5">
     <g id="line2d_11">
      <g>
       <use style="stroke:#000000;stroke-width:0.8;" x="57.6" xlink:href="#m35f7e175d0" y="101.952"/>
      </g>
     </g>
     <g id="text_12">
      <!-- 0.8 -->
      <g transform="translate(34.696875 105.751219)scale(0.1 -0.1)">
       <use xlink:href="#DejaVuSans-48"/>
       <use x="63.623047" xlink:href="#DejaVuSans-46"/>
       <use x="95.410156" xlink:href="#DejaVuSans-56"/>
      </g>
     </g>
    </g>
    <g id="ytick_6">
     <g id="line2d_12">
      <g>
       <use style="stroke:#000000;stroke-width:0.8;" x="57.6" xlink:href="#m35f7e175d0" y="53.568"/>
      </g>
     </g>
     <g id="text_13">
      <!-- 1.0 -->
      <g transform="translate(34.696875 57.367219)scale(0.1 -0.1)">
       <use xlink:href="#DejaVuSans-49"/>
       <use x="63.623047" xlink:href="#DejaVuSans-46"/>
       <use x="95.410156" xlink:href="#DejaVuSans-48"/>
      </g>
     </g>
    </g>
    <g id="text_14">
     <!-- True positive rate -->
     <defs>
      <path d="M -0.296875 72.90625 
L 61.375 72.90625 
L 61.375 64.59375 
L 35.5 64.59375 
L 35.5 0 
L 25.59375 0 
L 25.59375 64.59375 
L -0.296875 64.59375 
z
" id="DejaVuSans-84"/>
      <path d="M 8.5 21.578125 
L 8.5 54.6875 
L 17.484375 54.6875 
L 17.484375 21.921875 
Q 17.484375 14.15625 20.5 10.265625 
Q 23.53125 6.390625 29.59375 6.390625 
Q 36.859375 6.390625 41.078125 11.03125 
Q 45.3125 15.671875 45.3125 23.6875 
L 45.3125 54.6875 
L 54.296875 54.6875 
L 54.296875 0 
L 45.3125 0 
L 45.3125 8.40625 
Q 42.046875 3.421875 37.71875 1 
Q 33.40625 -1.421875 27.6875 -1.421875 
Q 18.265625 -1.421875 13.375 4.4375 
Q 8.5 10.296875 8.5 21.578125 
z
M 31.109375 56 
z
" id="DejaVuSans-117"/>
     </defs>
     <g transform="translate(28.617187 218.818625)rotate(-90)scale(0.1 -0.1)">
      <use xlink:href="#DejaVuSans-84"/>
      <use x="60.865234" xlink:href="#DejaVuSans-114"/>
      <use x="101.978516" xlink:href="#DejaVuSans-117"/>
      <use x="165.357422" xlink:href="#DejaVuSans-101"/>
      <use x="226.880859" xlink:href="#DejaVuSans-32"/>
      <use x="258.667969" xlink:href="#DejaVuSans-112"/>
      <use x="322.144531" xlink:href="#DejaVuSans-111"/>
      <use x="383.326172" xlink:href="#DejaVuSans-115"/>
      <use x="435.425781" xlink:href="#DejaVuSans-105"/>
      <use x="463.208984" xlink:href="#DejaVuSans-116"/>
      <use x="502.417969" xlink:href="#DejaVuSans-105"/>
      <use x="530.201172" xlink:href="#DejaVuSans-118"/>
      <use x="589.380859" xlink:href="#DejaVuSans-101"/>
      <use x="650.904297" xlink:href="#DejaVuSans-32"/>
      <use x="682.691406" xlink:href="#DejaVuSans-114"/>
      <use x="723.804688" xlink:href="#DejaVuSans-97"/>
      <use x="785.083984" xlink:href="#DejaVuSans-116"/>
      <use x="824.292969" xlink:href="#DejaVuSans-101"/>
     </g>
    </g>
   </g>
   <g id="line2d_13">
    <path clip-path="url(#pa284b41ae6)" d="M 73.832727 295.488 
L 398.487273 53.568 
" style="fill:none;stroke:#000000;stroke-dasharray:5.55,2.4;stroke-dashoffset:0;stroke-width:1.5;"/>
   </g>
   <g id="line2d_14">
    <path clip-path="url(#pa284b41ae6)" d="M 73.832727 295.488 
L 73.832727 251.221787 
L 75.506204 251.221787 
L 75.506204 225.485617 
L 77.179681 225.485617 
L 77.179681 211.75966 
L 78.853158 211.75966 
L 78.853158 207.298723 
L 80.526635 207.298723 
L 80.526635 200.778894 
L 82.200112 200.778894 
L 82.200112 187.396085 
L 83.87359 187.396085 
L 83.87359 174.699574 
L 85.547067 174.699574 
L 85.547067 151.708596 
L 87.220544 151.708596 
L 87.220544 137.982638 
L 88.894021 137.982638 
L 88.894021 131.805957 
L 90.567498 131.805957 
L 90.567498 129.403915 
L 93.914452 129.403915 
L 93.914452 124.942979 
L 95.587929 124.942979 
L 95.587929 124.256681 
L 97.261406 124.256681 
L 97.261406 123.227234 
L 98.934883 123.227234 
L 98.934883 122.197787 
L 100.60836 122.197787 
L 100.60836 117.050553 
L 102.281837 117.050553 
L 102.281837 111.903319 
L 103.955314 111.903319 
L 103.955314 109.158128 
L 105.628791 109.158128 
L 105.628791 108.47183 
L 108.975745 108.47183 
L 108.975745 107.785532 
L 110.649222 107.785532 
L 110.649222 105.383489 
L 113.996176 105.383489 
L 113.996176 101.608851 
L 117.34313 101.608851 
L 117.34313 100.236255 
L 119.016607 100.236255 
L 119.016607 99.893106 
L 120.690084 99.893106 
L 120.690084 99.549957 
L 122.363561 99.549957 
L 122.363561 94.745872 
L 124.037038 94.745872 
L 124.037038 91.314383 
L 125.710515 91.314383 
L 125.710515 89.941787 
L 134.077901 89.941787 
L 134.077901 88.91234 
L 135.751378 88.91234 
L 135.751378 88.569191 
L 139.098332 88.569191 
L 139.098332 86.510298 
L 140.771809 86.510298 
L 140.771809 84.794553 
L 144.118763 84.794553 
L 144.118763 83.765106 
L 145.79224 83.765106 
L 145.79224 82.049362 
L 147.465717 82.049362 
L 147.465717 81.019915 
L 149.139194 81.019915 
L 149.139194 79.30417 
L 150.812671 79.30417 
L 150.812671 78.961021 
L 154.159625 78.961021 
L 154.159625 78.617872 
L 155.833102 78.617872 
L 155.833102 77.588426 
L 157.506579 77.588426 
L 157.506579 76.21583 
L 159.180056 76.21583 
L 159.180056 72.78434 
L 162.52701 72.78434 
L 162.52701 72.441191 
L 164.200487 72.441191 
L 164.200487 71.068596 
L 167.547441 71.068596 
L 167.547441 70.039149 
L 182.608735 70.039149 
L 182.608735 69.696 
L 189.302643 69.696 
L 189.302643 69.352851 
L 194.323074 69.352851 
L 194.323074 69.009702 
L 197.670028 69.009702 
L 197.670028 68.323404 
L 209.384367 68.323404 
L 209.384367 67.980255 
L 212.731321 67.980255 
L 212.731321 67.637106 
L 229.466092 67.637106 
L 229.466092 67.293957 
L 241.180431 67.293957 
L 241.180431 66.950809 
L 262.935633 66.950809 
L 262.935633 66.60766 
L 277.996926 66.60766 
L 277.996926 66.264511 
L 279.670403 66.264511 
L 279.670403 65.921362 
L 291.384742 65.921362 
L 291.384742 65.578213 
L 293.058219 65.578213 
L 293.058219 65.235064 
L 294.731696 65.235064 
L 294.731696 64.891915 
L 296.405173 64.891915 
L 296.405173 64.205617 
L 301.425604 64.205617 
L 301.425604 63.862468 
L 303.099082 63.862468 
L 303.099082 63.17617 
L 304.772559 63.17617 
L 304.772559 62.833021 
L 314.813421 62.833021 
L 314.813421 62.146723 
L 316.486898 62.146723 
L 316.486898 61.803574 
L 319.833852 61.803574 
L 319.833852 60.430979 
L 321.507329 60.430979 
L 321.507329 59.401532 
L 324.854283 59.401532 
L 324.854283 58.715234 
L 328.201237 58.715234 
L 328.201237 58.372085 
L 329.874714 58.372085 
L 329.874714 57.685787 
L 331.548191 57.685787 
L 331.548191 55.970043 
L 333.221668 55.970043 
L 333.221668 55.626894 
L 339.915576 55.626894 
L 339.915576 55.283745 
L 349.956439 55.283745 
L 349.956439 54.940596 
L 353.303393 54.940596 
L 353.303393 54.597447 
L 354.97687 54.597447 
L 354.97687 53.911149 
L 371.71164 53.911149 
L 371.71164 53.568 
L 398.487273 53.568 
L 398.487273 53.568 
" style="fill:none;stroke:#1f77b4;stroke-linecap:square;stroke-width:1.5;"/>
   </g>
   <g id="line2d_15">
    <path clip-path="url(#pa284b41ae6)" d="M 73.832727 295.488 
L 73.832727 291.027064 
L 75.506204 291.027064 
L 75.506204 285.87983 
L 78.853158 285.87983 
L 78.853158 285.193532 
L 80.526635 285.193532 
L 80.526635 284.850383 
L 82.200112 284.850383 
L 82.200112 283.477787 
L 83.87359 283.477787 
L 83.87359 283.134638 
L 87.220544 283.134638 
L 87.220544 282.44834 
L 88.894021 282.44834 
L 88.894021 281.762043 
L 90.567498 281.762043 
L 90.567498 281.418894 
L 93.914452 281.418894 
L 93.914452 281.075745 
L 95.587929 281.075745 
L 95.587929 280.046298 
L 97.261406 280.046298 
L 97.261406 279.703149 
L 98.934883 279.703149 
L 98.934883 279.36 
L 100.60836 279.36 
L 100.60836 278.673702 
L 103.955314 278.673702 
L 103.955314 277.301106 
L 107.302268 277.301106 
L 107.302268 276.614809 
L 108.975745 276.614809 
L 108.975745 276.27166 
L 110.649222 276.27166 
L 110.649222 271.467574 
L 113.996176 271.467574 
L 113.996176 270.781277 
L 117.34313 270.781277 
L 117.34313 270.438128 
L 119.016607 270.438128 
L 119.016607 268.379234 
L 120.690084 268.379234 
L 120.690084 265.977191 
L 122.363561 265.977191 
L 122.363561 264.604596 
L 124.037038 264.604596 
L 124.037038 262.545702 
L 125.710515 262.545702 
L 125.710515 262.202553 
L 127.383993 262.202553 
L 127.383993 261.173106 
L 129.05747 261.173106 
L 129.05747 260.829957 
L 130.730947 260.829957 
L 130.730947 260.486809 
L 132.404424 260.486809 
L 132.404424 257.398468 
L 137.424855 257.398468 
L 137.424855 257.055319 
L 139.098332 257.055319 
L 139.098332 253.280681 
L 142.445286 253.280681 
L 142.445286 251.908085 
L 144.118763 251.908085 
L 144.118763 251.221787 
L 145.79224 251.221787 
L 145.79224 250.19234 
L 147.465717 250.19234 
L 147.465717 249.849191 
L 150.812671 249.849191 
L 150.812671 249.162894 
L 152.486148 249.162894 
L 152.486148 247.790298 
L 154.159625 247.790298 
L 154.159625 246.417702 
L 155.833102 246.417702 
L 155.833102 246.074553 
L 159.180056 246.074553 
L 159.180056 245.388255 
L 162.52701 245.388255 
L 162.52701 245.045106 
L 164.200487 245.045106 
L 164.200487 244.01566 
L 165.873964 244.01566 
L 165.873964 243.672511 
L 167.547441 243.672511 
L 167.547441 242.986213 
L 170.894396 242.986213 
L 170.894396 242.299915 
L 172.567873 242.299915 
L 172.567873 240.927319 
L 174.24135 240.927319 
L 174.24135 239.211574 
L 175.914827 239.211574 
L 175.914827 236.123234 
L 177.588304 236.123234 
L 177.588304 235.780085 
L 179.261781 235.780085 
L 179.261781 234.750638 
L 180.935258 234.750638 
L 180.935258 234.06434 
L 182.608735 234.06434 
L 182.608735 232.691745 
L 184.282212 232.691745 
L 184.282212 230.632851 
L 189.302643 230.632851 
L 189.302643 230.289702 
L 190.97612 230.289702 
L 190.97612 229.603404 
L 192.649597 229.603404 
L 192.649597 229.260255 
L 195.996551 229.260255 
L 195.996551 228.230809 
L 201.016982 228.230809 
L 201.016982 227.544511 
L 206.037413 227.544511 
L 206.037413 227.201362 
L 207.71089 227.201362 
L 207.71089 226.858213 
L 209.384367 226.858213 
L 209.384367 224.45617 
L 212.731321 224.45617 
L 212.731321 223.769872 
L 214.404799 223.769872 
L 214.404799 223.426723 
L 216.078276 223.426723 
L 216.078276 221.710979 
L 217.751753 221.710979 
L 217.751753 221.36783 
L 219.42523 221.36783 
L 219.42523 218.279489 
L 221.098707 218.279489 
L 221.098707 216.906894 
L 222.772184 216.906894 
L 222.772184 216.220596 
L 226.119138 216.220596 
L 226.119138 214.161702 
L 227.792615 214.161702 
L 227.792615 211.073362 
L 229.466092 211.073362 
L 229.466092 210.387064 
L 232.813046 210.387064 
L 232.813046 209.700766 
L 234.486523 209.700766 
L 234.486523 208.671319 
L 236.16 208.671319 
L 236.16 207.298723 
L 237.833477 207.298723 
L 237.833477 206.612426 
L 242.853908 206.612426 
L 242.853908 206.269277 
L 244.527385 206.269277 
L 244.527385 205.582979 
L 246.200862 205.582979 
L 246.200862 200.435745 
L 249.547816 200.435745 
L 249.547816 200.092596 
L 251.221293 200.092596 
L 251.221293 198.033702 
L 252.89477 198.033702 
L 252.89477 197.004255 
L 254.568247 197.004255 
L 254.568247 193.915915 
L 256.241724 193.915915 
L 256.241724 191.857021 
L 257.915201 191.857021 
L 257.915201 191.513872 
L 259.588679 191.513872 
L 259.588679 190.484426 
L 261.262156 190.484426 
L 261.262156 190.141277 
L 262.935633 190.141277 
L 262.935633 187.396085 
L 264.60911 187.396085 
L 264.60911 187.052936 
L 266.282587 187.052936 
L 266.282587 186.023489 
L 267.956064 186.023489 
L 267.956064 185.337191 
L 269.629541 185.337191 
L 269.629541 184.994043 
L 271.303018 184.994043 
L 271.303018 184.650894 
L 272.976495 184.650894 
L 272.976495 182.935149 
L 274.649972 182.935149 
L 274.649972 180.533106 
L 276.323449 180.533106 
L 276.323449 179.846809 
L 277.996926 179.846809 
L 277.996926 179.50366 
L 279.670403 179.50366 
L 279.670403 179.160511 
L 281.34388 179.160511 
L 281.34388 178.474213 
L 283.017357 178.474213 
L 283.017357 173.326979 
L 284.690834 173.326979 
L 284.690834 169.55234 
L 289.711265 169.55234 
L 289.711265 169.209191 
L 291.384742 169.209191 
L 291.384742 167.150298 
L 293.058219 167.150298 
L 293.058219 165.434553 
L 294.731696 165.434553 
L 294.731696 164.061957 
L 296.405173 164.061957 
L 296.405173 161.316766 
L 299.752127 161.316766 
L 299.752127 151.708596 
L 301.425604 151.708596 
L 301.425604 151.365447 
L 303.099082 151.365447 
L 303.099082 150.679149 
L 304.772559 150.679149 
L 304.772559 150.336 
L 309.79299 150.336 
L 309.79299 149.992851 
L 313.139944 149.992851 
L 313.139944 148.620255 
L 316.486898 148.620255 
L 316.486898 147.24766 
L 318.160375 147.24766 
L 318.160375 146.561362 
L 319.833852 146.561362 
L 319.833852 145.531915 
L 323.180806 145.531915 
L 323.180806 143.129872 
L 324.854283 143.129872 
L 324.854283 142.786723 
L 326.52776 142.786723 
L 326.52776 141.414128 
L 328.201237 141.414128 
L 328.201237 141.070979 
L 329.874714 141.070979 
L 329.874714 140.041532 
L 331.548191 140.041532 
L 331.548191 138.325787 
L 334.895145 138.325787 
L 334.895145 137.29634 
L 336.568622 137.29634 
L 336.568622 136.266894 
L 338.242099 136.266894 
L 338.242099 131.805957 
L 339.915576 131.805957 
L 339.915576 130.433362 
L 341.589053 130.433362 
L 341.589053 125.629277 
L 343.26253 125.629277 
L 343.26253 125.286128 
L 344.936007 125.286128 
L 344.936007 120.138894 
L 346.609485 120.138894 
L 346.609485 119.452596 
L 349.956439 119.452596 
L 349.956439 111.903319 
L 351.629916 111.903319 
L 351.629916 110.873872 
L 354.97687 110.873872 
L 354.97687 109.501277 
L 356.650347 109.501277 
L 356.650347 108.814979 
L 358.323824 108.814979 
L 358.323824 107.785532 
L 359.997301 107.785532 
L 359.997301 106.756085 
L 361.670778 106.756085 
L 361.670778 103.667745 
L 363.344255 103.667745 
L 363.344255 103.324596 
L 365.017732 103.324596 
L 365.017732 102.638298 
L 370.038163 102.638298 
L 370.038163 95.089021 
L 373.385117 95.089021 
L 373.385117 83.078809 
L 375.058594 83.078809 
L 375.058594 81.706213 
L 376.732071 81.706213 
L 376.732071 80.676766 
L 378.405548 80.676766 
L 378.405548 79.990468 
L 380.079025 79.990468 
L 380.079025 79.30417 
L 381.752502 79.30417 
L 381.752502 77.931574 
L 383.425979 77.931574 
L 383.425979 73.470638 
L 385.099456 73.470638 
L 385.099456 72.098043 
L 386.772933 72.098043 
L 386.772933 71.411745 
L 388.44641 71.411745 
L 388.44641 70.725447 
L 390.119888 70.725447 
L 390.119888 69.696 
L 391.793365 69.696 
L 391.793365 69.009702 
L 393.466842 69.009702 
L 393.466842 67.293957 
L 395.140319 67.293957 
L 395.140319 54.940596 
L 396.813796 54.940596 
L 396.813796 53.568 
L 398.487273 53.568 
L 398.487273 53.568 
" style="fill:none;stroke:#ff7f0e;stroke-linecap:square;stroke-width:1.5;"/>
   </g>
   <g id="line2d_16">
    <path clip-path="url(#pa284b41ae6)" d="M 73.832727 295.488 
L 73.832727 281.762043 
L 75.506204 281.762043 
L 75.506204 275.585362 
L 77.179681 275.585362 
L 77.179681 263.918298 
L 78.853158 263.918298 
L 78.853158 260.829957 
L 80.526635 260.829957 
L 80.526635 258.084766 
L 82.200112 258.084766 
L 82.200112 242.299915 
L 83.87359 242.299915 
L 83.87359 238.868426 
L 85.547067 238.868426 
L 85.547067 237.838979 
L 87.220544 237.838979 
L 87.220544 216.563745 
L 88.894021 216.563745 
L 88.894021 211.416511 
L 90.567498 211.416511 
L 90.567498 210.730213 
L 92.240975 210.730213 
L 92.240975 200.435745 
L 93.914452 200.435745 
L 93.914452 194.602213 
L 95.587929 194.602213 
L 95.587929 192.20017 
L 97.261406 192.20017 
L 97.261406 178.817362 
L 98.934883 178.817362 
L 98.934883 149.649702 
L 100.60836 149.649702 
L 100.60836 147.933957 
L 102.281837 147.933957 
L 102.281837 137.29634 
L 103.955314 137.29634 
L 103.955314 132.149106 
L 105.628791 132.149106 
L 105.628791 131.462809 
L 107.302268 131.462809 
L 107.302268 130.090213 
L 110.649222 130.090213 
L 110.649222 127.001872 
L 112.322699 127.001872 
L 112.322699 123.570383 
L 113.996176 123.570383 
L 113.996176 122.197787 
L 115.669653 122.197787 
L 115.669653 120.825191 
L 117.34313 120.825191 
L 117.34313 117.050553 
L 119.016607 117.050553 
L 119.016607 107.785532 
L 120.690084 107.785532 
L 120.690084 107.099234 
L 122.363561 107.099234 
L 122.363561 106.756085 
L 124.037038 106.756085 
L 124.037038 105.726638 
L 125.710515 105.726638 
L 125.710515 104.010894 
L 127.383993 104.010894 
L 127.383993 103.324596 
L 129.05747 103.324596 
L 129.05747 102.638298 
L 130.730947 102.638298 
L 130.730947 101.952 
L 132.404424 101.952 
L 132.404424 100.922553 
L 134.077901 100.922553 
L 134.077901 99.549957 
L 135.751378 99.549957 
L 135.751378 98.520511 
L 137.424855 98.520511 
L 137.424855 95.089021 
L 139.098332 95.089021 
L 139.098332 93.373277 
L 142.445286 93.373277 
L 142.445286 91.314383 
L 144.118763 91.314383 
L 144.118763 89.255489 
L 145.79224 89.255489 
L 145.79224 87.539745 
L 150.812671 87.539745 
L 150.812671 84.794553 
L 152.486148 84.794553 
L 152.486148 84.451404 
L 154.159625 84.451404 
L 154.159625 84.108255 
L 155.833102 84.108255 
L 155.833102 83.078809 
L 160.853533 83.078809 
L 160.853533 82.049362 
L 162.52701 82.049362 
L 162.52701 81.363064 
L 164.200487 81.363064 
L 164.200487 80.333617 
L 165.873964 80.333617 
L 165.873964 79.647319 
L 167.547441 79.647319 
L 167.547441 79.30417 
L 170.894396 79.30417 
L 170.894396 76.902128 
L 172.567873 76.902128 
L 172.567873 76.21583 
L 174.24135 76.21583 
L 174.24135 75.872681 
L 175.914827 75.872681 
L 175.914827 75.186383 
L 179.261781 75.186383 
L 179.261781 74.156936 
L 180.935258 74.156936 
L 180.935258 73.470638 
L 184.282212 73.470638 
L 184.282212 73.127489 
L 194.323074 73.127489 
L 194.323074 72.441191 
L 209.384367 72.441191 
L 209.384367 72.098043 
L 212.731321 72.098043 
L 212.731321 71.754894 
L 214.404799 71.754894 
L 214.404799 71.411745 
L 226.119138 71.411745 
L 226.119138 71.068596 
L 229.466092 71.068596 
L 229.466092 70.725447 
L 236.16 70.725447 
L 236.16 70.382298 
L 246.200862 70.382298 
L 246.200862 69.696 
L 262.935633 69.696 
L 262.935633 69.009702 
L 267.956064 69.009702 
L 267.956064 68.666553 
L 277.996926 68.666553 
L 277.996926 67.980255 
L 284.690834 67.980255 
L 284.690834 62.489872 
L 286.364311 62.489872 
L 286.364311 62.146723 
L 288.037788 62.146723 
L 288.037788 60.774128 
L 289.711265 60.774128 
L 289.711265 58.715234 
L 291.384742 58.715234 
L 291.384742 56.313191 
L 296.405173 56.313191 
L 296.405173 55.970043 
L 299.752127 55.970043 
L 299.752127 54.940596 
L 301.425604 54.940596 
L 301.425604 53.568 
L 398.487273 53.568 
L 398.487273 53.568 
" style="fill:none;stroke:#2ca02c;stroke-linecap:square;stroke-width:1.5;"/>
   </g>
   <g id="line2d_17">
    <path clip-path="url(#pa284b41ae6)" d="M 73.832727 295.488 
L 73.832727 276.957957 
L 75.506204 276.957957 
L 75.506204 276.27166 
L 77.179681 276.27166 
L 77.179681 270.438128 
L 78.853158 270.438128 
L 78.853158 270.094979 
L 80.526635 270.094979 
L 80.526635 267.692936 
L 82.200112 267.692936 
L 82.200112 238.525277 
L 83.87359 238.525277 
L 83.87359 229.946553 
L 85.547067 229.946553 
L 85.547067 223.769872 
L 87.220544 223.769872 
L 87.220544 221.36783 
L 88.894021 221.36783 
L 88.894021 213.132255 
L 90.567498 213.132255 
L 90.567498 199.063149 
L 92.240975 199.063149 
L 92.240975 178.817362 
L 93.914452 178.817362 
L 93.914452 177.444766 
L 95.587929 177.444766 
L 95.587929 171.954383 
L 97.261406 171.954383 
L 97.261406 170.238638 
L 98.934883 170.238638 
L 98.934883 169.55234 
L 100.60836 169.55234 
L 100.60836 164.405106 
L 102.281837 164.405106 
L 102.281837 164.061957 
L 103.955314 164.061957 
L 103.955314 163.37566 
L 107.302268 163.37566 
L 107.302268 162.689362 
L 112.322699 162.689362 
L 112.322699 160.630468 
L 113.996176 160.630468 
L 113.996176 160.287319 
L 117.34313 160.287319 
L 117.34313 159.601021 
L 119.016607 159.601021 
L 119.016607 158.914723 
L 120.690084 158.914723 
L 120.690084 158.228426 
L 122.363561 158.228426 
L 122.363561 156.85583 
L 124.037038 156.85583 
L 124.037038 155.140085 
L 125.710515 155.140085 
L 125.710515 154.110638 
L 130.730947 154.110638 
L 130.730947 153.767489 
L 134.077901 153.767489 
L 134.077901 151.708596 
L 135.751378 151.708596 
L 135.751378 149.992851 
L 140.771809 149.992851 
L 140.771809 149.649702 
L 142.445286 149.649702 
L 142.445286 147.933957 
L 144.118763 147.933957 
L 144.118763 147.24766 
L 145.79224 147.24766 
L 145.79224 145.875064 
L 147.465717 145.875064 
L 147.465717 144.502468 
L 150.812671 144.502468 
L 150.812671 141.414128 
L 152.486148 141.414128 
L 152.486148 138.668936 
L 155.833102 138.668936 
L 155.833102 138.325787 
L 157.506579 138.325787 
L 157.506579 137.639489 
L 159.180056 137.639489 
L 159.180056 136.266894 
L 160.853533 136.266894 
L 160.853533 135.923745 
L 162.52701 135.923745 
L 162.52701 135.580596 
L 164.200487 135.580596 
L 164.200487 133.521702 
L 165.873964 133.521702 
L 165.873964 131.462809 
L 167.547441 131.462809 
L 167.547441 131.11966 
L 169.220918 131.11966 
L 169.220918 128.717617 
L 170.894396 128.717617 
L 170.894396 126.658723 
L 172.567873 126.658723 
L 172.567873 123.227234 
L 179.261781 123.227234 
L 179.261781 121.16834 
L 184.282212 121.16834 
L 184.282212 119.795745 
L 185.955689 119.795745 
L 185.955689 119.109447 
L 187.629166 119.109447 
L 187.629166 118.423149 
L 189.302643 118.423149 
L 189.302643 117.393702 
L 190.97612 117.393702 
L 190.97612 114.99166 
L 192.649597 114.99166 
L 192.649597 112.589617 
L 194.323074 112.589617 
L 194.323074 110.187574 
L 199.343505 110.187574 
L 199.343505 108.47183 
L 201.016982 108.47183 
L 201.016982 107.099234 
L 202.690459 107.099234 
L 202.690459 105.726638 
L 204.363936 105.726638 
L 204.363936 105.04034 
L 206.037413 105.04034 
L 206.037413 104.697191 
L 207.71089 104.697191 
L 207.71089 104.010894 
L 209.384367 104.010894 
L 209.384367 103.667745 
L 211.057844 103.667745 
L 211.057844 100.236255 
L 212.731321 100.236255 
L 212.731321 98.86366 
L 214.404799 98.86366 
L 214.404799 97.834213 
L 216.078276 97.834213 
L 216.078276 96.461617 
L 219.42523 96.461617 
L 219.42523 95.775319 
L 224.445661 95.775319 
L 224.445661 95.089021 
L 227.792615 95.089021 
L 227.792615 94.745872 
L 229.466092 94.745872 
L 229.466092 91.657532 
L 231.139569 91.657532 
L 231.139569 91.314383 
L 234.486523 91.314383 
L 234.486523 90.971234 
L 236.16 90.971234 
L 236.16 90.284936 
L 237.833477 90.284936 
L 237.833477 89.598638 
L 239.506954 89.598638 
L 239.506954 89.255489 
L 241.180431 89.255489 
L 241.180431 88.226043 
L 242.853908 88.226043 
L 242.853908 86.853447 
L 244.527385 86.853447 
L 244.527385 84.451404 
L 246.200862 84.451404 
L 246.200862 81.363064 
L 247.874339 81.363064 
L 247.874339 77.931574 
L 251.221293 77.931574 
L 251.221293 77.245277 
L 254.568247 77.245277 
L 254.568247 76.558979 
L 257.915201 76.558979 
L 257.915201 76.21583 
L 261.262156 76.21583 
L 261.262156 75.872681 
L 264.60911 75.872681 
L 264.60911 74.500085 
L 266.282587 74.500085 
L 266.282587 73.127489 
L 267.956064 73.127489 
L 267.956064 72.78434 
L 269.629541 72.78434 
L 269.629541 69.696 
L 271.303018 69.696 
L 271.303018 69.352851 
L 272.976495 69.352851 
L 272.976495 68.666553 
L 274.649972 68.666553 
L 274.649972 68.323404 
L 277.996926 68.323404 
L 277.996926 67.980255 
L 286.364311 67.980255 
L 286.364311 66.950809 
L 289.711265 66.950809 
L 289.711265 66.60766 
L 293.058219 66.60766 
L 293.058219 65.921362 
L 294.731696 65.921362 
L 294.731696 65.235064 
L 296.405173 65.235064 
L 296.405173 64.548766 
L 298.07865 64.548766 
L 298.07865 64.205617 
L 299.752127 64.205617 
L 299.752127 63.519319 
L 309.79299 63.519319 
L 309.79299 62.833021 
L 316.486898 62.833021 
L 316.486898 62.489872 
L 321.507329 62.489872 
L 321.507329 61.117277 
L 323.180806 61.117277 
L 323.180806 60.774128 
L 326.52776 60.774128 
L 326.52776 60.430979 
L 338.242099 60.430979 
L 338.242099 60.08783 
L 348.282962 60.08783 
L 348.282962 59.744681 
L 349.956439 59.744681 
L 349.956439 59.401532 
L 354.97687 59.401532 
L 354.97687 59.058383 
L 359.997301 59.058383 
L 359.997301 58.715234 
L 368.364686 58.715234 
L 368.364686 58.372085 
L 371.71164 58.372085 
L 371.71164 58.028936 
L 378.405548 58.028936 
L 378.405548 57.685787 
L 380.079025 57.685787 
L 380.079025 57.342638 
L 381.752502 57.342638 
L 381.752502 56.999489 
L 385.099456 56.999489 
L 385.099456 56.65634 
L 386.772933 56.65634 
L 386.772933 56.313191 
L 393.466842 56.313191 
L 393.466842 55.970043 
L 396.813796 55.970043 
L 396.813796 53.568 
L 398.487273 53.568 
L 398.487273 53.568 
" style="fill:none;stroke:#d62728;stroke-linecap:square;stroke-width:1.5;"/>
   </g>
   <g id="patch_3">
    <path d="M 57.6 307.584 
L 57.6 41.472 
" style="fill:none;stroke:#000000;stroke-linecap:square;stroke-linejoin:miter;stroke-width:0.8;"/>
   </g>
   <g id="patch_4">
    <path d="M 414.72 307.584 
L 414.72 41.472 
" style="fill:none;stroke:#000000;stroke-linecap:square;stroke-linejoin:miter;stroke-width:0.8;"/>
   </g>
   <g id="patch_5">
    <path d="M 57.6 307.584 
L 414.72 307.584 
" style="fill:none;stroke:#000000;stroke-linecap:square;stroke-linejoin:miter;stroke-width:0.8;"/>
   </g>
   <g id="patch_6">
    <path d="M 57.6 41.472 
L 414.72 41.472 
" style="fill:none;stroke:#000000;stroke-linecap:square;stroke-linejoin:miter;stroke-width:0.8;"/>
   </g>
   <g id="text_15">
    <!-- All-Feature ROC -->
    <defs>
     <path d="M 34.1875 63.1875 
L 20.796875 26.90625 
L 47.609375 26.90625 
z
M 28.609375 72.90625 
L 39.796875 72.90625 
L 67.578125 0 
L 57.328125 0 
L 50.6875 18.703125 
L 17.828125 18.703125 
L 11.1875 0 
L 0.78125 0 
z
" id="DejaVuSans-65"/>
     <path d="M 4.890625 31.390625 
L 31.203125 31.390625 
L 31.203125 23.390625 
L 4.890625 23.390625 
z
" id="DejaVuSans-45"/>
     <path d="M 44.390625 34.1875 
Q 47.5625 33.109375 50.5625 29.59375 
Q 53.5625 26.078125 56.59375 19.921875 
L 66.609375 0 
L 56 0 
L 46.6875 18.703125 
Q 43.0625 26.03125 39.671875 28.421875 
Q 36.28125 30.8125 30.421875 30.8125 
L 19.671875 30.8125 
L 19.671875 0 
L 9.8125 0 
L 9.8125 72.90625 
L 32.078125 72.90625 
Q 44.578125 72.90625 50.734375 67.671875 
Q 56.890625 62.453125 56.890625 51.90625 
Q 56.890625 45.015625 53.6875 40.46875 
Q 50.484375 35.9375 44.390625 34.1875 
z
M 19.671875 64.796875 
L 19.671875 38.921875 
L 32.078125 38.921875 
Q 39.203125 38.921875 42.84375 42.21875 
Q 46.484375 45.515625 46.484375 51.90625 
Q 46.484375 58.296875 42.84375 61.546875 
Q 39.203125 64.796875 32.078125 64.796875 
z
" id="DejaVuSans-82"/>
     <path d="M 39.40625 66.21875 
Q 28.65625 66.21875 22.328125 58.203125 
Q 16.015625 50.203125 16.015625 36.375 
Q 16.015625 22.609375 22.328125 14.59375 
Q 28.65625 6.59375 39.40625 6.59375 
Q 50.140625 6.59375 56.421875 14.59375 
Q 62.703125 22.609375 62.703125 36.375 
Q 62.703125 50.203125 56.421875 58.203125 
Q 50.140625 66.21875 39.40625 66.21875 
z
M 39.40625 74.21875 
Q 54.734375 74.21875 63.90625 63.9375 
Q 73.09375 53.65625 73.09375 36.375 
Q 73.09375 19.140625 63.90625 8.859375 
Q 54.734375 -1.421875 39.40625 -1.421875 
Q 24.03125 -1.421875 14.8125 8.828125 
Q 5.609375 19.09375 5.609375 36.375 
Q 5.609375 53.65625 14.8125 63.9375 
Q 24.03125 74.21875 39.40625 74.21875 
z
" id="DejaVuSans-79"/>
     <path d="M 64.40625 67.28125 
L 64.40625 56.890625 
Q 59.421875 61.53125 53.78125 63.8125 
Q 48.140625 66.109375 41.796875 66.109375 
Q 29.296875 66.109375 22.65625 58.46875 
Q 16.015625 50.828125 16.015625 36.375 
Q 16.015625 21.96875 22.65625 14.328125 
Q 29.296875 6.6875 41.796875 6.6875 
Q 48.140625 6.6875 53.78125 8.984375 
Q 59.421875 11.28125 64.40625 15.921875 
L 64.40625 5.609375 
Q 59.234375 2.09375 53.4375 0.328125 
Q 47.65625 -1.421875 41.21875 -1.421875 
Q 24.65625 -1.421875 15.125 8.703125 
Q 5.609375 18.84375 5.609375 36.375 
Q 5.609375 53.953125 15.125 64.078125 
Q 24.65625 74.21875 41.21875 74.21875 
Q 47.75 74.21875 53.53125 72.484375 
Q 59.328125 70.75 64.40625 67.28125 
z
" id="DejaVuSans-67"/>
    </defs>
    <g transform="translate(188.442187 35.472)scale(0.12 -0.12)">
     <use xlink:href="#DejaVuSans-65"/>
     <use x="68.408203" xlink:href="#DejaVuSans-108"/>
     <use x="96.191406" xlink:href="#DejaVuSans-108"/>
     <use x="123.974609" xlink:href="#DejaVuSans-45"/>
     <use x="160.058594" xlink:href="#DejaVuSans-70"/>
     <use x="217.5" xlink:href="#DejaVuSans-101"/>
     <use x="279.023438" xlink:href="#DejaVuSans-97"/>
     <use x="340.302734" xlink:href="#DejaVuSans-116"/>
     <use x="379.511719" xlink:href="#DejaVuSans-117"/>
     <use x="442.890625" xlink:href="#DejaVuSans-114"/>
     <use x="483.972656" xlink:href="#DejaVuSans-101"/>
     <use x="545.496094" xlink:href="#DejaVuSans-32"/>
     <use x="577.283203" xlink:href="#DejaVuSans-82"/>
     <use x="646.765625" xlink:href="#DejaVuSans-79"/>
     <use x="725.476562" xlink:href="#DejaVuSans-67"/>
    </g>
   </g>
   <g id="legend_1">
    <g id="patch_7">
     <path d="M 318.545 302.584 
L 407.72 302.584 
Q 409.72 302.584 409.72 300.584 
L 409.72 242.8715 
Q 409.72 240.8715 407.72 240.8715 
L 318.545 240.8715 
Q 316.545 240.8715 316.545 242.8715 
L 316.545 300.584 
Q 316.545 302.584 318.545 302.584 
z
" style="fill:#ffffff;opacity:0.8;stroke:#cccccc;stroke-linejoin:miter;"/>
    </g>
    <g id="line2d_18">
     <path d="M 320.545 248.969937 
L 340.545 248.969937 
" style="fill:none;stroke:#1f77b4;stroke-linecap:square;stroke-width:1.5;"/>
    </g>
    <g id="line2d_19"/>
    <g id="text_16">
     <!-- iForest -->
     <g transform="translate(348.545 252.469937)scale(0.1 -0.1)">
      <use xlink:href="#DejaVuSans-105"/>
      <use x="27.783203" xlink:href="#DejaVuSans-70"/>
      <use x="85.255859" xlink:href="#DejaVuSans-111"/>
      <use x="146.4375" xlink:href="#DejaVuSans-114"/>
      <use x="187.519531" xlink:href="#DejaVuSans-101"/>
      <use x="249.042969" xlink:href="#DejaVuSans-115"/>
      <use x="301.142578" xlink:href="#DejaVuSans-116"/>
     </g>
    </g>
    <g id="line2d_20">
     <path d="M 320.545 263.648062 
L 340.545 263.648062 
" style="fill:none;stroke:#ff7f0e;stroke-linecap:square;stroke-width:1.5;"/>
    </g>
    <g id="line2d_21"/>
    <g id="text_17">
     <!-- OC-SVM -->
     <defs>
      <path d="M 53.515625 70.515625 
L 53.515625 60.890625 
Q 47.90625 63.578125 42.921875 64.890625 
Q 37.9375 66.21875 33.296875 66.21875 
Q 25.25 66.21875 20.875 63.09375 
Q 16.5 59.96875 16.5 54.203125 
Q 16.5 49.359375 19.40625 46.890625 
Q 22.3125 44.4375 30.421875 42.921875 
L 36.375 41.703125 
Q 47.40625 39.59375 52.65625 34.296875 
Q 57.90625 29 57.90625 20.125 
Q 57.90625 9.515625 50.796875 4.046875 
Q 43.703125 -1.421875 29.984375 -1.421875 
Q 24.8125 -1.421875 18.96875 -0.25 
Q 13.140625 0.921875 6.890625 3.21875 
L 6.890625 13.375 
Q 12.890625 10.015625 18.65625 8.296875 
Q 24.421875 6.59375 29.984375 6.59375 
Q 38.421875 6.59375 43.015625 9.90625 
Q 47.609375 13.234375 47.609375 19.390625 
Q 47.609375 24.75 44.3125 27.78125 
Q 41.015625 30.8125 33.5 32.328125 
L 27.484375 33.5 
Q 16.453125 35.6875 11.515625 40.375 
Q 6.59375 45.0625 6.59375 53.421875 
Q 6.59375 63.09375 13.40625 68.65625 
Q 20.21875 74.21875 32.171875 74.21875 
Q 37.3125 74.21875 42.625 73.28125 
Q 47.953125 72.359375 53.515625 70.515625 
z
" id="DejaVuSans-83"/>
      <path d="M 28.609375 0 
L 0.78125 72.90625 
L 11.078125 72.90625 
L 34.1875 11.53125 
L 57.328125 72.90625 
L 67.578125 72.90625 
L 39.796875 0 
z
" id="DejaVuSans-86"/>
      <path d="M 9.8125 72.90625 
L 24.515625 72.90625 
L 43.109375 23.296875 
L 61.8125 72.90625 
L 76.515625 72.90625 
L 76.515625 0 
L 66.890625 0 
L 66.890625 64.015625 
L 48.09375 14.015625 
L 38.1875 14.015625 
L 19.390625 64.015625 
L 19.390625 0 
L 9.8125 0 
z
" id="DejaVuSans-77"/>
     </defs>
     <g transform="translate(348.545 267.148062)scale(0.1 -0.1)">
      <use xlink:href="#DejaVuSans-79"/>
      <use x="78.710938" xlink:href="#DejaVuSans-67"/>
      <use x="148.535156" xlink:href="#DejaVuSans-45"/>
      <use x="184.619141" xlink:href="#DejaVuSans-83"/>
      <use x="248.095703" xlink:href="#DejaVuSans-86"/>
      <use x="316.503906" xlink:href="#DejaVuSans-77"/>
     </g>
    </g>
    <g id="line2d_22">
     <path d="M 320.545 278.326187 
L 340.545 278.326187 
" style="fill:none;stroke:#2ca02c;stroke-linecap:square;stroke-width:1.5;"/>
    </g>
    <g id="line2d_23"/>
    <g id="text_18">
     <!-- Gaussion-D -->
     <defs>
      <path d="M 59.515625 10.40625 
L 59.515625 29.984375 
L 43.40625 29.984375 
L 43.40625 38.09375 
L 69.28125 38.09375 
L 69.28125 6.78125 
Q 63.578125 2.734375 56.6875 0.65625 
Q 49.8125 -1.421875 42 -1.421875 
Q 24.90625 -1.421875 15.25 8.5625 
Q 5.609375 18.5625 5.609375 36.375 
Q 5.609375 54.25 15.25 64.234375 
Q 24.90625 74.21875 42 74.21875 
Q 49.125 74.21875 55.546875 72.453125 
Q 61.96875 70.703125 67.390625 67.28125 
L 67.390625 56.78125 
Q 61.921875 61.421875 55.765625 63.765625 
Q 49.609375 66.109375 42.828125 66.109375 
Q 29.4375 66.109375 22.71875 58.640625 
Q 16.015625 51.171875 16.015625 36.375 
Q 16.015625 21.625 22.71875 14.15625 
Q 29.4375 6.6875 42.828125 6.6875 
Q 48.046875 6.6875 52.140625 7.59375 
Q 56.25 8.5 59.515625 10.40625 
z
" id="DejaVuSans-71"/>
      <path d="M 54.890625 33.015625 
L 54.890625 0 
L 45.90625 0 
L 45.90625 32.71875 
Q 45.90625 40.484375 42.875 44.328125 
Q 39.84375 48.1875 33.796875 48.1875 
Q 26.515625 48.1875 22.3125 43.546875 
Q 18.109375 38.921875 18.109375 30.90625 
L 18.109375 0 
L 9.078125 0 
L 9.078125 54.6875 
L 18.109375 54.6875 
L 18.109375 46.1875 
Q 21.34375 51.125 25.703125 53.5625 
Q 30.078125 56 35.796875 56 
Q 45.21875 56 50.046875 50.171875 
Q 54.890625 44.34375 54.890625 33.015625 
z
" id="DejaVuSans-110"/>
      <path d="M 19.671875 64.796875 
L 19.671875 8.109375 
L 31.59375 8.109375 
Q 46.6875 8.109375 53.6875 14.9375 
Q 60.6875 21.78125 60.6875 36.53125 
Q 60.6875 51.171875 53.6875 57.984375 
Q 46.6875 64.796875 31.59375 64.796875 
z
M 9.8125 72.90625 
L 30.078125 72.90625 
Q 51.265625 72.90625 61.171875 64.09375 
Q 71.09375 55.28125 71.09375 36.53125 
Q 71.09375 17.671875 61.125 8.828125 
Q 51.171875 0 30.078125 0 
L 9.8125 0 
z
" id="DejaVuSans-68"/>
     </defs>
     <g transform="translate(348.545 281.826187)scale(0.1 -0.1)">
      <use xlink:href="#DejaVuSans-71"/>
      <use x="77.490234" xlink:href="#DejaVuSans-97"/>
      <use x="138.769531" xlink:href="#DejaVuSans-117"/>
      <use x="202.148438" xlink:href="#DejaVuSans-115"/>
      <use x="254.248047" xlink:href="#DejaVuSans-115"/>
      <use x="306.347656" xlink:href="#DejaVuSans-105"/>
      <use x="334.130859" xlink:href="#DejaVuSans-111"/>
      <use x="395.3125" xlink:href="#DejaVuSans-110"/>
      <use x="458.691406" xlink:href="#DejaVuSans-45"/>
      <use x="494.775391" xlink:href="#DejaVuSans-68"/>
     </g>
    </g>
    <g id="line2d_24">
     <path d="M 320.545 293.004312 
L 340.545 293.004312 
" style="fill:none;stroke:#d62728;stroke-linecap:square;stroke-width:1.5;"/>
    </g>
    <g id="line2d_25"/>
    <g id="text_19">
     <!-- LOF -->
     <defs>
      <path d="M 9.8125 72.90625 
L 19.671875 72.90625 
L 19.671875 8.296875 
L 55.171875 8.296875 
L 55.171875 0 
L 9.8125 0 
z
" id="DejaVuSans-76"/>
     </defs>
     <g transform="translate(348.545 296.504312)scale(0.1 -0.1)">
      <use xlink:href="#DejaVuSans-76"/>
      <use x="55.666016" xlink:href="#DejaVuSans-79"/>
      <use x="134.376953" xlink:href="#DejaVuSans-70"/>
     </g>
    </g>
   </g>
  </g>
 </g>
 <defs>
  <clipPath id="pa284b41ae6">
   <rect height="266.112" width="357.12" x="57.6" y="41.472"/>
  </clipPath>
 </defs>
</svg>
