<?xml version="1.0" encoding="utf-8" standalone="no"?>
<!DOCTYPE svg PUBLIC "-//W3C//DTD SVG 1.1//EN"
  "http://www.w3.org/Graphics/SVG/1.1/DTD/svg11.dtd">
<!-- Created with matplotlib (https://matplotlib.org/) -->
<svg height="345.6pt" version="1.1" viewBox="0 0 460.8 345.6" width="460.8pt" xmlns="http://www.w3.org/2000/svg" xmlns:xlink="http://www.w3.org/1999/xlink">
 <defs>
  <style type="text/css">
*{stroke-linecap:butt;stroke-linejoin:round;}
  </style>
 </defs>
 <g id="figure_1">
  <g id="patch_1">
   <path d="M 0 345.6 
L 460.8 345.6 
L 460.8 0 
L 0 0 
z
" style="fill:#ffffff;"/>
  </g>
  <g id="axes_1">
   <g id="patch_2">
    <path d="M 57.6 307.584 
L 414.72 307.584 
L 414.72 41.472 
L 57.6 41.472 
z
" style="fill:#ffffff;"/>
   </g>
   <g id="matplotlib.axis_1">
    <g id="xtick_1">
     <g id="line2d_1">
      <defs>
       <path d="M 0 0 
L 0 3.5 
" id="m536de16330" style="stroke:#000000;stroke-width:0.8;"/>
      </defs>
      <g>
       <use style="stroke:#000000;stroke-width:0.8;" x="73.832727" xlink:href="#m536de16330" y="307.584"/>
      </g>
     </g>
     <g id="text_1">
      <!-- 0.0 -->
      <defs>
       <path d="M 31.78125 66.40625 
Q 24.171875 66.40625 20.328125 58.90625 
Q 16.5 51.421875 16.5 36.375 
Q 16.5 21.390625 20.328125 13.890625 
Q 24.171875 6.390625 31.78125 6.390625 
Q 39.453125 6.390625 43.28125 13.890625 
Q 47.125 21.390625 47.125 36.375 
Q 47.125 51.421875 43.28125 58.90625 
Q 39.453125 66.40625 31.78125 66.40625 
z
M 31.78125 74.21875 
Q 44.046875 74.21875 50.515625 64.515625 
Q 56.984375 54.828125 56.984375 36.375 
Q 56.984375 17.96875 50.515625 8.265625 
Q 44.046875 -1.421875 31.78125 -1.421875 
Q 19.53125 -1.421875 13.0625 8.265625 
Q 6.59375 17.96875 6.59375 36.375 
Q 6.59375 54.828125 13.0625 64.515625 
Q 19.53125 74.21875 31.78125 74.21875 
z
" id="DejaVuSans-48"/>
       <path d="M 10.6875 12.40625 
L 21 12.40625 
L 21 0 
L 10.6875 0 
z
" id="DejaVuSans-46"/>
      </defs>
      <g transform="translate(65.881165 322.182437)scale(0.1 -0.1)">
       <use xlink:href="#DejaVuSans-48"/>
       <use x="63.623047" xlink:href="#DejaVuSans-46"/>
       <use x="95.410156" xlink:href="#DejaVuSans-48"/>
      </g>
     </g>
    </g>
    <g id="xtick_2">
     <g id="line2d_2">
      <g>
       <use style="stroke:#000000;stroke-width:0.8;" x="138.763636" xlink:href="#m536de16330" y="307.584"/>
      </g>
     </g>
     <g id="text_2">
      <!-- 0.2 -->
      <defs>
       <path d="M 19.1875 8.296875 
L 53.609375 8.296875 
L 53.609375 0 
L 7.328125 0 
L 7.328125 8.296875 
Q 12.9375 14.109375 22.625 23.890625 
Q 32.328125 33.6875 34.8125 36.53125 
Q 39.546875 41.84375 41.421875 45.53125 
Q 43.3125 49.21875 43.3125 52.78125 
Q 43.3125 58.59375 39.234375 62.25 
Q 35.15625 65.921875 28.609375 65.921875 
Q 23.96875 65.921875 18.8125 64.3125 
Q 13.671875 62.703125 7.8125 59.421875 
L 7.8125 69.390625 
Q 13.765625 71.78125 18.9375 73 
Q 24.125 74.21875 28.421875 74.21875 
Q 39.75 74.21875 46.484375 68.546875 
Q 53.21875 62.890625 53.21875 53.421875 
Q 53.21875 48.921875 51.53125 44.890625 
Q 49.859375 40.875 45.40625 35.40625 
Q 44.1875 33.984375 37.640625 27.21875 
Q 31.109375 20.453125 19.1875 8.296875 
z
" id="DejaVuSans-50"/>
      </defs>
      <g transform="translate(130.812074 322.182437)scale(0.1 -0.1)">
       <use xlink:href="#DejaVuSans-48"/>
       <use x="63.623047" xlink:href="#DejaVuSans-46"/>
       <use x="95.410156" xlink:href="#DejaVuSans-50"/>
      </g>
     </g>
    </g>
    <g id="xtick_3">
     <g id="line2d_3">
      <g>
       <use style="stroke:#000000;stroke-width:0.8;" x="203.694545" xlink:href="#m536de16330" y="307.584"/>
      </g>
     </g>
     <g id="text_3">
      <!-- 0.4 -->
      <defs>
       <path d="M 37.796875 64.3125 
L 12.890625 25.390625 
L 37.796875 25.390625 
z
M 35.203125 72.90625 
L 47.609375 72.90625 
L 47.609375 25.390625 
L 58.015625 25.390625 
L 58.015625 17.1875 
L 47.609375 17.1875 
L 47.609375 0 
L 37.796875 0 
L 37.796875 17.1875 
L 4.890625 17.1875 
L 4.890625 26.703125 
z
" id="DejaVuSans-52"/>
      </defs>
      <g transform="translate(195.742983 322.182437)scale(0.1 -0.1)">
       <use xlink:href="#DejaVuSans-48"/>
       <use x="63.623047" xlink:href="#DejaVuSans-46"/>
       <use x="95.410156" xlink:href="#DejaVuSans-52"/>
      </g>
     </g>
    </g>
    <g id="xtick_4">
     <g id="line2d_4">
      <g>
       <use style="stroke:#000000;stroke-width:0.8;" x="268.625455" xlink:href="#m536de16330" y="307.584"/>
      </g>
     </g>
     <g id="text_4">
      <!-- 0.6 -->
      <defs>
       <path d="M 33.015625 40.375 
Q 26.375 40.375 22.484375 35.828125 
Q 18.609375 31.296875 18.609375 23.390625 
Q 18.609375 15.53125 22.484375 10.953125 
Q 26.375 6.390625 33.015625 6.390625 
Q 39.65625 6.390625 43.53125 10.953125 
Q 47.40625 15.53125 47.40625 23.390625 
Q 47.40625 31.296875 43.53125 35.828125 
Q 39.65625 40.375 33.015625 40.375 
z
M 52.59375 71.296875 
L 52.59375 62.3125 
Q 48.875 64.0625 45.09375 64.984375 
Q 41.3125 65.921875 37.59375 65.921875 
Q 27.828125 65.921875 22.671875 59.328125 
Q 17.53125 52.734375 16.796875 39.40625 
Q 19.671875 43.65625 24.015625 45.921875 
Q 28.375 48.1875 33.59375 48.1875 
Q 44.578125 48.1875 50.953125 41.515625 
Q 57.328125 34.859375 57.328125 23.390625 
Q 57.328125 12.15625 50.6875 5.359375 
Q 44.046875 -1.421875 33.015625 -1.421875 
Q 20.359375 -1.421875 13.671875 8.265625 
Q 6.984375 17.96875 6.984375 36.375 
Q 6.984375 53.65625 15.1875 63.9375 
Q 23.390625 74.21875 37.203125 74.21875 
Q 40.921875 74.21875 44.703125 73.484375 
Q 48.484375 72.75 52.59375 71.296875 
z
" id="DejaVuSans-54"/>
      </defs>
      <g transform="translate(260.673892 322.182437)scale(0.1 -0.1)">
       <use xlink:href="#DejaVuSans-48"/>
       <use x="63.623047" xlink:href="#DejaVuSans-46"/>
       <use x="95.410156" xlink:href="#DejaVuSans-54"/>
      </g>
     </g>
    </g>
    <g id="xtick_5">
     <g id="line2d_5">
      <g>
       <use style="stroke:#000000;stroke-width:0.8;" x="333.556364" xlink:href="#m536de16330" y="307.584"/>
      </g>
     </g>
     <g id="text_5">
      <!-- 0.8 -->
      <defs>
       <path d="M 31.78125 34.625 
Q 24.75 34.625 20.71875 30.859375 
Q 16.703125 27.09375 16.703125 20.515625 
Q 16.703125 13.921875 20.71875 10.15625 
Q 24.75 6.390625 31.78125 6.390625 
Q 38.8125 6.390625 42.859375 10.171875 
Q 46.921875 13.96875 46.921875 20.515625 
Q 46.921875 27.09375 42.890625 30.859375 
Q 38.875 34.625 31.78125 34.625 
z
M 21.921875 38.8125 
Q 15.578125 40.375 12.03125 44.71875 
Q 8.5 49.078125 8.5 55.328125 
Q 8.5 64.0625 14.71875 69.140625 
Q 20.953125 74.21875 31.78125 74.21875 
Q 42.671875 74.21875 48.875 69.140625 
Q 55.078125 64.0625 55.078125 55.328125 
Q 55.078125 49.078125 51.53125 44.71875 
Q 48 40.375 41.703125 38.8125 
Q 48.828125 37.15625 52.796875 32.3125 
Q 56.78125 27.484375 56.78125 20.515625 
Q 56.78125 9.90625 50.3125 4.234375 
Q 43.84375 -1.421875 31.78125 -1.421875 
Q 19.734375 -1.421875 13.25 4.234375 
Q 6.78125 9.90625 6.78125 20.515625 
Q 6.78125 27.484375 10.78125 32.3125 
Q 14.796875 37.15625 21.921875 38.8125 
z
M 18.3125 54.390625 
Q 18.3125 48.734375 21.84375 45.5625 
Q 25.390625 42.390625 31.78125 42.390625 
Q 38.140625 42.390625 41.71875 45.5625 
Q 45.3125 48.734375 45.3125 54.390625 
Q 45.3125 60.0625 41.71875 63.234375 
Q 38.140625 66.40625 31.78125 66.40625 
Q 25.390625 66.40625 21.84375 63.234375 
Q 18.3125 60.0625 18.3125 54.390625 
z
" id="DejaVuSans-56"/>
      </defs>
      <g transform="translate(325.604801 322.182437)scale(0.1 -0.1)">
       <use xlink:href="#DejaVuSans-48"/>
       <use x="63.623047" xlink:href="#DejaVuSans-46"/>
       <use x="95.410156" xlink:href="#DejaVuSans-56"/>
      </g>
     </g>
    </g>
    <g id="xtick_6">
     <g id="line2d_6">
      <g>
       <use style="stroke:#000000;stroke-width:0.8;" x="398.487273" xlink:href="#m536de16330" y="307.584"/>
      </g>
     </g>
     <g id="text_6">
      <!-- 1.0 -->
      <defs>
       <path d="M 12.40625 8.296875 
L 28.515625 8.296875 
L 28.515625 63.921875 
L 10.984375 60.40625 
L 10.984375 69.390625 
L 28.421875 72.90625 
L 38.28125 72.90625 
L 38.28125 8.296875 
L 54.390625 8.296875 
L 54.390625 0 
L 12.40625 0 
z
" id="DejaVuSans-49"/>
      </defs>
      <g transform="translate(390.53571 322.182437)scale(0.1 -0.1)">
       <use xlink:href="#DejaVuSans-49"/>
       <use x="63.623047" xlink:href="#DejaVuSans-46"/>
       <use x="95.410156" xlink:href="#DejaVuSans-48"/>
      </g>
     </g>
    </g>
    <g id="text_7">
     <!-- False positive rate -->
     <defs>
      <path d="M 9.8125 72.90625 
L 51.703125 72.90625 
L 51.703125 64.59375 
L 19.671875 64.59375 
L 19.671875 43.109375 
L 48.578125 43.109375 
L 48.578125 34.8125 
L 19.671875 34.8125 
L 19.671875 0 
L 9.8125 0 
z
" id="DejaVuSans-70"/>
      <path d="M 34.28125 27.484375 
Q 23.390625 27.484375 19.1875 25 
Q 14.984375 22.515625 14.984375 16.5 
Q 14.984375 11.71875 18.140625 8.90625 
Q 21.296875 6.109375 26.703125 6.109375 
Q 34.1875 6.109375 38.703125 11.40625 
Q 43.21875 16.703125 43.21875 25.484375 
L 43.21875 27.484375 
z
M 52.203125 31.203125 
L 52.203125 0 
L 43.21875 0 
L 43.21875 8.296875 
Q 40.140625 3.328125 35.546875 0.953125 
Q 30.953125 -1.421875 24.3125 -1.421875 
Q 15.921875 -1.421875 10.953125 3.296875 
Q 6 8.015625 6 15.921875 
Q 6 25.140625 12.171875 29.828125 
Q 18.359375 34.515625 30.609375 34.515625 
L 43.21875 34.515625 
L 43.21875 35.40625 
Q 43.21875 41.609375 39.140625 45 
Q 35.0625 48.390625 27.6875 48.390625 
Q 23 48.390625 18.546875 47.265625 
Q 14.109375 46.140625 10.015625 43.890625 
L 10.015625 52.203125 
Q 14.9375 54.109375 19.578125 55.046875 
Q 24.21875 56 28.609375 56 
Q 40.484375 56 46.34375 49.84375 
Q 52.203125 43.703125 52.203125 31.203125 
z
" id="DejaVuSans-97"/>
      <path d="M 9.421875 75.984375 
L 18.40625 75.984375 
L 18.40625 0 
L 9.421875 0 
z
" id="DejaVuSans-108"/>
      <path d="M 44.28125 53.078125 
L 44.28125 44.578125 
Q 40.484375 46.53125 36.375 47.5 
Q 32.28125 48.484375 27.875 48.484375 
Q 21.1875 48.484375 17.84375 46.4375 
Q 14.5 44.390625 14.5 40.28125 
Q 14.5 37.15625 16.890625 35.375 
Q 19.28125 33.59375 26.515625 31.984375 
L 29.59375 31.296875 
Q 39.15625 29.25 43.1875 25.515625 
Q 47.21875 21.78125 47.21875 15.09375 
Q 47.21875 7.46875 41.1875 3.015625 
Q 35.15625 -1.421875 24.609375 -1.421875 
Q 20.21875 -1.421875 15.453125 -0.5625 
Q 10.6875 0.296875 5.421875 2 
L 5.421875 11.28125 
Q 10.40625 8.6875 15.234375 7.390625 
Q 20.0625 6.109375 24.8125 6.109375 
Q 31.15625 6.109375 34.5625 8.28125 
Q 37.984375 10.453125 37.984375 14.40625 
Q 37.984375 18.0625 35.515625 20.015625 
Q 33.0625 21.96875 24.703125 23.78125 
L 21.578125 24.515625 
Q 13.234375 26.265625 9.515625 29.90625 
Q 5.8125 33.546875 5.8125 39.890625 
Q 5.8125 47.609375 11.28125 51.796875 
Q 16.75 56 26.8125 56 
Q 31.78125 56 36.171875 55.265625 
Q 40.578125 54.546875 44.28125 53.078125 
z
" id="DejaVuSans-115"/>
      <path d="M 56.203125 29.59375 
L 56.203125 25.203125 
L 14.890625 25.203125 
Q 15.484375 15.921875 20.484375 11.0625 
Q 25.484375 6.203125 34.421875 6.203125 
Q 39.59375 6.203125 44.453125 7.46875 
Q 49.3125 8.734375 54.109375 11.28125 
L 54.109375 2.78125 
Q 49.265625 0.734375 44.1875 -0.34375 
Q 39.109375 -1.421875 33.890625 -1.421875 
Q 20.796875 -1.421875 13.15625 6.1875 
Q 5.515625 13.8125 5.515625 26.8125 
Q 5.515625 40.234375 12.765625 48.109375 
Q 20.015625 56 32.328125 56 
Q 43.359375 56 49.78125 48.890625 
Q 56.203125 41.796875 56.203125 29.59375 
z
M 47.21875 32.234375 
Q 47.125 39.59375 43.09375 43.984375 
Q 39.0625 48.390625 32.421875 48.390625 
Q 24.90625 48.390625 20.390625 44.140625 
Q 15.875 39.890625 15.1875 32.171875 
z
" id="DejaVuSans-101"/>
      <path id="DejaVuSans-32"/>
      <path d="M 18.109375 8.203125 
L 18.109375 -20.796875 
L 9.078125 -20.796875 
L 9.078125 54.6875 
L 18.109375 54.6875 
L 18.109375 46.390625 
Q 20.953125 51.265625 25.265625 53.625 
Q 29.59375 56 35.59375 56 
Q 45.5625 56 51.78125 48.09375 
Q 58.015625 40.1875 58.015625 27.296875 
Q 58.015625 14.40625 51.78125 6.484375 
Q 45.5625 -1.421875 35.59375 -1.421875 
Q 29.59375 -1.421875 25.265625 0.953125 
Q 20.953125 3.328125 18.109375 8.203125 
z
M 48.6875 27.296875 
Q 48.6875 37.203125 44.609375 42.84375 
Q 40.53125 48.484375 33.40625 48.484375 
Q 26.265625 48.484375 22.1875 42.84375 
Q 18.109375 37.203125 18.109375 27.296875 
Q 18.109375 17.390625 22.1875 11.75 
Q 26.265625 6.109375 33.40625 6.109375 
Q 40.53125 6.109375 44.609375 11.75 
Q 48.6875 17.390625 48.6875 27.296875 
z
" id="DejaVuSans-112"/>
      <path d="M 30.609375 48.390625 
Q 23.390625 48.390625 19.1875 42.75 
Q 14.984375 37.109375 14.984375 27.296875 
Q 14.984375 17.484375 19.15625 11.84375 
Q 23.34375 6.203125 30.609375 6.203125 
Q 37.796875 6.203125 41.984375 11.859375 
Q 46.1875 17.53125 46.1875 27.296875 
Q 46.1875 37.015625 41.984375 42.703125 
Q 37.796875 48.390625 30.609375 48.390625 
z
M 30.609375 56 
Q 42.328125 56 49.015625 48.375 
Q 55.71875 40.765625 55.71875 27.296875 
Q 55.71875 13.875 49.015625 6.21875 
Q 42.328125 -1.421875 30.609375 -1.421875 
Q 18.84375 -1.421875 12.171875 6.21875 
Q 5.515625 13.875 5.515625 27.296875 
Q 5.515625 40.765625 12.171875 48.375 
Q 18.84375 56 30.609375 56 
z
" id="DejaVuSans-111"/>
      <path d="M 9.421875 54.6875 
L 18.40625 54.6875 
L 18.40625 0 
L 9.421875 0 
z
M 9.421875 75.984375 
L 18.40625 75.984375 
L 18.40625 64.59375 
L 9.421875 64.59375 
z
" id="DejaVuSans-105"/>
      <path d="M 18.3125 70.21875 
L 18.3125 54.6875 
L 36.8125 54.6875 
L 36.8125 47.703125 
L 18.3125 47.703125 
L 18.3125 18.015625 
Q 18.3125 11.328125 20.140625 9.421875 
Q 21.96875 7.515625 27.59375 7.515625 
L 36.8125 7.515625 
L 36.8125 0 
L 27.59375 0 
Q 17.1875 0 13.234375 3.875 
Q 9.28125 7.765625 9.28125 18.015625 
L 9.28125 47.703125 
L 2.6875 47.703125 
L 2.6875 54.6875 
L 9.28125 54.6875 
L 9.28125 70.21875 
z
" id="DejaVuSans-116"/>
      <path d="M 2.984375 54.6875 
L 12.5 54.6875 
L 29.59375 8.796875 
L 46.6875 54.6875 
L 56.203125 54.6875 
L 35.6875 0 
L 23.484375 0 
z
" id="DejaVuSans-118"/>
      <path d="M 41.109375 46.296875 
Q 39.59375 47.171875 37.8125 47.578125 
Q 36.03125 48 33.890625 48 
Q 26.265625 48 22.1875 43.046875 
Q 18.109375 38.09375 18.109375 28.8125 
L 18.109375 0 
L 9.078125 0 
L 9.078125 54.6875 
L 18.109375 54.6875 
L 18.109375 46.1875 
Q 20.953125 51.171875 25.484375 53.578125 
Q 30.03125 56 36.53125 56 
Q 37.453125 56 38.578125 55.875 
Q 39.703125 55.765625 41.0625 55.515625 
z
" id="DejaVuSans-114"/>
     </defs>
     <g transform="translate(190.21 335.860562)scale(0.1 -0.1)">
      <use xlink:href="#DejaVuSans-70"/>
      <use x="57.378906" xlink:href="#DejaVuSans-97"/>
      <use x="118.658203" xlink:href="#DejaVuSans-108"/>
      <use x="146.441406" xlink:href="#DejaVuSans-115"/>
      <use x="198.541016" xlink:href="#DejaVuSans-101"/>
      <use x="260.064453" xlink:href="#DejaVuSans-32"/>
      <use x="291.851562" xlink:href="#DejaVuSans-112"/>
      <use x="355.328125" xlink:href="#DejaVuSans-111"/>
      <use x="416.509766" xlink:href="#DejaVuSans-115"/>
      <use x="468.609375" xlink:href="#DejaVuSans-105"/>
      <use x="496.392578" xlink:href="#DejaVuSans-116"/>
      <use x="535.601562" xlink:href="#DejaVuSans-105"/>
      <use x="563.384766" xlink:href="#DejaVuSans-118"/>
      <use x="622.564453" xlink:href="#DejaVuSans-101"/>
      <use x="684.087891" xlink:href="#DejaVuSans-32"/>
      <use x="715.875" xlink:href="#DejaVuSans-114"/>
      <use x="756.988281" xlink:href="#DejaVuSans-97"/>
      <use x="818.267578" xlink:href="#DejaVuSans-116"/>
      <use x="857.476562" xlink:href="#DejaVuSans-101"/>
     </g>
    </g>
   </g>
   <g id="matplotlib.axis_2">
    <g id="ytick_1">
     <g id="line2d_7">
      <defs>
       <path d="M 0 0 
L -3.5 0 
" id="m053e3ecd5d" style="stroke:#000000;stroke-width:0.8;"/>
      </defs>
      <g>
       <use style="stroke:#000000;stroke-width:0.8;" x="57.6" xlink:href="#m053e3ecd5d" y="295.488"/>
      </g>
     </g>
     <g id="text_8">
      <!-- 0.0 -->
      <g transform="translate(34.696875 299.287219)scale(0.1 -0.1)">
       <use xlink:href="#DejaVuSans-48"/>
       <use x="63.623047" xlink:href="#DejaVuSans-46"/>
       <use x="95.410156" xlink:href="#DejaVuSans-48"/>
      </g>
     </g>
    </g>
    <g id="ytick_2">
     <g id="line2d_8">
      <g>
       <use style="stroke:#000000;stroke-width:0.8;" x="57.6" xlink:href="#m053e3ecd5d" y="247.104"/>
      </g>
     </g>
     <g id="text_9">
      <!-- 0.2 -->
      <g transform="translate(34.696875 250.903219)scale(0.1 -0.1)">
       <use xlink:href="#DejaVuSans-48"/>
       <use x="63.623047" xlink:href="#DejaVuSans-46"/>
       <use x="95.410156" xlink:href="#DejaVuSans-50"/>
      </g>
     </g>
    </g>
    <g id="ytick_3">
     <g id="line2d_9">
      <g>
       <use style="stroke:#000000;stroke-width:0.8;" x="57.6" xlink:href="#m053e3ecd5d" y="198.72"/>
      </g>
     </g>
     <g id="text_10">
      <!-- 0.4 -->
      <g transform="translate(34.696875 202.519219)scale(0.1 -0.1)">
       <use xlink:href="#DejaVuSans-48"/>
       <use x="63.623047" xlink:href="#DejaVuSans-46"/>
       <use x="95.410156" xlink:href="#DejaVuSans-52"/>
      </g>
     </g>
    </g>
    <g id="ytick_4">
     <g id="line2d_10">
      <g>
       <use style="stroke:#000000;stroke-width:0.8;" x="57.6" xlink:href="#m053e3ecd5d" y="150.336"/>
      </g>
     </g>
     <g id="text_11">
      <!-- 0.6 -->
      <g transform="translate(34.696875 154.135219)scale(0.1 -0.1)">
       <use xlink:href="#DejaVuSans-48"/>
       <use x="63.623047" xlink:href="#DejaVuSans-46"/>
       <use x="95.410156" xlink:href="#DejaVuSans-54"/>
      </g>
     </g>
    </g>
    <g id="ytick_5">
     <g id="line2d_11">
      <g>
       <use style="stroke:#000000;stroke-width:0.8;" x="57.6" xlink:href="#m053e3ecd5d" y="101.952"/>
      </g>
     </g>
     <g id="text_12">
      <!-- 0.8 -->
      <g transform="translate(34.696875 105.751219)scale(0.1 -0.1)">
       <use xlink:href="#DejaVuSans-48"/>
       <use x="63.623047" xlink:href="#DejaVuSans-46"/>
       <use x="95.410156" xlink:href="#DejaVuSans-56"/>
      </g>
     </g>
    </g>
    <g id="ytick_6">
     <g id="line2d_12">
      <g>
       <use style="stroke:#000000;stroke-width:0.8;" x="57.6" xlink:href="#m053e3ecd5d" y="53.568"/>
      </g>
     </g>
     <g id="text_13">
      <!-- 1.0 -->
      <g transform="translate(34.696875 57.367219)scale(0.1 -0.1)">
       <use xlink:href="#DejaVuSans-49"/>
       <use x="63.623047" xlink:href="#DejaVuSans-46"/>
       <use x="95.410156" xlink:href="#DejaVuSans-48"/>
      </g>
     </g>
    </g>
    <g id="text_14">
     <!-- True positive rate -->
     <defs>
      <path d="M -0.296875 72.90625 
L 61.375 72.90625 
L 61.375 64.59375 
L 35.5 64.59375 
L 35.5 0 
L 25.59375 0 
L 25.59375 64.59375 
L -0.296875 64.59375 
z
" id="DejaVuSans-84"/>
      <path d="M 8.5 21.578125 
L 8.5 54.6875 
L 17.484375 54.6875 
L 17.484375 21.921875 
Q 17.484375 14.15625 20.5 10.265625 
Q 23.53125 6.390625 29.59375 6.390625 
Q 36.859375 6.390625 41.078125 11.03125 
Q 45.3125 15.671875 45.3125 23.6875 
L 45.3125 54.6875 
L 54.296875 54.6875 
L 54.296875 0 
L 45.3125 0 
L 45.3125 8.40625 
Q 42.046875 3.421875 37.71875 1 
Q 33.40625 -1.421875 27.6875 -1.421875 
Q 18.265625 -1.421875 13.375 4.4375 
Q 8.5 10.296875 8.5 21.578125 
z
M 31.109375 56 
z
" id="DejaVuSans-117"/>
     </defs>
     <g transform="translate(28.617187 218.818625)rotate(-90)scale(0.1 -0.1)">
      <use xlink:href="#DejaVuSans-84"/>
      <use x="60.865234" xlink:href="#DejaVuSans-114"/>
      <use x="101.978516" xlink:href="#DejaVuSans-117"/>
      <use x="165.357422" xlink:href="#DejaVuSans-101"/>
      <use x="226.880859" xlink:href="#DejaVuSans-32"/>
      <use x="258.667969" xlink:href="#DejaVuSans-112"/>
      <use x="322.144531" xlink:href="#DejaVuSans-111"/>
      <use x="383.326172" xlink:href="#DejaVuSans-115"/>
      <use x="435.425781" xlink:href="#DejaVuSans-105"/>
      <use x="463.208984" xlink:href="#DejaVuSans-116"/>
      <use x="502.417969" xlink:href="#DejaVuSans-105"/>
      <use x="530.201172" xlink:href="#DejaVuSans-118"/>
      <use x="589.380859" xlink:href="#DejaVuSans-101"/>
      <use x="650.904297" xlink:href="#DejaVuSans-32"/>
      <use x="682.691406" xlink:href="#DejaVuSans-114"/>
      <use x="723.804688" xlink:href="#DejaVuSans-97"/>
      <use x="785.083984" xlink:href="#DejaVuSans-116"/>
      <use x="824.292969" xlink:href="#DejaVuSans-101"/>
     </g>
    </g>
   </g>
   <g id="line2d_13">
    <path clip-path="url(#pdae10a9420)" d="M 73.832727 295.488 
L 398.487273 53.568 
" style="fill:none;stroke:#000000;stroke-dasharray:5.55,2.4;stroke-dashoffset:0;stroke-width:1.5;"/>
   </g>
   <g id="line2d_14">
    <path clip-path="url(#pdae10a9420)" d="M 73.832727 295.488 
L 73.832727 295.144851 
L 73.832727 243.672511 
L 75.506204 243.672511 
L 75.506204 203.524085 
L 77.179681 203.524085 
L 77.179681 202.494638 
L 78.853158 202.494638 
L 78.853158 169.55234 
L 80.526635 169.55234 
L 80.526635 156.512681 
L 82.200112 156.512681 
L 82.200112 150.336 
L 83.87359 150.336 
L 83.87359 119.795745 
L 85.547067 119.795745 
L 85.547067 119.109447 
L 87.220544 119.109447 
L 87.220544 117.050553 
L 88.894021 117.050553 
L 88.894021 116.021106 
L 90.567498 116.021106 
L 90.567498 110.873872 
L 92.240975 110.873872 
L 92.240975 109.844426 
L 93.914452 109.844426 
L 93.914452 106.412936 
L 95.587929 106.412936 
L 95.587929 105.726638 
L 97.261406 105.726638 
L 97.261406 99.893106 
L 98.934883 99.893106 
L 98.934883 98.177362 
L 100.60836 98.177362 
L 100.60836 97.834213 
L 102.281837 97.834213 
L 102.281837 95.775319 
L 103.955314 95.775319 
L 103.955314 95.089021 
L 105.628791 95.089021 
L 105.628791 93.373277 
L 107.302268 93.373277 
L 107.302268 86.510298 
L 108.975745 86.510298 
L 108.975745 83.078809 
L 110.649222 83.078809 
L 110.649222 81.019915 
L 112.322699 81.019915 
L 112.322699 80.333617 
L 113.996176 80.333617 
L 113.996176 78.961021 
L 117.34313 78.961021 
L 117.34313 78.617872 
L 119.016607 78.617872 
L 119.016607 77.588426 
L 120.690084 77.588426 
L 120.690084 76.558979 
L 124.037038 76.558979 
L 124.037038 76.21583 
L 125.710515 76.21583 
L 125.710515 74.156936 
L 130.730947 74.156936 
L 130.730947 73.813787 
L 132.404424 73.813787 
L 132.404424 73.470638 
L 134.077901 73.470638 
L 134.077901 73.127489 
L 137.424855 73.127489 
L 137.424855 72.78434 
L 144.118763 72.78434 
L 144.118763 72.441191 
L 150.812671 72.441191 
L 150.812671 70.382298 
L 152.486148 70.382298 
L 152.486148 67.980255 
L 155.833102 67.980255 
L 155.833102 67.293957 
L 159.180056 67.293957 
L 159.180056 64.205617 
L 162.52701 64.205617 
L 162.52701 63.519319 
L 164.200487 63.519319 
L 164.200487 62.489872 
L 170.894396 62.489872 
L 170.894396 61.460426 
L 172.567873 61.460426 
L 172.567873 59.744681 
L 175.914827 59.744681 
L 175.914827 59.058383 
L 177.588304 59.058383 
L 177.588304 56.999489 
L 180.935258 56.999489 
L 180.935258 56.313191 
L 187.629166 56.313191 
L 187.629166 54.254298 
L 190.97612 54.254298 
L 190.97612 53.911149 
L 194.323074 53.911149 
L 194.323074 53.568 
L 264.60911 53.568 
L 267.956064 53.568 
L 284.690834 53.568 
L 288.037788 53.568 
L 293.058219 53.568 
L 296.405173 53.568 
L 398.487273 53.568 
" style="fill:none;stroke:#1f77b4;stroke-linecap:square;stroke-width:1.5;"/>
   </g>
   <g id="line2d_15">
    <path clip-path="url(#pdae10a9420)" d="M 73.832727 295.488 
L 73.832727 273.869617 
L 75.506204 273.869617 
L 75.506204 256.369021 
L 77.179681 256.369021 
L 77.179681 234.750638 
L 78.853158 234.750638 
L 78.853158 224.45617 
L 80.526635 224.45617 
L 80.526635 214.161702 
L 82.200112 214.161702 
L 82.200112 207.641872 
L 83.87359 207.641872 
L 83.87359 205.926128 
L 85.547067 205.926128 
L 85.547067 188.425532 
L 87.220544 188.425532 
L 87.220544 170.581787 
L 88.894021 170.581787 
L 88.894021 163.718809 
L 90.567498 163.718809 
L 90.567498 159.257872 
L 92.240975 159.257872 
L 92.240975 155.140085 
L 93.914452 155.140085 
L 93.914452 154.453787 
L 95.587929 154.453787 
L 95.587929 150.679149 
L 98.934883 150.679149 
L 98.934883 149.649702 
L 100.60836 149.649702 
L 100.60836 143.473021 
L 102.281837 143.473021 
L 102.281837 142.100426 
L 103.955314 142.100426 
L 103.955314 135.923745 
L 105.628791 135.923745 
L 105.628791 134.551149 
L 107.302268 134.551149 
L 107.302268 131.805957 
L 108.975745 131.805957 
L 108.975745 131.462809 
L 110.649222 131.462809 
L 110.649222 127.345021 
L 112.322699 127.345021 
L 112.322699 127.001872 
L 113.996176 127.001872 
L 113.996176 126.658723 
L 115.669653 126.658723 
L 115.669653 125.972426 
L 117.34313 125.972426 
L 117.34313 125.286128 
L 119.016607 125.286128 
L 119.016607 123.570383 
L 120.690084 123.570383 
L 120.690084 118.766298 
L 122.363561 118.766298 
L 122.363561 117.050553 
L 124.037038 117.050553 
L 124.037038 116.021106 
L 125.710515 116.021106 
L 125.710515 114.305362 
L 127.383993 114.305362 
L 127.383993 109.158128 
L 129.05747 109.158128 
L 129.05747 107.442383 
L 130.730947 107.442383 
L 130.730947 102.981447 
L 134.077901 102.981447 
L 134.077901 102.638298 
L 135.751378 102.638298 
L 135.751378 99.893106 
L 147.465717 99.893106 
L 147.465717 98.520511 
L 149.139194 98.520511 
L 149.139194 97.491064 
L 155.833102 97.491064 
L 155.833102 97.147915 
L 157.506579 97.147915 
L 157.506579 95.43217 
L 159.180056 95.43217 
L 159.180056 95.089021 
L 164.200487 95.089021 
L 164.200487 94.745872 
L 167.547441 94.745872 
L 167.547441 93.373277 
L 170.894396 93.373277 
L 170.894396 93.030128 
L 172.567873 93.030128 
L 172.567873 92.000681 
L 175.914827 92.000681 
L 175.914827 91.657532 
L 177.588304 91.657532 
L 177.588304 90.284936 
L 180.935258 90.284936 
L 180.935258 89.598638 
L 182.608735 89.598638 
L 182.608735 88.569191 
L 185.955689 88.569191 
L 185.955689 85.137702 
L 187.629166 85.137702 
L 187.629166 84.451404 
L 189.302643 84.451404 
L 189.302643 81.706213 
L 190.97612 81.706213 
L 190.97612 81.363064 
L 195.996551 81.363064 
L 195.996551 81.019915 
L 204.363936 81.019915 
L 204.363936 80.676766 
L 212.731321 80.676766 
L 212.731321 79.990468 
L 216.078276 79.990468 
L 216.078276 79.647319 
L 217.751753 79.647319 
L 217.751753 78.961021 
L 219.42523 78.961021 
L 219.42523 77.245277 
L 221.098707 77.245277 
L 221.098707 75.872681 
L 226.119138 75.872681 
L 226.119138 75.186383 
L 232.813046 75.186383 
L 232.813046 74.843234 
L 236.16 74.843234 
L 236.16 71.411745 
L 239.506954 71.411745 
L 239.506954 71.068596 
L 241.180431 71.068596 
L 241.180431 70.725447 
L 242.853908 70.725447 
L 242.853908 70.382298 
L 244.527385 70.382298 
L 244.527385 70.039149 
L 247.874339 70.039149 
L 247.874339 69.009702 
L 251.221293 69.009702 
L 251.221293 67.637106 
L 252.89477 67.637106 
L 252.89477 65.578213 
L 254.568247 65.578213 
L 254.568247 65.235064 
L 257.915201 65.235064 
L 257.915201 64.205617 
L 259.588679 64.205617 
L 259.588679 63.862468 
L 262.935633 63.862468 
L 262.935633 61.460426 
L 264.60911 61.460426 
L 264.60911 60.774128 
L 266.282587 60.774128 
L 266.282587 59.744681 
L 267.956064 59.744681 
L 267.956064 58.715234 
L 272.976495 58.715234 
L 272.976495 58.372085 
L 281.34388 58.372085 
L 281.34388 58.028936 
L 294.731696 58.028936 
L 294.731696 57.685787 
L 303.099082 57.685787 
L 303.099082 56.65634 
L 306.446036 56.65634 
L 306.446036 56.313191 
L 308.119513 56.313191 
L 308.119513 55.970043 
L 314.813421 55.970043 
L 314.813421 55.626894 
L 321.507329 55.626894 
L 321.507329 54.940596 
L 323.180806 54.940596 
L 323.180806 54.597447 
L 328.201237 54.597447 
L 328.201237 54.254298 
L 329.874714 54.254298 
L 329.874714 53.911149 
L 351.629916 53.911149 
L 351.629916 53.568 
L 398.487273 53.568 
L 398.487273 53.568 
" style="fill:none;stroke:#ff7f0e;stroke-linecap:square;stroke-width:1.5;"/>
   </g>
   <g id="line2d_16">
    <path clip-path="url(#pdae10a9420)" d="M 73.832727 295.488 
L 73.832727 201.465191 
L 75.506204 201.465191 
L 75.506204 195.288511 
L 77.179681 195.288511 
L 77.179681 192.543319 
L 78.853158 192.543319 
L 78.853158 190.141277 
L 80.526635 190.141277 
L 80.526635 187.739234 
L 82.200112 187.739234 
L 82.200112 183.964596 
L 83.87359 183.964596 
L 83.87359 182.592 
L 85.547067 182.592 
L 85.547067 177.444766 
L 87.220544 177.444766 
L 87.220544 169.55234 
L 88.894021 169.55234 
L 88.894021 167.836596 
L 90.567498 167.836596 
L 90.567498 147.24766 
L 92.240975 147.24766 
L 92.240975 145.188766 
L 93.914452 145.188766 
L 93.914452 137.982638 
L 95.587929 137.982638 
L 95.587929 135.580596 
L 97.261406 135.580596 
L 97.261406 131.11966 
L 98.934883 131.11966 
L 98.934883 123.570383 
L 100.60836 123.570383 
L 100.60836 117.393702 
L 102.281837 117.393702 
L 102.281837 116.021106 
L 103.955314 116.021106 
L 103.955314 114.305362 
L 105.628791 114.305362 
L 105.628791 110.530723 
L 107.302268 110.530723 
L 107.302268 108.814979 
L 108.975745 108.814979 
L 108.975745 106.412936 
L 110.649222 106.412936 
L 110.649222 105.726638 
L 112.322699 105.726638 
L 112.322699 105.04034 
L 113.996176 105.04034 
L 113.996176 101.608851 
L 115.669653 101.608851 
L 115.669653 100.579404 
L 119.016607 100.579404 
L 119.016607 98.177362 
L 120.690084 98.177362 
L 120.690084 96.804766 
L 122.363561 96.804766 
L 122.363561 95.089021 
L 125.710515 95.089021 
L 125.710515 93.373277 
L 127.383993 93.373277 
L 127.383993 89.255489 
L 129.05747 89.255489 
L 129.05747 88.226043 
L 130.730947 88.226043 
L 130.730947 86.510298 
L 132.404424 86.510298 
L 132.404424 86.167149 
L 135.751378 86.167149 
L 135.751378 85.137702 
L 139.098332 85.137702 
L 139.098332 83.078809 
L 140.771809 83.078809 
L 140.771809 77.588426 
L 144.118763 77.588426 
L 144.118763 76.902128 
L 147.465717 76.902128 
L 147.465717 75.529532 
L 150.812671 75.529532 
L 150.812671 74.500085 
L 152.486148 74.500085 
L 152.486148 74.156936 
L 154.159625 74.156936 
L 154.159625 73.813787 
L 155.833102 73.813787 
L 155.833102 73.127489 
L 157.506579 73.127489 
L 157.506579 71.754894 
L 160.853533 71.754894 
L 160.853533 71.411745 
L 162.52701 71.411745 
L 162.52701 69.696 
L 164.200487 69.696 
L 164.200487 69.009702 
L 165.873964 69.009702 
L 165.873964 68.666553 
L 167.547441 68.666553 
L 167.547441 68.323404 
L 169.220918 68.323404 
L 169.220918 67.637106 
L 170.894396 67.637106 
L 170.894396 66.950809 
L 174.24135 66.950809 
L 174.24135 66.264511 
L 175.914827 66.264511 
L 175.914827 65.921362 
L 184.282212 65.921362 
L 184.282212 64.891915 
L 192.649597 64.891915 
L 192.649597 64.548766 
L 199.343505 64.548766 
L 199.343505 63.519319 
L 201.016982 63.519319 
L 201.016982 63.17617 
L 202.690459 63.17617 
L 202.690459 62.833021 
L 229.466092 62.833021 
L 229.466092 62.489872 
L 232.813046 62.489872 
L 232.813046 62.146723 
L 236.16 62.146723 
L 236.16 61.803574 
L 239.506954 61.803574 
L 239.506954 60.430979 
L 247.874339 60.430979 
L 247.874339 60.08783 
L 261.262156 60.08783 
L 261.262156 59.401532 
L 264.60911 59.401532 
L 264.60911 59.058383 
L 272.976495 59.058383 
L 272.976495 58.372085 
L 274.649972 58.372085 
L 274.649972 57.342638 
L 276.323449 57.342638 
L 276.323449 56.999489 
L 277.996926 56.999489 
L 277.996926 55.626894 
L 281.34388 55.626894 
L 281.34388 54.940596 
L 284.690834 54.940596 
L 284.690834 54.597447 
L 288.037788 54.597447 
L 288.037788 53.911149 
L 289.711265 53.911149 
L 289.711265 53.568 
L 398.487273 53.568 
L 398.487273 53.568 
" style="fill:none;stroke:#2ca02c;stroke-linecap:square;stroke-width:1.5;"/>
   </g>
   <g id="line2d_17">
    <path clip-path="url(#pdae10a9420)" d="M 73.832727 295.488 
L 73.832727 208.671319 
L 75.506204 208.671319 
L 75.506204 207.298723 
L 77.179681 207.298723 
L 77.179681 198.033702 
L 78.853158 198.033702 
L 78.853158 197.004255 
L 80.526635 197.004255 
L 80.526635 187.052936 
L 85.547067 187.052936 
L 85.547067 186.023489 
L 87.220544 186.023489 
L 87.220544 182.248851 
L 88.894021 182.248851 
L 88.894021 181.219404 
L 93.914452 181.219404 
L 93.914452 180.533106 
L 95.587929 180.533106 
L 95.587929 177.787915 
L 97.261406 177.787915 
L 97.261406 177.444766 
L 98.934883 177.444766 
L 98.934883 176.758468 
L 102.281837 176.758468 
L 102.281837 176.415319 
L 105.628791 176.415319 
L 105.628791 175.385872 
L 107.302268 175.385872 
L 107.302268 175.042723 
L 108.975745 175.042723 
L 108.975745 171.268085 
L 110.649222 171.268085 
L 110.649222 170.924936 
L 112.322699 170.924936 
L 112.322699 170.238638 
L 113.996176 170.238638 
L 113.996176 168.179745 
L 115.669653 168.179745 
L 115.669653 167.493447 
L 117.34313 167.493447 
L 117.34313 166.464 
L 119.016607 166.464 
L 119.016607 164.748255 
L 120.690084 164.748255 
L 120.690084 159.257872 
L 122.363561 159.257872 
L 122.363561 158.228426 
L 124.037038 158.228426 
L 124.037038 157.885277 
L 125.710515 157.885277 
L 125.710515 155.483234 
L 127.383993 155.483234 
L 127.383993 144.502468 
L 132.404424 144.502468 
L 132.404424 143.129872 
L 134.077901 143.129872 
L 134.077901 140.041532 
L 135.751378 140.041532 
L 135.751378 139.698383 
L 137.424855 139.698383 
L 137.424855 137.639489 
L 140.771809 137.639489 
L 140.771809 133.521702 
L 144.118763 133.521702 
L 144.118763 132.149106 
L 145.79224 132.149106 
L 145.79224 131.462809 
L 149.139194 131.462809 
L 149.139194 129.403915 
L 150.812671 129.403915 
L 150.812671 129.060766 
L 152.486148 129.060766 
L 152.486148 128.374468 
L 154.159625 128.374468 
L 154.159625 126.658723 
L 155.833102 126.658723 
L 155.833102 124.942979 
L 157.506579 124.942979 
L 157.506579 124.59983 
L 160.853533 124.59983 
L 160.853533 123.913532 
L 162.52701 123.913532 
L 162.52701 123.227234 
L 165.873964 123.227234 
L 165.873964 121.16834 
L 169.220918 121.16834 
L 169.220918 118.423149 
L 170.894396 118.423149 
L 170.894396 113.619064 
L 172.567873 113.619064 
L 172.567873 113.275915 
L 174.24135 113.275915 
L 174.24135 112.246468 
L 177.588304 112.246468 
L 177.588304 111.56017 
L 180.935258 111.56017 
L 180.935258 109.844426 
L 182.608735 109.844426 
L 182.608735 108.128681 
L 187.629166 108.128681 
L 187.629166 107.785532 
L 190.97612 107.785532 
L 190.97612 105.04034 
L 192.649597 105.04034 
L 192.649597 102.981447 
L 194.323074 102.981447 
L 194.323074 102.638298 
L 197.670028 102.638298 
L 197.670028 101.952 
L 202.690459 101.952 
L 202.690459 100.236255 
L 204.363936 100.236255 
L 204.363936 99.206809 
L 206.037413 99.206809 
L 206.037413 98.177362 
L 209.384367 98.177362 
L 209.384367 96.118468 
L 211.057844 96.118468 
L 211.057844 94.402723 
L 212.731321 94.402723 
L 212.731321 94.059574 
L 221.098707 94.059574 
L 221.098707 93.716426 
L 222.772184 93.716426 
L 222.772184 93.030128 
L 224.445661 93.030128 
L 224.445661 90.971234 
L 226.119138 90.971234 
L 226.119138 89.255489 
L 227.792615 89.255489 
L 227.792615 88.569191 
L 232.813046 88.569191 
L 232.813046 87.882894 
L 237.833477 87.882894 
L 237.833477 87.196596 
L 241.180431 87.196596 
L 241.180431 86.167149 
L 242.853908 86.167149 
L 242.853908 85.824 
L 244.527385 85.824 
L 244.527385 85.137702 
L 249.547816 85.137702 
L 249.547816 83.078809 
L 251.221293 83.078809 
L 251.221293 81.363064 
L 259.588679 81.363064 
L 259.588679 79.647319 
L 261.262156 79.647319 
L 261.262156 78.961021 
L 267.956064 78.961021 
L 267.956064 78.617872 
L 271.303018 78.617872 
L 271.303018 78.274723 
L 272.976495 78.274723 
L 272.976495 77.588426 
L 276.323449 77.588426 
L 276.323449 77.245277 
L 277.996926 77.245277 
L 277.996926 76.558979 
L 279.670403 76.558979 
L 279.670403 76.21583 
L 283.017357 76.21583 
L 283.017357 74.500085 
L 288.037788 74.500085 
L 288.037788 72.78434 
L 289.711265 72.78434 
L 289.711265 72.441191 
L 291.384742 72.441191 
L 291.384742 72.098043 
L 293.058219 72.098043 
L 293.058219 71.754894 
L 294.731696 71.754894 
L 294.731696 69.696 
L 298.07865 69.696 
L 298.07865 69.352851 
L 299.752127 69.352851 
L 299.752127 68.323404 
L 301.425604 68.323404 
L 301.425604 67.637106 
L 303.099082 67.637106 
L 303.099082 66.950809 
L 306.446036 66.950809 
L 306.446036 66.60766 
L 308.119513 66.60766 
L 308.119513 65.921362 
L 313.139944 65.921362 
L 313.139944 63.17617 
L 314.813421 63.17617 
L 314.813421 62.833021 
L 316.486898 62.833021 
L 316.486898 61.460426 
L 323.180806 61.460426 
L 323.180806 60.774128 
L 331.548191 60.774128 
L 331.548191 60.08783 
L 333.221668 60.08783 
L 333.221668 59.744681 
L 334.895145 59.744681 
L 334.895145 57.685787 
L 336.568622 57.685787 
L 336.568622 56.65634 
L 339.915576 56.65634 
L 339.915576 55.626894 
L 341.589053 55.626894 
L 341.589053 55.283745 
L 348.282962 55.283745 
L 348.282962 54.940596 
L 351.629916 54.940596 
L 351.629916 54.597447 
L 356.650347 54.597447 
L 356.650347 54.254298 
L 363.344255 54.254298 
L 363.344255 53.911149 
L 368.364686 53.911149 
L 368.364686 53.568 
L 398.487273 53.568 
L 398.487273 53.568 
" style="fill:none;stroke:#d62728;stroke-linecap:square;stroke-width:1.5;"/>
   </g>
   <g id="patch_3">
    <path d="M 57.6 307.584 
L 57.6 41.472 
" style="fill:none;stroke:#000000;stroke-linecap:square;stroke-linejoin:miter;stroke-width:0.8;"/>
   </g>
   <g id="patch_4">
    <path d="M 414.72 307.584 
L 414.72 41.472 
" style="fill:none;stroke:#000000;stroke-linecap:square;stroke-linejoin:miter;stroke-width:0.8;"/>
   </g>
   <g id="patch_5">
    <path d="M 57.6 307.584 
L 414.72 307.584 
" style="fill:none;stroke:#000000;stroke-linecap:square;stroke-linejoin:miter;stroke-width:0.8;"/>
   </g>
   <g id="patch_6">
    <path d="M 57.6 41.472 
L 414.72 41.472 
" style="fill:none;stroke:#000000;stroke-linecap:square;stroke-linejoin:miter;stroke-width:0.8;"/>
   </g>
   <g id="text_15">
    <!-- GLCM ROC -->
    <defs>
     <path d="M 59.515625 10.40625 
L 59.515625 29.984375 
L 43.40625 29.984375 
L 43.40625 38.09375 
L 69.28125 38.09375 
L 69.28125 6.78125 
Q 63.578125 2.734375 56.6875 0.65625 
Q 49.8125 -1.421875 42 -1.421875 
Q 24.90625 -1.421875 15.25 8.5625 
Q 5.609375 18.5625 5.609375 36.375 
Q 5.609375 54.25 15.25 64.234375 
Q 24.90625 74.21875 42 74.21875 
Q 49.125 74.21875 55.546875 72.453125 
Q 61.96875 70.703125 67.390625 67.28125 
L 67.390625 56.78125 
Q 61.921875 61.421875 55.765625 63.765625 
Q 49.609375 66.109375 42.828125 66.109375 
Q 29.4375 66.109375 22.71875 58.640625 
Q 16.015625 51.171875 16.015625 36.375 
Q 16.015625 21.625 22.71875 14.15625 
Q 29.4375 6.6875 42.828125 6.6875 
Q 48.046875 6.6875 52.140625 7.59375 
Q 56.25 8.5 59.515625 10.40625 
z
" id="DejaVuSans-71"/>
     <path d="M 9.8125 72.90625 
L 19.671875 72.90625 
L 19.671875 8.296875 
L 55.171875 8.296875 
L 55.171875 0 
L 9.8125 0 
z
" id="DejaVuSans-76"/>
     <path d="M 64.40625 67.28125 
L 64.40625 56.890625 
Q 59.421875 61.53125 53.78125 63.8125 
Q 48.140625 66.109375 41.796875 66.109375 
Q 29.296875 66.109375 22.65625 58.46875 
Q 16.015625 50.828125 16.015625 36.375 
Q 16.015625 21.96875 22.65625 14.328125 
Q 29.296875 6.6875 41.796875 6.6875 
Q 48.140625 6.6875 53.78125 8.984375 
Q 59.421875 11.28125 64.40625 15.921875 
L 64.40625 5.609375 
Q 59.234375 2.09375 53.4375 0.328125 
Q 47.65625 -1.421875 41.21875 -1.421875 
Q 24.65625 -1.421875 15.125 8.703125 
Q 5.609375 18.84375 5.609375 36.375 
Q 5.609375 53.953125 15.125 64.078125 
Q 24.65625 74.21875 41.21875 74.21875 
Q 47.75 74.21875 53.53125 72.484375 
Q 59.328125 70.75 64.40625 67.28125 
z
" id="DejaVuSans-67"/>
     <path d="M 9.8125 72.90625 
L 24.515625 72.90625 
L 43.109375 23.296875 
L 61.8125 72.90625 
L 76.515625 72.90625 
L 76.515625 0 
L 66.890625 0 
L 66.890625 64.015625 
L 48.09375 14.015625 
L 38.1875 14.015625 
L 19.390625 64.015625 
L 19.390625 0 
L 9.8125 0 
z
" id="DejaVuSans-77"/>
     <path d="M 44.390625 34.1875 
Q 47.5625 33.109375 50.5625 29.59375 
Q 53.5625 26.078125 56.59375 19.921875 
L 66.609375 0 
L 56 0 
L 46.6875 18.703125 
Q 43.0625 26.03125 39.671875 28.421875 
Q 36.28125 30.8125 30.421875 30.8125 
L 19.671875 30.8125 
L 19.671875 0 
L 9.8125 0 
L 9.8125 72.90625 
L 32.078125 72.90625 
Q 44.578125 72.90625 50.734375 67.671875 
Q 56.890625 62.453125 56.890625 51.90625 
Q 56.890625 45.015625 53.6875 40.46875 
Q 50.484375 35.9375 44.390625 34.1875 
z
M 19.671875 64.796875 
L 19.671875 38.921875 
L 32.078125 38.921875 
Q 39.203125 38.921875 42.84375 42.21875 
Q 46.484375 45.515625 46.484375 51.90625 
Q 46.484375 58.296875 42.84375 61.546875 
Q 39.203125 64.796875 32.078125 64.796875 
z
" id="DejaVuSans-82"/>
     <path d="M 39.40625 66.21875 
Q 28.65625 66.21875 22.328125 58.203125 
Q 16.015625 50.203125 16.015625 36.375 
Q 16.015625 22.609375 22.328125 14.59375 
Q 28.65625 6.59375 39.40625 6.59375 
Q 50.140625 6.59375 56.421875 14.59375 
Q 62.703125 22.609375 62.703125 36.375 
Q 62.703125 50.203125 56.421875 58.203125 
Q 50.140625 66.21875 39.40625 66.21875 
z
M 39.40625 74.21875 
Q 54.734375 74.21875 63.90625 63.9375 
Q 73.09375 53.65625 73.09375 36.375 
Q 73.09375 19.140625 63.90625 8.859375 
Q 54.734375 -1.421875 39.40625 -1.421875 
Q 24.03125 -1.421875 14.8125 8.828125 
Q 5.609375 19.09375 5.609375 36.375 
Q 5.609375 53.65625 14.8125 63.9375 
Q 24.03125 74.21875 39.40625 74.21875 
z
" id="DejaVuSans-79"/>
    </defs>
    <g transform="translate(203.8125 35.472)scale(0.12 -0.12)">
     <use xlink:href="#DejaVuSans-71"/>
     <use x="77.490234" xlink:href="#DejaVuSans-76"/>
     <use x="133.203125" xlink:href="#DejaVuSans-67"/>
     <use x="203.027344" xlink:href="#DejaVuSans-77"/>
     <use x="289.306641" xlink:href="#DejaVuSans-32"/>
     <use x="321.09375" xlink:href="#DejaVuSans-82"/>
     <use x="390.576172" xlink:href="#DejaVuSans-79"/>
     <use x="469.287109" xlink:href="#DejaVuSans-67"/>
    </g>
   </g>
   <g id="legend_1">
    <g id="patch_7">
     <path d="M 318.545 302.584 
L 407.72 302.584 
Q 409.72 302.584 409.72 300.584 
L 409.72 242.8715 
Q 409.72 240.8715 407.72 240.8715 
L 318.545 240.8715 
Q 316.545 240.8715 316.545 242.8715 
L 316.545 300.584 
Q 316.545 302.584 318.545 302.584 
z
" style="fill:#ffffff;opacity:0.8;stroke:#cccccc;stroke-linejoin:miter;"/>
    </g>
    <g id="line2d_18">
     <path d="M 320.545 248.969937 
L 340.545 248.969937 
" style="fill:none;stroke:#1f77b4;stroke-linecap:square;stroke-width:1.5;"/>
    </g>
    <g id="line2d_19"/>
    <g id="text_16">
     <!-- iForest -->
     <g transform="translate(348.545 252.469937)scale(0.1 -0.1)">
      <use xlink:href="#DejaVuSans-105"/>
      <use x="27.783203" xlink:href="#DejaVuSans-70"/>
      <use x="85.255859" xlink:href="#DejaVuSans-111"/>
      <use x="146.4375" xlink:href="#DejaVuSans-114"/>
      <use x="187.519531" xlink:href="#DejaVuSans-101"/>
      <use x="249.042969" xlink:href="#DejaVuSans-115"/>
      <use x="301.142578" xlink:href="#DejaVuSans-116"/>
     </g>
    </g>
    <g id="line2d_20">
     <path d="M 320.545 263.648062 
L 340.545 263.648062 
" style="fill:none;stroke:#ff7f0e;stroke-linecap:square;stroke-width:1.5;"/>
    </g>
    <g id="line2d_21"/>
    <g id="text_17">
     <!-- OC-SVM -->
     <defs>
      <path d="M 4.890625 31.390625 
L 31.203125 31.390625 
L 31.203125 23.390625 
L 4.890625 23.390625 
z
" id="DejaVuSans-45"/>
      <path d="M 53.515625 70.515625 
L 53.515625 60.890625 
Q 47.90625 63.578125 42.921875 64.890625 
Q 37.9375 66.21875 33.296875 66.21875 
Q 25.25 66.21875 20.875 63.09375 
Q 16.5 59.96875 16.5 54.203125 
Q 16.5 49.359375 19.40625 46.890625 
Q 22.3125 44.4375 30.421875 42.921875 
L 36.375 41.703125 
Q 47.40625 39.59375 52.65625 34.296875 
Q 57.90625 29 57.90625 20.125 
Q 57.90625 9.515625 50.796875 4.046875 
Q 43.703125 -1.421875 29.984375 -1.421875 
Q 24.8125 -1.421875 18.96875 -0.25 
Q 13.140625 0.921875 6.890625 3.21875 
L 6.890625 13.375 
Q 12.890625 10.015625 18.65625 8.296875 
Q 24.421875 6.59375 29.984375 6.59375 
Q 38.421875 6.59375 43.015625 9.90625 
Q 47.609375 13.234375 47.609375 19.390625 
Q 47.609375 24.75 44.3125 27.78125 
Q 41.015625 30.8125 33.5 32.328125 
L 27.484375 33.5 
Q 16.453125 35.6875 11.515625 40.375 
Q 6.59375 45.0625 6.59375 53.421875 
Q 6.59375 63.09375 13.40625 68.65625 
Q 20.21875 74.21875 32.171875 74.21875 
Q 37.3125 74.21875 42.625 73.28125 
Q 47.953125 72.359375 53.515625 70.515625 
z
" id="DejaVuSans-83"/>
      <path d="M 28.609375 0 
L 0.78125 72.90625 
L 11.078125 72.90625 
L 34.1875 11.53125 
L 57.328125 72.90625 
L 67.578125 72.90625 
L 39.796875 0 
z
" id="DejaVuSans-86"/>
     </defs>
     <g transform="translate(348.545 267.148062)scale(0.1 -0.1)">
      <use xlink:href="#DejaVuSans-79"/>
      <use x="78.710938" xlink:href="#DejaVuSans-67"/>
      <use x="148.535156" xlink:href="#DejaVuSans-45"/>
      <use x="184.619141" xlink:href="#DejaVuSans-83"/>
      <use x="248.095703" xlink:href="#DejaVuSans-86"/>
      <use x="316.503906" xlink:href="#DejaVuSans-77"/>
     </g>
    </g>
    <g id="line2d_22">
     <path d="M 320.545 278.326187 
L 340.545 278.326187 
" style="fill:none;stroke:#2ca02c;stroke-linecap:square;stroke-width:1.5;"/>
    </g>
    <g id="line2d_23"/>
    <g id="text_18">
     <!-- Gaussion-D -->
     <defs>
      <path d="M 54.890625 33.015625 
L 54.890625 0 
L 45.90625 0 
L 45.90625 32.71875 
Q 45.90625 40.484375 42.875 44.328125 
Q 39.84375 48.1875 33.796875 48.1875 
Q 26.515625 48.1875 22.3125 43.546875 
Q 18.109375 38.921875 18.109375 30.90625 
L 18.109375 0 
L 9.078125 0 
L 9.078125 54.6875 
L 18.109375 54.6875 
L 18.109375 46.1875 
Q 21.34375 51.125 25.703125 53.5625 
Q 30.078125 56 35.796875 56 
Q 45.21875 56 50.046875 50.171875 
Q 54.890625 44.34375 54.890625 33.015625 
z
" id="DejaVuSans-110"/>
      <path d="M 19.671875 64.796875 
L 19.671875 8.109375 
L 31.59375 8.109375 
Q 46.6875 8.109375 53.6875 14.9375 
Q 60.6875 21.78125 60.6875 36.53125 
Q 60.6875 51.171875 53.6875 57.984375 
Q 46.6875 64.796875 31.59375 64.796875 
z
M 9.8125 72.90625 
L 30.078125 72.90625 
Q 51.265625 72.90625 61.171875 64.09375 
Q 71.09375 55.28125 71.09375 36.53125 
Q 71.09375 17.671875 61.125 8.828125 
Q 51.171875 0 30.078125 0 
L 9.8125 0 
z
" id="DejaVuSans-68"/>
     </defs>
     <g transform="translate(348.545 281.826187)scale(0.1 -0.1)">
      <use xlink:href="#DejaVuSans-71"/>
      <use x="77.490234" xlink:href="#DejaVuSans-97"/>
      <use x="138.769531" xlink:href="#DejaVuSans-117"/>
      <use x="202.148438" xlink:href="#DejaVuSans-115"/>
      <use x="254.248047" xlink:href="#DejaVuSans-115"/>
      <use x="306.347656" xlink:href="#DejaVuSans-105"/>
      <use x="334.130859" xlink:href="#DejaVuSans-111"/>
      <use x="395.3125" xlink:href="#DejaVuSans-110"/>
      <use x="458.691406" xlink:href="#DejaVuSans-45"/>
      <use x="494.775391" xlink:href="#DejaVuSans-68"/>
     </g>
    </g>
    <g id="line2d_24">
     <path d="M 320.545 293.004312 
L 340.545 293.004312 
" style="fill:none;stroke:#d62728;stroke-linecap:square;stroke-width:1.5;"/>
    </g>
    <g id="line2d_25"/>
    <g id="text_19">
     <!-- LOF -->
     <g transform="translate(348.545 296.504312)scale(0.1 -0.1)">
      <use xlink:href="#DejaVuSans-76"/>
      <use x="55.666016" xlink:href="#DejaVuSans-79"/>
      <use x="134.376953" xlink:href="#DejaVuSans-70"/>
     </g>
    </g>
   </g>
  </g>
 </g>
 <defs>
  <clipPath id="pdae10a9420">
   <rect height="266.112" width="357.12" x="57.6" y="41.472"/>
  </clipPath>
 </defs>
</svg>
