<?xml version="1.0" encoding="utf-8" standalone="no"?>
<!DOCTYPE svg PUBLIC "-//W3C//DTD SVG 1.1//EN"
  "http://www.w3.org/Graphics/SVG/1.1/DTD/svg11.dtd">
<!-- Created with matplotlib (https://matplotlib.org/) -->
<svg height="345.6pt" version="1.1" viewBox="0 0 460.8 345.6" width="460.8pt" xmlns="http://www.w3.org/2000/svg" xmlns:xlink="http://www.w3.org/1999/xlink">
 <defs>
  <style type="text/css">
*{stroke-linecap:butt;stroke-linejoin:round;}
  </style>
 </defs>
 <g id="figure_1">
  <g id="patch_1">
   <path d="M 0 345.6 
L 460.8 345.6 
L 460.8 0 
L 0 0 
z
" style="fill:#ffffff;"/>
  </g>
  <g id="axes_1">
   <g id="patch_2">
    <path d="M 57.6 307.584 
L 414.72 307.584 
L 414.72 41.472 
L 57.6 41.472 
z
" style="fill:#ffffff;"/>
   </g>
   <g id="matplotlib.axis_1">
    <g id="xtick_1">
     <g id="line2d_1">
      <defs>
       <path d="M 0 0 
L 0 3.5 
" id="m0bc32d3000" style="stroke:#000000;stroke-width:0.8;"/>
      </defs>
      <g>
       <use style="stroke:#000000;stroke-width:0.8;" x="73.832727" xlink:href="#m0bc32d3000" y="307.584"/>
      </g>
     </g>
     <g id="text_1">
      <!-- 0.0 -->
      <defs>
       <path d="M 31.78125 66.40625 
Q 24.171875 66.40625 20.328125 58.90625 
Q 16.5 51.421875 16.5 36.375 
Q 16.5 21.390625 20.328125 13.890625 
Q 24.171875 6.390625 31.78125 6.390625 
Q 39.453125 6.390625 43.28125 13.890625 
Q 47.125 21.390625 47.125 36.375 
Q 47.125 51.421875 43.28125 58.90625 
Q 39.453125 66.40625 31.78125 66.40625 
z
M 31.78125 74.21875 
Q 44.046875 74.21875 50.515625 64.515625 
Q 56.984375 54.828125 56.984375 36.375 
Q 56.984375 17.96875 50.515625 8.265625 
Q 44.046875 -1.421875 31.78125 -1.421875 
Q 19.53125 -1.421875 13.0625 8.265625 
Q 6.59375 17.96875 6.59375 36.375 
Q 6.59375 54.828125 13.0625 64.515625 
Q 19.53125 74.21875 31.78125 74.21875 
z
" id="DejaVuSans-48"/>
       <path d="M 10.6875 12.40625 
L 21 12.40625 
L 21 0 
L 10.6875 0 
z
" id="DejaVuSans-46"/>
      </defs>
      <g transform="translate(65.881165 322.182437)scale(0.1 -0.1)">
       <use xlink:href="#DejaVuSans-48"/>
       <use x="63.623047" xlink:href="#DejaVuSans-46"/>
       <use x="95.410156" xlink:href="#DejaVuSans-48"/>
      </g>
     </g>
    </g>
    <g id="xtick_2">
     <g id="line2d_2">
      <g>
       <use style="stroke:#000000;stroke-width:0.8;" x="138.763636" xlink:href="#m0bc32d3000" y="307.584"/>
      </g>
     </g>
     <g id="text_2">
      <!-- 0.2 -->
      <defs>
       <path d="M 19.1875 8.296875 
L 53.609375 8.296875 
L 53.609375 0 
L 7.328125 0 
L 7.328125 8.296875 
Q 12.9375 14.109375 22.625 23.890625 
Q 32.328125 33.6875 34.8125 36.53125 
Q 39.546875 41.84375 41.421875 45.53125 
Q 43.3125 49.21875 43.3125 52.78125 
Q 43.3125 58.59375 39.234375 62.25 
Q 35.15625 65.921875 28.609375 65.921875 
Q 23.96875 65.921875 18.8125 64.3125 
Q 13.671875 62.703125 7.8125 59.421875 
L 7.8125 69.390625 
Q 13.765625 71.78125 18.9375 73 
Q 24.125 74.21875 28.421875 74.21875 
Q 39.75 74.21875 46.484375 68.546875 
Q 53.21875 62.890625 53.21875 53.421875 
Q 53.21875 48.921875 51.53125 44.890625 
Q 49.859375 40.875 45.40625 35.40625 
Q 44.1875 33.984375 37.640625 27.21875 
Q 31.109375 20.453125 19.1875 8.296875 
z
" id="DejaVuSans-50"/>
      </defs>
      <g transform="translate(130.812074 322.182437)scale(0.1 -0.1)">
       <use xlink:href="#DejaVuSans-48"/>
       <use x="63.623047" xlink:href="#DejaVuSans-46"/>
       <use x="95.410156" xlink:href="#DejaVuSans-50"/>
      </g>
     </g>
    </g>
    <g id="xtick_3">
     <g id="line2d_3">
      <g>
       <use style="stroke:#000000;stroke-width:0.8;" x="203.694545" xlink:href="#m0bc32d3000" y="307.584"/>
      </g>
     </g>
     <g id="text_3">
      <!-- 0.4 -->
      <defs>
       <path d="M 37.796875 64.3125 
L 12.890625 25.390625 
L 37.796875 25.390625 
z
M 35.203125 72.90625 
L 47.609375 72.90625 
L 47.609375 25.390625 
L 58.015625 25.390625 
L 58.015625 17.1875 
L 47.609375 17.1875 
L 47.609375 0 
L 37.796875 0 
L 37.796875 17.1875 
L 4.890625 17.1875 
L 4.890625 26.703125 
z
" id="DejaVuSans-52"/>
      </defs>
      <g transform="translate(195.742983 322.182437)scale(0.1 -0.1)">
       <use xlink:href="#DejaVuSans-48"/>
       <use x="63.623047" xlink:href="#DejaVuSans-46"/>
       <use x="95.410156" xlink:href="#DejaVuSans-52"/>
      </g>
     </g>
    </g>
    <g id="xtick_4">
     <g id="line2d_4">
      <g>
       <use style="stroke:#000000;stroke-width:0.8;" x="268.625455" xlink:href="#m0bc32d3000" y="307.584"/>
      </g>
     </g>
     <g id="text_4">
      <!-- 0.6 -->
      <defs>
       <path d="M 33.015625 40.375 
Q 26.375 40.375 22.484375 35.828125 
Q 18.609375 31.296875 18.609375 23.390625 
Q 18.609375 15.53125 22.484375 10.953125 
Q 26.375 6.390625 33.015625 6.390625 
Q 39.65625 6.390625 43.53125 10.953125 
Q 47.40625 15.53125 47.40625 23.390625 
Q 47.40625 31.296875 43.53125 35.828125 
Q 39.65625 40.375 33.015625 40.375 
z
M 52.59375 71.296875 
L 52.59375 62.3125 
Q 48.875 64.0625 45.09375 64.984375 
Q 41.3125 65.921875 37.59375 65.921875 
Q 27.828125 65.921875 22.671875 59.328125 
Q 17.53125 52.734375 16.796875 39.40625 
Q 19.671875 43.65625 24.015625 45.921875 
Q 28.375 48.1875 33.59375 48.1875 
Q 44.578125 48.1875 50.953125 41.515625 
Q 57.328125 34.859375 57.328125 23.390625 
Q 57.328125 12.15625 50.6875 5.359375 
Q 44.046875 -1.421875 33.015625 -1.421875 
Q 20.359375 -1.421875 13.671875 8.265625 
Q 6.984375 17.96875 6.984375 36.375 
Q 6.984375 53.65625 15.1875 63.9375 
Q 23.390625 74.21875 37.203125 74.21875 
Q 40.921875 74.21875 44.703125 73.484375 
Q 48.484375 72.75 52.59375 71.296875 
z
" id="DejaVuSans-54"/>
      </defs>
      <g transform="translate(260.673892 322.182437)scale(0.1 -0.1)">
       <use xlink:href="#DejaVuSans-48"/>
       <use x="63.623047" xlink:href="#DejaVuSans-46"/>
       <use x="95.410156" xlink:href="#DejaVuSans-54"/>
      </g>
     </g>
    </g>
    <g id="xtick_5">
     <g id="line2d_5">
      <g>
       <use style="stroke:#000000;stroke-width:0.8;" x="333.556364" xlink:href="#m0bc32d3000" y="307.584"/>
      </g>
     </g>
     <g id="text_5">
      <!-- 0.8 -->
      <defs>
       <path d="M 31.78125 34.625 
Q 24.75 34.625 20.71875 30.859375 
Q 16.703125 27.09375 16.703125 20.515625 
Q 16.703125 13.921875 20.71875 10.15625 
Q 24.75 6.390625 31.78125 6.390625 
Q 38.8125 6.390625 42.859375 10.171875 
Q 46.921875 13.96875 46.921875 20.515625 
Q 46.921875 27.09375 42.890625 30.859375 
Q 38.875 34.625 31.78125 34.625 
z
M 21.921875 38.8125 
Q 15.578125 40.375 12.03125 44.71875 
Q 8.5 49.078125 8.5 55.328125 
Q 8.5 64.0625 14.71875 69.140625 
Q 20.953125 74.21875 31.78125 74.21875 
Q 42.671875 74.21875 48.875 69.140625 
Q 55.078125 64.0625 55.078125 55.328125 
Q 55.078125 49.078125 51.53125 44.71875 
Q 48 40.375 41.703125 38.8125 
Q 48.828125 37.15625 52.796875 32.3125 
Q 56.78125 27.484375 56.78125 20.515625 
Q 56.78125 9.90625 50.3125 4.234375 
Q 43.84375 -1.421875 31.78125 -1.421875 
Q 19.734375 -1.421875 13.25 4.234375 
Q 6.78125 9.90625 6.78125 20.515625 
Q 6.78125 27.484375 10.78125 32.3125 
Q 14.796875 37.15625 21.921875 38.8125 
z
M 18.3125 54.390625 
Q 18.3125 48.734375 21.84375 45.5625 
Q 25.390625 42.390625 31.78125 42.390625 
Q 38.140625 42.390625 41.71875 45.5625 
Q 45.3125 48.734375 45.3125 54.390625 
Q 45.3125 60.0625 41.71875 63.234375 
Q 38.140625 66.40625 31.78125 66.40625 
Q 25.390625 66.40625 21.84375 63.234375 
Q 18.3125 60.0625 18.3125 54.390625 
z
" id="DejaVuSans-56"/>
      </defs>
      <g transform="translate(325.604801 322.182437)scale(0.1 -0.1)">
       <use xlink:href="#DejaVuSans-48"/>
       <use x="63.623047" xlink:href="#DejaVuSans-46"/>
       <use x="95.410156" xlink:href="#DejaVuSans-56"/>
      </g>
     </g>
    </g>
    <g id="xtick_6">
     <g id="line2d_6">
      <g>
       <use style="stroke:#000000;stroke-width:0.8;" x="398.487273" xlink:href="#m0bc32d3000" y="307.584"/>
      </g>
     </g>
     <g id="text_6">
      <!-- 1.0 -->
      <defs>
       <path d="M 12.40625 8.296875 
L 28.515625 8.296875 
L 28.515625 63.921875 
L 10.984375 60.40625 
L 10.984375 69.390625 
L 28.421875 72.90625 
L 38.28125 72.90625 
L 38.28125 8.296875 
L 54.390625 8.296875 
L 54.390625 0 
L 12.40625 0 
z
" id="DejaVuSans-49"/>
      </defs>
      <g transform="translate(390.53571 322.182437)scale(0.1 -0.1)">
       <use xlink:href="#DejaVuSans-49"/>
       <use x="63.623047" xlink:href="#DejaVuSans-46"/>
       <use x="95.410156" xlink:href="#DejaVuSans-48"/>
      </g>
     </g>
    </g>
    <g id="text_7">
     <!-- False positive rate -->
     <defs>
      <path d="M 9.8125 72.90625 
L 51.703125 72.90625 
L 51.703125 64.59375 
L 19.671875 64.59375 
L 19.671875 43.109375 
L 48.578125 43.109375 
L 48.578125 34.8125 
L 19.671875 34.8125 
L 19.671875 0 
L 9.8125 0 
z
" id="DejaVuSans-70"/>
      <path d="M 34.28125 27.484375 
Q 23.390625 27.484375 19.1875 25 
Q 14.984375 22.515625 14.984375 16.5 
Q 14.984375 11.71875 18.140625 8.90625 
Q 21.296875 6.109375 26.703125 6.109375 
Q 34.1875 6.109375 38.703125 11.40625 
Q 43.21875 16.703125 43.21875 25.484375 
L 43.21875 27.484375 
z
M 52.203125 31.203125 
L 52.203125 0 
L 43.21875 0 
L 43.21875 8.296875 
Q 40.140625 3.328125 35.546875 0.953125 
Q 30.953125 -1.421875 24.3125 -1.421875 
Q 15.921875 -1.421875 10.953125 3.296875 
Q 6 8.015625 6 15.921875 
Q 6 25.140625 12.171875 29.828125 
Q 18.359375 34.515625 30.609375 34.515625 
L 43.21875 34.515625 
L 43.21875 35.40625 
Q 43.21875 41.609375 39.140625 45 
Q 35.0625 48.390625 27.6875 48.390625 
Q 23 48.390625 18.546875 47.265625 
Q 14.109375 46.140625 10.015625 43.890625 
L 10.015625 52.203125 
Q 14.9375 54.109375 19.578125 55.046875 
Q 24.21875 56 28.609375 56 
Q 40.484375 56 46.34375 49.84375 
Q 52.203125 43.703125 52.203125 31.203125 
z
" id="DejaVuSans-97"/>
      <path d="M 9.421875 75.984375 
L 18.40625 75.984375 
L 18.40625 0 
L 9.421875 0 
z
" id="DejaVuSans-108"/>
      <path d="M 44.28125 53.078125 
L 44.28125 44.578125 
Q 40.484375 46.53125 36.375 47.5 
Q 32.28125 48.484375 27.875 48.484375 
Q 21.1875 48.484375 17.84375 46.4375 
Q 14.5 44.390625 14.5 40.28125 
Q 14.5 37.15625 16.890625 35.375 
Q 19.28125 33.59375 26.515625 31.984375 
L 29.59375 31.296875 
Q 39.15625 29.25 43.1875 25.515625 
Q 47.21875 21.78125 47.21875 15.09375 
Q 47.21875 7.46875 41.1875 3.015625 
Q 35.15625 -1.421875 24.609375 -1.421875 
Q 20.21875 -1.421875 15.453125 -0.5625 
Q 10.6875 0.296875 5.421875 2 
L 5.421875 11.28125 
Q 10.40625 8.6875 15.234375 7.390625 
Q 20.0625 6.109375 24.8125 6.109375 
Q 31.15625 6.109375 34.5625 8.28125 
Q 37.984375 10.453125 37.984375 14.40625 
Q 37.984375 18.0625 35.515625 20.015625 
Q 33.0625 21.96875 24.703125 23.78125 
L 21.578125 24.515625 
Q 13.234375 26.265625 9.515625 29.90625 
Q 5.8125 33.546875 5.8125 39.890625 
Q 5.8125 47.609375 11.28125 51.796875 
Q 16.75 56 26.8125 56 
Q 31.78125 56 36.171875 55.265625 
Q 40.578125 54.546875 44.28125 53.078125 
z
" id="DejaVuSans-115"/>
      <path d="M 56.203125 29.59375 
L 56.203125 25.203125 
L 14.890625 25.203125 
Q 15.484375 15.921875 20.484375 11.0625 
Q 25.484375 6.203125 34.421875 6.203125 
Q 39.59375 6.203125 44.453125 7.46875 
Q 49.3125 8.734375 54.109375 11.28125 
L 54.109375 2.78125 
Q 49.265625 0.734375 44.1875 -0.34375 
Q 39.109375 -1.421875 33.890625 -1.421875 
Q 20.796875 -1.421875 13.15625 6.1875 
Q 5.515625 13.8125 5.515625 26.8125 
Q 5.515625 40.234375 12.765625 48.109375 
Q 20.015625 56 32.328125 56 
Q 43.359375 56 49.78125 48.890625 
Q 56.203125 41.796875 56.203125 29.59375 
z
M 47.21875 32.234375 
Q 47.125 39.59375 43.09375 43.984375 
Q 39.0625 48.390625 32.421875 48.390625 
Q 24.90625 48.390625 20.390625 44.140625 
Q 15.875 39.890625 15.1875 32.171875 
z
" id="DejaVuSans-101"/>
      <path id="DejaVuSans-32"/>
      <path d="M 18.109375 8.203125 
L 18.109375 -20.796875 
L 9.078125 -20.796875 
L 9.078125 54.6875 
L 18.109375 54.6875 
L 18.109375 46.390625 
Q 20.953125 51.265625 25.265625 53.625 
Q 29.59375 56 35.59375 56 
Q 45.5625 56 51.78125 48.09375 
Q 58.015625 40.1875 58.015625 27.296875 
Q 58.015625 14.40625 51.78125 6.484375 
Q 45.5625 -1.421875 35.59375 -1.421875 
Q 29.59375 -1.421875 25.265625 0.953125 
Q 20.953125 3.328125 18.109375 8.203125 
z
M 48.6875 27.296875 
Q 48.6875 37.203125 44.609375 42.84375 
Q 40.53125 48.484375 33.40625 48.484375 
Q 26.265625 48.484375 22.1875 42.84375 
Q 18.109375 37.203125 18.109375 27.296875 
Q 18.109375 17.390625 22.1875 11.75 
Q 26.265625 6.109375 33.40625 6.109375 
Q 40.53125 6.109375 44.609375 11.75 
Q 48.6875 17.390625 48.6875 27.296875 
z
" id="DejaVuSans-112"/>
      <path d="M 30.609375 48.390625 
Q 23.390625 48.390625 19.1875 42.75 
Q 14.984375 37.109375 14.984375 27.296875 
Q 14.984375 17.484375 19.15625 11.84375 
Q 23.34375 6.203125 30.609375 6.203125 
Q 37.796875 6.203125 41.984375 11.859375 
Q 46.1875 17.53125 46.1875 27.296875 
Q 46.1875 37.015625 41.984375 42.703125 
Q 37.796875 48.390625 30.609375 48.390625 
z
M 30.609375 56 
Q 42.328125 56 49.015625 48.375 
Q 55.71875 40.765625 55.71875 27.296875 
Q 55.71875 13.875 49.015625 6.21875 
Q 42.328125 -1.421875 30.609375 -1.421875 
Q 18.84375 -1.421875 12.171875 6.21875 
Q 5.515625 13.875 5.515625 27.296875 
Q 5.515625 40.765625 12.171875 48.375 
Q 18.84375 56 30.609375 56 
z
" id="DejaVuSans-111"/>
      <path d="M 9.421875 54.6875 
L 18.40625 54.6875 
L 18.40625 0 
L 9.421875 0 
z
M 9.421875 75.984375 
L 18.40625 75.984375 
L 18.40625 64.59375 
L 9.421875 64.59375 
z
" id="DejaVuSans-105"/>
      <path d="M 18.3125 70.21875 
L 18.3125 54.6875 
L 36.8125 54.6875 
L 36.8125 47.703125 
L 18.3125 47.703125 
L 18.3125 18.015625 
Q 18.3125 11.328125 20.140625 9.421875 
Q 21.96875 7.515625 27.59375 7.515625 
L 36.8125 7.515625 
L 36.8125 0 
L 27.59375 0 
Q 17.1875 0 13.234375 3.875 
Q 9.28125 7.765625 9.28125 18.015625 
L 9.28125 47.703125 
L 2.6875 47.703125 
L 2.6875 54.6875 
L 9.28125 54.6875 
L 9.28125 70.21875 
z
" id="DejaVuSans-116"/>
      <path d="M 2.984375 54.6875 
L 12.5 54.6875 
L 29.59375 8.796875 
L 46.6875 54.6875 
L 56.203125 54.6875 
L 35.6875 0 
L 23.484375 0 
z
" id="DejaVuSans-118"/>
      <path d="M 41.109375 46.296875 
Q 39.59375 47.171875 37.8125 47.578125 
Q 36.03125 48 33.890625 48 
Q 26.265625 48 22.1875 43.046875 
Q 18.109375 38.09375 18.109375 28.8125 
L 18.109375 0 
L 9.078125 0 
L 9.078125 54.6875 
L 18.109375 54.6875 
L 18.109375 46.1875 
Q 20.953125 51.171875 25.484375 53.578125 
Q 30.03125 56 36.53125 56 
Q 37.453125 56 38.578125 55.875 
Q 39.703125 55.765625 41.0625 55.515625 
z
" id="DejaVuSans-114"/>
     </defs>
     <g transform="translate(190.21 335.860562)scale(0.1 -0.1)">
      <use xlink:href="#DejaVuSans-70"/>
      <use x="57.378906" xlink:href="#DejaVuSans-97"/>
      <use x="118.658203" xlink:href="#DejaVuSans-108"/>
      <use x="146.441406" xlink:href="#DejaVuSans-115"/>
      <use x="198.541016" xlink:href="#DejaVuSans-101"/>
      <use x="260.064453" xlink:href="#DejaVuSans-32"/>
      <use x="291.851562" xlink:href="#DejaVuSans-112"/>
      <use x="355.328125" xlink:href="#DejaVuSans-111"/>
      <use x="416.509766" xlink:href="#DejaVuSans-115"/>
      <use x="468.609375" xlink:href="#DejaVuSans-105"/>
      <use x="496.392578" xlink:href="#DejaVuSans-116"/>
      <use x="535.601562" xlink:href="#DejaVuSans-105"/>
      <use x="563.384766" xlink:href="#DejaVuSans-118"/>
      <use x="622.564453" xlink:href="#DejaVuSans-101"/>
      <use x="684.087891" xlink:href="#DejaVuSans-32"/>
      <use x="715.875" xlink:href="#DejaVuSans-114"/>
      <use x="756.988281" xlink:href="#DejaVuSans-97"/>
      <use x="818.267578" xlink:href="#DejaVuSans-116"/>
      <use x="857.476562" xlink:href="#DejaVuSans-101"/>
     </g>
    </g>
   </g>
   <g id="matplotlib.axis_2">
    <g id="ytick_1">
     <g id="line2d_7">
      <defs>
       <path d="M 0 0 
L -3.5 0 
" id="m766996e56f" style="stroke:#000000;stroke-width:0.8;"/>
      </defs>
      <g>
       <use style="stroke:#000000;stroke-width:0.8;" x="57.6" xlink:href="#m766996e56f" y="295.488"/>
      </g>
     </g>
     <g id="text_8">
      <!-- 0.0 -->
      <g transform="translate(34.696875 299.287219)scale(0.1 -0.1)">
       <use xlink:href="#DejaVuSans-48"/>
       <use x="63.623047" xlink:href="#DejaVuSans-46"/>
       <use x="95.410156" xlink:href="#DejaVuSans-48"/>
      </g>
     </g>
    </g>
    <g id="ytick_2">
     <g id="line2d_8">
      <g>
       <use style="stroke:#000000;stroke-width:0.8;" x="57.6" xlink:href="#m766996e56f" y="247.104"/>
      </g>
     </g>
     <g id="text_9">
      <!-- 0.2 -->
      <g transform="translate(34.696875 250.903219)scale(0.1 -0.1)">
       <use xlink:href="#DejaVuSans-48"/>
       <use x="63.623047" xlink:href="#DejaVuSans-46"/>
       <use x="95.410156" xlink:href="#DejaVuSans-50"/>
      </g>
     </g>
    </g>
    <g id="ytick_3">
     <g id="line2d_9">
      <g>
       <use style="stroke:#000000;stroke-width:0.8;" x="57.6" xlink:href="#m766996e56f" y="198.72"/>
      </g>
     </g>
     <g id="text_10">
      <!-- 0.4 -->
      <g transform="translate(34.696875 202.519219)scale(0.1 -0.1)">
       <use xlink:href="#DejaVuSans-48"/>
       <use x="63.623047" xlink:href="#DejaVuSans-46"/>
       <use x="95.410156" xlink:href="#DejaVuSans-52"/>
      </g>
     </g>
    </g>
    <g id="ytick_4">
     <g id="line2d_10">
      <g>
       <use style="stroke:#000000;stroke-width:0.8;" x="57.6" xlink:href="#m766996e56f" y="150.336"/>
      </g>
     </g>
     <g id="text_11">
      <!-- 0.6 -->
      <g transform="translate(34.696875 154.135219)scale(0.1 -0.1)">
       <use xlink:href="#DejaVuSans-48"/>
       <use x="63.623047" xlink:href="#DejaVuSans-46"/>
       <use x="95.410156" xlink:href="#DejaVuSans-54"/>
      </g>
     </g>
    </g>
    <g id="ytick_5">
     <g id="line2d_11">
      <g>
       <use style="stroke:#000000;stroke-width:0.8;" x="57.6" xlink:href="#m766996e56f" y="101.952"/>
      </g>
     </g>
     <g id="text_12">
      <!-- 0.8 -->
      <g transform="translate(34.696875 105.751219)scale(0.1 -0.1)">
       <use xlink:href="#DejaVuSans-48"/>
       <use x="63.623047" xlink:href="#DejaVuSans-46"/>
       <use x="95.410156" xlink:href="#DejaVuSans-56"/>
      </g>
     </g>
    </g>
    <g id="ytick_6">
     <g id="line2d_12">
      <g>
       <use style="stroke:#000000;stroke-width:0.8;" x="57.6" xlink:href="#m766996e56f" y="53.568"/>
      </g>
     </g>
     <g id="text_13">
      <!-- 1.0 -->
      <g transform="translate(34.696875 57.367219)scale(0.1 -0.1)">
       <use xlink:href="#DejaVuSans-49"/>
       <use x="63.623047" xlink:href="#DejaVuSans-46"/>
       <use x="95.410156" xlink:href="#DejaVuSans-48"/>
      </g>
     </g>
    </g>
    <g id="text_14">
     <!-- True positive rate -->
     <defs>
      <path d="M -0.296875 72.90625 
L 61.375 72.90625 
L 61.375 64.59375 
L 35.5 64.59375 
L 35.5 0 
L 25.59375 0 
L 25.59375 64.59375 
L -0.296875 64.59375 
z
" id="DejaVuSans-84"/>
      <path d="M 8.5 21.578125 
L 8.5 54.6875 
L 17.484375 54.6875 
L 17.484375 21.921875 
Q 17.484375 14.15625 20.5 10.265625 
Q 23.53125 6.390625 29.59375 6.390625 
Q 36.859375 6.390625 41.078125 11.03125 
Q 45.3125 15.671875 45.3125 23.6875 
L 45.3125 54.6875 
L 54.296875 54.6875 
L 54.296875 0 
L 45.3125 0 
L 45.3125 8.40625 
Q 42.046875 3.421875 37.71875 1 
Q 33.40625 -1.421875 27.6875 -1.421875 
Q 18.265625 -1.421875 13.375 4.4375 
Q 8.5 10.296875 8.5 21.578125 
z
M 31.109375 56 
z
" id="DejaVuSans-117"/>
     </defs>
     <g transform="translate(28.617187 218.818625)rotate(-90)scale(0.1 -0.1)">
      <use xlink:href="#DejaVuSans-84"/>
      <use x="60.865234" xlink:href="#DejaVuSans-114"/>
      <use x="101.978516" xlink:href="#DejaVuSans-117"/>
      <use x="165.357422" xlink:href="#DejaVuSans-101"/>
      <use x="226.880859" xlink:href="#DejaVuSans-32"/>
      <use x="258.667969" xlink:href="#DejaVuSans-112"/>
      <use x="322.144531" xlink:href="#DejaVuSans-111"/>
      <use x="383.326172" xlink:href="#DejaVuSans-115"/>
      <use x="435.425781" xlink:href="#DejaVuSans-105"/>
      <use x="463.208984" xlink:href="#DejaVuSans-116"/>
      <use x="502.417969" xlink:href="#DejaVuSans-105"/>
      <use x="530.201172" xlink:href="#DejaVuSans-118"/>
      <use x="589.380859" xlink:href="#DejaVuSans-101"/>
      <use x="650.904297" xlink:href="#DejaVuSans-32"/>
      <use x="682.691406" xlink:href="#DejaVuSans-114"/>
      <use x="723.804688" xlink:href="#DejaVuSans-97"/>
      <use x="785.083984" xlink:href="#DejaVuSans-116"/>
      <use x="824.292969" xlink:href="#DejaVuSans-101"/>
     </g>
    </g>
   </g>
   <g id="line2d_13">
    <path clip-path="url(#pf95287f43f)" d="M 73.832727 295.488 
L 398.487273 53.568 
" style="fill:none;stroke:#000000;stroke-dasharray:5.55,2.4;stroke-dashoffset:0;stroke-width:1.5;"/>
   </g>
   <g id="line2d_14">
    <path clip-path="url(#pf95287f43f)" d="M 73.832727 295.488 
L 73.832727 268.722383 
L 75.506204 268.722383 
L 75.506204 246.417702 
L 77.179681 246.417702 
L 77.179681 246.074553 
L 78.853158 246.074553 
L 78.853158 236.466383 
L 80.526635 236.466383 
L 80.526635 231.662298 
L 82.200112 231.662298 
L 82.200112 222.397277 
L 83.87359 222.397277 
L 83.87359 220.681532 
L 85.547067 220.681532 
L 85.547067 216.563745 
L 87.220544 216.563745 
L 87.220544 214.848 
L 88.894021 214.848 
L 88.894021 213.475404 
L 90.567498 213.475404 
L 90.567498 212.445957 
L 92.240975 212.445957 
L 92.240975 211.073362 
L 93.914452 211.073362 
L 93.914452 208.32817 
L 95.587929 208.32817 
L 95.587929 206.269277 
L 97.261406 206.269277 
L 97.261406 197.004255 
L 98.934883 197.004255 
L 98.934883 193.915915 
L 100.60836 193.915915 
L 100.60836 192.886468 
L 103.955314 192.886468 
L 103.955314 186.023489 
L 105.628791 186.023489 
L 105.628791 182.592 
L 107.302268 182.592 
L 107.302268 182.248851 
L 110.649222 182.248851 
L 110.649222 181.562553 
L 112.322699 181.562553 
L 112.322699 180.533106 
L 113.996176 180.533106 
L 113.996176 179.846809 
L 117.34313 179.846809 
L 117.34313 170.581787 
L 119.016607 170.581787 
L 119.016607 164.748255 
L 120.690084 164.748255 
L 120.690084 164.405106 
L 122.363561 164.405106 
L 122.363561 160.287319 
L 124.037038 160.287319 
L 124.037038 157.198979 
L 125.710515 157.198979 
L 125.710515 152.738043 
L 127.383993 152.738043 
L 127.383993 148.277106 
L 129.05747 148.277106 
L 129.05747 147.590809 
L 130.730947 147.590809 
L 130.730947 146.904511 
L 132.404424 146.904511 
L 132.404424 145.188766 
L 134.077901 145.188766 
L 134.077901 139.698383 
L 135.751378 139.698383 
L 135.751378 137.982638 
L 137.424855 137.982638 
L 137.424855 134.894298 
L 139.098332 134.894298 
L 139.098332 133.521702 
L 142.445286 133.521702 
L 142.445286 129.747064 
L 144.118763 129.747064 
L 144.118763 125.972426 
L 145.79224 125.972426 
L 145.79224 120.482043 
L 147.465717 120.482043 
L 147.465717 119.795745 
L 149.139194 119.795745 
L 149.139194 117.736851 
L 150.812671 117.736851 
L 150.812671 117.393702 
L 154.159625 117.393702 
L 154.159625 117.050553 
L 155.833102 117.050553 
L 155.833102 116.021106 
L 157.506579 116.021106 
L 157.506579 112.246468 
L 159.180056 112.246468 
L 159.180056 111.903319 
L 160.853533 111.903319 
L 160.853533 110.873872 
L 164.200487 110.873872 
L 164.200487 110.530723 
L 165.873964 110.530723 
L 165.873964 110.187574 
L 167.547441 110.187574 
L 167.547441 108.128681 
L 169.220918 108.128681 
L 169.220918 105.04034 
L 170.894396 105.04034 
L 170.894396 104.354043 
L 172.567873 104.354043 
L 172.567873 103.324596 
L 174.24135 103.324596 
L 174.24135 102.638298 
L 177.588304 102.638298 
L 177.588304 98.86366 
L 179.261781 98.86366 
L 179.261781 96.804766 
L 180.935258 96.804766 
L 180.935258 93.716426 
L 182.608735 93.716426 
L 182.608735 93.373277 
L 185.955689 93.373277 
L 185.955689 92.000681 
L 189.302643 92.000681 
L 189.302643 91.314383 
L 190.97612 91.314383 
L 190.97612 89.598638 
L 194.323074 89.598638 
L 194.323074 85.137702 
L 195.996551 85.137702 
L 195.996551 82.392511 
L 197.670028 82.392511 
L 197.670028 82.049362 
L 199.343505 82.049362 
L 199.343505 80.333617 
L 201.016982 80.333617 
L 201.016982 79.990468 
L 202.690459 79.990468 
L 202.690459 77.245277 
L 206.037413 77.245277 
L 206.037413 75.529532 
L 207.71089 75.529532 
L 207.71089 73.813787 
L 211.057844 73.813787 
L 211.057844 73.127489 
L 214.404799 73.127489 
L 214.404799 72.78434 
L 216.078276 72.78434 
L 216.078276 72.098043 
L 219.42523 72.098043 
L 219.42523 71.411745 
L 221.098707 71.411745 
L 221.098707 69.352851 
L 224.445661 69.352851 
L 224.445661 68.666553 
L 227.792615 68.666553 
L 227.792615 67.637106 
L 231.139569 67.637106 
L 231.139569 65.235064 
L 236.16 65.235064 
L 236.16 64.891915 
L 237.833477 64.891915 
L 237.833477 64.548766 
L 242.853908 64.548766 
L 242.853908 62.833021 
L 246.200862 62.833021 
L 246.200862 62.146723 
L 247.874339 62.146723 
L 247.874339 61.460426 
L 257.915201 61.460426 
L 257.915201 61.117277 
L 267.956064 61.117277 
L 267.956064 60.774128 
L 272.976495 60.774128 
L 272.976495 60.430979 
L 276.323449 60.430979 
L 276.323449 59.401532 
L 279.670403 59.401532 
L 279.670403 59.058383 
L 284.690834 59.058383 
L 284.690834 58.715234 
L 293.058219 58.715234 
L 293.058219 57.342638 
L 301.425604 57.342638 
L 301.425604 56.999489 
L 328.201237 56.999489 
L 328.201237 56.65634 
L 338.242099 56.65634 
L 338.242099 56.313191 
L 339.915576 56.313191 
L 339.915576 55.283745 
L 346.609485 55.283745 
L 346.609485 54.940596 
L 349.956439 54.940596 
L 349.956439 54.254298 
L 354.97687 54.254298 
L 354.97687 53.911149 
L 376.732071 53.911149 
L 376.732071 53.568 
L 398.487273 53.568 
L 398.487273 53.568 
" style="fill:none;stroke:#1f77b4;stroke-linecap:square;stroke-width:1.5;"/>
   </g>
   <g id="line2d_15">
    <path clip-path="url(#pf95287f43f)" d="M 73.832727 295.488 
L 73.832727 290.340766 
L 75.506204 290.340766 
L 75.506204 289.311319 
L 77.179681 289.311319 
L 77.179681 272.497021 
L 78.853158 272.497021 
L 78.853158 268.036085 
L 80.526635 268.036085 
L 80.526635 264.604596 
L 83.87359 264.604596 
L 83.87359 263.232 
L 85.547067 263.232 
L 85.547067 255.339574 
L 87.220544 255.339574 
L 87.220544 242.643064 
L 88.894021 242.643064 
L 88.894021 227.201362 
L 90.567498 227.201362 
L 90.567498 225.142468 
L 93.914452 225.142468 
L 93.914452 216.220596 
L 95.587929 216.220596 
L 95.587929 209.357617 
L 97.261406 209.357617 
L 97.261406 209.014468 
L 98.934883 209.014468 
L 98.934883 207.298723 
L 103.955314 207.298723 
L 103.955314 206.955574 
L 105.628791 206.955574 
L 105.628791 203.524085 
L 107.302268 203.524085 
L 107.302268 199.406298 
L 108.975745 199.406298 
L 108.975745 196.317957 
L 110.649222 196.317957 
L 110.649222 195.974809 
L 112.322699 195.974809 
L 112.322699 190.827574 
L 113.996176 190.827574 
L 113.996176 185.68034 
L 115.669653 185.68034 
L 115.669653 183.621447 
L 117.34313 183.621447 
L 117.34313 177.444766 
L 119.016607 177.444766 
L 119.016607 177.101617 
L 120.690084 177.101617 
L 120.690084 174.013277 
L 122.363561 174.013277 
L 122.363561 171.954383 
L 124.037038 171.954383 
L 124.037038 169.209191 
L 125.710515 169.209191 
L 125.710515 168.866043 
L 129.05747 168.866043 
L 129.05747 167.836596 
L 132.404424 167.836596 
L 132.404424 166.807149 
L 137.424855 166.807149 
L 137.424855 166.120851 
L 139.098332 166.120851 
L 139.098332 164.405106 
L 140.771809 164.405106 
L 140.771809 163.718809 
L 142.445286 163.718809 
L 142.445286 162.346213 
L 144.118763 162.346213 
L 144.118763 162.003064 
L 149.139194 162.003064 
L 149.139194 161.659915 
L 150.812671 161.659915 
L 150.812671 161.316766 
L 152.486148 161.316766 
L 152.486148 160.630468 
L 154.159625 160.630468 
L 154.159625 160.287319 
L 155.833102 160.287319 
L 155.833102 159.94417 
L 157.506579 159.94417 
L 157.506579 158.914723 
L 165.873964 158.914723 
L 165.873964 158.228426 
L 169.220918 158.228426 
L 169.220918 157.198979 
L 170.894396 157.198979 
L 170.894396 156.85583 
L 174.24135 156.85583 
L 174.24135 156.169532 
L 175.914827 156.169532 
L 175.914827 155.826383 
L 177.588304 155.826383 
L 177.588304 155.483234 
L 179.261781 155.483234 
L 179.261781 155.140085 
L 180.935258 155.140085 
L 180.935258 154.453787 
L 184.282212 154.453787 
L 184.282212 153.767489 
L 185.955689 153.767489 
L 185.955689 153.081191 
L 187.629166 153.081191 
L 187.629166 152.738043 
L 189.302643 152.738043 
L 189.302643 151.365447 
L 192.649597 151.365447 
L 192.649597 151.022298 
L 194.323074 151.022298 
L 194.323074 149.649702 
L 195.996551 149.649702 
L 195.996551 148.620255 
L 197.670028 148.620255 
L 197.670028 148.277106 
L 202.690459 148.277106 
L 202.690459 147.24766 
L 204.363936 147.24766 
L 204.363936 145.531915 
L 206.037413 145.531915 
L 206.037413 144.845617 
L 207.71089 144.845617 
L 207.71089 144.502468 
L 211.057844 144.502468 
L 211.057844 143.473021 
L 216.078276 143.473021 
L 216.078276 140.041532 
L 217.751753 140.041532 
L 217.751753 139.355234 
L 219.42523 139.355234 
L 219.42523 139.012085 
L 221.098707 139.012085 
L 221.098707 137.29634 
L 222.772184 137.29634 
L 222.772184 136.953191 
L 224.445661 136.953191 
L 224.445661 136.610043 
L 226.119138 136.610043 
L 226.119138 134.894298 
L 232.813046 134.894298 
L 232.813046 133.864851 
L 237.833477 133.864851 
L 237.833477 131.805957 
L 239.506954 131.805957 
L 239.506954 130.776511 
L 242.853908 130.776511 
L 242.853908 130.433362 
L 244.527385 130.433362 
L 244.527385 129.747064 
L 246.200862 129.747064 
L 246.200862 128.374468 
L 247.874339 128.374468 
L 247.874339 128.031319 
L 249.547816 128.031319 
L 249.547816 126.315574 
L 252.89477 126.315574 
L 252.89477 125.286128 
L 254.568247 125.286128 
L 254.568247 124.59983 
L 259.588679 124.59983 
L 259.588679 124.256681 
L 261.262156 124.256681 
L 261.262156 123.227234 
L 262.935633 123.227234 
L 262.935633 121.16834 
L 264.60911 121.16834 
L 264.60911 120.482043 
L 266.282587 120.482043 
L 266.282587 119.795745 
L 267.956064 119.795745 
L 267.956064 116.021106 
L 272.976495 116.021106 
L 272.976495 114.648511 
L 274.649972 114.648511 
L 274.649972 113.619064 
L 276.323449 113.619064 
L 276.323449 111.217021 
L 277.996926 111.217021 
L 277.996926 109.501277 
L 279.670403 109.501277 
L 279.670403 108.814979 
L 281.34388 108.814979 
L 281.34388 108.47183 
L 288.037788 108.47183 
L 288.037788 107.099234 
L 289.711265 107.099234 
L 289.711265 106.756085 
L 294.731696 106.756085 
L 294.731696 105.726638 
L 296.405173 105.726638 
L 296.405173 105.04034 
L 298.07865 105.04034 
L 298.07865 104.697191 
L 301.425604 104.697191 
L 301.425604 104.010894 
L 303.099082 104.010894 
L 303.099082 103.667745 
L 306.446036 103.667745 
L 306.446036 103.324596 
L 308.119513 103.324596 
L 308.119513 102.638298 
L 309.79299 102.638298 
L 309.79299 102.295149 
L 311.466467 102.295149 
L 311.466467 101.952 
L 316.486898 101.952 
L 316.486898 100.922553 
L 318.160375 100.922553 
L 318.160375 100.579404 
L 319.833852 100.579404 
L 319.833852 98.520511 
L 323.180806 98.520511 
L 323.180806 97.834213 
L 324.854283 97.834213 
L 324.854283 97.147915 
L 326.52776 97.147915 
L 326.52776 96.118468 
L 328.201237 96.118468 
L 328.201237 95.43217 
L 329.874714 95.43217 
L 329.874714 94.402723 
L 331.548191 94.402723 
L 331.548191 94.059574 
L 334.895145 94.059574 
L 334.895145 90.628085 
L 336.568622 90.628085 
L 336.568622 90.284936 
L 338.242099 90.284936 
L 338.242099 89.941787 
L 339.915576 89.941787 
L 339.915576 89.598638 
L 343.26253 89.598638 
L 343.26253 87.882894 
L 344.936007 87.882894 
L 344.936007 84.451404 
L 346.609485 84.451404 
L 346.609485 83.421957 
L 349.956439 83.421957 
L 349.956439 82.392511 
L 351.629916 82.392511 
L 351.629916 79.990468 
L 359.997301 79.990468 
L 359.997301 78.274723 
L 361.670778 78.274723 
L 361.670778 77.245277 
L 365.017732 77.245277 
L 365.017732 76.558979 
L 366.691209 76.558979 
L 366.691209 75.872681 
L 368.364686 75.872681 
L 368.364686 71.754894 
L 370.038163 71.754894 
L 370.038163 70.382298 
L 371.71164 70.382298 
L 371.71164 69.352851 
L 373.385117 69.352851 
L 373.385117 69.009702 
L 375.058594 69.009702 
L 375.058594 65.921362 
L 376.732071 65.921362 
L 376.732071 65.578213 
L 378.405548 65.578213 
L 378.405548 64.548766 
L 380.079025 64.548766 
L 380.079025 63.519319 
L 381.752502 63.519319 
L 381.752502 59.058383 
L 386.772933 59.058383 
L 386.772933 57.685787 
L 388.44641 57.685787 
L 388.44641 57.342638 
L 391.793365 57.342638 
L 391.793365 56.999489 
L 395.140319 56.999489 
L 395.140319 55.626894 
L 396.813796 55.626894 
L 396.813796 55.283745 
L 398.487273 55.283745 
L 398.487273 53.568 
L 398.487273 53.568 
" style="fill:none;stroke:#ff7f0e;stroke-linecap:square;stroke-width:1.5;"/>
   </g>
   <g id="line2d_16">
    <path clip-path="url(#pf95287f43f)" d="M 73.832727 295.488 
L 73.832727 214.161702 
L 77.179681 214.161702 
L 77.179681 208.32817 
L 78.853158 208.32817 
L 78.853158 193.915915 
L 80.526635 193.915915 
L 80.526635 186.366638 
L 82.200112 186.366638 
L 82.200112 181.905702 
L 85.547067 181.905702 
L 85.547067 168.522894 
L 87.220544 168.522894 
L 87.220544 167.493447 
L 88.894021 167.493447 
L 88.894021 166.807149 
L 90.567498 166.807149 
L 90.567498 159.94417 
L 92.240975 159.94417 
L 92.240975 153.081191 
L 93.914452 153.081191 
L 93.914452 150.336 
L 95.587929 150.336 
L 95.587929 145.188766 
L 98.934883 145.188766 
L 98.934883 144.845617 
L 100.60836 144.845617 
L 100.60836 140.384681 
L 102.281837 140.384681 
L 102.281837 137.29634 
L 103.955314 137.29634 
L 103.955314 136.610043 
L 105.628791 136.610043 
L 105.628791 134.208 
L 107.302268 134.208 
L 107.302268 133.521702 
L 108.975745 133.521702 
L 108.975745 128.374468 
L 110.649222 128.374468 
L 110.649222 126.315574 
L 113.996176 126.315574 
L 113.996176 122.540936 
L 115.669653 122.540936 
L 115.669653 119.109447 
L 117.34313 119.109447 
L 117.34313 109.844426 
L 119.016607 109.844426 
L 119.016607 108.814979 
L 125.710515 108.814979 
L 125.710515 104.354043 
L 127.383993 104.354043 
L 127.383993 103.324596 
L 129.05747 103.324596 
L 129.05747 101.265702 
L 130.730947 101.265702 
L 130.730947 97.834213 
L 132.404424 97.834213 
L 132.404424 96.804766 
L 134.077901 96.804766 
L 134.077901 95.775319 
L 137.424855 95.775319 
L 137.424855 94.745872 
L 139.098332 94.745872 
L 139.098332 94.402723 
L 140.771809 94.402723 
L 140.771809 94.059574 
L 142.445286 94.059574 
L 142.445286 92.000681 
L 145.79224 92.000681 
L 145.79224 90.628085 
L 147.465717 90.628085 
L 147.465717 89.598638 
L 149.139194 89.598638 
L 149.139194 88.569191 
L 152.486148 88.569191 
L 152.486148 84.451404 
L 159.180056 84.451404 
L 159.180056 84.108255 
L 167.547441 84.108255 
L 167.547441 82.73566 
L 169.220918 82.73566 
L 169.220918 82.392511 
L 170.894396 82.392511 
L 170.894396 82.049362 
L 172.567873 82.049362 
L 172.567873 79.30417 
L 174.24135 79.30417 
L 174.24135 78.961021 
L 177.588304 78.961021 
L 177.588304 78.617872 
L 180.935258 78.617872 
L 180.935258 78.274723 
L 182.608735 78.274723 
L 182.608735 77.245277 
L 184.282212 77.245277 
L 184.282212 76.902128 
L 190.97612 76.902128 
L 190.97612 75.529532 
L 195.996551 75.529532 
L 195.996551 75.186383 
L 197.670028 75.186383 
L 197.670028 74.843234 
L 201.016982 74.843234 
L 201.016982 72.441191 
L 202.690459 72.441191 
L 202.690459 71.754894 
L 204.363936 71.754894 
L 204.363936 70.382298 
L 206.037413 70.382298 
L 206.037413 70.039149 
L 207.71089 70.039149 
L 207.71089 68.666553 
L 209.384367 68.666553 
L 209.384367 67.980255 
L 211.057844 67.980255 
L 211.057844 67.637106 
L 214.404799 67.637106 
L 214.404799 66.60766 
L 216.078276 66.60766 
L 216.078276 66.264511 
L 219.42523 66.264511 
L 219.42523 65.578213 
L 222.772184 65.578213 
L 222.772184 62.833021 
L 226.119138 62.833021 
L 226.119138 61.803574 
L 227.792615 61.803574 
L 227.792615 60.774128 
L 229.466092 60.774128 
L 229.466092 60.430979 
L 231.139569 60.430979 
L 231.139569 59.744681 
L 232.813046 59.744681 
L 232.813046 59.401532 
L 234.486523 59.401532 
L 234.486523 59.058383 
L 241.180431 59.058383 
L 241.180431 58.715234 
L 264.60911 58.715234 
L 264.60911 58.372085 
L 274.649972 58.372085 
L 274.649972 58.028936 
L 279.670403 58.028936 
L 279.670403 57.685787 
L 283.017357 57.685787 
L 283.017357 57.342638 
L 293.058219 57.342638 
L 293.058219 56.999489 
L 371.71164 56.999489 
L 371.71164 56.313191 
L 380.079025 56.313191 
L 380.079025 55.970043 
L 381.752502 55.970043 
L 381.752502 55.626894 
L 385.099456 55.626894 
L 385.099456 55.283745 
L 391.793365 55.283745 
L 391.793365 54.597447 
L 396.813796 54.597447 
L 396.813796 53.568 
L 398.487273 53.568 
L 398.487273 53.568 
" style="fill:none;stroke:#2ca02c;stroke-linecap:square;stroke-width:1.5;"/>
   </g>
   <g id="line2d_17">
    <path clip-path="url(#pf95287f43f)" d="M 73.832727 295.488 
L 73.832727 280.389447 
L 75.506204 280.389447 
L 75.506204 271.467574 
L 77.179681 271.467574 
L 77.179681 270.438128 
L 78.853158 270.438128 
L 78.853158 265.290894 
L 82.200112 265.290894 
L 82.200112 255.339574 
L 83.87359 255.339574 
L 83.87359 248.819745 
L 85.547067 248.819745 
L 85.547067 245.045106 
L 88.894021 245.045106 
L 88.894021 241.956766 
L 90.567498 241.956766 
L 90.567498 239.211574 
L 92.240975 239.211574 
L 92.240975 233.034894 
L 93.914452 233.034894 
L 93.914452 230.632851 
L 95.587929 230.632851 
L 95.587929 229.946553 
L 97.261406 229.946553 
L 97.261406 228.573957 
L 98.934883 228.573957 
L 98.934883 227.201362 
L 100.60836 227.201362 
L 100.60836 226.171915 
L 102.281837 226.171915 
L 102.281837 223.083574 
L 103.955314 223.083574 
L 103.955314 222.740426 
L 105.628791 222.740426 
L 105.628791 222.054128 
L 108.975745 222.054128 
L 108.975745 221.36783 
L 110.649222 221.36783 
L 110.649222 220.338383 
L 112.322699 220.338383 
L 112.322699 219.995234 
L 117.34313 219.995234 
L 117.34313 215.534298 
L 119.016607 215.534298 
L 119.016607 215.191149 
L 122.363561 215.191149 
L 122.363561 214.161702 
L 124.037038 214.161702 
L 124.037038 210.730213 
L 125.710515 210.730213 
L 125.710515 210.043915 
L 127.383993 210.043915 
L 127.383993 206.955574 
L 129.05747 206.955574 
L 129.05747 206.269277 
L 130.730947 206.269277 
L 130.730947 204.210383 
L 132.404424 204.210383 
L 132.404424 202.494638 
L 135.751378 202.494638 
L 135.751378 202.151489 
L 139.098332 202.151489 
L 139.098332 200.778894 
L 140.771809 200.778894 
L 140.771809 196.661106 
L 142.445286 196.661106 
L 142.445286 194.602213 
L 144.118763 194.602213 
L 144.118763 188.768681 
L 145.79224 188.768681 
L 145.79224 188.082383 
L 147.465717 188.082383 
L 147.465717 186.709787 
L 149.139194 186.709787 
L 149.139194 182.592 
L 150.812671 182.592 
L 150.812671 180.876255 
L 152.486148 180.876255 
L 152.486148 180.533106 
L 155.833102 180.533106 
L 155.833102 178.474213 
L 160.853533 178.474213 
L 160.853533 178.131064 
L 164.200487 178.131064 
L 164.200487 177.787915 
L 165.873964 177.787915 
L 165.873964 177.101617 
L 167.547441 177.101617 
L 167.547441 174.013277 
L 169.220918 174.013277 
L 169.220918 171.954383 
L 170.894396 171.954383 
L 170.894396 171.611234 
L 175.914827 171.611234 
L 175.914827 171.268085 
L 179.261781 171.268085 
L 179.261781 169.209191 
L 182.608735 169.209191 
L 182.608735 163.718809 
L 184.282212 163.718809 
L 184.282212 160.287319 
L 185.955689 160.287319 
L 185.955689 156.512681 
L 187.629166 156.512681 
L 187.629166 155.140085 
L 189.302643 155.140085 
L 189.302643 154.453787 
L 190.97612 154.453787 
L 190.97612 152.394894 
L 192.649597 152.394894 
L 192.649597 151.365447 
L 194.323074 151.365447 
L 194.323074 145.875064 
L 197.670028 145.875064 
L 197.670028 144.845617 
L 199.343505 144.845617 
L 199.343505 144.502468 
L 204.363936 144.502468 
L 204.363936 142.786723 
L 209.384367 142.786723 
L 209.384367 140.041532 
L 211.057844 140.041532 
L 211.057844 137.982638 
L 212.731321 137.982638 
L 212.731321 134.551149 
L 214.404799 134.551149 
L 214.404799 134.208 
L 216.078276 134.208 
L 216.078276 131.462809 
L 217.751753 131.462809 
L 217.751753 131.11966 
L 219.42523 131.11966 
L 219.42523 129.403915 
L 221.098707 129.403915 
L 221.098707 129.060766 
L 222.772184 129.060766 
L 222.772184 125.972426 
L 224.445661 125.972426 
L 224.445661 125.629277 
L 226.119138 125.629277 
L 226.119138 124.942979 
L 227.792615 124.942979 
L 227.792615 123.570383 
L 229.466092 123.570383 
L 229.466092 121.854638 
L 231.139569 121.854638 
L 231.139569 121.16834 
L 232.813046 121.16834 
L 232.813046 118.423149 
L 234.486523 118.423149 
L 234.486523 116.364255 
L 236.16 116.364255 
L 236.16 113.619064 
L 237.833477 113.619064 
L 237.833477 112.932766 
L 239.506954 112.932766 
L 239.506954 111.217021 
L 241.180431 111.217021 
L 241.180431 110.873872 
L 242.853908 110.873872 
L 242.853908 110.530723 
L 244.527385 110.530723 
L 244.527385 108.128681 
L 247.874339 108.128681 
L 247.874339 107.785532 
L 249.547816 107.785532 
L 249.547816 105.383489 
L 251.221293 105.383489 
L 251.221293 103.324596 
L 252.89477 103.324596 
L 252.89477 100.579404 
L 254.568247 100.579404 
L 254.568247 99.549957 
L 256.241724 99.549957 
L 256.241724 98.86366 
L 259.588679 98.86366 
L 259.588679 97.834213 
L 261.262156 97.834213 
L 261.262156 96.804766 
L 262.935633 96.804766 
L 262.935633 96.118468 
L 264.60911 96.118468 
L 264.60911 94.402723 
L 266.282587 94.402723 
L 266.282587 94.059574 
L 267.956064 94.059574 
L 267.956064 91.314383 
L 269.629541 91.314383 
L 269.629541 90.971234 
L 271.303018 90.971234 
L 271.303018 90.628085 
L 272.976495 90.628085 
L 272.976495 90.284936 
L 276.323449 90.284936 
L 276.323449 88.226043 
L 277.996926 88.226043 
L 277.996926 87.882894 
L 281.34388 87.882894 
L 281.34388 86.510298 
L 284.690834 86.510298 
L 284.690834 86.167149 
L 286.364311 86.167149 
L 286.364311 85.137702 
L 289.711265 85.137702 
L 289.711265 81.706213 
L 291.384742 81.706213 
L 291.384742 81.363064 
L 294.731696 81.363064 
L 294.731696 80.676766 
L 298.07865 80.676766 
L 298.07865 79.30417 
L 299.752127 79.30417 
L 299.752127 78.274723 
L 301.425604 78.274723 
L 301.425604 76.558979 
L 303.099082 76.558979 
L 303.099082 76.21583 
L 304.772559 76.21583 
L 304.772559 74.500085 
L 306.446036 74.500085 
L 306.446036 74.156936 
L 308.119513 74.156936 
L 308.119513 73.127489 
L 309.79299 73.127489 
L 309.79299 71.754894 
L 311.466467 71.754894 
L 311.466467 69.352851 
L 313.139944 69.352851 
L 313.139944 69.009702 
L 314.813421 69.009702 
L 314.813421 67.980255 
L 316.486898 67.980255 
L 316.486898 67.293957 
L 318.160375 67.293957 
L 318.160375 66.264511 
L 324.854283 66.264511 
L 324.854283 65.921362 
L 326.52776 65.921362 
L 326.52776 65.235064 
L 328.201237 65.235064 
L 328.201237 64.891915 
L 329.874714 64.891915 
L 329.874714 63.862468 
L 336.568622 63.862468 
L 336.568622 62.146723 
L 338.242099 62.146723 
L 338.242099 61.803574 
L 339.915576 61.803574 
L 339.915576 61.117277 
L 344.936007 61.117277 
L 344.936007 60.430979 
L 348.282962 60.430979 
L 348.282962 59.058383 
L 349.956439 59.058383 
L 349.956439 58.372085 
L 351.629916 58.372085 
L 351.629916 56.65634 
L 358.323824 56.65634 
L 358.323824 56.313191 
L 371.71164 56.313191 
L 371.71164 55.970043 
L 375.058594 55.970043 
L 375.058594 55.626894 
L 378.405548 55.626894 
L 378.405548 54.940596 
L 380.079025 54.940596 
L 380.079025 54.254298 
L 385.099456 54.254298 
L 385.099456 53.911149 
L 395.140319 53.911149 
L 395.140319 53.568 
L 398.487273 53.568 
L 398.487273 53.568 
" style="fill:none;stroke:#d62728;stroke-linecap:square;stroke-width:1.5;"/>
   </g>
   <g id="patch_3">
    <path d="M 57.6 307.584 
L 57.6 41.472 
" style="fill:none;stroke:#000000;stroke-linecap:square;stroke-linejoin:miter;stroke-width:0.8;"/>
   </g>
   <g id="patch_4">
    <path d="M 414.72 307.584 
L 414.72 41.472 
" style="fill:none;stroke:#000000;stroke-linecap:square;stroke-linejoin:miter;stroke-width:0.8;"/>
   </g>
   <g id="patch_5">
    <path d="M 57.6 307.584 
L 414.72 307.584 
" style="fill:none;stroke:#000000;stroke-linecap:square;stroke-linejoin:miter;stroke-width:0.8;"/>
   </g>
   <g id="patch_6">
    <path d="M 57.6 41.472 
L 414.72 41.472 
" style="fill:none;stroke:#000000;stroke-linecap:square;stroke-linejoin:miter;stroke-width:0.8;"/>
   </g>
   <g id="text_15">
    <!-- HOG ROC -->
    <defs>
     <path d="M 9.8125 72.90625 
L 19.671875 72.90625 
L 19.671875 43.015625 
L 55.515625 43.015625 
L 55.515625 72.90625 
L 65.375 72.90625 
L 65.375 0 
L 55.515625 0 
L 55.515625 34.71875 
L 19.671875 34.71875 
L 19.671875 0 
L 9.8125 0 
z
" id="DejaVuSans-72"/>
     <path d="M 39.40625 66.21875 
Q 28.65625 66.21875 22.328125 58.203125 
Q 16.015625 50.203125 16.015625 36.375 
Q 16.015625 22.609375 22.328125 14.59375 
Q 28.65625 6.59375 39.40625 6.59375 
Q 50.140625 6.59375 56.421875 14.59375 
Q 62.703125 22.609375 62.703125 36.375 
Q 62.703125 50.203125 56.421875 58.203125 
Q 50.140625 66.21875 39.40625 66.21875 
z
M 39.40625 74.21875 
Q 54.734375 74.21875 63.90625 63.9375 
Q 73.09375 53.65625 73.09375 36.375 
Q 73.09375 19.140625 63.90625 8.859375 
Q 54.734375 -1.421875 39.40625 -1.421875 
Q 24.03125 -1.421875 14.8125 8.828125 
Q 5.609375 19.09375 5.609375 36.375 
Q 5.609375 53.65625 14.8125 63.9375 
Q 24.03125 74.21875 39.40625 74.21875 
z
" id="DejaVuSans-79"/>
     <path d="M 59.515625 10.40625 
L 59.515625 29.984375 
L 43.40625 29.984375 
L 43.40625 38.09375 
L 69.28125 38.09375 
L 69.28125 6.78125 
Q 63.578125 2.734375 56.6875 0.65625 
Q 49.8125 -1.421875 42 -1.421875 
Q 24.90625 -1.421875 15.25 8.5625 
Q 5.609375 18.5625 5.609375 36.375 
Q 5.609375 54.25 15.25 64.234375 
Q 24.90625 74.21875 42 74.21875 
Q 49.125 74.21875 55.546875 72.453125 
Q 61.96875 70.703125 67.390625 67.28125 
L 67.390625 56.78125 
Q 61.921875 61.421875 55.765625 63.765625 
Q 49.609375 66.109375 42.828125 66.109375 
Q 29.4375 66.109375 22.71875 58.640625 
Q 16.015625 51.171875 16.015625 36.375 
Q 16.015625 21.625 22.71875 14.15625 
Q 29.4375 6.6875 42.828125 6.6875 
Q 48.046875 6.6875 52.140625 7.59375 
Q 56.25 8.5 59.515625 10.40625 
z
" id="DejaVuSans-71"/>
     <path d="M 44.390625 34.1875 
Q 47.5625 33.109375 50.5625 29.59375 
Q 53.5625 26.078125 56.59375 19.921875 
L 66.609375 0 
L 56 0 
L 46.6875 18.703125 
Q 43.0625 26.03125 39.671875 28.421875 
Q 36.28125 30.8125 30.421875 30.8125 
L 19.671875 30.8125 
L 19.671875 0 
L 9.8125 0 
L 9.8125 72.90625 
L 32.078125 72.90625 
Q 44.578125 72.90625 50.734375 67.671875 
Q 56.890625 62.453125 56.890625 51.90625 
Q 56.890625 45.015625 53.6875 40.46875 
Q 50.484375 35.9375 44.390625 34.1875 
z
M 19.671875 64.796875 
L 19.671875 38.921875 
L 32.078125 38.921875 
Q 39.203125 38.921875 42.84375 42.21875 
Q 46.484375 45.515625 46.484375 51.90625 
Q 46.484375 58.296875 42.84375 61.546875 
Q 39.203125 64.796875 32.078125 64.796875 
z
" id="DejaVuSans-82"/>
     <path d="M 64.40625 67.28125 
L 64.40625 56.890625 
Q 59.421875 61.53125 53.78125 63.8125 
Q 48.140625 66.109375 41.796875 66.109375 
Q 29.296875 66.109375 22.65625 58.46875 
Q 16.015625 50.828125 16.015625 36.375 
Q 16.015625 21.96875 22.65625 14.328125 
Q 29.296875 6.6875 41.796875 6.6875 
Q 48.140625 6.6875 53.78125 8.984375 
Q 59.421875 11.28125 64.40625 15.921875 
L 64.40625 5.609375 
Q 59.234375 2.09375 53.4375 0.328125 
Q 47.65625 -1.421875 41.21875 -1.421875 
Q 24.65625 -1.421875 15.125 8.703125 
Q 5.609375 18.84375 5.609375 36.375 
Q 5.609375 53.953125 15.125 64.078125 
Q 24.65625 74.21875 41.21875 74.21875 
Q 47.75 74.21875 53.53125 72.484375 
Q 59.328125 70.75 64.40625 67.28125 
z
" id="DejaVuSans-67"/>
    </defs>
    <g transform="translate(207.286875 35.472)scale(0.12 -0.12)">
     <use xlink:href="#DejaVuSans-72"/>
     <use x="75.195312" xlink:href="#DejaVuSans-79"/>
     <use x="153.90625" xlink:href="#DejaVuSans-71"/>
     <use x="231.396484" xlink:href="#DejaVuSans-32"/>
     <use x="263.183594" xlink:href="#DejaVuSans-82"/>
     <use x="332.666016" xlink:href="#DejaVuSans-79"/>
     <use x="411.376953" xlink:href="#DejaVuSans-67"/>
    </g>
   </g>
   <g id="legend_1">
    <g id="patch_7">
     <path d="M 318.545 302.584 
L 407.72 302.584 
Q 409.72 302.584 409.72 300.584 
L 409.72 242.8715 
Q 409.72 240.8715 407.72 240.8715 
L 318.545 240.8715 
Q 316.545 240.8715 316.545 242.8715 
L 316.545 300.584 
Q 316.545 302.584 318.545 302.584 
z
" style="fill:#ffffff;opacity:0.8;stroke:#cccccc;stroke-linejoin:miter;"/>
    </g>
    <g id="line2d_18">
     <path d="M 320.545 248.969937 
L 340.545 248.969937 
" style="fill:none;stroke:#1f77b4;stroke-linecap:square;stroke-width:1.5;"/>
    </g>
    <g id="line2d_19"/>
    <g id="text_16">
     <!-- iForest -->
     <g transform="translate(348.545 252.469937)scale(0.1 -0.1)">
      <use xlink:href="#DejaVuSans-105"/>
      <use x="27.783203" xlink:href="#DejaVuSans-70"/>
      <use x="85.255859" xlink:href="#DejaVuSans-111"/>
      <use x="146.4375" xlink:href="#DejaVuSans-114"/>
      <use x="187.519531" xlink:href="#DejaVuSans-101"/>
      <use x="249.042969" xlink:href="#DejaVuSans-115"/>
      <use x="301.142578" xlink:href="#DejaVuSans-116"/>
     </g>
    </g>
    <g id="line2d_20">
     <path d="M 320.545 263.648062 
L 340.545 263.648062 
" style="fill:none;stroke:#ff7f0e;stroke-linecap:square;stroke-width:1.5;"/>
    </g>
    <g id="line2d_21"/>
    <g id="text_17">
     <!-- OC-SVM -->
     <defs>
      <path d="M 4.890625 31.390625 
L 31.203125 31.390625 
L 31.203125 23.390625 
L 4.890625 23.390625 
z
" id="DejaVuSans-45"/>
      <path d="M 53.515625 70.515625 
L 53.515625 60.890625 
Q 47.90625 63.578125 42.921875 64.890625 
Q 37.9375 66.21875 33.296875 66.21875 
Q 25.25 66.21875 20.875 63.09375 
Q 16.5 59.96875 16.5 54.203125 
Q 16.5 49.359375 19.40625 46.890625 
Q 22.3125 44.4375 30.421875 42.921875 
L 36.375 41.703125 
Q 47.40625 39.59375 52.65625 34.296875 
Q 57.90625 29 57.90625 20.125 
Q 57.90625 9.515625 50.796875 4.046875 
Q 43.703125 -1.421875 29.984375 -1.421875 
Q 24.8125 -1.421875 18.96875 -0.25 
Q 13.140625 0.921875 6.890625 3.21875 
L 6.890625 13.375 
Q 12.890625 10.015625 18.65625 8.296875 
Q 24.421875 6.59375 29.984375 6.59375 
Q 38.421875 6.59375 43.015625 9.90625 
Q 47.609375 13.234375 47.609375 19.390625 
Q 47.609375 24.75 44.3125 27.78125 
Q 41.015625 30.8125 33.5 32.328125 
L 27.484375 33.5 
Q 16.453125 35.6875 11.515625 40.375 
Q 6.59375 45.0625 6.59375 53.421875 
Q 6.59375 63.09375 13.40625 68.65625 
Q 20.21875 74.21875 32.171875 74.21875 
Q 37.3125 74.21875 42.625 73.28125 
Q 47.953125 72.359375 53.515625 70.515625 
z
" id="DejaVuSans-83"/>
      <path d="M 28.609375 0 
L 0.78125 72.90625 
L 11.078125 72.90625 
L 34.1875 11.53125 
L 57.328125 72.90625 
L 67.578125 72.90625 
L 39.796875 0 
z
" id="DejaVuSans-86"/>
      <path d="M 9.8125 72.90625 
L 24.515625 72.90625 
L 43.109375 23.296875 
L 61.8125 72.90625 
L 76.515625 72.90625 
L 76.515625 0 
L 66.890625 0 
L 66.890625 64.015625 
L 48.09375 14.015625 
L 38.1875 14.015625 
L 19.390625 64.015625 
L 19.390625 0 
L 9.8125 0 
z
" id="DejaVuSans-77"/>
     </defs>
     <g transform="translate(348.545 267.148062)scale(0.1 -0.1)">
      <use xlink:href="#DejaVuSans-79"/>
      <use x="78.710938" xlink:href="#DejaVuSans-67"/>
      <use x="148.535156" xlink:href="#DejaVuSans-45"/>
      <use x="184.619141" xlink:href="#DejaVuSans-83"/>
      <use x="248.095703" xlink:href="#DejaVuSans-86"/>
      <use x="316.503906" xlink:href="#DejaVuSans-77"/>
     </g>
    </g>
    <g id="line2d_22">
     <path d="M 320.545 278.326187 
L 340.545 278.326187 
" style="fill:none;stroke:#2ca02c;stroke-linecap:square;stroke-width:1.5;"/>
    </g>
    <g id="line2d_23"/>
    <g id="text_18">
     <!-- Gaussion-D -->
     <defs>
      <path d="M 54.890625 33.015625 
L 54.890625 0 
L 45.90625 0 
L 45.90625 32.71875 
Q 45.90625 40.484375 42.875 44.328125 
Q 39.84375 48.1875 33.796875 48.1875 
Q 26.515625 48.1875 22.3125 43.546875 
Q 18.109375 38.921875 18.109375 30.90625 
L 18.109375 0 
L 9.078125 0 
L 9.078125 54.6875 
L 18.109375 54.6875 
L 18.109375 46.1875 
Q 21.34375 51.125 25.703125 53.5625 
Q 30.078125 56 35.796875 56 
Q 45.21875 56 50.046875 50.171875 
Q 54.890625 44.34375 54.890625 33.015625 
z
" id="DejaVuSans-110"/>
      <path d="M 19.671875 64.796875 
L 19.671875 8.109375 
L 31.59375 8.109375 
Q 46.6875 8.109375 53.6875 14.9375 
Q 60.6875 21.78125 60.6875 36.53125 
Q 60.6875 51.171875 53.6875 57.984375 
Q 46.6875 64.796875 31.59375 64.796875 
z
M 9.8125 72.90625 
L 30.078125 72.90625 
Q 51.265625 72.90625 61.171875 64.09375 
Q 71.09375 55.28125 71.09375 36.53125 
Q 71.09375 17.671875 61.125 8.828125 
Q 51.171875 0 30.078125 0 
L 9.8125 0 
z
" id="DejaVuSans-68"/>
     </defs>
     <g transform="translate(348.545 281.826187)scale(0.1 -0.1)">
      <use xlink:href="#DejaVuSans-71"/>
      <use x="77.490234" xlink:href="#DejaVuSans-97"/>
      <use x="138.769531" xlink:href="#DejaVuSans-117"/>
      <use x="202.148438" xlink:href="#DejaVuSans-115"/>
      <use x="254.248047" xlink:href="#DejaVuSans-115"/>
      <use x="306.347656" xlink:href="#DejaVuSans-105"/>
      <use x="334.130859" xlink:href="#DejaVuSans-111"/>
      <use x="395.3125" xlink:href="#DejaVuSans-110"/>
      <use x="458.691406" xlink:href="#DejaVuSans-45"/>
      <use x="494.775391" xlink:href="#DejaVuSans-68"/>
     </g>
    </g>
    <g id="line2d_24">
     <path d="M 320.545 293.004312 
L 340.545 293.004312 
" style="fill:none;stroke:#d62728;stroke-linecap:square;stroke-width:1.5;"/>
    </g>
    <g id="line2d_25"/>
    <g id="text_19">
     <!-- LOF -->
     <defs>
      <path d="M 9.8125 72.90625 
L 19.671875 72.90625 
L 19.671875 8.296875 
L 55.171875 8.296875 
L 55.171875 0 
L 9.8125 0 
z
" id="DejaVuSans-76"/>
     </defs>
     <g transform="translate(348.545 296.504312)scale(0.1 -0.1)">
      <use xlink:href="#DejaVuSans-76"/>
      <use x="55.666016" xlink:href="#DejaVuSans-79"/>
      <use x="134.376953" xlink:href="#DejaVuSans-70"/>
     </g>
    </g>
   </g>
  </g>
 </g>
 <defs>
  <clipPath id="pf95287f43f">
   <rect height="266.112" width="357.12" x="57.6" y="41.472"/>
  </clipPath>
 </defs>
</svg>
