<?xml version="1.0" encoding="utf-8" standalone="no"?>
<!DOCTYPE svg PUBLIC "-//W3C//DTD SVG 1.1//EN"
  "http://www.w3.org/Graphics/SVG/1.1/DTD/svg11.dtd">
<!-- Created with matplotlib (https://matplotlib.org/) -->
<svg height="345.6pt" version="1.1" viewBox="0 0 460.8 345.6" width="460.8pt" xmlns="http://www.w3.org/2000/svg" xmlns:xlink="http://www.w3.org/1999/xlink">
 <defs>
  <style type="text/css">
*{stroke-linecap:butt;stroke-linejoin:round;}
  </style>
 </defs>
 <g id="figure_1">
  <g id="patch_1">
   <path d="M 0 345.6 
L 460.8 345.6 
L 460.8 0 
L 0 0 
z
" style="fill:#ffffff;"/>
  </g>
  <g id="axes_1">
   <g id="patch_2">
    <path d="M 57.6 307.584 
L 414.72 307.584 
L 414.72 41.472 
L 57.6 41.472 
z
" style="fill:#ffffff;"/>
   </g>
   <g id="matplotlib.axis_1">
    <g id="xtick_1">
     <g id="line2d_1">
      <defs>
       <path d="M 0 0 
L 0 3.5 
" id="ma79c57dc1c" style="stroke:#000000;stroke-width:0.8;"/>
      </defs>
      <g>
       <use style="stroke:#000000;stroke-width:0.8;" x="73.832727" xlink:href="#ma79c57dc1c" y="307.584"/>
      </g>
     </g>
     <g id="text_1">
      <!-- 0.0 -->
      <defs>
       <path d="M 31.78125 66.40625 
Q 24.171875 66.40625 20.328125 58.90625 
Q 16.5 51.421875 16.5 36.375 
Q 16.5 21.390625 20.328125 13.890625 
Q 24.171875 6.390625 31.78125 6.390625 
Q 39.453125 6.390625 43.28125 13.890625 
Q 47.125 21.390625 47.125 36.375 
Q 47.125 51.421875 43.28125 58.90625 
Q 39.453125 66.40625 31.78125 66.40625 
z
M 31.78125 74.21875 
Q 44.046875 74.21875 50.515625 64.515625 
Q 56.984375 54.828125 56.984375 36.375 
Q 56.984375 17.96875 50.515625 8.265625 
Q 44.046875 -1.421875 31.78125 -1.421875 
Q 19.53125 -1.421875 13.0625 8.265625 
Q 6.59375 17.96875 6.59375 36.375 
Q 6.59375 54.828125 13.0625 64.515625 
Q 19.53125 74.21875 31.78125 74.21875 
z
" id="DejaVuSans-48"/>
       <path d="M 10.6875 12.40625 
L 21 12.40625 
L 21 0 
L 10.6875 0 
z
" id="DejaVuSans-46"/>
      </defs>
      <g transform="translate(65.881165 322.182437)scale(0.1 -0.1)">
       <use xlink:href="#DejaVuSans-48"/>
       <use x="63.623047" xlink:href="#DejaVuSans-46"/>
       <use x="95.410156" xlink:href="#DejaVuSans-48"/>
      </g>
     </g>
    </g>
    <g id="xtick_2">
     <g id="line2d_2">
      <g>
       <use style="stroke:#000000;stroke-width:0.8;" x="138.763636" xlink:href="#ma79c57dc1c" y="307.584"/>
      </g>
     </g>
     <g id="text_2">
      <!-- 0.2 -->
      <defs>
       <path d="M 19.1875 8.296875 
L 53.609375 8.296875 
L 53.609375 0 
L 7.328125 0 
L 7.328125 8.296875 
Q 12.9375 14.109375 22.625 23.890625 
Q 32.328125 33.6875 34.8125 36.53125 
Q 39.546875 41.84375 41.421875 45.53125 
Q 43.3125 49.21875 43.3125 52.78125 
Q 43.3125 58.59375 39.234375 62.25 
Q 35.15625 65.921875 28.609375 65.921875 
Q 23.96875 65.921875 18.8125 64.3125 
Q 13.671875 62.703125 7.8125 59.421875 
L 7.8125 69.390625 
Q 13.765625 71.78125 18.9375 73 
Q 24.125 74.21875 28.421875 74.21875 
Q 39.75 74.21875 46.484375 68.546875 
Q 53.21875 62.890625 53.21875 53.421875 
Q 53.21875 48.921875 51.53125 44.890625 
Q 49.859375 40.875 45.40625 35.40625 
Q 44.1875 33.984375 37.640625 27.21875 
Q 31.109375 20.453125 19.1875 8.296875 
z
" id="DejaVuSans-50"/>
      </defs>
      <g transform="translate(130.812074 322.182437)scale(0.1 -0.1)">
       <use xlink:href="#DejaVuSans-48"/>
       <use x="63.623047" xlink:href="#DejaVuSans-46"/>
       <use x="95.410156" xlink:href="#DejaVuSans-50"/>
      </g>
     </g>
    </g>
    <g id="xtick_3">
     <g id="line2d_3">
      <g>
       <use style="stroke:#000000;stroke-width:0.8;" x="203.694545" xlink:href="#ma79c57dc1c" y="307.584"/>
      </g>
     </g>
     <g id="text_3">
      <!-- 0.4 -->
      <defs>
       <path d="M 37.796875 64.3125 
L 12.890625 25.390625 
L 37.796875 25.390625 
z
M 35.203125 72.90625 
L 47.609375 72.90625 
L 47.609375 25.390625 
L 58.015625 25.390625 
L 58.015625 17.1875 
L 47.609375 17.1875 
L 47.609375 0 
L 37.796875 0 
L 37.796875 17.1875 
L 4.890625 17.1875 
L 4.890625 26.703125 
z
" id="DejaVuSans-52"/>
      </defs>
      <g transform="translate(195.742983 322.182437)scale(0.1 -0.1)">
       <use xlink:href="#DejaVuSans-48"/>
       <use x="63.623047" xlink:href="#DejaVuSans-46"/>
       <use x="95.410156" xlink:href="#DejaVuSans-52"/>
      </g>
     </g>
    </g>
    <g id="xtick_4">
     <g id="line2d_4">
      <g>
       <use style="stroke:#000000;stroke-width:0.8;" x="268.625455" xlink:href="#ma79c57dc1c" y="307.584"/>
      </g>
     </g>
     <g id="text_4">
      <!-- 0.6 -->
      <defs>
       <path d="M 33.015625 40.375 
Q 26.375 40.375 22.484375 35.828125 
Q 18.609375 31.296875 18.609375 23.390625 
Q 18.609375 15.53125 22.484375 10.953125 
Q 26.375 6.390625 33.015625 6.390625 
Q 39.65625 6.390625 43.53125 10.953125 
Q 47.40625 15.53125 47.40625 23.390625 
Q 47.40625 31.296875 43.53125 35.828125 
Q 39.65625 40.375 33.015625 40.375 
z
M 52.59375 71.296875 
L 52.59375 62.3125 
Q 48.875 64.0625 45.09375 64.984375 
Q 41.3125 65.921875 37.59375 65.921875 
Q 27.828125 65.921875 22.671875 59.328125 
Q 17.53125 52.734375 16.796875 39.40625 
Q 19.671875 43.65625 24.015625 45.921875 
Q 28.375 48.1875 33.59375 48.1875 
Q 44.578125 48.1875 50.953125 41.515625 
Q 57.328125 34.859375 57.328125 23.390625 
Q 57.328125 12.15625 50.6875 5.359375 
Q 44.046875 -1.421875 33.015625 -1.421875 
Q 20.359375 -1.421875 13.671875 8.265625 
Q 6.984375 17.96875 6.984375 36.375 
Q 6.984375 53.65625 15.1875 63.9375 
Q 23.390625 74.21875 37.203125 74.21875 
Q 40.921875 74.21875 44.703125 73.484375 
Q 48.484375 72.75 52.59375 71.296875 
z
" id="DejaVuSans-54"/>
      </defs>
      <g transform="translate(260.673892 322.182437)scale(0.1 -0.1)">
       <use xlink:href="#DejaVuSans-48"/>
       <use x="63.623047" xlink:href="#DejaVuSans-46"/>
       <use x="95.410156" xlink:href="#DejaVuSans-54"/>
      </g>
     </g>
    </g>
    <g id="xtick_5">
     <g id="line2d_5">
      <g>
       <use style="stroke:#000000;stroke-width:0.8;" x="333.556364" xlink:href="#ma79c57dc1c" y="307.584"/>
      </g>
     </g>
     <g id="text_5">
      <!-- 0.8 -->
      <defs>
       <path d="M 31.78125 34.625 
Q 24.75 34.625 20.71875 30.859375 
Q 16.703125 27.09375 16.703125 20.515625 
Q 16.703125 13.921875 20.71875 10.15625 
Q 24.75 6.390625 31.78125 6.390625 
Q 38.8125 6.390625 42.859375 10.171875 
Q 46.921875 13.96875 46.921875 20.515625 
Q 46.921875 27.09375 42.890625 30.859375 
Q 38.875 34.625 31.78125 34.625 
z
M 21.921875 38.8125 
Q 15.578125 40.375 12.03125 44.71875 
Q 8.5 49.078125 8.5 55.328125 
Q 8.5 64.0625 14.71875 69.140625 
Q 20.953125 74.21875 31.78125 74.21875 
Q 42.671875 74.21875 48.875 69.140625 
Q 55.078125 64.0625 55.078125 55.328125 
Q 55.078125 49.078125 51.53125 44.71875 
Q 48 40.375 41.703125 38.8125 
Q 48.828125 37.15625 52.796875 32.3125 
Q 56.78125 27.484375 56.78125 20.515625 
Q 56.78125 9.90625 50.3125 4.234375 
Q 43.84375 -1.421875 31.78125 -1.421875 
Q 19.734375 -1.421875 13.25 4.234375 
Q 6.78125 9.90625 6.78125 20.515625 
Q 6.78125 27.484375 10.78125 32.3125 
Q 14.796875 37.15625 21.921875 38.8125 
z
M 18.3125 54.390625 
Q 18.3125 48.734375 21.84375 45.5625 
Q 25.390625 42.390625 31.78125 42.390625 
Q 38.140625 42.390625 41.71875 45.5625 
Q 45.3125 48.734375 45.3125 54.390625 
Q 45.3125 60.0625 41.71875 63.234375 
Q 38.140625 66.40625 31.78125 66.40625 
Q 25.390625 66.40625 21.84375 63.234375 
Q 18.3125 60.0625 18.3125 54.390625 
z
" id="DejaVuSans-56"/>
      </defs>
      <g transform="translate(325.604801 322.182437)scale(0.1 -0.1)">
       <use xlink:href="#DejaVuSans-48"/>
       <use x="63.623047" xlink:href="#DejaVuSans-46"/>
       <use x="95.410156" xlink:href="#DejaVuSans-56"/>
      </g>
     </g>
    </g>
    <g id="xtick_6">
     <g id="line2d_6">
      <g>
       <use style="stroke:#000000;stroke-width:0.8;" x="398.487273" xlink:href="#ma79c57dc1c" y="307.584"/>
      </g>
     </g>
     <g id="text_6">
      <!-- 1.0 -->
      <defs>
       <path d="M 12.40625 8.296875 
L 28.515625 8.296875 
L 28.515625 63.921875 
L 10.984375 60.40625 
L 10.984375 69.390625 
L 28.421875 72.90625 
L 38.28125 72.90625 
L 38.28125 8.296875 
L 54.390625 8.296875 
L 54.390625 0 
L 12.40625 0 
z
" id="DejaVuSans-49"/>
      </defs>
      <g transform="translate(390.53571 322.182437)scale(0.1 -0.1)">
       <use xlink:href="#DejaVuSans-49"/>
       <use x="63.623047" xlink:href="#DejaVuSans-46"/>
       <use x="95.410156" xlink:href="#DejaVuSans-48"/>
      </g>
     </g>
    </g>
    <g id="text_7">
     <!-- False positive rate -->
     <defs>
      <path d="M 9.8125 72.90625 
L 51.703125 72.90625 
L 51.703125 64.59375 
L 19.671875 64.59375 
L 19.671875 43.109375 
L 48.578125 43.109375 
L 48.578125 34.8125 
L 19.671875 34.8125 
L 19.671875 0 
L 9.8125 0 
z
" id="DejaVuSans-70"/>
      <path d="M 34.28125 27.484375 
Q 23.390625 27.484375 19.1875 25 
Q 14.984375 22.515625 14.984375 16.5 
Q 14.984375 11.71875 18.140625 8.90625 
Q 21.296875 6.109375 26.703125 6.109375 
Q 34.1875 6.109375 38.703125 11.40625 
Q 43.21875 16.703125 43.21875 25.484375 
L 43.21875 27.484375 
z
M 52.203125 31.203125 
L 52.203125 0 
L 43.21875 0 
L 43.21875 8.296875 
Q 40.140625 3.328125 35.546875 0.953125 
Q 30.953125 -1.421875 24.3125 -1.421875 
Q 15.921875 -1.421875 10.953125 3.296875 
Q 6 8.015625 6 15.921875 
Q 6 25.140625 12.171875 29.828125 
Q 18.359375 34.515625 30.609375 34.515625 
L 43.21875 34.515625 
L 43.21875 35.40625 
Q 43.21875 41.609375 39.140625 45 
Q 35.0625 48.390625 27.6875 48.390625 
Q 23 48.390625 18.546875 47.265625 
Q 14.109375 46.140625 10.015625 43.890625 
L 10.015625 52.203125 
Q 14.9375 54.109375 19.578125 55.046875 
Q 24.21875 56 28.609375 56 
Q 40.484375 56 46.34375 49.84375 
Q 52.203125 43.703125 52.203125 31.203125 
z
" id="DejaVuSans-97"/>
      <path d="M 9.421875 75.984375 
L 18.40625 75.984375 
L 18.40625 0 
L 9.421875 0 
z
" id="DejaVuSans-108"/>
      <path d="M 44.28125 53.078125 
L 44.28125 44.578125 
Q 40.484375 46.53125 36.375 47.5 
Q 32.28125 48.484375 27.875 48.484375 
Q 21.1875 48.484375 17.84375 46.4375 
Q 14.5 44.390625 14.5 40.28125 
Q 14.5 37.15625 16.890625 35.375 
Q 19.28125 33.59375 26.515625 31.984375 
L 29.59375 31.296875 
Q 39.15625 29.25 43.1875 25.515625 
Q 47.21875 21.78125 47.21875 15.09375 
Q 47.21875 7.46875 41.1875 3.015625 
Q 35.15625 -1.421875 24.609375 -1.421875 
Q 20.21875 -1.421875 15.453125 -0.5625 
Q 10.6875 0.296875 5.421875 2 
L 5.421875 11.28125 
Q 10.40625 8.6875 15.234375 7.390625 
Q 20.0625 6.109375 24.8125 6.109375 
Q 31.15625 6.109375 34.5625 8.28125 
Q 37.984375 10.453125 37.984375 14.40625 
Q 37.984375 18.0625 35.515625 20.015625 
Q 33.0625 21.96875 24.703125 23.78125 
L 21.578125 24.515625 
Q 13.234375 26.265625 9.515625 29.90625 
Q 5.8125 33.546875 5.8125 39.890625 
Q 5.8125 47.609375 11.28125 51.796875 
Q 16.75 56 26.8125 56 
Q 31.78125 56 36.171875 55.265625 
Q 40.578125 54.546875 44.28125 53.078125 
z
" id="DejaVuSans-115"/>
      <path d="M 56.203125 29.59375 
L 56.203125 25.203125 
L 14.890625 25.203125 
Q 15.484375 15.921875 20.484375 11.0625 
Q 25.484375 6.203125 34.421875 6.203125 
Q 39.59375 6.203125 44.453125 7.46875 
Q 49.3125 8.734375 54.109375 11.28125 
L 54.109375 2.78125 
Q 49.265625 0.734375 44.1875 -0.34375 
Q 39.109375 -1.421875 33.890625 -1.421875 
Q 20.796875 -1.421875 13.15625 6.1875 
Q 5.515625 13.8125 5.515625 26.8125 
Q 5.515625 40.234375 12.765625 48.109375 
Q 20.015625 56 32.328125 56 
Q 43.359375 56 49.78125 48.890625 
Q 56.203125 41.796875 56.203125 29.59375 
z
M 47.21875 32.234375 
Q 47.125 39.59375 43.09375 43.984375 
Q 39.0625 48.390625 32.421875 48.390625 
Q 24.90625 48.390625 20.390625 44.140625 
Q 15.875 39.890625 15.1875 32.171875 
z
" id="DejaVuSans-101"/>
      <path id="DejaVuSans-32"/>
      <path d="M 18.109375 8.203125 
L 18.109375 -20.796875 
L 9.078125 -20.796875 
L 9.078125 54.6875 
L 18.109375 54.6875 
L 18.109375 46.390625 
Q 20.953125 51.265625 25.265625 53.625 
Q 29.59375 56 35.59375 56 
Q 45.5625 56 51.78125 48.09375 
Q 58.015625 40.1875 58.015625 27.296875 
Q 58.015625 14.40625 51.78125 6.484375 
Q 45.5625 -1.421875 35.59375 -1.421875 
Q 29.59375 -1.421875 25.265625 0.953125 
Q 20.953125 3.328125 18.109375 8.203125 
z
M 48.6875 27.296875 
Q 48.6875 37.203125 44.609375 42.84375 
Q 40.53125 48.484375 33.40625 48.484375 
Q 26.265625 48.484375 22.1875 42.84375 
Q 18.109375 37.203125 18.109375 27.296875 
Q 18.109375 17.390625 22.1875 11.75 
Q 26.265625 6.109375 33.40625 6.109375 
Q 40.53125 6.109375 44.609375 11.75 
Q 48.6875 17.390625 48.6875 27.296875 
z
" id="DejaVuSans-112"/>
      <path d="M 30.609375 48.390625 
Q 23.390625 48.390625 19.1875 42.75 
Q 14.984375 37.109375 14.984375 27.296875 
Q 14.984375 17.484375 19.15625 11.84375 
Q 23.34375 6.203125 30.609375 6.203125 
Q 37.796875 6.203125 41.984375 11.859375 
Q 46.1875 17.53125 46.1875 27.296875 
Q 46.1875 37.015625 41.984375 42.703125 
Q 37.796875 48.390625 30.609375 48.390625 
z
M 30.609375 56 
Q 42.328125 56 49.015625 48.375 
Q 55.71875 40.765625 55.71875 27.296875 
Q 55.71875 13.875 49.015625 6.21875 
Q 42.328125 -1.421875 30.609375 -1.421875 
Q 18.84375 -1.421875 12.171875 6.21875 
Q 5.515625 13.875 5.515625 27.296875 
Q 5.515625 40.765625 12.171875 48.375 
Q 18.84375 56 30.609375 56 
z
" id="DejaVuSans-111"/>
      <path d="M 9.421875 54.6875 
L 18.40625 54.6875 
L 18.40625 0 
L 9.421875 0 
z
M 9.421875 75.984375 
L 18.40625 75.984375 
L 18.40625 64.59375 
L 9.421875 64.59375 
z
" id="DejaVuSans-105"/>
      <path d="M 18.3125 70.21875 
L 18.3125 54.6875 
L 36.8125 54.6875 
L 36.8125 47.703125 
L 18.3125 47.703125 
L 18.3125 18.015625 
Q 18.3125 11.328125 20.140625 9.421875 
Q 21.96875 7.515625 27.59375 7.515625 
L 36.8125 7.515625 
L 36.8125 0 
L 27.59375 0 
Q 17.1875 0 13.234375 3.875 
Q 9.28125 7.765625 9.28125 18.015625 
L 9.28125 47.703125 
L 2.6875 47.703125 
L 2.6875 54.6875 
L 9.28125 54.6875 
L 9.28125 70.21875 
z
" id="DejaVuSans-116"/>
      <path d="M 2.984375 54.6875 
L 12.5 54.6875 
L 29.59375 8.796875 
L 46.6875 54.6875 
L 56.203125 54.6875 
L 35.6875 0 
L 23.484375 0 
z
" id="DejaVuSans-118"/>
      <path d="M 41.109375 46.296875 
Q 39.59375 47.171875 37.8125 47.578125 
Q 36.03125 48 33.890625 48 
Q 26.265625 48 22.1875 43.046875 
Q 18.109375 38.09375 18.109375 28.8125 
L 18.109375 0 
L 9.078125 0 
L 9.078125 54.6875 
L 18.109375 54.6875 
L 18.109375 46.1875 
Q 20.953125 51.171875 25.484375 53.578125 
Q 30.03125 56 36.53125 56 
Q 37.453125 56 38.578125 55.875 
Q 39.703125 55.765625 41.0625 55.515625 
z
" id="DejaVuSans-114"/>
     </defs>
     <g transform="translate(190.21 335.860562)scale(0.1 -0.1)">
      <use xlink:href="#DejaVuSans-70"/>
      <use x="57.378906" xlink:href="#DejaVuSans-97"/>
      <use x="118.658203" xlink:href="#DejaVuSans-108"/>
      <use x="146.441406" xlink:href="#DejaVuSans-115"/>
      <use x="198.541016" xlink:href="#DejaVuSans-101"/>
      <use x="260.064453" xlink:href="#DejaVuSans-32"/>
      <use x="291.851562" xlink:href="#DejaVuSans-112"/>
      <use x="355.328125" xlink:href="#DejaVuSans-111"/>
      <use x="416.509766" xlink:href="#DejaVuSans-115"/>
      <use x="468.609375" xlink:href="#DejaVuSans-105"/>
      <use x="496.392578" xlink:href="#DejaVuSans-116"/>
      <use x="535.601562" xlink:href="#DejaVuSans-105"/>
      <use x="563.384766" xlink:href="#DejaVuSans-118"/>
      <use x="622.564453" xlink:href="#DejaVuSans-101"/>
      <use x="684.087891" xlink:href="#DejaVuSans-32"/>
      <use x="715.875" xlink:href="#DejaVuSans-114"/>
      <use x="756.988281" xlink:href="#DejaVuSans-97"/>
      <use x="818.267578" xlink:href="#DejaVuSans-116"/>
      <use x="857.476562" xlink:href="#DejaVuSans-101"/>
     </g>
    </g>
   </g>
   <g id="matplotlib.axis_2">
    <g id="ytick_1">
     <g id="line2d_7">
      <defs>
       <path d="M 0 0 
L -3.5 0 
" id="m77de6b9b2e" style="stroke:#000000;stroke-width:0.8;"/>
      </defs>
      <g>
       <use style="stroke:#000000;stroke-width:0.8;" x="57.6" xlink:href="#m77de6b9b2e" y="295.488"/>
      </g>
     </g>
     <g id="text_8">
      <!-- 0.0 -->
      <g transform="translate(34.696875 299.287219)scale(0.1 -0.1)">
       <use xlink:href="#DejaVuSans-48"/>
       <use x="63.623047" xlink:href="#DejaVuSans-46"/>
       <use x="95.410156" xlink:href="#DejaVuSans-48"/>
      </g>
     </g>
    </g>
    <g id="ytick_2">
     <g id="line2d_8">
      <g>
       <use style="stroke:#000000;stroke-width:0.8;" x="57.6" xlink:href="#m77de6b9b2e" y="247.104"/>
      </g>
     </g>
     <g id="text_9">
      <!-- 0.2 -->
      <g transform="translate(34.696875 250.903219)scale(0.1 -0.1)">
       <use xlink:href="#DejaVuSans-48"/>
       <use x="63.623047" xlink:href="#DejaVuSans-46"/>
       <use x="95.410156" xlink:href="#DejaVuSans-50"/>
      </g>
     </g>
    </g>
    <g id="ytick_3">
     <g id="line2d_9">
      <g>
       <use style="stroke:#000000;stroke-width:0.8;" x="57.6" xlink:href="#m77de6b9b2e" y="198.72"/>
      </g>
     </g>
     <g id="text_10">
      <!-- 0.4 -->
      <g transform="translate(34.696875 202.519219)scale(0.1 -0.1)">
       <use xlink:href="#DejaVuSans-48"/>
       <use x="63.623047" xlink:href="#DejaVuSans-46"/>
       <use x="95.410156" xlink:href="#DejaVuSans-52"/>
      </g>
     </g>
    </g>
    <g id="ytick_4">
     <g id="line2d_10">
      <g>
       <use style="stroke:#000000;stroke-width:0.8;" x="57.6" xlink:href="#m77de6b9b2e" y="150.336"/>
      </g>
     </g>
     <g id="text_11">
      <!-- 0.6 -->
      <g transform="translate(34.696875 154.135219)scale(0.1 -0.1)">
       <use xlink:href="#DejaVuSans-48"/>
       <use x="63.623047" xlink:href="#DejaVuSans-46"/>
       <use x="95.410156" xlink:href="#DejaVuSans-54"/>
      </g>
     </g>
    </g>
    <g id="ytick_5">
     <g id="line2d_11">
      <g>
       <use style="stroke:#000000;stroke-width:0.8;" x="57.6" xlink:href="#m77de6b9b2e" y="101.952"/>
      </g>
     </g>
     <g id="text_12">
      <!-- 0.8 -->
      <g transform="translate(34.696875 105.751219)scale(0.1 -0.1)">
       <use xlink:href="#DejaVuSans-48"/>
       <use x="63.623047" xlink:href="#DejaVuSans-46"/>
       <use x="95.410156" xlink:href="#DejaVuSans-56"/>
      </g>
     </g>
    </g>
    <g id="ytick_6">
     <g id="line2d_12">
      <g>
       <use style="stroke:#000000;stroke-width:0.8;" x="57.6" xlink:href="#m77de6b9b2e" y="53.568"/>
      </g>
     </g>
     <g id="text_13">
      <!-- 1.0 -->
      <g transform="translate(34.696875 57.367219)scale(0.1 -0.1)">
       <use xlink:href="#DejaVuSans-49"/>
       <use x="63.623047" xlink:href="#DejaVuSans-46"/>
       <use x="95.410156" xlink:href="#DejaVuSans-48"/>
      </g>
     </g>
    </g>
    <g id="text_14">
     <!-- True positive rate -->
     <defs>
      <path d="M -0.296875 72.90625 
L 61.375 72.90625 
L 61.375 64.59375 
L 35.5 64.59375 
L 35.5 0 
L 25.59375 0 
L 25.59375 64.59375 
L -0.296875 64.59375 
z
" id="DejaVuSans-84"/>
      <path d="M 8.5 21.578125 
L 8.5 54.6875 
L 17.484375 54.6875 
L 17.484375 21.921875 
Q 17.484375 14.15625 20.5 10.265625 
Q 23.53125 6.390625 29.59375 6.390625 
Q 36.859375 6.390625 41.078125 11.03125 
Q 45.3125 15.671875 45.3125 23.6875 
L 45.3125 54.6875 
L 54.296875 54.6875 
L 54.296875 0 
L 45.3125 0 
L 45.3125 8.40625 
Q 42.046875 3.421875 37.71875 1 
Q 33.40625 -1.421875 27.6875 -1.421875 
Q 18.265625 -1.421875 13.375 4.4375 
Q 8.5 10.296875 8.5 21.578125 
z
M 31.109375 56 
z
" id="DejaVuSans-117"/>
     </defs>
     <g transform="translate(28.617187 218.818625)rotate(-90)scale(0.1 -0.1)">
      <use xlink:href="#DejaVuSans-84"/>
      <use x="60.865234" xlink:href="#DejaVuSans-114"/>
      <use x="101.978516" xlink:href="#DejaVuSans-117"/>
      <use x="165.357422" xlink:href="#DejaVuSans-101"/>
      <use x="226.880859" xlink:href="#DejaVuSans-32"/>
      <use x="258.667969" xlink:href="#DejaVuSans-112"/>
      <use x="322.144531" xlink:href="#DejaVuSans-111"/>
      <use x="383.326172" xlink:href="#DejaVuSans-115"/>
      <use x="435.425781" xlink:href="#DejaVuSans-105"/>
      <use x="463.208984" xlink:href="#DejaVuSans-116"/>
      <use x="502.417969" xlink:href="#DejaVuSans-105"/>
      <use x="530.201172" xlink:href="#DejaVuSans-118"/>
      <use x="589.380859" xlink:href="#DejaVuSans-101"/>
      <use x="650.904297" xlink:href="#DejaVuSans-32"/>
      <use x="682.691406" xlink:href="#DejaVuSans-114"/>
      <use x="723.804688" xlink:href="#DejaVuSans-97"/>
      <use x="785.083984" xlink:href="#DejaVuSans-116"/>
      <use x="824.292969" xlink:href="#DejaVuSans-101"/>
     </g>
    </g>
   </g>
   <g id="line2d_13">
    <path clip-path="url(#p73addfaecb)" d="M 73.832727 295.488 
L 398.487273 53.568 
" style="fill:none;stroke:#000000;stroke-dasharray:5.55,2.4;stroke-dashoffset:0;stroke-width:1.5;"/>
   </g>
   <g id="line2d_14">
    <path clip-path="url(#p73addfaecb)" d="M 73.832727 295.488 
L 73.832727 292.742809 
L 75.506204 292.742809 
L 75.506204 290.340766 
L 77.179681 290.340766 
L 77.179681 288.625021 
L 78.853158 288.625021 
L 78.853158 287.252426 
L 80.526635 287.252426 
L 80.526635 282.791489 
L 82.200112 282.791489 
L 82.200112 279.703149 
L 83.87359 279.703149 
L 83.87359 275.928511 
L 87.220544 275.928511 
L 87.220544 275.242213 
L 88.894021 275.242213 
L 88.894021 272.153872 
L 90.567498 272.153872 
L 90.567498 269.408681 
L 92.240975 269.408681 
L 92.240975 268.722383 
L 93.914452 268.722383 
L 93.914452 267.349787 
L 95.587929 267.349787 
L 95.587929 265.634043 
L 97.261406 265.634043 
L 97.261406 265.290894 
L 98.934883 265.290894 
L 98.934883 264.261447 
L 100.60836 264.261447 
L 100.60836 263.575149 
L 102.281837 263.575149 
L 102.281837 260.14366 
L 103.955314 260.14366 
L 103.955314 259.114213 
L 105.628791 259.114213 
L 105.628791 258.427915 
L 107.302268 258.427915 
L 107.302268 256.025872 
L 108.975745 256.025872 
L 108.975745 252.594383 
L 110.649222 252.594383 
L 110.649222 249.506043 
L 113.996176 249.506043 
L 113.996176 247.104 
L 115.669653 247.104 
L 115.669653 245.045106 
L 117.34313 245.045106 
L 117.34313 244.701957 
L 119.016607 244.701957 
L 119.016607 244.01566 
L 120.690084 244.01566 
L 120.690084 243.672511 
L 122.363561 243.672511 
L 122.363561 234.407489 
L 124.037038 234.407489 
L 124.037038 231.319149 
L 127.383993 231.319149 
L 127.383993 227.544511 
L 129.05747 227.544511 
L 129.05747 226.171915 
L 132.404424 226.171915 
L 132.404424 212.445957 
L 134.077901 212.445957 
L 134.077901 209.357617 
L 135.751378 209.357617 
L 135.751378 207.298723 
L 137.424855 207.298723 
L 137.424855 206.612426 
L 139.098332 206.612426 
L 139.098332 204.896681 
L 140.771809 204.896681 
L 140.771809 204.210383 
L 142.445286 204.210383 
L 142.445286 200.435745 
L 144.118763 200.435745 
L 144.118763 194.945362 
L 145.79224 194.945362 
L 145.79224 182.248851 
L 147.465717 182.248851 
L 147.465717 180.533106 
L 149.139194 180.533106 
L 149.139194 168.179745 
L 150.812671 168.179745 
L 150.812671 167.493447 
L 152.486148 167.493447 
L 152.486148 164.405106 
L 154.159625 164.405106 
L 154.159625 164.061957 
L 155.833102 164.061957 
L 155.833102 154.796936 
L 159.180056 154.796936 
L 159.180056 153.081191 
L 160.853533 153.081191 
L 160.853533 149.306553 
L 162.52701 149.306553 
L 162.52701 147.590809 
L 164.200487 147.590809 
L 164.200487 141.070979 
L 165.873964 141.070979 
L 165.873964 139.355234 
L 167.547441 139.355234 
L 167.547441 134.894298 
L 169.220918 134.894298 
L 169.220918 132.835404 
L 170.894396 132.835404 
L 170.894396 129.403915 
L 172.567873 129.403915 
L 172.567873 127.68817 
L 174.24135 127.68817 
L 174.24135 126.658723 
L 175.914827 126.658723 
L 175.914827 123.570383 
L 177.588304 123.570383 
L 177.588304 121.16834 
L 179.261781 121.16834 
L 179.261781 119.452596 
L 180.935258 119.452596 
L 180.935258 119.109447 
L 184.282212 119.109447 
L 184.282212 118.423149 
L 185.955689 118.423149 
L 185.955689 118.08 
L 187.629166 118.08 
L 187.629166 115.677957 
L 189.302643 115.677957 
L 189.302643 114.648511 
L 190.97612 114.648511 
L 190.97612 106.412936 
L 192.649597 106.412936 
L 192.649597 105.383489 
L 194.323074 105.383489 
L 194.323074 102.295149 
L 195.996551 102.295149 
L 195.996551 100.579404 
L 197.670028 100.579404 
L 197.670028 97.491064 
L 199.343505 97.491064 
L 199.343505 94.402723 
L 201.016982 94.402723 
L 201.016982 92.686979 
L 202.690459 92.686979 
L 202.690459 89.255489 
L 207.71089 89.255489 
L 207.71089 87.196596 
L 211.057844 87.196596 
L 211.057844 85.480851 
L 212.731321 85.480851 
L 212.731321 85.137702 
L 214.404799 85.137702 
L 214.404799 84.794553 
L 216.078276 84.794553 
L 216.078276 81.706213 
L 217.751753 81.706213 
L 217.751753 80.676766 
L 219.42523 80.676766 
L 219.42523 78.617872 
L 224.445661 78.617872 
L 224.445661 78.274723 
L 226.119138 78.274723 
L 226.119138 77.588426 
L 227.792615 77.588426 
L 227.792615 76.21583 
L 229.466092 76.21583 
L 229.466092 75.186383 
L 237.833477 75.186383 
L 237.833477 74.843234 
L 242.853908 74.843234 
L 242.853908 74.156936 
L 246.200862 74.156936 
L 246.200862 73.813787 
L 249.547816 73.813787 
L 249.547816 72.78434 
L 252.89477 72.78434 
L 252.89477 69.696 
L 257.915201 69.696 
L 257.915201 69.352851 
L 262.935633 69.352851 
L 262.935633 68.323404 
L 267.956064 68.323404 
L 267.956064 67.980255 
L 269.629541 67.980255 
L 269.629541 67.637106 
L 271.303018 67.637106 
L 271.303018 67.293957 
L 272.976495 67.293957 
L 272.976495 66.60766 
L 281.34388 66.60766 
L 281.34388 65.578213 
L 284.690834 65.578213 
L 284.690834 65.235064 
L 294.731696 65.235064 
L 294.731696 63.862468 
L 298.07865 63.862468 
L 298.07865 63.519319 
L 299.752127 63.519319 
L 299.752127 62.489872 
L 301.425604 62.489872 
L 301.425604 62.146723 
L 303.099082 62.146723 
L 303.099082 61.460426 
L 311.466467 61.460426 
L 311.466467 61.117277 
L 314.813421 61.117277 
L 314.813421 60.430979 
L 326.52776 60.430979 
L 326.52776 60.08783 
L 338.242099 60.08783 
L 338.242099 59.401532 
L 346.609485 59.401532 
L 346.609485 58.715234 
L 349.956439 58.715234 
L 349.956439 58.372085 
L 353.303393 58.372085 
L 353.303393 57.685787 
L 354.97687 57.685787 
L 354.97687 56.65634 
L 358.323824 56.65634 
L 358.323824 56.313191 
L 361.670778 56.313191 
L 361.670778 55.970043 
L 363.344255 55.970043 
L 363.344255 55.626894 
L 366.691209 55.626894 
L 366.691209 55.283745 
L 371.71164 55.283745 
L 371.71164 54.597447 
L 375.058594 54.597447 
L 375.058594 54.254298 
L 380.079025 54.254298 
L 380.079025 53.911149 
L 391.793365 53.911149 
L 391.793365 53.568 
L 398.487273 53.568 
L 398.487273 53.568 
" style="fill:none;stroke:#1f77b4;stroke-linecap:square;stroke-width:1.5;"/>
   </g>
   <g id="line2d_15">
    <path clip-path="url(#p73addfaecb)" d="M 73.832727 295.488 
L 73.832727 291.713362 
L 77.179681 291.713362 
L 77.179681 287.938723 
L 78.853158 287.938723 
L 78.853158 286.566128 
L 80.526635 286.566128 
L 80.526635 283.134638 
L 82.200112 283.134638 
L 82.200112 279.016851 
L 83.87359 279.016851 
L 83.87359 278.330553 
L 85.547067 278.330553 
L 85.547067 276.614809 
L 87.220544 276.614809 
L 87.220544 272.153872 
L 88.894021 272.153872 
L 88.894021 270.438128 
L 90.567498 270.438128 
L 90.567498 270.094979 
L 92.240975 270.094979 
L 92.240975 265.290894 
L 93.914452 265.290894 
L 93.914452 264.947745 
L 95.587929 264.947745 
L 95.587929 254.653277 
L 97.261406 254.653277 
L 97.261406 249.162894 
L 98.934883 249.162894 
L 98.934883 247.447149 
L 100.60836 247.447149 
L 100.60836 247.104 
L 102.281837 247.104 
L 102.281837 245.045106 
L 103.955314 245.045106 
L 103.955314 244.701957 
L 105.628791 244.701957 
L 105.628791 243.329362 
L 107.302268 243.329362 
L 107.302268 242.643064 
L 108.975745 242.643064 
L 108.975745 242.299915 
L 110.649222 242.299915 
L 110.649222 238.525277 
L 112.322699 238.525277 
L 112.322699 236.809532 
L 115.669653 236.809532 
L 115.669653 236.123234 
L 119.016607 236.123234 
L 119.016607 227.201362 
L 120.690084 227.201362 
L 120.690084 224.45617 
L 122.363561 224.45617 
L 122.363561 219.652085 
L 124.037038 219.652085 
L 124.037038 216.906894 
L 125.710515 216.906894 
L 125.710515 215.877447 
L 127.383993 215.877447 
L 127.383993 207.641872 
L 129.05747 207.641872 
L 129.05747 205.582979 
L 130.730947 205.582979 
L 130.730947 203.524085 
L 132.404424 203.524085 
L 132.404424 201.80834 
L 134.077901 201.80834 
L 134.077901 200.092596 
L 135.751378 200.092596 
L 135.751378 199.063149 
L 137.424855 199.063149 
L 137.424855 197.004255 
L 139.098332 197.004255 
L 139.098332 195.974809 
L 142.445286 195.974809 
L 142.445286 195.288511 
L 144.118763 195.288511 
L 144.118763 191.857021 
L 145.79224 191.857021 
L 145.79224 190.141277 
L 149.139194 190.141277 
L 149.139194 179.50366 
L 150.812671 179.50366 
L 150.812671 177.787915 
L 152.486148 177.787915 
L 152.486148 176.415319 
L 154.159625 176.415319 
L 154.159625 175.385872 
L 155.833102 175.385872 
L 155.833102 174.356426 
L 157.506579 174.356426 
L 157.506579 171.611234 
L 159.180056 171.611234 
L 159.180056 171.268085 
L 160.853533 171.268085 
L 160.853533 168.522894 
L 162.52701 168.522894 
L 162.52701 166.464 
L 164.200487 166.464 
L 164.200487 164.061957 
L 167.547441 164.061957 
L 167.547441 162.689362 
L 169.220918 162.689362 
L 169.220918 160.630468 
L 170.894396 160.630468 
L 170.894396 159.257872 
L 172.567873 159.257872 
L 172.567873 156.85583 
L 175.914827 156.85583 
L 175.914827 156.169532 
L 177.588304 156.169532 
L 177.588304 155.140085 
L 179.261781 155.140085 
L 179.261781 154.110638 
L 180.935258 154.110638 
L 180.935258 152.394894 
L 182.608735 152.394894 
L 182.608735 151.022298 
L 185.955689 151.022298 
L 185.955689 147.590809 
L 187.629166 147.590809 
L 187.629166 143.129872 
L 190.97612 143.129872 
L 190.97612 141.757277 
L 192.649597 141.757277 
L 192.649597 140.384681 
L 194.323074 140.384681 
L 194.323074 129.747064 
L 195.996551 129.747064 
L 195.996551 125.972426 
L 199.343505 125.972426 
L 199.343505 125.286128 
L 201.016982 125.286128 
L 201.016982 120.138894 
L 202.690459 120.138894 
L 202.690459 116.364255 
L 204.363936 116.364255 
L 204.363936 113.619064 
L 206.037413 113.619064 
L 206.037413 112.589617 
L 207.71089 112.589617 
L 207.71089 110.187574 
L 209.384367 110.187574 
L 209.384367 108.814979 
L 211.057844 108.814979 
L 211.057844 108.47183 
L 212.731321 108.47183 
L 212.731321 107.099234 
L 222.772184 107.099234 
L 222.772184 106.412936 
L 224.445661 106.412936 
L 224.445661 105.04034 
L 227.792615 105.04034 
L 227.792615 104.697191 
L 229.466092 104.697191 
L 229.466092 102.638298 
L 231.139569 102.638298 
L 231.139569 101.952 
L 232.813046 101.952 
L 232.813046 99.549957 
L 236.16 99.549957 
L 236.16 98.86366 
L 237.833477 98.86366 
L 237.833477 97.491064 
L 239.506954 97.491064 
L 239.506954 97.147915 
L 241.180431 97.147915 
L 241.180431 96.804766 
L 242.853908 96.804766 
L 242.853908 96.118468 
L 244.527385 96.118468 
L 244.527385 95.775319 
L 246.200862 95.775319 
L 246.200862 94.402723 
L 251.221293 94.402723 
L 251.221293 93.373277 
L 252.89477 93.373277 
L 252.89477 92.686979 
L 254.568247 92.686979 
L 254.568247 92.34383 
L 257.915201 92.34383 
L 257.915201 91.657532 
L 259.588679 91.657532 
L 259.588679 91.314383 
L 264.60911 91.314383 
L 264.60911 90.971234 
L 266.282587 90.971234 
L 266.282587 90.628085 
L 267.956064 90.628085 
L 267.956064 89.255489 
L 269.629541 89.255489 
L 269.629541 87.882894 
L 274.649972 87.882894 
L 274.649972 86.853447 
L 276.323449 86.853447 
L 276.323449 83.765106 
L 277.996926 83.765106 
L 277.996926 81.706213 
L 279.670403 81.706213 
L 279.670403 80.333617 
L 286.364311 80.333617 
L 286.364311 78.617872 
L 288.037788 78.617872 
L 288.037788 77.931574 
L 289.711265 77.931574 
L 289.711265 75.186383 
L 291.384742 75.186383 
L 291.384742 74.843234 
L 293.058219 74.843234 
L 293.058219 74.500085 
L 294.731696 74.500085 
L 294.731696 73.813787 
L 296.405173 73.813787 
L 296.405173 73.127489 
L 298.07865 73.127489 
L 298.07865 72.78434 
L 304.772559 72.78434 
L 304.772559 72.098043 
L 308.119513 72.098043 
L 308.119513 71.754894 
L 311.466467 71.754894 
L 311.466467 71.411745 
L 313.139944 71.411745 
L 313.139944 71.068596 
L 314.813421 71.068596 
L 314.813421 70.039149 
L 318.160375 70.039149 
L 318.160375 69.352851 
L 319.833852 69.352851 
L 319.833852 67.980255 
L 324.854283 67.980255 
L 324.854283 65.921362 
L 328.201237 65.921362 
L 328.201237 65.578213 
L 334.895145 65.578213 
L 334.895145 65.235064 
L 338.242099 65.235064 
L 338.242099 64.891915 
L 339.915576 64.891915 
L 339.915576 64.205617 
L 343.26253 64.205617 
L 343.26253 63.862468 
L 348.282962 63.862468 
L 348.282962 63.17617 
L 353.303393 63.17617 
L 353.303393 62.489872 
L 354.97687 62.489872 
L 354.97687 61.117277 
L 358.323824 61.117277 
L 358.323824 60.774128 
L 359.997301 60.774128 
L 359.997301 60.430979 
L 361.670778 60.430979 
L 361.670778 58.028936 
L 363.344255 58.028936 
L 363.344255 56.999489 
L 365.017732 56.999489 
L 365.017732 56.65634 
L 366.691209 56.65634 
L 366.691209 56.313191 
L 373.385117 56.313191 
L 373.385117 55.970043 
L 375.058594 55.970043 
L 375.058594 55.626894 
L 376.732071 55.626894 
L 376.732071 55.283745 
L 380.079025 55.283745 
L 380.079025 54.597447 
L 381.752502 54.597447 
L 381.752502 54.254298 
L 386.772933 54.254298 
L 386.772933 53.911149 
L 388.44641 53.911149 
L 388.44641 53.568 
L 398.487273 53.568 
L 398.487273 53.568 
" style="fill:none;stroke:#ff7f0e;stroke-linecap:square;stroke-width:1.5;"/>
   </g>
   <g id="line2d_16">
    <path clip-path="url(#p73addfaecb)" d="M 73.832727 295.488 
L 73.832727 265.634043 
L 75.506204 265.634043 
L 75.506204 262.888851 
L 77.179681 262.888851 
L 77.179681 257.398468 
L 78.853158 257.398468 
L 78.853158 250.19234 
L 80.526635 250.19234 
L 80.526635 243.672511 
L 82.200112 243.672511 
L 82.200112 227.88766 
L 83.87359 227.88766 
L 83.87359 225.485617 
L 85.547067 225.485617 
L 85.547067 198.033702 
L 87.220544 198.033702 
L 87.220544 197.004255 
L 88.894021 197.004255 
L 88.894021 196.317957 
L 90.567498 196.317957 
L 90.567498 193.229617 
L 92.240975 193.229617 
L 92.240975 188.768681 
L 93.914452 188.768681 
L 93.914452 187.396085 
L 95.587929 187.396085 
L 95.587929 185.337191 
L 97.261406 185.337191 
L 97.261406 175.729021 
L 98.934883 175.729021 
L 98.934883 172.640681 
L 100.60836 172.640681 
L 100.60836 169.895489 
L 102.281837 169.895489 
L 102.281837 169.55234 
L 103.955314 169.55234 
L 103.955314 168.522894 
L 105.628791 168.522894 
L 105.628791 160.630468 
L 107.302268 160.630468 
L 107.302268 160.287319 
L 108.975745 160.287319 
L 108.975745 159.601021 
L 112.322699 159.601021 
L 112.322699 157.885277 
L 113.996176 157.885277 
L 113.996176 155.483234 
L 115.669653 155.483234 
L 115.669653 153.081191 
L 117.34313 153.081191 
L 117.34313 151.708596 
L 119.016607 151.708596 
L 119.016607 145.875064 
L 120.690084 145.875064 
L 120.690084 144.845617 
L 122.363561 144.845617 
L 122.363561 143.129872 
L 124.037038 143.129872 
L 124.037038 142.443574 
L 125.710515 142.443574 
L 125.710515 140.72783 
L 127.383993 140.72783 
L 127.383993 136.610043 
L 129.05747 136.610043 
L 129.05747 135.237447 
L 130.730947 135.237447 
L 130.730947 134.894298 
L 132.404424 134.894298 
L 132.404424 132.149106 
L 134.077901 132.149106 
L 134.077901 128.717617 
L 135.751378 128.717617 
L 135.751378 127.345021 
L 137.424855 127.345021 
L 137.424855 122.197787 
L 139.098332 122.197787 
L 139.098332 121.16834 
L 140.771809 121.16834 
L 140.771809 120.138894 
L 142.445286 120.138894 
L 142.445286 119.452596 
L 144.118763 119.452596 
L 144.118763 118.766298 
L 147.465717 118.766298 
L 147.465717 117.736851 
L 149.139194 117.736851 
L 149.139194 116.707404 
L 150.812671 116.707404 
L 150.812671 116.364255 
L 152.486148 116.364255 
L 152.486148 110.530723 
L 154.159625 110.530723 
L 154.159625 110.187574 
L 155.833102 110.187574 
L 155.833102 102.638298 
L 159.180056 102.638298 
L 159.180056 101.608851 
L 160.853533 101.608851 
L 160.853533 100.922553 
L 162.52701 100.922553 
L 162.52701 99.893106 
L 164.200487 99.893106 
L 164.200487 99.549957 
L 165.873964 99.549957 
L 165.873964 95.089021 
L 169.220918 95.089021 
L 169.220918 93.030128 
L 170.894396 93.030128 
L 170.894396 89.598638 
L 175.914827 89.598638 
L 175.914827 88.91234 
L 177.588304 88.91234 
L 177.588304 87.539745 
L 179.261781 87.539745 
L 179.261781 87.196596 
L 182.608735 87.196596 
L 182.608735 85.824 
L 184.282212 85.824 
L 184.282212 82.73566 
L 187.629166 82.73566 
L 187.629166 82.392511 
L 190.97612 82.392511 
L 190.97612 81.706213 
L 192.649597 81.706213 
L 192.649597 80.333617 
L 194.323074 80.333617 
L 194.323074 79.990468 
L 195.996551 79.990468 
L 195.996551 79.647319 
L 197.670028 79.647319 
L 197.670028 78.961021 
L 201.016982 78.961021 
L 201.016982 77.931574 
L 202.690459 77.931574 
L 202.690459 77.588426 
L 206.037413 77.588426 
L 206.037413 76.902128 
L 207.71089 76.902128 
L 207.71089 76.21583 
L 209.384367 76.21583 
L 209.384367 75.872681 
L 212.731321 75.872681 
L 212.731321 75.529532 
L 214.404799 75.529532 
L 214.404799 73.813787 
L 217.751753 73.813787 
L 217.751753 72.78434 
L 219.42523 72.78434 
L 219.42523 72.441191 
L 221.098707 72.441191 
L 221.098707 72.098043 
L 226.119138 72.098043 
L 226.119138 71.411745 
L 227.792615 71.411745 
L 227.792615 71.068596 
L 229.466092 71.068596 
L 229.466092 69.352851 
L 232.813046 69.352851 
L 232.813046 68.666553 
L 234.486523 68.666553 
L 234.486523 67.980255 
L 236.16 67.980255 
L 236.16 67.293957 
L 241.180431 67.293957 
L 241.180431 66.60766 
L 247.874339 66.60766 
L 247.874339 66.264511 
L 249.547816 66.264511 
L 249.547816 65.921362 
L 256.241724 65.921362 
L 256.241724 64.891915 
L 266.282587 64.891915 
L 266.282587 64.548766 
L 267.956064 64.548766 
L 267.956064 62.489872 
L 272.976495 62.489872 
L 272.976495 61.803574 
L 274.649972 61.803574 
L 274.649972 61.460426 
L 276.323449 61.460426 
L 276.323449 61.117277 
L 281.34388 61.117277 
L 281.34388 60.774128 
L 283.017357 60.774128 
L 283.017357 59.744681 
L 286.364311 59.744681 
L 286.364311 58.715234 
L 288.037788 58.715234 
L 288.037788 55.283745 
L 291.384742 55.283745 
L 291.384742 54.597447 
L 293.058219 54.597447 
L 293.058219 53.911149 
L 294.731696 53.911149 
L 294.731696 53.568 
L 398.487273 53.568 
L 398.487273 53.568 
" style="fill:none;stroke:#2ca02c;stroke-linecap:square;stroke-width:1.5;"/>
   </g>
   <g id="line2d_17">
    <path clip-path="url(#p73addfaecb)" d="M 73.832727 295.488 
L 73.832727 288.625021 
L 75.506204 288.625021 
L 75.506204 278.330553 
L 77.179681 278.330553 
L 77.179681 275.928511 
L 78.853158 275.928511 
L 78.853158 274.555915 
L 80.526635 274.555915 
L 80.526635 273.183319 
L 82.200112 273.183319 
L 82.200112 265.634043 
L 85.547067 265.634043 
L 85.547067 256.025872 
L 87.220544 256.025872 
L 87.220544 251.564936 
L 88.894021 251.564936 
L 88.894021 250.19234 
L 90.567498 250.19234 
L 90.567498 249.506043 
L 92.240975 249.506043 
L 92.240975 243.329362 
L 93.914452 243.329362 
L 93.914452 242.643064 
L 97.261406 242.643064 
L 97.261406 241.956766 
L 98.934883 241.956766 
L 98.934883 233.034894 
L 100.60836 233.034894 
L 100.60836 229.260255 
L 102.281837 229.260255 
L 102.281837 227.88766 
L 103.955314 227.88766 
L 103.955314 227.544511 
L 107.302268 227.544511 
L 107.302268 223.769872 
L 108.975745 223.769872 
L 108.975745 222.740426 
L 112.322699 222.740426 
L 112.322699 222.397277 
L 113.996176 222.397277 
L 113.996176 219.995234 
L 115.669653 219.995234 
L 115.669653 218.965787 
L 117.34313 218.965787 
L 117.34313 217.93634 
L 119.016607 217.93634 
L 119.016607 212.789106 
L 120.690084 212.789106 
L 120.690084 206.612426 
L 122.363561 206.612426 
L 122.363561 205.582979 
L 124.037038 205.582979 
L 124.037038 200.435745 
L 125.710515 200.435745 
L 125.710515 199.406298 
L 127.383993 199.406298 
L 127.383993 199.063149 
L 129.05747 199.063149 
L 129.05747 198.033702 
L 130.730947 198.033702 
L 130.730947 197.004255 
L 132.404424 197.004255 
L 132.404424 188.768681 
L 134.077901 188.768681 
L 134.077901 185.337191 
L 135.751378 185.337191 
L 135.751378 181.905702 
L 137.424855 181.905702 
L 137.424855 181.219404 
L 139.098332 181.219404 
L 139.098332 180.533106 
L 140.771809 180.533106 
L 140.771809 179.846809 
L 144.118763 179.846809 
L 144.118763 179.50366 
L 145.79224 179.50366 
L 145.79224 174.699574 
L 147.465717 174.699574 
L 147.465717 172.297532 
L 149.139194 172.297532 
L 149.139194 169.55234 
L 152.486148 169.55234 
L 152.486148 169.209191 
L 154.159625 169.209191 
L 154.159625 166.464 
L 155.833102 166.464 
L 155.833102 163.37566 
L 157.506579 163.37566 
L 157.506579 163.032511 
L 159.180056 163.032511 
L 159.180056 162.003064 
L 160.853533 162.003064 
L 160.853533 160.630468 
L 162.52701 160.630468 
L 162.52701 158.228426 
L 164.200487 158.228426 
L 164.200487 156.512681 
L 172.567873 156.512681 
L 172.567873 155.483234 
L 174.24135 155.483234 
L 174.24135 154.110638 
L 179.261781 154.110638 
L 179.261781 153.42434 
L 180.935258 153.42434 
L 180.935258 152.051745 
L 182.608735 152.051745 
L 182.608735 151.365447 
L 184.282212 151.365447 
L 184.282212 147.24766 
L 185.955689 147.24766 
L 185.955689 146.904511 
L 187.629166 146.904511 
L 187.629166 146.218213 
L 190.97612 146.218213 
L 190.97612 145.875064 
L 192.649597 145.875064 
L 192.649597 145.531915 
L 194.323074 145.531915 
L 194.323074 142.443574 
L 195.996551 142.443574 
L 195.996551 140.041532 
L 202.690459 140.041532 
L 202.690459 134.894298 
L 204.363936 134.894298 
L 204.363936 134.208 
L 206.037413 134.208 
L 206.037413 133.864851 
L 207.71089 133.864851 
L 207.71089 133.521702 
L 211.057844 133.521702 
L 211.057844 133.178553 
L 212.731321 133.178553 
L 212.731321 132.492255 
L 214.404799 132.492255 
L 214.404799 131.805957 
L 216.078276 131.805957 
L 216.078276 131.462809 
L 217.751753 131.462809 
L 217.751753 130.433362 
L 219.42523 130.433362 
L 219.42523 127.345021 
L 221.098707 127.345021 
L 221.098707 127.001872 
L 222.772184 127.001872 
L 222.772184 126.658723 
L 224.445661 126.658723 
L 224.445661 124.59983 
L 226.119138 124.59983 
L 226.119138 122.197787 
L 227.792615 122.197787 
L 227.792615 120.138894 
L 229.466092 120.138894 
L 229.466092 119.109447 
L 231.139569 119.109447 
L 231.139569 118.423149 
L 232.813046 118.423149 
L 232.813046 117.736851 
L 234.486523 117.736851 
L 234.486523 113.275915 
L 236.16 113.275915 
L 236.16 112.589617 
L 237.833477 112.589617 
L 237.833477 112.246468 
L 239.506954 112.246468 
L 239.506954 109.158128 
L 241.180431 109.158128 
L 241.180431 108.128681 
L 242.853908 108.128681 
L 242.853908 107.099234 
L 244.527385 107.099234 
L 244.527385 106.756085 
L 246.200862 106.756085 
L 246.200862 104.010894 
L 247.874339 104.010894 
L 247.874339 102.638298 
L 249.547816 102.638298 
L 249.547816 102.295149 
L 254.568247 102.295149 
L 254.568247 101.265702 
L 257.915201 101.265702 
L 257.915201 99.893106 
L 259.588679 99.893106 
L 259.588679 98.86366 
L 261.262156 98.86366 
L 261.262156 97.834213 
L 266.282587 97.834213 
L 266.282587 97.491064 
L 267.956064 97.491064 
L 267.956064 95.43217 
L 269.629541 95.43217 
L 269.629541 94.059574 
L 271.303018 94.059574 
L 271.303018 93.373277 
L 272.976495 93.373277 
L 272.976495 90.971234 
L 274.649972 90.971234 
L 274.649972 90.284936 
L 276.323449 90.284936 
L 276.323449 89.941787 
L 279.670403 89.941787 
L 279.670403 89.598638 
L 283.017357 89.598638 
L 283.017357 89.255489 
L 288.037788 89.255489 
L 288.037788 85.137702 
L 293.058219 85.137702 
L 293.058219 84.794553 
L 294.731696 84.794553 
L 294.731696 84.108255 
L 296.405173 84.108255 
L 296.405173 83.765106 
L 301.425604 83.765106 
L 301.425604 83.078809 
L 303.099082 83.078809 
L 303.099082 76.21583 
L 308.119513 76.21583 
L 308.119513 74.500085 
L 311.466467 74.500085 
L 311.466467 73.813787 
L 313.139944 73.813787 
L 313.139944 71.754894 
L 314.813421 71.754894 
L 314.813421 71.411745 
L 316.486898 71.411745 
L 316.486898 70.382298 
L 318.160375 70.382298 
L 318.160375 70.039149 
L 319.833852 70.039149 
L 319.833852 69.696 
L 323.180806 69.696 
L 323.180806 69.009702 
L 324.854283 69.009702 
L 324.854283 68.666553 
L 326.52776 68.666553 
L 326.52776 67.293957 
L 329.874714 67.293957 
L 329.874714 64.205617 
L 331.548191 64.205617 
L 331.548191 63.862468 
L 333.221668 63.862468 
L 333.221668 63.17617 
L 334.895145 63.17617 
L 334.895145 62.489872 
L 338.242099 62.489872 
L 338.242099 62.146723 
L 339.915576 62.146723 
L 339.915576 60.08783 
L 341.589053 60.08783 
L 341.589053 59.401532 
L 343.26253 59.401532 
L 343.26253 59.058383 
L 344.936007 59.058383 
L 344.936007 58.715234 
L 346.609485 58.715234 
L 346.609485 57.685787 
L 351.629916 57.685787 
L 351.629916 57.342638 
L 353.303393 57.342638 
L 353.303393 56.65634 
L 356.650347 56.65634 
L 356.650347 56.313191 
L 365.017732 56.313191 
L 365.017732 55.626894 
L 371.71164 55.626894 
L 371.71164 55.283745 
L 375.058594 55.283745 
L 375.058594 54.940596 
L 380.079025 54.940596 
L 380.079025 54.597447 
L 390.119888 54.597447 
L 390.119888 53.911149 
L 391.793365 53.911149 
L 391.793365 53.568 
L 398.487273 53.568 
L 398.487273 53.568 
" style="fill:none;stroke:#d62728;stroke-linecap:square;stroke-width:1.5;"/>
   </g>
   <g id="patch_3">
    <path d="M 57.6 307.584 
L 57.6 41.472 
" style="fill:none;stroke:#000000;stroke-linecap:square;stroke-linejoin:miter;stroke-width:0.8;"/>
   </g>
   <g id="patch_4">
    <path d="M 414.72 307.584 
L 414.72 41.472 
" style="fill:none;stroke:#000000;stroke-linecap:square;stroke-linejoin:miter;stroke-width:0.8;"/>
   </g>
   <g id="patch_5">
    <path d="M 57.6 307.584 
L 414.72 307.584 
" style="fill:none;stroke:#000000;stroke-linecap:square;stroke-linejoin:miter;stroke-width:0.8;"/>
   </g>
   <g id="patch_6">
    <path d="M 57.6 41.472 
L 414.72 41.472 
" style="fill:none;stroke:#000000;stroke-linecap:square;stroke-linejoin:miter;stroke-width:0.8;"/>
   </g>
   <g id="text_15">
    <!-- LBP ROC -->
    <defs>
     <path d="M 9.8125 72.90625 
L 19.671875 72.90625 
L 19.671875 8.296875 
L 55.171875 8.296875 
L 55.171875 0 
L 9.8125 0 
z
" id="DejaVuSans-76"/>
     <path d="M 19.671875 34.8125 
L 19.671875 8.109375 
L 35.5 8.109375 
Q 43.453125 8.109375 47.28125 11.40625 
Q 51.125 14.703125 51.125 21.484375 
Q 51.125 28.328125 47.28125 31.5625 
Q 43.453125 34.8125 35.5 34.8125 
z
M 19.671875 64.796875 
L 19.671875 42.828125 
L 34.28125 42.828125 
Q 41.5 42.828125 45.03125 45.53125 
Q 48.578125 48.25 48.578125 53.8125 
Q 48.578125 59.328125 45.03125 62.0625 
Q 41.5 64.796875 34.28125 64.796875 
z
M 9.8125 72.90625 
L 35.015625 72.90625 
Q 46.296875 72.90625 52.390625 68.21875 
Q 58.5 63.53125 58.5 54.890625 
Q 58.5 48.1875 55.375 44.234375 
Q 52.25 40.28125 46.1875 39.3125 
Q 53.46875 37.75 57.5 32.78125 
Q 61.53125 27.828125 61.53125 20.40625 
Q 61.53125 10.640625 54.890625 5.3125 
Q 48.25 0 35.984375 0 
L 9.8125 0 
z
" id="DejaVuSans-66"/>
     <path d="M 19.671875 64.796875 
L 19.671875 37.40625 
L 32.078125 37.40625 
Q 38.96875 37.40625 42.71875 40.96875 
Q 46.484375 44.53125 46.484375 51.125 
Q 46.484375 57.671875 42.71875 61.234375 
Q 38.96875 64.796875 32.078125 64.796875 
z
M 9.8125 72.90625 
L 32.078125 72.90625 
Q 44.34375 72.90625 50.609375 67.359375 
Q 56.890625 61.8125 56.890625 51.125 
Q 56.890625 40.328125 50.609375 34.8125 
Q 44.34375 29.296875 32.078125 29.296875 
L 19.671875 29.296875 
L 19.671875 0 
L 9.8125 0 
z
" id="DejaVuSans-80"/>
     <path d="M 44.390625 34.1875 
Q 47.5625 33.109375 50.5625 29.59375 
Q 53.5625 26.078125 56.59375 19.921875 
L 66.609375 0 
L 56 0 
L 46.6875 18.703125 
Q 43.0625 26.03125 39.671875 28.421875 
Q 36.28125 30.8125 30.421875 30.8125 
L 19.671875 30.8125 
L 19.671875 0 
L 9.8125 0 
L 9.8125 72.90625 
L 32.078125 72.90625 
Q 44.578125 72.90625 50.734375 67.671875 
Q 56.890625 62.453125 56.890625 51.90625 
Q 56.890625 45.015625 53.6875 40.46875 
Q 50.484375 35.9375 44.390625 34.1875 
z
M 19.671875 64.796875 
L 19.671875 38.921875 
L 32.078125 38.921875 
Q 39.203125 38.921875 42.84375 42.21875 
Q 46.484375 45.515625 46.484375 51.90625 
Q 46.484375 58.296875 42.84375 61.546875 
Q 39.203125 64.796875 32.078125 64.796875 
z
" id="DejaVuSans-82"/>
     <path d="M 39.40625 66.21875 
Q 28.65625 66.21875 22.328125 58.203125 
Q 16.015625 50.203125 16.015625 36.375 
Q 16.015625 22.609375 22.328125 14.59375 
Q 28.65625 6.59375 39.40625 6.59375 
Q 50.140625 6.59375 56.421875 14.59375 
Q 62.703125 22.609375 62.703125 36.375 
Q 62.703125 50.203125 56.421875 58.203125 
Q 50.140625 66.21875 39.40625 66.21875 
z
M 39.40625 74.21875 
Q 54.734375 74.21875 63.90625 63.9375 
Q 73.09375 53.65625 73.09375 36.375 
Q 73.09375 19.140625 63.90625 8.859375 
Q 54.734375 -1.421875 39.40625 -1.421875 
Q 24.03125 -1.421875 14.8125 8.828125 
Q 5.609375 19.09375 5.609375 36.375 
Q 5.609375 53.65625 14.8125 63.9375 
Q 24.03125 74.21875 39.40625 74.21875 
z
" id="DejaVuSans-79"/>
     <path d="M 64.40625 67.28125 
L 64.40625 56.890625 
Q 59.421875 61.53125 53.78125 63.8125 
Q 48.140625 66.109375 41.796875 66.109375 
Q 29.296875 66.109375 22.65625 58.46875 
Q 16.015625 50.828125 16.015625 36.375 
Q 16.015625 21.96875 22.65625 14.328125 
Q 29.296875 6.6875 41.796875 6.6875 
Q 48.140625 6.6875 53.78125 8.984375 
Q 59.421875 11.28125 64.40625 15.921875 
L 64.40625 5.609375 
Q 59.234375 2.09375 53.4375 0.328125 
Q 47.65625 -1.421875 41.21875 -1.421875 
Q 24.65625 -1.421875 15.125 8.703125 
Q 5.609375 18.84375 5.609375 36.375 
Q 5.609375 53.953125 15.125 64.078125 
Q 24.65625 74.21875 41.21875 74.21875 
Q 47.75 74.21875 53.53125 72.484375 
Q 59.328125 70.75 64.40625 67.28125 
z
" id="DejaVuSans-67"/>
    </defs>
    <g transform="translate(210.09375 35.472)scale(0.12 -0.12)">
     <use xlink:href="#DejaVuSans-76"/>
     <use x="55.712891" xlink:href="#DejaVuSans-66"/>
     <use x="124.316406" xlink:href="#DejaVuSans-80"/>
     <use x="184.619141" xlink:href="#DejaVuSans-32"/>
     <use x="216.40625" xlink:href="#DejaVuSans-82"/>
     <use x="285.888672" xlink:href="#DejaVuSans-79"/>
     <use x="364.599609" xlink:href="#DejaVuSans-67"/>
    </g>
   </g>
   <g id="legend_1">
    <g id="patch_7">
     <path d="M 318.545 302.584 
L 407.72 302.584 
Q 409.72 302.584 409.72 300.584 
L 409.72 242.8715 
Q 409.72 240.8715 407.72 240.8715 
L 318.545 240.8715 
Q 316.545 240.8715 316.545 242.8715 
L 316.545 300.584 
Q 316.545 302.584 318.545 302.584 
z
" style="fill:#ffffff;opacity:0.8;stroke:#cccccc;stroke-linejoin:miter;"/>
    </g>
    <g id="line2d_18">
     <path d="M 320.545 248.969937 
L 340.545 248.969937 
" style="fill:none;stroke:#1f77b4;stroke-linecap:square;stroke-width:1.5;"/>
    </g>
    <g id="line2d_19"/>
    <g id="text_16">
     <!-- iForest -->
     <g transform="translate(348.545 252.469937)scale(0.1 -0.1)">
      <use xlink:href="#DejaVuSans-105"/>
      <use x="27.783203" xlink:href="#DejaVuSans-70"/>
      <use x="85.255859" xlink:href="#DejaVuSans-111"/>
      <use x="146.4375" xlink:href="#DejaVuSans-114"/>
      <use x="187.519531" xlink:href="#DejaVuSans-101"/>
      <use x="249.042969" xlink:href="#DejaVuSans-115"/>
      <use x="301.142578" xlink:href="#DejaVuSans-116"/>
     </g>
    </g>
    <g id="line2d_20">
     <path d="M 320.545 263.648062 
L 340.545 263.648062 
" style="fill:none;stroke:#ff7f0e;stroke-linecap:square;stroke-width:1.5;"/>
    </g>
    <g id="line2d_21"/>
    <g id="text_17">
     <!-- OC-SVM -->
     <defs>
      <path d="M 4.890625 31.390625 
L 31.203125 31.390625 
L 31.203125 23.390625 
L 4.890625 23.390625 
z
" id="DejaVuSans-45"/>
      <path d="M 53.515625 70.515625 
L 53.515625 60.890625 
Q 47.90625 63.578125 42.921875 64.890625 
Q 37.9375 66.21875 33.296875 66.21875 
Q 25.25 66.21875 20.875 63.09375 
Q 16.5 59.96875 16.5 54.203125 
Q 16.5 49.359375 19.40625 46.890625 
Q 22.3125 44.4375 30.421875 42.921875 
L 36.375 41.703125 
Q 47.40625 39.59375 52.65625 34.296875 
Q 57.90625 29 57.90625 20.125 
Q 57.90625 9.515625 50.796875 4.046875 
Q 43.703125 -1.421875 29.984375 -1.421875 
Q 24.8125 -1.421875 18.96875 -0.25 
Q 13.140625 0.921875 6.890625 3.21875 
L 6.890625 13.375 
Q 12.890625 10.015625 18.65625 8.296875 
Q 24.421875 6.59375 29.984375 6.59375 
Q 38.421875 6.59375 43.015625 9.90625 
Q 47.609375 13.234375 47.609375 19.390625 
Q 47.609375 24.75 44.3125 27.78125 
Q 41.015625 30.8125 33.5 32.328125 
L 27.484375 33.5 
Q 16.453125 35.6875 11.515625 40.375 
Q 6.59375 45.0625 6.59375 53.421875 
Q 6.59375 63.09375 13.40625 68.65625 
Q 20.21875 74.21875 32.171875 74.21875 
Q 37.3125 74.21875 42.625 73.28125 
Q 47.953125 72.359375 53.515625 70.515625 
z
" id="DejaVuSans-83"/>
      <path d="M 28.609375 0 
L 0.78125 72.90625 
L 11.078125 72.90625 
L 34.1875 11.53125 
L 57.328125 72.90625 
L 67.578125 72.90625 
L 39.796875 0 
z
" id="DejaVuSans-86"/>
      <path d="M 9.8125 72.90625 
L 24.515625 72.90625 
L 43.109375 23.296875 
L 61.8125 72.90625 
L 76.515625 72.90625 
L 76.515625 0 
L 66.890625 0 
L 66.890625 64.015625 
L 48.09375 14.015625 
L 38.1875 14.015625 
L 19.390625 64.015625 
L 19.390625 0 
L 9.8125 0 
z
" id="DejaVuSans-77"/>
     </defs>
     <g transform="translate(348.545 267.148062)scale(0.1 -0.1)">
      <use xlink:href="#DejaVuSans-79"/>
      <use x="78.710938" xlink:href="#DejaVuSans-67"/>
      <use x="148.535156" xlink:href="#DejaVuSans-45"/>
      <use x="184.619141" xlink:href="#DejaVuSans-83"/>
      <use x="248.095703" xlink:href="#DejaVuSans-86"/>
      <use x="316.503906" xlink:href="#DejaVuSans-77"/>
     </g>
    </g>
    <g id="line2d_22">
     <path d="M 320.545 278.326187 
L 340.545 278.326187 
" style="fill:none;stroke:#2ca02c;stroke-linecap:square;stroke-width:1.5;"/>
    </g>
    <g id="line2d_23"/>
    <g id="text_18">
     <!-- Gaussion-D -->
     <defs>
      <path d="M 59.515625 10.40625 
L 59.515625 29.984375 
L 43.40625 29.984375 
L 43.40625 38.09375 
L 69.28125 38.09375 
L 69.28125 6.78125 
Q 63.578125 2.734375 56.6875 0.65625 
Q 49.8125 -1.421875 42 -1.421875 
Q 24.90625 -1.421875 15.25 8.5625 
Q 5.609375 18.5625 5.609375 36.375 
Q 5.609375 54.25 15.25 64.234375 
Q 24.90625 74.21875 42 74.21875 
Q 49.125 74.21875 55.546875 72.453125 
Q 61.96875 70.703125 67.390625 67.28125 
L 67.390625 56.78125 
Q 61.921875 61.421875 55.765625 63.765625 
Q 49.609375 66.109375 42.828125 66.109375 
Q 29.4375 66.109375 22.71875 58.640625 
Q 16.015625 51.171875 16.015625 36.375 
Q 16.015625 21.625 22.71875 14.15625 
Q 29.4375 6.6875 42.828125 6.6875 
Q 48.046875 6.6875 52.140625 7.59375 
Q 56.25 8.5 59.515625 10.40625 
z
" id="DejaVuSans-71"/>
      <path d="M 54.890625 33.015625 
L 54.890625 0 
L 45.90625 0 
L 45.90625 32.71875 
Q 45.90625 40.484375 42.875 44.328125 
Q 39.84375 48.1875 33.796875 48.1875 
Q 26.515625 48.1875 22.3125 43.546875 
Q 18.109375 38.921875 18.109375 30.90625 
L 18.109375 0 
L 9.078125 0 
L 9.078125 54.6875 
L 18.109375 54.6875 
L 18.109375 46.1875 
Q 21.34375 51.125 25.703125 53.5625 
Q 30.078125 56 35.796875 56 
Q 45.21875 56 50.046875 50.171875 
Q 54.890625 44.34375 54.890625 33.015625 
z
" id="DejaVuSans-110"/>
      <path d="M 19.671875 64.796875 
L 19.671875 8.109375 
L 31.59375 8.109375 
Q 46.6875 8.109375 53.6875 14.9375 
Q 60.6875 21.78125 60.6875 36.53125 
Q 60.6875 51.171875 53.6875 57.984375 
Q 46.6875 64.796875 31.59375 64.796875 
z
M 9.8125 72.90625 
L 30.078125 72.90625 
Q 51.265625 72.90625 61.171875 64.09375 
Q 71.09375 55.28125 71.09375 36.53125 
Q 71.09375 17.671875 61.125 8.828125 
Q 51.171875 0 30.078125 0 
L 9.8125 0 
z
" id="DejaVuSans-68"/>
     </defs>
     <g transform="translate(348.545 281.826187)scale(0.1 -0.1)">
      <use xlink:href="#DejaVuSans-71"/>
      <use x="77.490234" xlink:href="#DejaVuSans-97"/>
      <use x="138.769531" xlink:href="#DejaVuSans-117"/>
      <use x="202.148438" xlink:href="#DejaVuSans-115"/>
      <use x="254.248047" xlink:href="#DejaVuSans-115"/>
      <use x="306.347656" xlink:href="#DejaVuSans-105"/>
      <use x="334.130859" xlink:href="#DejaVuSans-111"/>
      <use x="395.3125" xlink:href="#DejaVuSans-110"/>
      <use x="458.691406" xlink:href="#DejaVuSans-45"/>
      <use x="494.775391" xlink:href="#DejaVuSans-68"/>
     </g>
    </g>
    <g id="line2d_24">
     <path d="M 320.545 293.004312 
L 340.545 293.004312 
" style="fill:none;stroke:#d62728;stroke-linecap:square;stroke-width:1.5;"/>
    </g>
    <g id="line2d_25"/>
    <g id="text_19">
     <!-- LOF -->
     <g transform="translate(348.545 296.504312)scale(0.1 -0.1)">
      <use xlink:href="#DejaVuSans-76"/>
      <use x="55.666016" xlink:href="#DejaVuSans-79"/>
      <use x="134.376953" xlink:href="#DejaVuSans-70"/>
     </g>
    </g>
   </g>
  </g>
 </g>
 <defs>
  <clipPath id="p73addfaecb">
   <rect height="266.112" width="357.12" x="57.6" y="41.472"/>
  </clipPath>
 </defs>
</svg>
