<?xml version="1.0" encoding="utf-8" standalone="no"?>
<!DOCTYPE svg PUBLIC "-//W3C//DTD SVG 1.1//EN"
  "http://www.w3.org/Graphics/SVG/1.1/DTD/svg11.dtd">
<!-- Created with matplotlib (https://matplotlib.org/) -->
<svg height="345.6pt" version="1.1" viewBox="0 0 460.8 345.6" width="460.8pt" xmlns="http://www.w3.org/2000/svg" xmlns:xlink="http://www.w3.org/1999/xlink">
 <defs>
  <style type="text/css">
*{stroke-linecap:butt;stroke-linejoin:round;}
  </style>
 </defs>
 <g id="figure_1">
  <g id="patch_1">
   <path d="M 0 345.6 
L 460.8 345.6 
L 460.8 0 
L 0 0 
z
" style="fill:#ffffff;"/>
  </g>
  <g id="axes_1">
   <g id="patch_2">
    <path d="M 57.6 307.584 
L 414.72 307.584 
L 414.72 41.472 
L 57.6 41.472 
z
" style="fill:#ffffff;"/>
   </g>
   <g id="matplotlib.axis_1">
    <g id="xtick_1">
     <g id="line2d_1">
      <defs>
       <path d="M 0 0 
L 0 3.5 
" id="m58ded08bd7" style="stroke:#000000;stroke-width:0.8;"/>
      </defs>
      <g>
       <use style="stroke:#000000;stroke-width:0.8;" x="73.832727" xlink:href="#m58ded08bd7" y="307.584"/>
      </g>
     </g>
     <g id="text_1">
      <!-- 0.0 -->
      <defs>
       <path d="M 31.78125 66.40625 
Q 24.171875 66.40625 20.328125 58.90625 
Q 16.5 51.421875 16.5 36.375 
Q 16.5 21.390625 20.328125 13.890625 
Q 24.171875 6.390625 31.78125 6.390625 
Q 39.453125 6.390625 43.28125 13.890625 
Q 47.125 21.390625 47.125 36.375 
Q 47.125 51.421875 43.28125 58.90625 
Q 39.453125 66.40625 31.78125 66.40625 
z
M 31.78125 74.21875 
Q 44.046875 74.21875 50.515625 64.515625 
Q 56.984375 54.828125 56.984375 36.375 
Q 56.984375 17.96875 50.515625 8.265625 
Q 44.046875 -1.421875 31.78125 -1.421875 
Q 19.53125 -1.421875 13.0625 8.265625 
Q 6.59375 17.96875 6.59375 36.375 
Q 6.59375 54.828125 13.0625 64.515625 
Q 19.53125 74.21875 31.78125 74.21875 
z
" id="DejaVuSans-48"/>
       <path d="M 10.6875 12.40625 
L 21 12.40625 
L 21 0 
L 10.6875 0 
z
" id="DejaVuSans-46"/>
      </defs>
      <g transform="translate(65.881165 322.182437)scale(0.1 -0.1)">
       <use xlink:href="#DejaVuSans-48"/>
       <use x="63.623047" xlink:href="#DejaVuSans-46"/>
       <use x="95.410156" xlink:href="#DejaVuSans-48"/>
      </g>
     </g>
    </g>
    <g id="xtick_2">
     <g id="line2d_2">
      <g>
       <use style="stroke:#000000;stroke-width:0.8;" x="138.763636" xlink:href="#m58ded08bd7" y="307.584"/>
      </g>
     </g>
     <g id="text_2">
      <!-- 0.2 -->
      <defs>
       <path d="M 19.1875 8.296875 
L 53.609375 8.296875 
L 53.609375 0 
L 7.328125 0 
L 7.328125 8.296875 
Q 12.9375 14.109375 22.625 23.890625 
Q 32.328125 33.6875 34.8125 36.53125 
Q 39.546875 41.84375 41.421875 45.53125 
Q 43.3125 49.21875 43.3125 52.78125 
Q 43.3125 58.59375 39.234375 62.25 
Q 35.15625 65.921875 28.609375 65.921875 
Q 23.96875 65.921875 18.8125 64.3125 
Q 13.671875 62.703125 7.8125 59.421875 
L 7.8125 69.390625 
Q 13.765625 71.78125 18.9375 73 
Q 24.125 74.21875 28.421875 74.21875 
Q 39.75 74.21875 46.484375 68.546875 
Q 53.21875 62.890625 53.21875 53.421875 
Q 53.21875 48.921875 51.53125 44.890625 
Q 49.859375 40.875 45.40625 35.40625 
Q 44.1875 33.984375 37.640625 27.21875 
Q 31.109375 20.453125 19.1875 8.296875 
z
" id="DejaVuSans-50"/>
      </defs>
      <g transform="translate(130.812074 322.182437)scale(0.1 -0.1)">
       <use xlink:href="#DejaVuSans-48"/>
       <use x="63.623047" xlink:href="#DejaVuSans-46"/>
       <use x="95.410156" xlink:href="#DejaVuSans-50"/>
      </g>
     </g>
    </g>
    <g id="xtick_3">
     <g id="line2d_3">
      <g>
       <use style="stroke:#000000;stroke-width:0.8;" x="203.694545" xlink:href="#m58ded08bd7" y="307.584"/>
      </g>
     </g>
     <g id="text_3">
      <!-- 0.4 -->
      <defs>
       <path d="M 37.796875 64.3125 
L 12.890625 25.390625 
L 37.796875 25.390625 
z
M 35.203125 72.90625 
L 47.609375 72.90625 
L 47.609375 25.390625 
L 58.015625 25.390625 
L 58.015625 17.1875 
L 47.609375 17.1875 
L 47.609375 0 
L 37.796875 0 
L 37.796875 17.1875 
L 4.890625 17.1875 
L 4.890625 26.703125 
z
" id="DejaVuSans-52"/>
      </defs>
      <g transform="translate(195.742983 322.182437)scale(0.1 -0.1)">
       <use xlink:href="#DejaVuSans-48"/>
       <use x="63.623047" xlink:href="#DejaVuSans-46"/>
       <use x="95.410156" xlink:href="#DejaVuSans-52"/>
      </g>
     </g>
    </g>
    <g id="xtick_4">
     <g id="line2d_4">
      <g>
       <use style="stroke:#000000;stroke-width:0.8;" x="268.625455" xlink:href="#m58ded08bd7" y="307.584"/>
      </g>
     </g>
     <g id="text_4">
      <!-- 0.6 -->
      <defs>
       <path d="M 33.015625 40.375 
Q 26.375 40.375 22.484375 35.828125 
Q 18.609375 31.296875 18.609375 23.390625 
Q 18.609375 15.53125 22.484375 10.953125 
Q 26.375 6.390625 33.015625 6.390625 
Q 39.65625 6.390625 43.53125 10.953125 
Q 47.40625 15.53125 47.40625 23.390625 
Q 47.40625 31.296875 43.53125 35.828125 
Q 39.65625 40.375 33.015625 40.375 
z
M 52.59375 71.296875 
L 52.59375 62.3125 
Q 48.875 64.0625 45.09375 64.984375 
Q 41.3125 65.921875 37.59375 65.921875 
Q 27.828125 65.921875 22.671875 59.328125 
Q 17.53125 52.734375 16.796875 39.40625 
Q 19.671875 43.65625 24.015625 45.921875 
Q 28.375 48.1875 33.59375 48.1875 
Q 44.578125 48.1875 50.953125 41.515625 
Q 57.328125 34.859375 57.328125 23.390625 
Q 57.328125 12.15625 50.6875 5.359375 
Q 44.046875 -1.421875 33.015625 -1.421875 
Q 20.359375 -1.421875 13.671875 8.265625 
Q 6.984375 17.96875 6.984375 36.375 
Q 6.984375 53.65625 15.1875 63.9375 
Q 23.390625 74.21875 37.203125 74.21875 
Q 40.921875 74.21875 44.703125 73.484375 
Q 48.484375 72.75 52.59375 71.296875 
z
" id="DejaVuSans-54"/>
      </defs>
      <g transform="translate(260.673892 322.182437)scale(0.1 -0.1)">
       <use xlink:href="#DejaVuSans-48"/>
       <use x="63.623047" xlink:href="#DejaVuSans-46"/>
       <use x="95.410156" xlink:href="#DejaVuSans-54"/>
      </g>
     </g>
    </g>
    <g id="xtick_5">
     <g id="line2d_5">
      <g>
       <use style="stroke:#000000;stroke-width:0.8;" x="333.556364" xlink:href="#m58ded08bd7" y="307.584"/>
      </g>
     </g>
     <g id="text_5">
      <!-- 0.8 -->
      <defs>
       <path d="M 31.78125 34.625 
Q 24.75 34.625 20.71875 30.859375 
Q 16.703125 27.09375 16.703125 20.515625 
Q 16.703125 13.921875 20.71875 10.15625 
Q 24.75 6.390625 31.78125 6.390625 
Q 38.8125 6.390625 42.859375 10.171875 
Q 46.921875 13.96875 46.921875 20.515625 
Q 46.921875 27.09375 42.890625 30.859375 
Q 38.875 34.625 31.78125 34.625 
z
M 21.921875 38.8125 
Q 15.578125 40.375 12.03125 44.71875 
Q 8.5 49.078125 8.5 55.328125 
Q 8.5 64.0625 14.71875 69.140625 
Q 20.953125 74.21875 31.78125 74.21875 
Q 42.671875 74.21875 48.875 69.140625 
Q 55.078125 64.0625 55.078125 55.328125 
Q 55.078125 49.078125 51.53125 44.71875 
Q 48 40.375 41.703125 38.8125 
Q 48.828125 37.15625 52.796875 32.3125 
Q 56.78125 27.484375 56.78125 20.515625 
Q 56.78125 9.90625 50.3125 4.234375 
Q 43.84375 -1.421875 31.78125 -1.421875 
Q 19.734375 -1.421875 13.25 4.234375 
Q 6.78125 9.90625 6.78125 20.515625 
Q 6.78125 27.484375 10.78125 32.3125 
Q 14.796875 37.15625 21.921875 38.8125 
z
M 18.3125 54.390625 
Q 18.3125 48.734375 21.84375 45.5625 
Q 25.390625 42.390625 31.78125 42.390625 
Q 38.140625 42.390625 41.71875 45.5625 
Q 45.3125 48.734375 45.3125 54.390625 
Q 45.3125 60.0625 41.71875 63.234375 
Q 38.140625 66.40625 31.78125 66.40625 
Q 25.390625 66.40625 21.84375 63.234375 
Q 18.3125 60.0625 18.3125 54.390625 
z
" id="DejaVuSans-56"/>
      </defs>
      <g transform="translate(325.604801 322.182437)scale(0.1 -0.1)">
       <use xlink:href="#DejaVuSans-48"/>
       <use x="63.623047" xlink:href="#DejaVuSans-46"/>
       <use x="95.410156" xlink:href="#DejaVuSans-56"/>
      </g>
     </g>
    </g>
    <g id="xtick_6">
     <g id="line2d_6">
      <g>
       <use style="stroke:#000000;stroke-width:0.8;" x="398.487273" xlink:href="#m58ded08bd7" y="307.584"/>
      </g>
     </g>
     <g id="text_6">
      <!-- 1.0 -->
      <defs>
       <path d="M 12.40625 8.296875 
L 28.515625 8.296875 
L 28.515625 63.921875 
L 10.984375 60.40625 
L 10.984375 69.390625 
L 28.421875 72.90625 
L 38.28125 72.90625 
L 38.28125 8.296875 
L 54.390625 8.296875 
L 54.390625 0 
L 12.40625 0 
z
" id="DejaVuSans-49"/>
      </defs>
      <g transform="translate(390.53571 322.182437)scale(0.1 -0.1)">
       <use xlink:href="#DejaVuSans-49"/>
       <use x="63.623047" xlink:href="#DejaVuSans-46"/>
       <use x="95.410156" xlink:href="#DejaVuSans-48"/>
      </g>
     </g>
    </g>
    <g id="text_7">
     <!-- False positive rate -->
     <defs>
      <path d="M 9.8125 72.90625 
L 51.703125 72.90625 
L 51.703125 64.59375 
L 19.671875 64.59375 
L 19.671875 43.109375 
L 48.578125 43.109375 
L 48.578125 34.8125 
L 19.671875 34.8125 
L 19.671875 0 
L 9.8125 0 
z
" id="DejaVuSans-70"/>
      <path d="M 34.28125 27.484375 
Q 23.390625 27.484375 19.1875 25 
Q 14.984375 22.515625 14.984375 16.5 
Q 14.984375 11.71875 18.140625 8.90625 
Q 21.296875 6.109375 26.703125 6.109375 
Q 34.1875 6.109375 38.703125 11.40625 
Q 43.21875 16.703125 43.21875 25.484375 
L 43.21875 27.484375 
z
M 52.203125 31.203125 
L 52.203125 0 
L 43.21875 0 
L 43.21875 8.296875 
Q 40.140625 3.328125 35.546875 0.953125 
Q 30.953125 -1.421875 24.3125 -1.421875 
Q 15.921875 -1.421875 10.953125 3.296875 
Q 6 8.015625 6 15.921875 
Q 6 25.140625 12.171875 29.828125 
Q 18.359375 34.515625 30.609375 34.515625 
L 43.21875 34.515625 
L 43.21875 35.40625 
Q 43.21875 41.609375 39.140625 45 
Q 35.0625 48.390625 27.6875 48.390625 
Q 23 48.390625 18.546875 47.265625 
Q 14.109375 46.140625 10.015625 43.890625 
L 10.015625 52.203125 
Q 14.9375 54.109375 19.578125 55.046875 
Q 24.21875 56 28.609375 56 
Q 40.484375 56 46.34375 49.84375 
Q 52.203125 43.703125 52.203125 31.203125 
z
" id="DejaVuSans-97"/>
      <path d="M 9.421875 75.984375 
L 18.40625 75.984375 
L 18.40625 0 
L 9.421875 0 
z
" id="DejaVuSans-108"/>
      <path d="M 44.28125 53.078125 
L 44.28125 44.578125 
Q 40.484375 46.53125 36.375 47.5 
Q 32.28125 48.484375 27.875 48.484375 
Q 21.1875 48.484375 17.84375 46.4375 
Q 14.5 44.390625 14.5 40.28125 
Q 14.5 37.15625 16.890625 35.375 
Q 19.28125 33.59375 26.515625 31.984375 
L 29.59375 31.296875 
Q 39.15625 29.25 43.1875 25.515625 
Q 47.21875 21.78125 47.21875 15.09375 
Q 47.21875 7.46875 41.1875 3.015625 
Q 35.15625 -1.421875 24.609375 -1.421875 
Q 20.21875 -1.421875 15.453125 -0.5625 
Q 10.6875 0.296875 5.421875 2 
L 5.421875 11.28125 
Q 10.40625 8.6875 15.234375 7.390625 
Q 20.0625 6.109375 24.8125 6.109375 
Q 31.15625 6.109375 34.5625 8.28125 
Q 37.984375 10.453125 37.984375 14.40625 
Q 37.984375 18.0625 35.515625 20.015625 
Q 33.0625 21.96875 24.703125 23.78125 
L 21.578125 24.515625 
Q 13.234375 26.265625 9.515625 29.90625 
Q 5.8125 33.546875 5.8125 39.890625 
Q 5.8125 47.609375 11.28125 51.796875 
Q 16.75 56 26.8125 56 
Q 31.78125 56 36.171875 55.265625 
Q 40.578125 54.546875 44.28125 53.078125 
z
" id="DejaVuSans-115"/>
      <path d="M 56.203125 29.59375 
L 56.203125 25.203125 
L 14.890625 25.203125 
Q 15.484375 15.921875 20.484375 11.0625 
Q 25.484375 6.203125 34.421875 6.203125 
Q 39.59375 6.203125 44.453125 7.46875 
Q 49.3125 8.734375 54.109375 11.28125 
L 54.109375 2.78125 
Q 49.265625 0.734375 44.1875 -0.34375 
Q 39.109375 -1.421875 33.890625 -1.421875 
Q 20.796875 -1.421875 13.15625 6.1875 
Q 5.515625 13.8125 5.515625 26.8125 
Q 5.515625 40.234375 12.765625 48.109375 
Q 20.015625 56 32.328125 56 
Q 43.359375 56 49.78125 48.890625 
Q 56.203125 41.796875 56.203125 29.59375 
z
M 47.21875 32.234375 
Q 47.125 39.59375 43.09375 43.984375 
Q 39.0625 48.390625 32.421875 48.390625 
Q 24.90625 48.390625 20.390625 44.140625 
Q 15.875 39.890625 15.1875 32.171875 
z
" id="DejaVuSans-101"/>
      <path id="DejaVuSans-32"/>
      <path d="M 18.109375 8.203125 
L 18.109375 -20.796875 
L 9.078125 -20.796875 
L 9.078125 54.6875 
L 18.109375 54.6875 
L 18.109375 46.390625 
Q 20.953125 51.265625 25.265625 53.625 
Q 29.59375 56 35.59375 56 
Q 45.5625 56 51.78125 48.09375 
Q 58.015625 40.1875 58.015625 27.296875 
Q 58.015625 14.40625 51.78125 6.484375 
Q 45.5625 -1.421875 35.59375 -1.421875 
Q 29.59375 -1.421875 25.265625 0.953125 
Q 20.953125 3.328125 18.109375 8.203125 
z
M 48.6875 27.296875 
Q 48.6875 37.203125 44.609375 42.84375 
Q 40.53125 48.484375 33.40625 48.484375 
Q 26.265625 48.484375 22.1875 42.84375 
Q 18.109375 37.203125 18.109375 27.296875 
Q 18.109375 17.390625 22.1875 11.75 
Q 26.265625 6.109375 33.40625 6.109375 
Q 40.53125 6.109375 44.609375 11.75 
Q 48.6875 17.390625 48.6875 27.296875 
z
" id="DejaVuSans-112"/>
      <path d="M 30.609375 48.390625 
Q 23.390625 48.390625 19.1875 42.75 
Q 14.984375 37.109375 14.984375 27.296875 
Q 14.984375 17.484375 19.15625 11.84375 
Q 23.34375 6.203125 30.609375 6.203125 
Q 37.796875 6.203125 41.984375 11.859375 
Q 46.1875 17.53125 46.1875 27.296875 
Q 46.1875 37.015625 41.984375 42.703125 
Q 37.796875 48.390625 30.609375 48.390625 
z
M 30.609375 56 
Q 42.328125 56 49.015625 48.375 
Q 55.71875 40.765625 55.71875 27.296875 
Q 55.71875 13.875 49.015625 6.21875 
Q 42.328125 -1.421875 30.609375 -1.421875 
Q 18.84375 -1.421875 12.171875 6.21875 
Q 5.515625 13.875 5.515625 27.296875 
Q 5.515625 40.765625 12.171875 48.375 
Q 18.84375 56 30.609375 56 
z
" id="DejaVuSans-111"/>
      <path d="M 9.421875 54.6875 
L 18.40625 54.6875 
L 18.40625 0 
L 9.421875 0 
z
M 9.421875 75.984375 
L 18.40625 75.984375 
L 18.40625 64.59375 
L 9.421875 64.59375 
z
" id="DejaVuSans-105"/>
      <path d="M 18.3125 70.21875 
L 18.3125 54.6875 
L 36.8125 54.6875 
L 36.8125 47.703125 
L 18.3125 47.703125 
L 18.3125 18.015625 
Q 18.3125 11.328125 20.140625 9.421875 
Q 21.96875 7.515625 27.59375 7.515625 
L 36.8125 7.515625 
L 36.8125 0 
L 27.59375 0 
Q 17.1875 0 13.234375 3.875 
Q 9.28125 7.765625 9.28125 18.015625 
L 9.28125 47.703125 
L 2.6875 47.703125 
L 2.6875 54.6875 
L 9.28125 54.6875 
L 9.28125 70.21875 
z
" id="DejaVuSans-116"/>
      <path d="M 2.984375 54.6875 
L 12.5 54.6875 
L 29.59375 8.796875 
L 46.6875 54.6875 
L 56.203125 54.6875 
L 35.6875 0 
L 23.484375 0 
z
" id="DejaVuSans-118"/>
      <path d="M 41.109375 46.296875 
Q 39.59375 47.171875 37.8125 47.578125 
Q 36.03125 48 33.890625 48 
Q 26.265625 48 22.1875 43.046875 
Q 18.109375 38.09375 18.109375 28.8125 
L 18.109375 0 
L 9.078125 0 
L 9.078125 54.6875 
L 18.109375 54.6875 
L 18.109375 46.1875 
Q 20.953125 51.171875 25.484375 53.578125 
Q 30.03125 56 36.53125 56 
Q 37.453125 56 38.578125 55.875 
Q 39.703125 55.765625 41.0625 55.515625 
z
" id="DejaVuSans-114"/>
     </defs>
     <g transform="translate(190.21 335.860562)scale(0.1 -0.1)">
      <use xlink:href="#DejaVuSans-70"/>
      <use x="57.378906" xlink:href="#DejaVuSans-97"/>
      <use x="118.658203" xlink:href="#DejaVuSans-108"/>
      <use x="146.441406" xlink:href="#DejaVuSans-115"/>
      <use x="198.541016" xlink:href="#DejaVuSans-101"/>
      <use x="260.064453" xlink:href="#DejaVuSans-32"/>
      <use x="291.851562" xlink:href="#DejaVuSans-112"/>
      <use x="355.328125" xlink:href="#DejaVuSans-111"/>
      <use x="416.509766" xlink:href="#DejaVuSans-115"/>
      <use x="468.609375" xlink:href="#DejaVuSans-105"/>
      <use x="496.392578" xlink:href="#DejaVuSans-116"/>
      <use x="535.601562" xlink:href="#DejaVuSans-105"/>
      <use x="563.384766" xlink:href="#DejaVuSans-118"/>
      <use x="622.564453" xlink:href="#DejaVuSans-101"/>
      <use x="684.087891" xlink:href="#DejaVuSans-32"/>
      <use x="715.875" xlink:href="#DejaVuSans-114"/>
      <use x="756.988281" xlink:href="#DejaVuSans-97"/>
      <use x="818.267578" xlink:href="#DejaVuSans-116"/>
      <use x="857.476562" xlink:href="#DejaVuSans-101"/>
     </g>
    </g>
   </g>
   <g id="matplotlib.axis_2">
    <g id="ytick_1">
     <g id="line2d_7">
      <defs>
       <path d="M 0 0 
L -3.5 0 
" id="mda42ad37d8" style="stroke:#000000;stroke-width:0.8;"/>
      </defs>
      <g>
       <use style="stroke:#000000;stroke-width:0.8;" x="57.6" xlink:href="#mda42ad37d8" y="295.488"/>
      </g>
     </g>
     <g id="text_8">
      <!-- 0.0 -->
      <g transform="translate(34.696875 299.287219)scale(0.1 -0.1)">
       <use xlink:href="#DejaVuSans-48"/>
       <use x="63.623047" xlink:href="#DejaVuSans-46"/>
       <use x="95.410156" xlink:href="#DejaVuSans-48"/>
      </g>
     </g>
    </g>
    <g id="ytick_2">
     <g id="line2d_8">
      <g>
       <use style="stroke:#000000;stroke-width:0.8;" x="57.6" xlink:href="#mda42ad37d8" y="247.104"/>
      </g>
     </g>
     <g id="text_9">
      <!-- 0.2 -->
      <g transform="translate(34.696875 250.903219)scale(0.1 -0.1)">
       <use xlink:href="#DejaVuSans-48"/>
       <use x="63.623047" xlink:href="#DejaVuSans-46"/>
       <use x="95.410156" xlink:href="#DejaVuSans-50"/>
      </g>
     </g>
    </g>
    <g id="ytick_3">
     <g id="line2d_9">
      <g>
       <use style="stroke:#000000;stroke-width:0.8;" x="57.6" xlink:href="#mda42ad37d8" y="198.72"/>
      </g>
     </g>
     <g id="text_10">
      <!-- 0.4 -->
      <g transform="translate(34.696875 202.519219)scale(0.1 -0.1)">
       <use xlink:href="#DejaVuSans-48"/>
       <use x="63.623047" xlink:href="#DejaVuSans-46"/>
       <use x="95.410156" xlink:href="#DejaVuSans-52"/>
      </g>
     </g>
    </g>
    <g id="ytick_4">
     <g id="line2d_10">
      <g>
       <use style="stroke:#000000;stroke-width:0.8;" x="57.6" xlink:href="#mda42ad37d8" y="150.336"/>
      </g>
     </g>
     <g id="text_11">
      <!-- 0.6 -->
      <g transform="translate(34.696875 154.135219)scale(0.1 -0.1)">
       <use xlink:href="#DejaVuSans-48"/>
       <use x="63.623047" xlink:href="#DejaVuSans-46"/>
       <use x="95.410156" xlink:href="#DejaVuSans-54"/>
      </g>
     </g>
    </g>
    <g id="ytick_5">
     <g id="line2d_11">
      <g>
       <use style="stroke:#000000;stroke-width:0.8;" x="57.6" xlink:href="#mda42ad37d8" y="101.952"/>
      </g>
     </g>
     <g id="text_12">
      <!-- 0.8 -->
      <g transform="translate(34.696875 105.751219)scale(0.1 -0.1)">
       <use xlink:href="#DejaVuSans-48"/>
       <use x="63.623047" xlink:href="#DejaVuSans-46"/>
       <use x="95.410156" xlink:href="#DejaVuSans-56"/>
      </g>
     </g>
    </g>
    <g id="ytick_6">
     <g id="line2d_12">
      <g>
       <use style="stroke:#000000;stroke-width:0.8;" x="57.6" xlink:href="#mda42ad37d8" y="53.568"/>
      </g>
     </g>
     <g id="text_13">
      <!-- 1.0 -->
      <g transform="translate(34.696875 57.367219)scale(0.1 -0.1)">
       <use xlink:href="#DejaVuSans-49"/>
       <use x="63.623047" xlink:href="#DejaVuSans-46"/>
       <use x="95.410156" xlink:href="#DejaVuSans-48"/>
      </g>
     </g>
    </g>
    <g id="text_14">
     <!-- True positive rate -->
     <defs>
      <path d="M -0.296875 72.90625 
L 61.375 72.90625 
L 61.375 64.59375 
L 35.5 64.59375 
L 35.5 0 
L 25.59375 0 
L 25.59375 64.59375 
L -0.296875 64.59375 
z
" id="DejaVuSans-84"/>
      <path d="M 8.5 21.578125 
L 8.5 54.6875 
L 17.484375 54.6875 
L 17.484375 21.921875 
Q 17.484375 14.15625 20.5 10.265625 
Q 23.53125 6.390625 29.59375 6.390625 
Q 36.859375 6.390625 41.078125 11.03125 
Q 45.3125 15.671875 45.3125 23.6875 
L 45.3125 54.6875 
L 54.296875 54.6875 
L 54.296875 0 
L 45.3125 0 
L 45.3125 8.40625 
Q 42.046875 3.421875 37.71875 1 
Q 33.40625 -1.421875 27.6875 -1.421875 
Q 18.265625 -1.421875 13.375 4.4375 
Q 8.5 10.296875 8.5 21.578125 
z
M 31.109375 56 
z
" id="DejaVuSans-117"/>
     </defs>
     <g transform="translate(28.617187 218.818625)rotate(-90)scale(0.1 -0.1)">
      <use xlink:href="#DejaVuSans-84"/>
      <use x="60.865234" xlink:href="#DejaVuSans-114"/>
      <use x="101.978516" xlink:href="#DejaVuSans-117"/>
      <use x="165.357422" xlink:href="#DejaVuSans-101"/>
      <use x="226.880859" xlink:href="#DejaVuSans-32"/>
      <use x="258.667969" xlink:href="#DejaVuSans-112"/>
      <use x="322.144531" xlink:href="#DejaVuSans-111"/>
      <use x="383.326172" xlink:href="#DejaVuSans-115"/>
      <use x="435.425781" xlink:href="#DejaVuSans-105"/>
      <use x="463.208984" xlink:href="#DejaVuSans-116"/>
      <use x="502.417969" xlink:href="#DejaVuSans-105"/>
      <use x="530.201172" xlink:href="#DejaVuSans-118"/>
      <use x="589.380859" xlink:href="#DejaVuSans-101"/>
      <use x="650.904297" xlink:href="#DejaVuSans-32"/>
      <use x="682.691406" xlink:href="#DejaVuSans-114"/>
      <use x="723.804688" xlink:href="#DejaVuSans-97"/>
      <use x="785.083984" xlink:href="#DejaVuSans-116"/>
      <use x="824.292969" xlink:href="#DejaVuSans-101"/>
     </g>
    </g>
   </g>
   <g id="line2d_13">
    <path clip-path="url(#pb31f7ab68e)" d="M 73.832727 295.488 
L 398.487273 53.568 
" style="fill:none;stroke:#000000;stroke-dasharray:5.55,2.4;stroke-dashoffset:0;stroke-width:1.5;"/>
   </g>
   <g id="line2d_14">
    <path clip-path="url(#pb31f7ab68e)" d="M 73.832727 295.488 
L 73.832727 239.923336 
L 76.369091 239.923336 
L 76.369091 208.93535 
L 78.905455 208.93535 
L 78.905455 207.011958 
L 81.441818 207.011958 
L 81.441818 183.50383 
L 83.978182 183.50383 
L 83.978182 182.007859 
L 86.514545 182.007859 
L 86.514545 180.939307 
L 89.050909 180.939307 
L 89.050909 173.245739 
L 91.587273 173.245739 
L 91.587273 171.963477 
L 94.123636 171.963477 
L 94.123636 170.894926 
L 99.196364 170.894926 
L 99.196364 170.040085 
L 101.732727 170.040085 
L 101.732727 169.398954 
L 104.269091 169.398954 
L 104.269091 169.185244 
L 106.805455 169.185244 
L 106.805455 162.132806 
L 109.341818 162.132806 
L 109.341818 159.781993 
L 111.878182 159.781993 
L 111.878182 158.927152 
L 114.414545 158.927152 
L 114.414545 150.378742 
L 116.950909 150.378742 
L 116.950909 148.24164 
L 119.487273 148.24164 
L 119.487273 147.814219 
L 122.023636 147.814219 
L 122.023636 146.959378 
L 124.56 146.959378 
L 124.56 146.531958 
L 127.096364 146.531958 
L 127.096364 144.608565 
L 129.632727 144.608565 
L 129.632727 144.181145 
L 132.169091 144.181145 
L 132.169091 143.753724 
L 137.241818 143.753724 
L 137.241818 140.761781 
L 139.778182 140.761781 
L 139.778182 137.342417 
L 144.850909 137.342417 
L 144.850909 136.273866 
L 147.387273 136.273866 
L 147.387273 134.136763 
L 149.923636 134.136763 
L 149.923636 132.640792 
L 152.46 132.640792 
L 152.46 128.580297 
L 154.996364 128.580297 
L 154.996364 127.298035 
L 157.532727 127.298035 
L 157.532727 125.588353 
L 162.605455 125.588353 
L 162.605455 125.374643 
L 165.141818 125.374643 
L 165.141818 122.81012 
L 167.678182 122.81012 
L 167.678182 121.741569 
L 170.214545 121.741569 
L 170.214545 118.963336 
L 172.750909 118.963336 
L 172.750909 116.185102 
L 175.287273 116.185102 
L 175.287273 108.277823 
L 177.823636 108.277823 
L 177.823636 108.064113 
L 180.36 108.064113 
L 180.36 104.431039 
L 182.896364 104.431039 
L 182.896364 103.362488 
L 185.432727 103.362488 
L 185.432727 102.721357 
L 187.969091 102.721357 
L 187.969091 97.592311 
L 190.505455 97.592311 
L 190.505455 91.822134 
L 193.041818 91.822134 
L 193.041818 89.257611 
L 198.114545 89.257611 
L 198.114545 87.97535 
L 200.650909 87.97535 
L 200.650909 87.120509 
L 203.187273 87.120509 
L 203.187273 80.495491 
L 205.723636 80.495491 
L 205.723636 79.64065 
L 208.26 79.64065 
L 208.26 77.717258 
L 210.796364 77.717258 
L 210.796364 76.862417 
L 213.332727 76.862417 
L 213.332727 76.648707 
L 215.869091 76.648707 
L 215.869091 75.793866 
L 218.405455 75.793866 
L 218.405455 74.084184 
L 220.941818 74.084184 
L 220.941818 72.801922 
L 223.478182 72.801922 
L 223.478182 71.09224 
L 226.014545 71.09224 
L 226.014545 70.237399 
L 228.550909 70.237399 
L 228.550909 69.596269 
L 231.087273 69.596269 
L 231.087273 67.886587 
L 236.16 67.886587 
L 236.16 64.467223 
L 241.232727 64.467223 
L 241.232727 61.475279 
L 243.769091 61.475279 
L 243.769091 61.261569 
L 246.305455 61.261569 
L 246.305455 60.834148 
L 248.841818 60.834148 
L 248.841818 60.620438 
L 251.378182 60.620438 
L 251.378182 59.551887 
L 253.914545 59.551887 
L 253.914545 58.697046 
L 258.987273 58.697046 
L 258.987273 58.483336 
L 261.523636 58.483336 
L 261.523636 57.414784 
L 269.132727 57.414784 
L 269.132727 57.201074 
L 271.669091 57.201074 
L 271.669091 56.987364 
L 274.205455 56.987364 
L 274.205455 56.559943 
L 276.741818 56.559943 
L 276.741818 55.705102 
L 279.278182 55.705102 
L 279.278182 55.491392 
L 281.814545 55.491392 
L 281.814545 55.277682 
L 286.887273 55.277682 
L 286.887273 54.850261 
L 289.423636 54.850261 
L 289.423636 54.422841 
L 309.714545 54.422841 
L 309.714545 53.99542 
L 314.787273 53.99542 
L 314.787273 53.568 
L 398.487273 53.568 
L 398.487273 53.568 
" style="fill:none;stroke:#1f77b4;stroke-linecap:square;stroke-width:1.5;"/>
   </g>
   <g id="line2d_15">
    <path clip-path="url(#pb31f7ab68e)" d="M 73.832727 295.488 
L 73.832727 275.612947 
L 76.369091 275.612947 
L 76.369091 274.544396 
L 78.905455 274.544396 
L 78.905455 274.116975 
L 81.441818 274.116975 
L 81.441818 273.689555 
L 83.978182 273.689555 
L 83.978182 271.338742 
L 86.514545 271.338742 
L 86.514545 269.41535 
L 89.050909 269.41535 
L 89.050909 266.423406 
L 91.587273 266.423406 
L 91.587273 265.568565 
L 94.123636 265.568565 
L 94.123636 263.431463 
L 96.66 263.431463 
L 96.66 262.576622 
L 99.196364 262.576622 
L 99.196364 261.721781 
L 101.732727 261.721781 
L 101.732727 257.233866 
L 104.269091 257.233866 
L 104.269091 252.10482 
L 106.805455 252.10482 
L 106.805455 250.181428 
L 109.341818 250.181428 
L 109.341818 247.189484 
L 111.878182 247.189484 
L 111.878182 245.052382 
L 114.414545 245.052382 
L 114.414545 244.838671 
L 116.950909 244.838671 
L 116.950909 244.197541 
L 119.487273 244.197541 
L 119.487273 243.77012 
L 122.023636 243.77012 
L 122.023636 242.060438 
L 124.56 242.060438 
L 124.56 241.205597 
L 127.096364 241.205597 
L 127.096364 239.709625 
L 129.632727 239.709625 
L 129.632727 237.572523 
L 132.169091 237.572523 
L 132.169091 235.008 
L 134.705455 235.008 
L 134.705455 234.366869 
L 137.241818 234.366869 
L 137.241818 233.939449 
L 139.778182 233.939449 
L 139.778182 233.512028 
L 142.314545 233.512028 
L 142.314545 231.161216 
L 144.850909 231.161216 
L 144.850909 229.878954 
L 147.387273 229.878954 
L 147.387273 229.451534 
L 157.532727 229.451534 
L 157.532727 228.810403 
L 162.605455 228.810403 
L 162.605455 227.100721 
L 165.141818 227.100721 
L 165.141818 225.604749 
L 167.678182 225.604749 
L 167.678182 218.338601 
L 170.214545 218.338601 
L 170.214545 218.12489 
L 172.750909 218.12489 
L 172.750909 217.91118 
L 175.287273 217.91118 
L 175.287273 217.69747 
L 177.823636 217.69747 
L 177.823636 216.842629 
L 180.36 216.842629 
L 180.36 215.346657 
L 182.896364 215.346657 
L 182.896364 212.141004 
L 185.432727 212.141004 
L 185.432727 209.36277 
L 187.969091 209.36277 
L 187.969091 208.080509 
L 193.041818 208.080509 
L 193.041818 205.943406 
L 195.578182 205.943406 
L 195.578182 204.661145 
L 198.114545 204.661145 
L 198.114545 204.020014 
L 200.650909 204.020014 
L 200.650909 195.044184 
L 203.187273 195.044184 
L 203.187273 192.265951 
L 205.723636 192.265951 
L 205.723636 190.769979 
L 208.26 190.769979 
L 208.26 190.342558 
L 210.796364 190.342558 
L 210.796364 190.128848 
L 215.869091 190.128848 
L 215.869091 189.487717 
L 218.405455 189.487717 
L 218.405455 188.632876 
L 220.941818 188.632876 
L 220.941818 188.419166 
L 226.014545 188.419166 
L 226.014545 187.564325 
L 228.550909 187.564325 
L 228.550909 186.282064 
L 231.087273 186.282064 
L 231.087273 180.725597 
L 233.623636 180.725597 
L 233.623636 179.015915 
L 236.16 179.015915 
L 236.16 177.092523 
L 238.696364 177.092523 
L 238.696364 176.023972 
L 241.232727 176.023972 
L 241.232727 175.382841 
L 243.769091 175.382841 
L 243.769091 172.604608 
L 246.305455 172.604608 
L 246.305455 169.185244 
L 248.841818 169.185244 
L 248.841818 168.544113 
L 251.378182 168.544113 
L 251.378182 168.330403 
L 253.914545 168.330403 
L 253.914545 162.987647 
L 256.450909 162.987647 
L 256.450909 161.919095 
L 258.987273 161.919095 
L 258.987273 161.705385 
L 261.523636 161.705385 
L 261.523636 160.636834 
L 264.06 160.636834 
L 264.06 155.935208 
L 266.596364 155.935208 
L 266.596364 155.721498 
L 269.132727 155.721498 
L 269.132727 154.439237 
L 271.669091 154.439237 
L 271.669091 153.798106 
L 274.205455 153.798106 
L 274.205455 153.370686 
L 276.741818 153.370686 
L 276.741818 152.729555 
L 284.350909 152.729555 
L 284.350909 151.661004 
L 286.887273 151.661004 
L 286.887273 151.447293 
L 289.423636 151.447293 
L 289.423636 150.806163 
L 291.96 150.806163 
L 291.96 149.737611 
L 294.496364 149.737611 
L 294.496364 149.523901 
L 297.032727 149.523901 
L 297.032727 147.814219 
L 299.569091 147.814219 
L 299.569091 147.386799 
L 302.105455 147.386799 
L 302.105455 146.745668 
L 304.641818 146.745668 
L 304.641818 146.531958 
L 307.178182 146.531958 
L 307.178182 143.326304 
L 309.714545 143.326304 
L 309.714545 141.830332 
L 312.250909 141.830332 
L 312.250909 140.975491 
L 314.787273 140.975491 
L 314.787273 137.556127 
L 317.323636 137.556127 
L 317.323636 136.060155 
L 319.86 136.060155 
L 319.86 131.14482 
L 322.396364 131.14482 
L 322.396364 124.306092 
L 324.932727 124.306092 
L 324.932727 122.168989 
L 330.005455 122.168989 
L 330.005455 121.741569 
L 332.541818 121.741569 
L 332.541818 116.612523 
L 335.078182 116.612523 
L 335.078182 113.62058 
L 337.614545 113.62058 
L 337.614545 112.338318 
L 340.150909 112.338318 
L 340.150909 111.910898 
L 342.687273 111.910898 
L 342.687273 106.995562 
L 345.223636 106.995562 
L 345.223636 106.568141 
L 347.76 106.568141 
L 347.76 105.28588 
L 350.296364 105.28588 
L 350.296364 104.858459 
L 352.832727 104.858459 
L 352.832727 96.73747 
L 355.369091 96.73747 
L 355.369091 95.882629 
L 357.905455 95.882629 
L 357.905455 94.814078 
L 360.441818 94.814078 
L 360.441818 92.035845 
L 362.978182 92.035845 
L 362.978182 85.624537 
L 365.514545 85.624537 
L 365.514545 78.572099 
L 368.050909 78.572099 
L 368.050909 67.886587 
L 370.587273 67.886587 
L 370.587273 65.963194 
L 375.66 65.963194 
L 375.66 62.757541 
L 378.196364 62.757541 
L 378.196364 62.54383 
L 380.732727 62.54383 
L 380.732727 60.406728 
L 383.269091 60.406728 
L 383.269091 59.979307 
L 385.805455 59.979307 
L 385.805455 58.269625 
L 388.341818 58.269625 
L 388.341818 57.201074 
L 393.414545 57.201074 
L 393.414545 55.918813 
L 395.950909 55.918813 
L 395.950909 54.209131 
L 398.487273 54.209131 
L 398.487273 53.568 
L 398.487273 53.568 
" style="fill:none;stroke:#ff7f0e;stroke-linecap:square;stroke-width:1.5;"/>
   </g>
   <g id="line2d_16">
    <path clip-path="url(#pb31f7ab68e)" d="M 73.832727 295.488 
L 73.832727 295.27429 
L 73.832727 117.253654 
L 76.369091 117.253654 
L 76.369091 110.628636 
L 78.905455 110.628636 
L 78.905455 98.660862 
L 81.441818 98.660862 
L 81.441818 96.310049 
L 83.978182 96.310049 
L 83.978182 96.096339 
L 86.514545 96.096339 
L 86.514545 95.882629 
L 89.050909 95.882629 
L 89.050909 95.027788 
L 91.587273 95.027788 
L 91.587273 93.959237 
L 94.123636 93.959237 
L 94.123636 93.531816 
L 96.66 93.531816 
L 96.66 92.676975 
L 101.732727 92.676975 
L 101.732727 91.608424 
L 104.269091 91.608424 
L 104.269091 89.471322 
L 106.805455 89.471322 
L 106.805455 84.983406 
L 109.341818 84.983406 
L 109.341818 84.342276 
L 114.414545 84.342276 
L 114.414545 83.701145 
L 116.950909 83.701145 
L 116.950909 83.487435 
L 127.096364 83.487435 
L 127.096364 83.273724 
L 139.778182 83.273724 
L 139.778182 83.060014 
L 142.314545 83.060014 
L 142.314545 82.418883 
L 144.850909 82.418883 
L 144.850909 81.777753 
L 147.387273 81.777753 
L 147.387273 81.564042 
L 152.46 81.564042 
L 152.46 81.136622 
L 154.996364 81.136622 
L 154.996364 80.495491 
L 160.069091 80.495491 
L 160.069091 78.785809 
L 162.605455 78.785809 
L 162.605455 78.572099 
L 177.823636 78.572099 
L 177.823636 78.358389 
L 198.114545 78.358389 
L 198.114545 77.930968 
L 213.332727 77.930968 
L 213.332727 77.717258 
L 220.941818 77.717258 
L 220.941818 77.503548 
L 226.014545 77.503548 
L 226.014545 77.289837 
L 228.550909 77.289837 
L 228.550909 77.076127 
L 241.232727 77.076127 
L 241.232727 73.443053 
L 243.769091 73.443053 
L 243.769091 71.519661 
L 246.305455 71.519661 
L 246.305455 69.596269 
L 248.841818 69.596269 
L 248.841818 67.459166 
L 251.378182 67.459166 
L 251.378182 65.108353 
L 253.914545 65.108353 
L 253.914545 64.894643 
L 309.714545 64.894643 
L 309.714545 64.680933 
L 314.787273 64.680933 
L 314.787273 64.253512 
L 319.86 64.253512 
L 319.86 63.612382 
L 324.932727 63.612382 
L 324.932727 63.398671 
L 330.005455 63.398671 
L 330.005455 62.757541 
L 335.078182 62.757541 
L 335.078182 62.54383 
L 337.614545 62.54383 
L 337.614545 61.688989 
L 347.76 61.688989 
L 347.76 61.047859 
L 350.296364 61.047859 
L 350.296364 60.406728 
L 355.369091 60.406728 
L 355.369091 59.765597 
L 357.905455 59.765597 
L 357.905455 59.551887 
L 373.123636 59.551887 
L 373.123636 59.124466 
L 375.66 59.124466 
L 375.66 56.559943 
L 385.805455 56.559943 
L 385.805455 53.568 
L 398.487273 53.568 
" style="fill:none;stroke:#2ca02c;stroke-linecap:square;stroke-width:1.5;"/>
   </g>
   <g id="line2d_17">
    <path clip-path="url(#pb31f7ab68e)" d="M 73.832727 295.488 
L 73.832727 186.068353 
L 76.369091 186.068353 
L 76.369091 171.536057 
L 78.905455 171.536057 
L 78.905455 160.423124 
L 81.441818 160.423124 
L 81.441818 157.21747 
L 83.978182 157.21747 
L 83.978182 153.584396 
L 86.514545 153.584396 
L 86.514545 146.531958 
L 89.050909 146.531958 
L 89.050909 145.463406 
L 91.587273 145.463406 
L 91.587273 143.112594 
L 96.66 143.112594 
L 96.66 142.044042 
L 99.196364 142.044042 
L 99.196364 140.12065 
L 101.732727 140.12065 
L 101.732727 139.052099 
L 104.269091 139.052099 
L 104.269091 136.487576 
L 106.805455 136.487576 
L 106.805455 136.060155 
L 109.341818 136.060155 
L 109.341818 127.084325 
L 111.878182 127.084325 
L 111.878182 126.870615 
L 116.950909 126.870615 
L 116.950909 125.802064 
L 119.487273 125.802064 
L 119.487273 124.947223 
L 122.023636 124.947223 
L 122.023636 124.306092 
L 127.096364 124.306092 
L 127.096364 123.664961 
L 129.632727 123.664961 
L 129.632727 122.3827 
L 137.241818 122.3827 
L 137.241818 120.886728 
L 139.778182 120.886728 
L 139.778182 120.031887 
L 142.314545 120.031887 
L 142.314545 116.826233 
L 144.850909 116.826233 
L 144.850909 114.902841 
L 147.387273 114.902841 
L 147.387273 114.048 
L 149.923636 114.048 
L 149.923636 113.406869 
L 154.996364 113.406869 
L 154.996364 112.979449 
L 157.532727 112.979449 
L 157.532727 112.124608 
L 160.069091 112.124608 
L 160.069091 111.269767 
L 162.605455 111.269767 
L 162.605455 108.491534 
L 165.141818 108.491534 
L 165.141818 106.995562 
L 167.678182 106.995562 
L 167.678182 106.568141 
L 170.214545 106.568141 
L 170.214545 104.858459 
L 175.287273 104.858459 
L 175.287273 104.431039 
L 177.823636 104.431039 
L 177.823636 103.576198 
L 180.36 103.576198 
L 180.36 103.362488 
L 182.896364 103.362488 
L 182.896364 103.148777 
L 193.041818 103.148777 
L 193.041818 100.797965 
L 198.114545 100.797965 
L 198.114545 100.584254 
L 200.650909 100.584254 
L 200.650909 98.874572 
L 203.187273 98.874572 
L 203.187273 98.660862 
L 205.723636 98.660862 
L 205.723636 97.806021 
L 208.26 97.806021 
L 208.26 97.592311 
L 213.332727 97.592311 
L 213.332727 97.16489 
L 215.869091 97.16489 
L 215.869091 95.882629 
L 218.405455 95.882629 
L 218.405455 95.455208 
L 220.941818 95.455208 
L 220.941818 95.241498 
L 228.550909 95.241498 
L 228.550909 94.814078 
L 231.087273 94.814078 
L 231.087273 94.600367 
L 236.16 94.600367 
L 236.16 93.959237 
L 241.232727 93.959237 
L 241.232727 93.531816 
L 243.769091 93.531816 
L 243.769091 91.181004 
L 248.841818 91.181004 
L 248.841818 89.898742 
L 251.378182 89.898742 
L 251.378182 89.471322 
L 253.914545 89.471322 
L 253.914545 89.043901 
L 258.987273 89.043901 
L 258.987273 88.830191 
L 261.523636 88.830191 
L 261.523636 88.616481 
L 264.06 88.616481 
L 264.06 88.18906 
L 266.596364 88.18906 
L 266.596364 84.128565 
L 269.132727 84.128565 
L 269.132727 83.914855 
L 271.669091 83.914855 
L 271.669091 82.632594 
L 276.741818 82.632594 
L 276.741818 82.418883 
L 279.278182 82.418883 
L 279.278182 81.777753 
L 281.814545 81.777753 
L 281.814545 81.136622 
L 286.887273 81.136622 
L 286.887273 80.495491 
L 289.423636 80.495491 
L 289.423636 79.64065 
L 291.96 79.64065 
L 291.96 79.21323 
L 297.032727 79.21323 
L 297.032727 77.503548 
L 302.105455 77.503548 
L 302.105455 77.076127 
L 304.641818 77.076127 
L 304.641818 75.366445 
L 307.178182 75.366445 
L 307.178182 75.152735 
L 309.714545 75.152735 
L 309.714545 74.297894 
L 312.250909 74.297894 
L 312.250909 74.084184 
L 314.787273 74.084184 
L 314.787273 73.015633 
L 319.86 73.015633 
L 319.86 72.160792 
L 322.396364 72.160792 
L 322.396364 71.733371 
L 324.932727 71.733371 
L 324.932727 71.519661 
L 327.469091 71.519661 
L 327.469091 71.09224 
L 332.541818 71.09224 
L 332.541818 69.168848 
L 335.078182 69.168848 
L 335.078182 68.955138 
L 337.614545 68.955138 
L 337.614545 68.741428 
L 340.150909 68.741428 
L 340.150909 67.672876 
L 345.223636 67.672876 
L 345.223636 67.031746 
L 347.76 67.031746 
L 347.76 66.818035 
L 350.296364 66.818035 
L 350.296364 66.604325 
L 352.832727 66.604325 
L 352.832727 64.894643 
L 355.369091 64.894643 
L 355.369091 64.039802 
L 357.905455 64.039802 
L 357.905455 62.971251 
L 365.514545 62.971251 
L 365.514545 62.757541 
L 375.66 62.757541 
L 375.66 62.54383 
L 378.196364 62.54383 
L 378.196364 61.688989 
L 380.732727 61.688989 
L 380.732727 61.261569 
L 383.269091 61.261569 
L 383.269091 59.765597 
L 388.341818 59.765597 
L 388.341818 59.338177 
L 393.414545 59.338177 
L 393.414545 58.697046 
L 398.487273 58.697046 
L 398.487273 53.568 
L 398.487273 53.568 
" style="fill:none;stroke:#d62728;stroke-linecap:square;stroke-width:1.5;"/>
   </g>
   <g id="patch_3">
    <path d="M 57.6 307.584 
L 57.6 41.472 
" style="fill:none;stroke:#000000;stroke-linecap:square;stroke-linejoin:miter;stroke-width:0.8;"/>
   </g>
   <g id="patch_4">
    <path d="M 414.72 307.584 
L 414.72 41.472 
" style="fill:none;stroke:#000000;stroke-linecap:square;stroke-linejoin:miter;stroke-width:0.8;"/>
   </g>
   <g id="patch_5">
    <path d="M 57.6 307.584 
L 414.72 307.584 
" style="fill:none;stroke:#000000;stroke-linecap:square;stroke-linejoin:miter;stroke-width:0.8;"/>
   </g>
   <g id="patch_6">
    <path d="M 57.6 41.472 
L 414.72 41.472 
" style="fill:none;stroke:#000000;stroke-linecap:square;stroke-linejoin:miter;stroke-width:0.8;"/>
   </g>
   <g id="text_15">
    <!-- Four-Feature ROC -->
    <defs>
     <path d="M 4.890625 31.390625 
L 31.203125 31.390625 
L 31.203125 23.390625 
L 4.890625 23.390625 
z
" id="DejaVuSans-45"/>
     <path d="M 44.390625 34.1875 
Q 47.5625 33.109375 50.5625 29.59375 
Q 53.5625 26.078125 56.59375 19.921875 
L 66.609375 0 
L 56 0 
L 46.6875 18.703125 
Q 43.0625 26.03125 39.671875 28.421875 
Q 36.28125 30.8125 30.421875 30.8125 
L 19.671875 30.8125 
L 19.671875 0 
L 9.8125 0 
L 9.8125 72.90625 
L 32.078125 72.90625 
Q 44.578125 72.90625 50.734375 67.671875 
Q 56.890625 62.453125 56.890625 51.90625 
Q 56.890625 45.015625 53.6875 40.46875 
Q 50.484375 35.9375 44.390625 34.1875 
z
M 19.671875 64.796875 
L 19.671875 38.921875 
L 32.078125 38.921875 
Q 39.203125 38.921875 42.84375 42.21875 
Q 46.484375 45.515625 46.484375 51.90625 
Q 46.484375 58.296875 42.84375 61.546875 
Q 39.203125 64.796875 32.078125 64.796875 
z
" id="DejaVuSans-82"/>
     <path d="M 39.40625 66.21875 
Q 28.65625 66.21875 22.328125 58.203125 
Q 16.015625 50.203125 16.015625 36.375 
Q 16.015625 22.609375 22.328125 14.59375 
Q 28.65625 6.59375 39.40625 6.59375 
Q 50.140625 6.59375 56.421875 14.59375 
Q 62.703125 22.609375 62.703125 36.375 
Q 62.703125 50.203125 56.421875 58.203125 
Q 50.140625 66.21875 39.40625 66.21875 
z
M 39.40625 74.21875 
Q 54.734375 74.21875 63.90625 63.9375 
Q 73.09375 53.65625 73.09375 36.375 
Q 73.09375 19.140625 63.90625 8.859375 
Q 54.734375 -1.421875 39.40625 -1.421875 
Q 24.03125 -1.421875 14.8125 8.828125 
Q 5.609375 19.09375 5.609375 36.375 
Q 5.609375 53.65625 14.8125 63.9375 
Q 24.03125 74.21875 39.40625 74.21875 
z
" id="DejaVuSans-79"/>
     <path d="M 64.40625 67.28125 
L 64.40625 56.890625 
Q 59.421875 61.53125 53.78125 63.8125 
Q 48.140625 66.109375 41.796875 66.109375 
Q 29.296875 66.109375 22.65625 58.46875 
Q 16.015625 50.828125 16.015625 36.375 
Q 16.015625 21.96875 22.65625 14.328125 
Q 29.296875 6.6875 41.796875 6.6875 
Q 48.140625 6.6875 53.78125 8.984375 
Q 59.421875 11.28125 64.40625 15.921875 
L 64.40625 5.609375 
Q 59.234375 2.09375 53.4375 0.328125 
Q 47.65625 -1.421875 41.21875 -1.421875 
Q 24.65625 -1.421875 15.125 8.703125 
Q 5.609375 18.84375 5.609375 36.375 
Q 5.609375 53.953125 15.125 64.078125 
Q 24.65625 74.21875 41.21875 74.21875 
Q 47.75 74.21875 53.53125 72.484375 
Q 59.328125 70.75 64.40625 67.28125 
z
" id="DejaVuSans-67"/>
    </defs>
    <g transform="translate(182.4975 35.472)scale(0.12 -0.12)">
     <use xlink:href="#DejaVuSans-70"/>
     <use x="57.472656" xlink:href="#DejaVuSans-111"/>
     <use x="118.654297" xlink:href="#DejaVuSans-117"/>
     <use x="182.033203" xlink:href="#DejaVuSans-114"/>
     <use x="223.052734" xlink:href="#DejaVuSans-45"/>
     <use x="259.136719" xlink:href="#DejaVuSans-70"/>
     <use x="316.578125" xlink:href="#DejaVuSans-101"/>
     <use x="378.101562" xlink:href="#DejaVuSans-97"/>
     <use x="439.380859" xlink:href="#DejaVuSans-116"/>
     <use x="478.589844" xlink:href="#DejaVuSans-117"/>
     <use x="541.96875" xlink:href="#DejaVuSans-114"/>
     <use x="583.050781" xlink:href="#DejaVuSans-101"/>
     <use x="644.574219" xlink:href="#DejaVuSans-32"/>
     <use x="676.361328" xlink:href="#DejaVuSans-82"/>
     <use x="745.84375" xlink:href="#DejaVuSans-79"/>
     <use x="824.554688" xlink:href="#DejaVuSans-67"/>
    </g>
   </g>
   <g id="legend_1">
    <g id="patch_7">
     <path d="M 318.545 302.584 
L 407.72 302.584 
Q 409.72 302.584 409.72 300.584 
L 409.72 242.8715 
Q 409.72 240.8715 407.72 240.8715 
L 318.545 240.8715 
Q 316.545 240.8715 316.545 242.8715 
L 316.545 300.584 
Q 316.545 302.584 318.545 302.584 
z
" style="fill:#ffffff;opacity:0.8;stroke:#cccccc;stroke-linejoin:miter;"/>
    </g>
    <g id="line2d_18">
     <path d="M 320.545 248.969937 
L 340.545 248.969937 
" style="fill:none;stroke:#1f77b4;stroke-linecap:square;stroke-width:1.5;"/>
    </g>
    <g id="line2d_19"/>
    <g id="text_16">
     <!-- iForest -->
     <g transform="translate(348.545 252.469937)scale(0.1 -0.1)">
      <use xlink:href="#DejaVuSans-105"/>
      <use x="27.783203" xlink:href="#DejaVuSans-70"/>
      <use x="85.255859" xlink:href="#DejaVuSans-111"/>
      <use x="146.4375" xlink:href="#DejaVuSans-114"/>
      <use x="187.519531" xlink:href="#DejaVuSans-101"/>
      <use x="249.042969" xlink:href="#DejaVuSans-115"/>
      <use x="301.142578" xlink:href="#DejaVuSans-116"/>
     </g>
    </g>
    <g id="line2d_20">
     <path d="M 320.545 263.648062 
L 340.545 263.648062 
" style="fill:none;stroke:#ff7f0e;stroke-linecap:square;stroke-width:1.5;"/>
    </g>
    <g id="line2d_21"/>
    <g id="text_17">
     <!-- OC-SVM -->
     <defs>
      <path d="M 53.515625 70.515625 
L 53.515625 60.890625 
Q 47.90625 63.578125 42.921875 64.890625 
Q 37.9375 66.21875 33.296875 66.21875 
Q 25.25 66.21875 20.875 63.09375 
Q 16.5 59.96875 16.5 54.203125 
Q 16.5 49.359375 19.40625 46.890625 
Q 22.3125 44.4375 30.421875 42.921875 
L 36.375 41.703125 
Q 47.40625 39.59375 52.65625 34.296875 
Q 57.90625 29 57.90625 20.125 
Q 57.90625 9.515625 50.796875 4.046875 
Q 43.703125 -1.421875 29.984375 -1.421875 
Q 24.8125 -1.421875 18.96875 -0.25 
Q 13.140625 0.921875 6.890625 3.21875 
L 6.890625 13.375 
Q 12.890625 10.015625 18.65625 8.296875 
Q 24.421875 6.59375 29.984375 6.59375 
Q 38.421875 6.59375 43.015625 9.90625 
Q 47.609375 13.234375 47.609375 19.390625 
Q 47.609375 24.75 44.3125 27.78125 
Q 41.015625 30.8125 33.5 32.328125 
L 27.484375 33.5 
Q 16.453125 35.6875 11.515625 40.375 
Q 6.59375 45.0625 6.59375 53.421875 
Q 6.59375 63.09375 13.40625 68.65625 
Q 20.21875 74.21875 32.171875 74.21875 
Q 37.3125 74.21875 42.625 73.28125 
Q 47.953125 72.359375 53.515625 70.515625 
z
" id="DejaVuSans-83"/>
      <path d="M 28.609375 0 
L 0.78125 72.90625 
L 11.078125 72.90625 
L 34.1875 11.53125 
L 57.328125 72.90625 
L 67.578125 72.90625 
L 39.796875 0 
z
" id="DejaVuSans-86"/>
      <path d="M 9.8125 72.90625 
L 24.515625 72.90625 
L 43.109375 23.296875 
L 61.8125 72.90625 
L 76.515625 72.90625 
L 76.515625 0 
L 66.890625 0 
L 66.890625 64.015625 
L 48.09375 14.015625 
L 38.1875 14.015625 
L 19.390625 64.015625 
L 19.390625 0 
L 9.8125 0 
z
" id="DejaVuSans-77"/>
     </defs>
     <g transform="translate(348.545 267.148062)scale(0.1 -0.1)">
      <use xlink:href="#DejaVuSans-79"/>
      <use x="78.710938" xlink:href="#DejaVuSans-67"/>
      <use x="148.535156" xlink:href="#DejaVuSans-45"/>
      <use x="184.619141" xlink:href="#DejaVuSans-83"/>
      <use x="248.095703" xlink:href="#DejaVuSans-86"/>
      <use x="316.503906" xlink:href="#DejaVuSans-77"/>
     </g>
    </g>
    <g id="line2d_22">
     <path d="M 320.545 278.326187 
L 340.545 278.326187 
" style="fill:none;stroke:#2ca02c;stroke-linecap:square;stroke-width:1.5;"/>
    </g>
    <g id="line2d_23"/>
    <g id="text_18">
     <!-- Gaussion-D -->
     <defs>
      <path d="M 59.515625 10.40625 
L 59.515625 29.984375 
L 43.40625 29.984375 
L 43.40625 38.09375 
L 69.28125 38.09375 
L 69.28125 6.78125 
Q 63.578125 2.734375 56.6875 0.65625 
Q 49.8125 -1.421875 42 -1.421875 
Q 24.90625 -1.421875 15.25 8.5625 
Q 5.609375 18.5625 5.609375 36.375 
Q 5.609375 54.25 15.25 64.234375 
Q 24.90625 74.21875 42 74.21875 
Q 49.125 74.21875 55.546875 72.453125 
Q 61.96875 70.703125 67.390625 67.28125 
L 67.390625 56.78125 
Q 61.921875 61.421875 55.765625 63.765625 
Q 49.609375 66.109375 42.828125 66.109375 
Q 29.4375 66.109375 22.71875 58.640625 
Q 16.015625 51.171875 16.015625 36.375 
Q 16.015625 21.625 22.71875 14.15625 
Q 29.4375 6.6875 42.828125 6.6875 
Q 48.046875 6.6875 52.140625 7.59375 
Q 56.25 8.5 59.515625 10.40625 
z
" id="DejaVuSans-71"/>
      <path d="M 54.890625 33.015625 
L 54.890625 0 
L 45.90625 0 
L 45.90625 32.71875 
Q 45.90625 40.484375 42.875 44.328125 
Q 39.84375 48.1875 33.796875 48.1875 
Q 26.515625 48.1875 22.3125 43.546875 
Q 18.109375 38.921875 18.109375 30.90625 
L 18.109375 0 
L 9.078125 0 
L 9.078125 54.6875 
L 18.109375 54.6875 
L 18.109375 46.1875 
Q 21.34375 51.125 25.703125 53.5625 
Q 30.078125 56 35.796875 56 
Q 45.21875 56 50.046875 50.171875 
Q 54.890625 44.34375 54.890625 33.015625 
z
" id="DejaVuSans-110"/>
      <path d="M 19.671875 64.796875 
L 19.671875 8.109375 
L 31.59375 8.109375 
Q 46.6875 8.109375 53.6875 14.9375 
Q 60.6875 21.78125 60.6875 36.53125 
Q 60.6875 51.171875 53.6875 57.984375 
Q 46.6875 64.796875 31.59375 64.796875 
z
M 9.8125 72.90625 
L 30.078125 72.90625 
Q 51.265625 72.90625 61.171875 64.09375 
Q 71.09375 55.28125 71.09375 36.53125 
Q 71.09375 17.671875 61.125 8.828125 
Q 51.171875 0 30.078125 0 
L 9.8125 0 
z
" id="DejaVuSans-68"/>
     </defs>
     <g transform="translate(348.545 281.826187)scale(0.1 -0.1)">
      <use xlink:href="#DejaVuSans-71"/>
      <use x="77.490234" xlink:href="#DejaVuSans-97"/>
      <use x="138.769531" xlink:href="#DejaVuSans-117"/>
      <use x="202.148438" xlink:href="#DejaVuSans-115"/>
      <use x="254.248047" xlink:href="#DejaVuSans-115"/>
      <use x="306.347656" xlink:href="#DejaVuSans-105"/>
      <use x="334.130859" xlink:href="#DejaVuSans-111"/>
      <use x="395.3125" xlink:href="#DejaVuSans-110"/>
      <use x="458.691406" xlink:href="#DejaVuSans-45"/>
      <use x="494.775391" xlink:href="#DejaVuSans-68"/>
     </g>
    </g>
    <g id="line2d_24">
     <path d="M 320.545 293.004312 
L 340.545 293.004312 
" style="fill:none;stroke:#d62728;stroke-linecap:square;stroke-width:1.5;"/>
    </g>
    <g id="line2d_25"/>
    <g id="text_19">
     <!-- LOF -->
     <defs>
      <path d="M 9.8125 72.90625 
L 19.671875 72.90625 
L 19.671875 8.296875 
L 55.171875 8.296875 
L 55.171875 0 
L 9.8125 0 
z
" id="DejaVuSans-76"/>
     </defs>
     <g transform="translate(348.545 296.504312)scale(0.1 -0.1)">
      <use xlink:href="#DejaVuSans-76"/>
      <use x="55.666016" xlink:href="#DejaVuSans-79"/>
      <use x="134.376953" xlink:href="#DejaVuSans-70"/>
     </g>
    </g>
   </g>
  </g>
 </g>
 <defs>
  <clipPath id="pb31f7ab68e">
   <rect height="266.112" width="357.12" x="57.6" y="41.472"/>
  </clipPath>
 </defs>
</svg>
