<?xml version="1.0" encoding="utf-8" standalone="no"?>
<!DOCTYPE svg PUBLIC "-//W3C//DTD SVG 1.1//EN"
  "http://www.w3.org/Graphics/SVG/1.1/DTD/svg11.dtd">
<!-- Created with matplotlib (https://matplotlib.org/) -->
<svg height="345.6pt" version="1.1" viewBox="0 0 460.8 345.6" width="460.8pt" xmlns="http://www.w3.org/2000/svg" xmlns:xlink="http://www.w3.org/1999/xlink">
 <defs>
  <style type="text/css">
*{stroke-linecap:butt;stroke-linejoin:round;}
  </style>
 </defs>
 <g id="figure_1">
  <g id="patch_1">
   <path d="M 0 345.6 
L 460.8 345.6 
L 460.8 0 
L 0 0 
z
" style="fill:#ffffff;"/>
  </g>
  <g id="axes_1">
   <g id="patch_2">
    <path d="M 57.6 307.584 
L 414.72 307.584 
L 414.72 41.472 
L 57.6 41.472 
z
" style="fill:#ffffff;"/>
   </g>
   <g id="matplotlib.axis_1">
    <g id="xtick_1">
     <g id="line2d_1">
      <defs>
       <path d="M 0 0 
L 0 3.5 
" id="m032ad5307d" style="stroke:#000000;stroke-width:0.8;"/>
      </defs>
      <g>
       <use style="stroke:#000000;stroke-width:0.8;" x="73.832727" xlink:href="#m032ad5307d" y="307.584"/>
      </g>
     </g>
     <g id="text_1">
      <!-- 0.0 -->
      <defs>
       <path d="M 31.78125 66.40625 
Q 24.171875 66.40625 20.328125 58.90625 
Q 16.5 51.421875 16.5 36.375 
Q 16.5 21.390625 20.328125 13.890625 
Q 24.171875 6.390625 31.78125 6.390625 
Q 39.453125 6.390625 43.28125 13.890625 
Q 47.125 21.390625 47.125 36.375 
Q 47.125 51.421875 43.28125 58.90625 
Q 39.453125 66.40625 31.78125 66.40625 
z
M 31.78125 74.21875 
Q 44.046875 74.21875 50.515625 64.515625 
Q 56.984375 54.828125 56.984375 36.375 
Q 56.984375 17.96875 50.515625 8.265625 
Q 44.046875 -1.421875 31.78125 -1.421875 
Q 19.53125 -1.421875 13.0625 8.265625 
Q 6.59375 17.96875 6.59375 36.375 
Q 6.59375 54.828125 13.0625 64.515625 
Q 19.53125 74.21875 31.78125 74.21875 
z
" id="DejaVuSans-48"/>
       <path d="M 10.6875 12.40625 
L 21 12.40625 
L 21 0 
L 10.6875 0 
z
" id="DejaVuSans-46"/>
      </defs>
      <g transform="translate(65.881165 322.182437)scale(0.1 -0.1)">
       <use xlink:href="#DejaVuSans-48"/>
       <use x="63.623047" xlink:href="#DejaVuSans-46"/>
       <use x="95.410156" xlink:href="#DejaVuSans-48"/>
      </g>
     </g>
    </g>
    <g id="xtick_2">
     <g id="line2d_2">
      <g>
       <use style="stroke:#000000;stroke-width:0.8;" x="138.763636" xlink:href="#m032ad5307d" y="307.584"/>
      </g>
     </g>
     <g id="text_2">
      <!-- 0.2 -->
      <defs>
       <path d="M 19.1875 8.296875 
L 53.609375 8.296875 
L 53.609375 0 
L 7.328125 0 
L 7.328125 8.296875 
Q 12.9375 14.109375 22.625 23.890625 
Q 32.328125 33.6875 34.8125 36.53125 
Q 39.546875 41.84375 41.421875 45.53125 
Q 43.3125 49.21875 43.3125 52.78125 
Q 43.3125 58.59375 39.234375 62.25 
Q 35.15625 65.921875 28.609375 65.921875 
Q 23.96875 65.921875 18.8125 64.3125 
Q 13.671875 62.703125 7.8125 59.421875 
L 7.8125 69.390625 
Q 13.765625 71.78125 18.9375 73 
Q 24.125 74.21875 28.421875 74.21875 
Q 39.75 74.21875 46.484375 68.546875 
Q 53.21875 62.890625 53.21875 53.421875 
Q 53.21875 48.921875 51.53125 44.890625 
Q 49.859375 40.875 45.40625 35.40625 
Q 44.1875 33.984375 37.640625 27.21875 
Q 31.109375 20.453125 19.1875 8.296875 
z
" id="DejaVuSans-50"/>
      </defs>
      <g transform="translate(130.812074 322.182437)scale(0.1 -0.1)">
       <use xlink:href="#DejaVuSans-48"/>
       <use x="63.623047" xlink:href="#DejaVuSans-46"/>
       <use x="95.410156" xlink:href="#DejaVuSans-50"/>
      </g>
     </g>
    </g>
    <g id="xtick_3">
     <g id="line2d_3">
      <g>
       <use style="stroke:#000000;stroke-width:0.8;" x="203.694545" xlink:href="#m032ad5307d" y="307.584"/>
      </g>
     </g>
     <g id="text_3">
      <!-- 0.4 -->
      <defs>
       <path d="M 37.796875 64.3125 
L 12.890625 25.390625 
L 37.796875 25.390625 
z
M 35.203125 72.90625 
L 47.609375 72.90625 
L 47.609375 25.390625 
L 58.015625 25.390625 
L 58.015625 17.1875 
L 47.609375 17.1875 
L 47.609375 0 
L 37.796875 0 
L 37.796875 17.1875 
L 4.890625 17.1875 
L 4.890625 26.703125 
z
" id="DejaVuSans-52"/>
      </defs>
      <g transform="translate(195.742983 322.182437)scale(0.1 -0.1)">
       <use xlink:href="#DejaVuSans-48"/>
       <use x="63.623047" xlink:href="#DejaVuSans-46"/>
       <use x="95.410156" xlink:href="#DejaVuSans-52"/>
      </g>
     </g>
    </g>
    <g id="xtick_4">
     <g id="line2d_4">
      <g>
       <use style="stroke:#000000;stroke-width:0.8;" x="268.625455" xlink:href="#m032ad5307d" y="307.584"/>
      </g>
     </g>
     <g id="text_4">
      <!-- 0.6 -->
      <defs>
       <path d="M 33.015625 40.375 
Q 26.375 40.375 22.484375 35.828125 
Q 18.609375 31.296875 18.609375 23.390625 
Q 18.609375 15.53125 22.484375 10.953125 
Q 26.375 6.390625 33.015625 6.390625 
Q 39.65625 6.390625 43.53125 10.953125 
Q 47.40625 15.53125 47.40625 23.390625 
Q 47.40625 31.296875 43.53125 35.828125 
Q 39.65625 40.375 33.015625 40.375 
z
M 52.59375 71.296875 
L 52.59375 62.3125 
Q 48.875 64.0625 45.09375 64.984375 
Q 41.3125 65.921875 37.59375 65.921875 
Q 27.828125 65.921875 22.671875 59.328125 
Q 17.53125 52.734375 16.796875 39.40625 
Q 19.671875 43.65625 24.015625 45.921875 
Q 28.375 48.1875 33.59375 48.1875 
Q 44.578125 48.1875 50.953125 41.515625 
Q 57.328125 34.859375 57.328125 23.390625 
Q 57.328125 12.15625 50.6875 5.359375 
Q 44.046875 -1.421875 33.015625 -1.421875 
Q 20.359375 -1.421875 13.671875 8.265625 
Q 6.984375 17.96875 6.984375 36.375 
Q 6.984375 53.65625 15.1875 63.9375 
Q 23.390625 74.21875 37.203125 74.21875 
Q 40.921875 74.21875 44.703125 73.484375 
Q 48.484375 72.75 52.59375 71.296875 
z
" id="DejaVuSans-54"/>
      </defs>
      <g transform="translate(260.673892 322.182437)scale(0.1 -0.1)">
       <use xlink:href="#DejaVuSans-48"/>
       <use x="63.623047" xlink:href="#DejaVuSans-46"/>
       <use x="95.410156" xlink:href="#DejaVuSans-54"/>
      </g>
     </g>
    </g>
    <g id="xtick_5">
     <g id="line2d_5">
      <g>
       <use style="stroke:#000000;stroke-width:0.8;" x="333.556364" xlink:href="#m032ad5307d" y="307.584"/>
      </g>
     </g>
     <g id="text_5">
      <!-- 0.8 -->
      <defs>
       <path d="M 31.78125 34.625 
Q 24.75 34.625 20.71875 30.859375 
Q 16.703125 27.09375 16.703125 20.515625 
Q 16.703125 13.921875 20.71875 10.15625 
Q 24.75 6.390625 31.78125 6.390625 
Q 38.8125 6.390625 42.859375 10.171875 
Q 46.921875 13.96875 46.921875 20.515625 
Q 46.921875 27.09375 42.890625 30.859375 
Q 38.875 34.625 31.78125 34.625 
z
M 21.921875 38.8125 
Q 15.578125 40.375 12.03125 44.71875 
Q 8.5 49.078125 8.5 55.328125 
Q 8.5 64.0625 14.71875 69.140625 
Q 20.953125 74.21875 31.78125 74.21875 
Q 42.671875 74.21875 48.875 69.140625 
Q 55.078125 64.0625 55.078125 55.328125 
Q 55.078125 49.078125 51.53125 44.71875 
Q 48 40.375 41.703125 38.8125 
Q 48.828125 37.15625 52.796875 32.3125 
Q 56.78125 27.484375 56.78125 20.515625 
Q 56.78125 9.90625 50.3125 4.234375 
Q 43.84375 -1.421875 31.78125 -1.421875 
Q 19.734375 -1.421875 13.25 4.234375 
Q 6.78125 9.90625 6.78125 20.515625 
Q 6.78125 27.484375 10.78125 32.3125 
Q 14.796875 37.15625 21.921875 38.8125 
z
M 18.3125 54.390625 
Q 18.3125 48.734375 21.84375 45.5625 
Q 25.390625 42.390625 31.78125 42.390625 
Q 38.140625 42.390625 41.71875 45.5625 
Q 45.3125 48.734375 45.3125 54.390625 
Q 45.3125 60.0625 41.71875 63.234375 
Q 38.140625 66.40625 31.78125 66.40625 
Q 25.390625 66.40625 21.84375 63.234375 
Q 18.3125 60.0625 18.3125 54.390625 
z
" id="DejaVuSans-56"/>
      </defs>
      <g transform="translate(325.604801 322.182437)scale(0.1 -0.1)">
       <use xlink:href="#DejaVuSans-48"/>
       <use x="63.623047" xlink:href="#DejaVuSans-46"/>
       <use x="95.410156" xlink:href="#DejaVuSans-56"/>
      </g>
     </g>
    </g>
    <g id="xtick_6">
     <g id="line2d_6">
      <g>
       <use style="stroke:#000000;stroke-width:0.8;" x="398.487273" xlink:href="#m032ad5307d" y="307.584"/>
      </g>
     </g>
     <g id="text_6">
      <!-- 1.0 -->
      <defs>
       <path d="M 12.40625 8.296875 
L 28.515625 8.296875 
L 28.515625 63.921875 
L 10.984375 60.40625 
L 10.984375 69.390625 
L 28.421875 72.90625 
L 38.28125 72.90625 
L 38.28125 8.296875 
L 54.390625 8.296875 
L 54.390625 0 
L 12.40625 0 
z
" id="DejaVuSans-49"/>
      </defs>
      <g transform="translate(390.53571 322.182437)scale(0.1 -0.1)">
       <use xlink:href="#DejaVuSans-49"/>
       <use x="63.623047" xlink:href="#DejaVuSans-46"/>
       <use x="95.410156" xlink:href="#DejaVuSans-48"/>
      </g>
     </g>
    </g>
    <g id="text_7">
     <!-- False positive rate -->
     <defs>
      <path d="M 9.8125 72.90625 
L 51.703125 72.90625 
L 51.703125 64.59375 
L 19.671875 64.59375 
L 19.671875 43.109375 
L 48.578125 43.109375 
L 48.578125 34.8125 
L 19.671875 34.8125 
L 19.671875 0 
L 9.8125 0 
z
" id="DejaVuSans-70"/>
      <path d="M 34.28125 27.484375 
Q 23.390625 27.484375 19.1875 25 
Q 14.984375 22.515625 14.984375 16.5 
Q 14.984375 11.71875 18.140625 8.90625 
Q 21.296875 6.109375 26.703125 6.109375 
Q 34.1875 6.109375 38.703125 11.40625 
Q 43.21875 16.703125 43.21875 25.484375 
L 43.21875 27.484375 
z
M 52.203125 31.203125 
L 52.203125 0 
L 43.21875 0 
L 43.21875 8.296875 
Q 40.140625 3.328125 35.546875 0.953125 
Q 30.953125 -1.421875 24.3125 -1.421875 
Q 15.921875 -1.421875 10.953125 3.296875 
Q 6 8.015625 6 15.921875 
Q 6 25.140625 12.171875 29.828125 
Q 18.359375 34.515625 30.609375 34.515625 
L 43.21875 34.515625 
L 43.21875 35.40625 
Q 43.21875 41.609375 39.140625 45 
Q 35.0625 48.390625 27.6875 48.390625 
Q 23 48.390625 18.546875 47.265625 
Q 14.109375 46.140625 10.015625 43.890625 
L 10.015625 52.203125 
Q 14.9375 54.109375 19.578125 55.046875 
Q 24.21875 56 28.609375 56 
Q 40.484375 56 46.34375 49.84375 
Q 52.203125 43.703125 52.203125 31.203125 
z
" id="DejaVuSans-97"/>
      <path d="M 9.421875 75.984375 
L 18.40625 75.984375 
L 18.40625 0 
L 9.421875 0 
z
" id="DejaVuSans-108"/>
      <path d="M 44.28125 53.078125 
L 44.28125 44.578125 
Q 40.484375 46.53125 36.375 47.5 
Q 32.28125 48.484375 27.875 48.484375 
Q 21.1875 48.484375 17.84375 46.4375 
Q 14.5 44.390625 14.5 40.28125 
Q 14.5 37.15625 16.890625 35.375 
Q 19.28125 33.59375 26.515625 31.984375 
L 29.59375 31.296875 
Q 39.15625 29.25 43.1875 25.515625 
Q 47.21875 21.78125 47.21875 15.09375 
Q 47.21875 7.46875 41.1875 3.015625 
Q 35.15625 -1.421875 24.609375 -1.421875 
Q 20.21875 -1.421875 15.453125 -0.5625 
Q 10.6875 0.296875 5.421875 2 
L 5.421875 11.28125 
Q 10.40625 8.6875 15.234375 7.390625 
Q 20.0625 6.109375 24.8125 6.109375 
Q 31.15625 6.109375 34.5625 8.28125 
Q 37.984375 10.453125 37.984375 14.40625 
Q 37.984375 18.0625 35.515625 20.015625 
Q 33.0625 21.96875 24.703125 23.78125 
L 21.578125 24.515625 
Q 13.234375 26.265625 9.515625 29.90625 
Q 5.8125 33.546875 5.8125 39.890625 
Q 5.8125 47.609375 11.28125 51.796875 
Q 16.75 56 26.8125 56 
Q 31.78125 56 36.171875 55.265625 
Q 40.578125 54.546875 44.28125 53.078125 
z
" id="DejaVuSans-115"/>
      <path d="M 56.203125 29.59375 
L 56.203125 25.203125 
L 14.890625 25.203125 
Q 15.484375 15.921875 20.484375 11.0625 
Q 25.484375 6.203125 34.421875 6.203125 
Q 39.59375 6.203125 44.453125 7.46875 
Q 49.3125 8.734375 54.109375 11.28125 
L 54.109375 2.78125 
Q 49.265625 0.734375 44.1875 -0.34375 
Q 39.109375 -1.421875 33.890625 -1.421875 
Q 20.796875 -1.421875 13.15625 6.1875 
Q 5.515625 13.8125 5.515625 26.8125 
Q 5.515625 40.234375 12.765625 48.109375 
Q 20.015625 56 32.328125 56 
Q 43.359375 56 49.78125 48.890625 
Q 56.203125 41.796875 56.203125 29.59375 
z
M 47.21875 32.234375 
Q 47.125 39.59375 43.09375 43.984375 
Q 39.0625 48.390625 32.421875 48.390625 
Q 24.90625 48.390625 20.390625 44.140625 
Q 15.875 39.890625 15.1875 32.171875 
z
" id="DejaVuSans-101"/>
      <path id="DejaVuSans-32"/>
      <path d="M 18.109375 8.203125 
L 18.109375 -20.796875 
L 9.078125 -20.796875 
L 9.078125 54.6875 
L 18.109375 54.6875 
L 18.109375 46.390625 
Q 20.953125 51.265625 25.265625 53.625 
Q 29.59375 56 35.59375 56 
Q 45.5625 56 51.78125 48.09375 
Q 58.015625 40.1875 58.015625 27.296875 
Q 58.015625 14.40625 51.78125 6.484375 
Q 45.5625 -1.421875 35.59375 -1.421875 
Q 29.59375 -1.421875 25.265625 0.953125 
Q 20.953125 3.328125 18.109375 8.203125 
z
M 48.6875 27.296875 
Q 48.6875 37.203125 44.609375 42.84375 
Q 40.53125 48.484375 33.40625 48.484375 
Q 26.265625 48.484375 22.1875 42.84375 
Q 18.109375 37.203125 18.109375 27.296875 
Q 18.109375 17.390625 22.1875 11.75 
Q 26.265625 6.109375 33.40625 6.109375 
Q 40.53125 6.109375 44.609375 11.75 
Q 48.6875 17.390625 48.6875 27.296875 
z
" id="DejaVuSans-112"/>
      <path d="M 30.609375 48.390625 
Q 23.390625 48.390625 19.1875 42.75 
Q 14.984375 37.109375 14.984375 27.296875 
Q 14.984375 17.484375 19.15625 11.84375 
Q 23.34375 6.203125 30.609375 6.203125 
Q 37.796875 6.203125 41.984375 11.859375 
Q 46.1875 17.53125 46.1875 27.296875 
Q 46.1875 37.015625 41.984375 42.703125 
Q 37.796875 48.390625 30.609375 48.390625 
z
M 30.609375 56 
Q 42.328125 56 49.015625 48.375 
Q 55.71875 40.765625 55.71875 27.296875 
Q 55.71875 13.875 49.015625 6.21875 
Q 42.328125 -1.421875 30.609375 -1.421875 
Q 18.84375 -1.421875 12.171875 6.21875 
Q 5.515625 13.875 5.515625 27.296875 
Q 5.515625 40.765625 12.171875 48.375 
Q 18.84375 56 30.609375 56 
z
" id="DejaVuSans-111"/>
      <path d="M 9.421875 54.6875 
L 18.40625 54.6875 
L 18.40625 0 
L 9.421875 0 
z
M 9.421875 75.984375 
L 18.40625 75.984375 
L 18.40625 64.59375 
L 9.421875 64.59375 
z
" id="DejaVuSans-105"/>
      <path d="M 18.3125 70.21875 
L 18.3125 54.6875 
L 36.8125 54.6875 
L 36.8125 47.703125 
L 18.3125 47.703125 
L 18.3125 18.015625 
Q 18.3125 11.328125 20.140625 9.421875 
Q 21.96875 7.515625 27.59375 7.515625 
L 36.8125 7.515625 
L 36.8125 0 
L 27.59375 0 
Q 17.1875 0 13.234375 3.875 
Q 9.28125 7.765625 9.28125 18.015625 
L 9.28125 47.703125 
L 2.6875 47.703125 
L 2.6875 54.6875 
L 9.28125 54.6875 
L 9.28125 70.21875 
z
" id="DejaVuSans-116"/>
      <path d="M 2.984375 54.6875 
L 12.5 54.6875 
L 29.59375 8.796875 
L 46.6875 54.6875 
L 56.203125 54.6875 
L 35.6875 0 
L 23.484375 0 
z
" id="DejaVuSans-118"/>
      <path d="M 41.109375 46.296875 
Q 39.59375 47.171875 37.8125 47.578125 
Q 36.03125 48 33.890625 48 
Q 26.265625 48 22.1875 43.046875 
Q 18.109375 38.09375 18.109375 28.8125 
L 18.109375 0 
L 9.078125 0 
L 9.078125 54.6875 
L 18.109375 54.6875 
L 18.109375 46.1875 
Q 20.953125 51.171875 25.484375 53.578125 
Q 30.03125 56 36.53125 56 
Q 37.453125 56 38.578125 55.875 
Q 39.703125 55.765625 41.0625 55.515625 
z
" id="DejaVuSans-114"/>
     </defs>
     <g transform="translate(190.21 335.860562)scale(0.1 -0.1)">
      <use xlink:href="#DejaVuSans-70"/>
      <use x="57.378906" xlink:href="#DejaVuSans-97"/>
      <use x="118.658203" xlink:href="#DejaVuSans-108"/>
      <use x="146.441406" xlink:href="#DejaVuSans-115"/>
      <use x="198.541016" xlink:href="#DejaVuSans-101"/>
      <use x="260.064453" xlink:href="#DejaVuSans-32"/>
      <use x="291.851562" xlink:href="#DejaVuSans-112"/>
      <use x="355.328125" xlink:href="#DejaVuSans-111"/>
      <use x="416.509766" xlink:href="#DejaVuSans-115"/>
      <use x="468.609375" xlink:href="#DejaVuSans-105"/>
      <use x="496.392578" xlink:href="#DejaVuSans-116"/>
      <use x="535.601562" xlink:href="#DejaVuSans-105"/>
      <use x="563.384766" xlink:href="#DejaVuSans-118"/>
      <use x="622.564453" xlink:href="#DejaVuSans-101"/>
      <use x="684.087891" xlink:href="#DejaVuSans-32"/>
      <use x="715.875" xlink:href="#DejaVuSans-114"/>
      <use x="756.988281" xlink:href="#DejaVuSans-97"/>
      <use x="818.267578" xlink:href="#DejaVuSans-116"/>
      <use x="857.476562" xlink:href="#DejaVuSans-101"/>
     </g>
    </g>
   </g>
   <g id="matplotlib.axis_2">
    <g id="ytick_1">
     <g id="line2d_7">
      <defs>
       <path d="M 0 0 
L -3.5 0 
" id="mfe06bdf475" style="stroke:#000000;stroke-width:0.8;"/>
      </defs>
      <g>
       <use style="stroke:#000000;stroke-width:0.8;" x="57.6" xlink:href="#mfe06bdf475" y="295.488"/>
      </g>
     </g>
     <g id="text_8">
      <!-- 0.0 -->
      <g transform="translate(34.696875 299.287219)scale(0.1 -0.1)">
       <use xlink:href="#DejaVuSans-48"/>
       <use x="63.623047" xlink:href="#DejaVuSans-46"/>
       <use x="95.410156" xlink:href="#DejaVuSans-48"/>
      </g>
     </g>
    </g>
    <g id="ytick_2">
     <g id="line2d_8">
      <g>
       <use style="stroke:#000000;stroke-width:0.8;" x="57.6" xlink:href="#mfe06bdf475" y="247.104"/>
      </g>
     </g>
     <g id="text_9">
      <!-- 0.2 -->
      <g transform="translate(34.696875 250.903219)scale(0.1 -0.1)">
       <use xlink:href="#DejaVuSans-48"/>
       <use x="63.623047" xlink:href="#DejaVuSans-46"/>
       <use x="95.410156" xlink:href="#DejaVuSans-50"/>
      </g>
     </g>
    </g>
    <g id="ytick_3">
     <g id="line2d_9">
      <g>
       <use style="stroke:#000000;stroke-width:0.8;" x="57.6" xlink:href="#mfe06bdf475" y="198.72"/>
      </g>
     </g>
     <g id="text_10">
      <!-- 0.4 -->
      <g transform="translate(34.696875 202.519219)scale(0.1 -0.1)">
       <use xlink:href="#DejaVuSans-48"/>
       <use x="63.623047" xlink:href="#DejaVuSans-46"/>
       <use x="95.410156" xlink:href="#DejaVuSans-52"/>
      </g>
     </g>
    </g>
    <g id="ytick_4">
     <g id="line2d_10">
      <g>
       <use style="stroke:#000000;stroke-width:0.8;" x="57.6" xlink:href="#mfe06bdf475" y="150.336"/>
      </g>
     </g>
     <g id="text_11">
      <!-- 0.6 -->
      <g transform="translate(34.696875 154.135219)scale(0.1 -0.1)">
       <use xlink:href="#DejaVuSans-48"/>
       <use x="63.623047" xlink:href="#DejaVuSans-46"/>
       <use x="95.410156" xlink:href="#DejaVuSans-54"/>
      </g>
     </g>
    </g>
    <g id="ytick_5">
     <g id="line2d_11">
      <g>
       <use style="stroke:#000000;stroke-width:0.8;" x="57.6" xlink:href="#mfe06bdf475" y="101.952"/>
      </g>
     </g>
     <g id="text_12">
      <!-- 0.8 -->
      <g transform="translate(34.696875 105.751219)scale(0.1 -0.1)">
       <use xlink:href="#DejaVuSans-48"/>
       <use x="63.623047" xlink:href="#DejaVuSans-46"/>
       <use x="95.410156" xlink:href="#DejaVuSans-56"/>
      </g>
     </g>
    </g>
    <g id="ytick_6">
     <g id="line2d_12">
      <g>
       <use style="stroke:#000000;stroke-width:0.8;" x="57.6" xlink:href="#mfe06bdf475" y="53.568"/>
      </g>
     </g>
     <g id="text_13">
      <!-- 1.0 -->
      <g transform="translate(34.696875 57.367219)scale(0.1 -0.1)">
       <use xlink:href="#DejaVuSans-49"/>
       <use x="63.623047" xlink:href="#DejaVuSans-46"/>
       <use x="95.410156" xlink:href="#DejaVuSans-48"/>
      </g>
     </g>
    </g>
    <g id="text_14">
     <!-- True positive rate -->
     <defs>
      <path d="M -0.296875 72.90625 
L 61.375 72.90625 
L 61.375 64.59375 
L 35.5 64.59375 
L 35.5 0 
L 25.59375 0 
L 25.59375 64.59375 
L -0.296875 64.59375 
z
" id="DejaVuSans-84"/>
      <path d="M 8.5 21.578125 
L 8.5 54.6875 
L 17.484375 54.6875 
L 17.484375 21.921875 
Q 17.484375 14.15625 20.5 10.265625 
Q 23.53125 6.390625 29.59375 6.390625 
Q 36.859375 6.390625 41.078125 11.03125 
Q 45.3125 15.671875 45.3125 23.6875 
L 45.3125 54.6875 
L 54.296875 54.6875 
L 54.296875 0 
L 45.3125 0 
L 45.3125 8.40625 
Q 42.046875 3.421875 37.71875 1 
Q 33.40625 -1.421875 27.6875 -1.421875 
Q 18.265625 -1.421875 13.375 4.4375 
Q 8.5 10.296875 8.5 21.578125 
z
M 31.109375 56 
z
" id="DejaVuSans-117"/>
     </defs>
     <g transform="translate(28.617187 218.818625)rotate(-90)scale(0.1 -0.1)">
      <use xlink:href="#DejaVuSans-84"/>
      <use x="60.865234" xlink:href="#DejaVuSans-114"/>
      <use x="101.978516" xlink:href="#DejaVuSans-117"/>
      <use x="165.357422" xlink:href="#DejaVuSans-101"/>
      <use x="226.880859" xlink:href="#DejaVuSans-32"/>
      <use x="258.667969" xlink:href="#DejaVuSans-112"/>
      <use x="322.144531" xlink:href="#DejaVuSans-111"/>
      <use x="383.326172" xlink:href="#DejaVuSans-115"/>
      <use x="435.425781" xlink:href="#DejaVuSans-105"/>
      <use x="463.208984" xlink:href="#DejaVuSans-116"/>
      <use x="502.417969" xlink:href="#DejaVuSans-105"/>
      <use x="530.201172" xlink:href="#DejaVuSans-118"/>
      <use x="589.380859" xlink:href="#DejaVuSans-101"/>
      <use x="650.904297" xlink:href="#DejaVuSans-32"/>
      <use x="682.691406" xlink:href="#DejaVuSans-114"/>
      <use x="723.804688" xlink:href="#DejaVuSans-97"/>
      <use x="785.083984" xlink:href="#DejaVuSans-116"/>
      <use x="824.292969" xlink:href="#DejaVuSans-101"/>
     </g>
    </g>
   </g>
   <g id="line2d_13">
    <path clip-path="url(#p769313404d)" d="M 73.832727 295.488 
L 398.487273 53.568 
" style="fill:none;stroke:#000000;stroke-dasharray:5.55,2.4;stroke-dashoffset:0;stroke-width:1.5;"/>
   </g>
   <g id="line2d_14">
    <path clip-path="url(#p769313404d)" d="M 73.832727 295.488 
L 73.832727 282.237965 
L 76.369091 282.237965 
L 76.369091 275.612947 
L 78.905455 275.612947 
L 78.905455 275.185527 
L 81.441818 275.185527 
L 81.441818 265.995986 
L 83.978182 265.995986 
L 83.978182 265.141145 
L 86.514545 265.141145 
L 86.514545 262.576622 
L 89.050909 262.576622 
L 89.050909 252.959661 
L 91.587273 252.959661 
L 91.587273 247.616905 
L 94.123636 247.616905 
L 94.123636 243.55641 
L 96.66 243.55641 
L 96.66 229.878954 
L 99.196364 229.878954 
L 99.196364 227.741852 
L 101.732727 227.741852 
L 101.732727 223.040226 
L 104.269091 223.040226 
L 104.269091 217.48376 
L 106.805455 217.48376 
L 106.805455 208.72164 
L 109.341818 208.72164 
L 109.341818 204.874855 
L 111.878182 204.874855 
L 111.878182 199.104678 
L 114.414545 199.104678 
L 114.414545 184.572382 
L 116.950909 184.572382 
L 116.950909 151.874714 
L 119.487273 151.874714 
L 119.487273 151.661004 
L 122.023636 151.661004 
L 122.023636 145.463406 
L 124.56 145.463406 
L 124.56 139.69323 
L 127.096364 139.69323 
L 127.096364 136.701286 
L 132.169091 136.701286 
L 132.169091 135.632735 
L 134.705455 135.632735 
L 134.705455 134.350473 
L 137.241818 134.350473 
L 137.241818 133.923053 
L 139.778182 133.923053 
L 139.778182 133.495633 
L 142.314545 133.495633 
L 142.314545 129.007717 
L 144.850909 129.007717 
L 144.850909 128.580297 
L 147.387273 128.580297 
L 147.387273 124.947223 
L 149.923636 124.947223 
L 149.923636 121.527859 
L 152.46 121.527859 
L 152.46 117.681074 
L 154.996364 117.681074 
L 154.996364 114.689131 
L 157.532727 114.689131 
L 157.532727 111.056057 
L 160.069091 111.056057 
L 160.069091 110.842346 
L 162.605455 110.842346 
L 162.605455 106.995562 
L 165.141818 106.995562 
L 165.141818 106.568141 
L 167.678182 106.568141 
L 167.678182 106.354431 
L 170.214545 106.354431 
L 170.214545 104.644749 
L 172.750909 104.644749 
L 172.750909 102.293936 
L 175.287273 102.293936 
L 175.287273 96.95118 
L 177.823636 96.95118 
L 177.823636 84.769696 
L 180.36 84.769696 
L 180.36 82.632594 
L 182.896364 82.632594 
L 182.896364 82.205173 
L 185.432727 82.205173 
L 185.432727 81.991463 
L 187.969091 81.991463 
L 187.969091 77.503548 
L 190.505455 77.503548 
L 190.505455 77.076127 
L 193.041818 77.076127 
L 193.041818 75.793866 
L 195.578182 75.793866 
L 195.578182 74.297894 
L 198.114545 74.297894 
L 198.114545 72.801922 
L 200.650909 72.801922 
L 200.650909 72.160792 
L 205.723636 72.160792 
L 205.723636 69.168848 
L 208.26 69.168848 
L 208.26 67.886587 
L 210.796364 67.886587 
L 210.796364 66.390615 
L 213.332727 66.390615 
L 213.332727 65.963194 
L 215.869091 65.963194 
L 215.869091 65.749484 
L 218.405455 65.749484 
L 218.405455 65.535774 
L 220.941818 65.535774 
L 220.941818 64.467223 
L 233.623636 64.467223 
L 233.623636 64.253512 
L 238.696364 64.253512 
L 238.696364 64.039802 
L 243.769091 64.039802 
L 243.769091 63.826092 
L 246.305455 63.826092 
L 246.305455 63.398671 
L 258.987273 63.398671 
L 258.987273 62.33012 
L 261.523636 62.33012 
L 261.523636 61.688989 
L 264.06 61.688989 
L 264.06 61.475279 
L 266.596364 61.475279 
L 266.596364 61.261569 
L 269.132727 61.261569 
L 269.132727 61.047859 
L 271.669091 61.047859 
L 271.669091 60.193018 
L 274.205455 60.193018 
L 274.205455 59.338177 
L 279.278182 59.338177 
L 279.278182 58.269625 
L 281.814545 58.269625 
L 281.814545 58.055915 
L 284.350909 58.055915 
L 284.350909 57.628495 
L 291.96 57.628495 
L 291.96 57.414784 
L 304.641818 57.414784 
L 304.641818 57.201074 
L 314.787273 57.201074 
L 314.787273 56.987364 
L 319.86 56.987364 
L 319.86 56.132523 
L 327.469091 56.132523 
L 327.469091 55.918813 
L 335.078182 55.918813 
L 335.078182 55.705102 
L 345.223636 55.705102 
L 345.223636 55.491392 
L 352.832727 55.491392 
L 352.832727 55.277682 
L 360.441818 55.277682 
L 360.441818 54.850261 
L 365.514545 54.850261 
L 365.514545 54.636551 
L 370.587273 54.636551 
L 370.587273 54.422841 
L 378.196364 54.422841 
L 378.196364 53.99542 
L 383.269091 53.99542 
L 383.269091 53.78171 
L 395.950909 53.78171 
L 395.950909 53.568 
L 398.487273 53.568 
L 398.487273 53.568 
" style="fill:none;stroke:#1f77b4;stroke-linecap:square;stroke-width:1.5;"/>
   </g>
   <g id="line2d_15">
    <path clip-path="url(#p769313404d)" d="M 73.832727 295.488 
L 73.832727 288.221852 
L 76.369091 288.221852 
L 76.369091 260.225809 
L 78.905455 260.225809 
L 78.905455 249.967717 
L 81.441818 249.967717 
L 81.441818 244.197541 
L 83.978182 244.197541 
L 83.978182 242.487859 
L 86.514545 242.487859 
L 86.514545 225.177329 
L 89.050909 225.177329 
L 89.050909 216.842629 
L 91.587273 216.842629 
L 91.587273 193.761922 
L 94.123636 193.761922 
L 94.123636 190.983689 
L 96.66 190.983689 
L 96.66 182.8627 
L 99.196364 182.8627 
L 99.196364 181.580438 
L 101.732727 181.580438 
L 101.732727 180.298177 
L 104.269091 180.298177 
L 104.269091 170.040085 
L 106.805455 170.040085 
L 106.805455 169.185244 
L 109.341818 169.185244 
L 109.341818 168.757823 
L 111.878182 168.757823 
L 111.878182 167.475562 
L 114.414545 167.475562 
L 114.414545 160.209413 
L 116.950909 160.209413 
L 116.950909 159.781993 
L 119.487273 159.781993 
L 119.487273 157.00376 
L 122.023636 157.00376 
L 122.023636 151.661004 
L 124.56 151.661004 
L 124.56 149.737611 
L 127.096364 149.737611 
L 127.096364 145.463406 
L 129.632727 145.463406 
L 129.632727 139.052099 
L 132.169091 139.052099 
L 132.169091 138.624678 
L 134.705455 138.624678 
L 134.705455 137.342417 
L 137.241818 137.342417 
L 137.241818 134.350473 
L 139.778182 134.350473 
L 139.778182 131.35853 
L 142.314545 131.35853 
L 142.314545 125.160933 
L 147.387273 125.160933 
L 147.387273 120.886728 
L 149.923636 120.886728 
L 149.923636 118.963336 
L 152.46 118.963336 
L 152.46 117.253654 
L 154.996364 117.253654 
L 154.996364 113.83429 
L 160.069091 113.83429 
L 160.069091 113.406869 
L 162.605455 113.406869 
L 162.605455 109.346375 
L 165.141818 109.346375 
L 165.141818 108.705244 
L 167.678182 108.705244 
L 167.678182 102.935067 
L 170.214545 102.935067 
L 170.214545 100.797965 
L 172.750909 100.797965 
L 172.750909 99.088283 
L 175.287273 99.088283 
L 175.287273 95.668919 
L 177.823636 95.668919 
L 177.823636 91.181004 
L 180.36 91.181004 
L 180.36 90.967293 
L 182.896364 90.967293 
L 182.896364 90.326163 
L 185.432727 90.326163 
L 185.432727 89.898742 
L 190.505455 89.898742 
L 190.505455 89.685032 
L 193.041818 89.685032 
L 193.041818 89.471322 
L 195.578182 89.471322 
L 195.578182 88.616481 
L 198.114545 88.616481 
L 198.114545 87.547929 
L 200.650909 87.547929 
L 200.650909 86.479378 
L 203.187273 86.479378 
L 203.187273 84.342276 
L 205.723636 84.342276 
L 205.723636 83.914855 
L 208.26 83.914855 
L 208.26 82.418883 
L 213.332727 82.418883 
L 213.332727 81.991463 
L 215.869091 81.991463 
L 215.869091 81.350332 
L 218.405455 81.350332 
L 218.405455 81.136622 
L 220.941818 81.136622 
L 220.941818 80.709201 
L 223.478182 80.709201 
L 223.478182 80.495491 
L 226.014545 80.495491 
L 226.014545 79.85436 
L 228.550909 79.85436 
L 228.550909 79.42694 
L 233.623636 79.42694 
L 233.623636 78.785809 
L 236.16 78.785809 
L 236.16 78.144678 
L 243.769091 78.144678 
L 243.769091 77.930968 
L 246.305455 77.930968 
L 246.305455 77.503548 
L 248.841818 77.503548 
L 248.841818 76.434996 
L 251.378182 76.434996 
L 251.378182 76.007576 
L 253.914545 76.007576 
L 253.914545 75.793866 
L 258.987273 75.793866 
L 258.987273 74.939025 
L 261.523636 74.939025 
L 261.523636 74.725314 
L 264.06 74.725314 
L 264.06 74.511604 
L 266.596364 74.511604 
L 266.596364 74.084184 
L 269.132727 74.084184 
L 269.132727 73.443053 
L 271.669091 73.443053 
L 271.669091 73.015633 
L 274.205455 73.015633 
L 274.205455 72.588212 
L 276.741818 72.588212 
L 276.741818 72.160792 
L 279.278182 72.160792 
L 279.278182 71.947081 
L 284.350909 71.947081 
L 284.350909 71.09224 
L 286.887273 71.09224 
L 286.887273 70.45111 
L 291.96 70.45111 
L 291.96 68.314007 
L 294.496364 68.314007 
L 294.496364 68.100297 
L 297.032727 68.100297 
L 297.032727 67.672876 
L 299.569091 67.672876 
L 299.569091 67.459166 
L 302.105455 67.459166 
L 302.105455 66.604325 
L 304.641818 66.604325 
L 304.641818 65.963194 
L 309.714545 65.963194 
L 309.714545 65.322064 
L 312.250909 65.322064 
L 312.250909 64.894643 
L 314.787273 64.894643 
L 314.787273 64.467223 
L 317.323636 64.467223 
L 317.323636 63.184961 
L 319.86 63.184961 
L 319.86 62.971251 
L 322.396364 62.971251 
L 322.396364 62.54383 
L 324.932727 62.54383 
L 324.932727 61.688989 
L 332.541818 61.688989 
L 332.541818 61.261569 
L 335.078182 61.261569 
L 335.078182 60.406728 
L 337.614545 60.406728 
L 337.614545 59.979307 
L 340.150909 59.979307 
L 340.150909 59.551887 
L 342.687273 59.551887 
L 342.687273 59.124466 
L 350.296364 59.124466 
L 350.296364 58.269625 
L 352.832727 58.269625 
L 352.832727 57.414784 
L 357.905455 57.414784 
L 357.905455 55.705102 
L 360.441818 55.705102 
L 360.441818 54.850261 
L 362.978182 54.850261 
L 362.978182 54.636551 
L 370.587273 54.636551 
L 370.587273 54.422841 
L 373.123636 54.422841 
L 373.123636 54.209131 
L 380.732727 54.209131 
L 380.732727 53.99542 
L 383.269091 53.99542 
L 383.269091 53.78171 
L 395.950909 53.78171 
L 395.950909 53.568 
L 398.487273 53.568 
L 398.487273 53.568 
" style="fill:none;stroke:#ff7f0e;stroke-linecap:square;stroke-width:1.5;"/>
   </g>
   <g id="line2d_16">
    <path clip-path="url(#p769313404d)" d="M 73.832727 295.488 
L 73.832727 210.645032 
L 76.369091 210.645032 
L 76.369091 132.640792 
L 78.905455 132.640792 
L 78.905455 131.785951 
L 81.441818 131.785951 
L 81.441818 122.3827 
L 83.978182 122.3827 
L 83.978182 118.108495 
L 86.514545 118.108495 
L 86.514545 117.681074 
L 89.050909 117.681074 
L 89.050909 112.338318 
L 91.587273 112.338318 
L 91.587273 110.628636 
L 94.123636 110.628636 
L 94.123636 106.354431 
L 96.66 106.354431 
L 96.66 100.370544 
L 99.196364 100.370544 
L 99.196364 96.73747 
L 101.732727 96.73747 
L 101.732727 93.745527 
L 104.269091 93.745527 
L 104.269091 89.685032 
L 106.805455 89.685032 
L 106.805455 88.40277 
L 109.341818 88.40277 
L 109.341818 86.051958 
L 111.878182 86.051958 
L 111.878182 83.914855 
L 114.414545 83.914855 
L 114.414545 82.632594 
L 116.950909 82.632594 
L 116.950909 81.991463 
L 122.023636 81.991463 
L 122.023636 81.136622 
L 124.56 81.136622 
L 124.56 80.922912 
L 127.096364 80.922912 
L 127.096364 79.64065 
L 134.705455 79.64065 
L 134.705455 78.358389 
L 137.241818 78.358389 
L 137.241818 78.144678 
L 144.850909 78.144678 
L 144.850909 77.717258 
L 149.923636 77.717258 
L 149.923636 77.289837 
L 157.532727 77.289837 
L 157.532727 76.862417 
L 160.069091 76.862417 
L 160.069091 76.648707 
L 162.605455 76.648707 
L 162.605455 75.580155 
L 165.141818 75.580155 
L 165.141818 74.939025 
L 167.678182 74.939025 
L 167.678182 73.870473 
L 170.214545 73.870473 
L 170.214545 73.656763 
L 172.750909 73.656763 
L 172.750909 72.374502 
L 182.896364 72.374502 
L 182.896364 72.160792 
L 185.432727 72.160792 
L 185.432727 69.596269 
L 187.969091 69.596269 
L 187.969091 69.168848 
L 190.505455 69.168848 
L 190.505455 68.100297 
L 195.578182 68.100297 
L 195.578182 67.031746 
L 203.187273 67.031746 
L 203.187273 66.604325 
L 205.723636 66.604325 
L 205.723636 65.963194 
L 208.26 65.963194 
L 208.26 65.322064 
L 210.796364 65.322064 
L 210.796364 64.039802 
L 213.332727 64.039802 
L 213.332727 63.826092 
L 215.869091 63.826092 
L 215.869091 63.398671 
L 220.941818 63.398671 
L 220.941818 62.757541 
L 228.550909 62.757541 
L 228.550909 62.11641 
L 231.087273 62.11641 
L 231.087273 61.9027 
L 233.623636 61.9027 
L 233.623636 61.688989 
L 238.696364 61.688989 
L 238.696364 60.620438 
L 241.232727 60.620438 
L 241.232727 59.979307 
L 251.378182 59.979307 
L 251.378182 59.551887 
L 253.914545 59.551887 
L 253.914545 59.338177 
L 256.450909 59.338177 
L 256.450909 58.697046 
L 258.987273 58.697046 
L 258.987273 58.483336 
L 269.132727 58.483336 
L 269.132727 58.055915 
L 271.669091 58.055915 
L 271.669091 56.773654 
L 276.741818 56.773654 
L 276.741818 56.559943 
L 281.814545 56.559943 
L 281.814545 56.346233 
L 291.96 56.346233 
L 291.96 56.132523 
L 294.496364 56.132523 
L 294.496364 55.918813 
L 297.032727 55.918813 
L 297.032727 55.705102 
L 317.323636 55.705102 
L 317.323636 55.491392 
L 322.396364 55.491392 
L 322.396364 54.422841 
L 324.932727 54.422841 
L 324.932727 54.209131 
L 327.469091 54.209131 
L 327.469091 53.99542 
L 332.541818 53.99542 
L 332.541818 53.568 
L 398.487273 53.568 
L 398.487273 53.568 
" style="fill:none;stroke:#2ca02c;stroke-linecap:square;stroke-width:1.5;"/>
   </g>
   <g id="line2d_17">
    <path clip-path="url(#p769313404d)" d="M 73.832727 295.488 
L 73.832727 249.112876 
L 76.369091 249.112876 
L 76.369091 237.145102 
L 78.905455 237.145102 
L 78.905455 212.995845 
L 81.441818 212.995845 
L 81.441818 211.713583 
L 83.978182 211.713583 
L 83.978182 198.036127 
L 86.514545 198.036127 
L 86.514545 197.181286 
L 89.050909 197.181286 
L 89.050909 192.265951 
L 91.587273 192.265951 
L 91.587273 189.060297 
L 94.123636 189.060297 
L 94.123636 180.939307 
L 96.66 180.939307 
L 96.66 179.229625 
L 99.196364 179.229625 
L 99.196364 178.802205 
L 101.732727 178.802205 
L 101.732727 178.588495 
L 104.269091 178.588495 
L 104.269091 176.878813 
L 106.805455 176.878813 
L 106.805455 170.681216 
L 109.341818 170.681216 
L 109.341818 169.826375 
L 111.878182 169.826375 
L 111.878182 168.544113 
L 114.414545 168.544113 
L 114.414545 168.116693 
L 116.950909 168.116693 
L 116.950909 166.834431 
L 119.487273 166.834431 
L 119.487273 166.1933 
L 122.023636 166.1933 
L 122.023636 164.911039 
L 124.56 164.911039 
L 124.56 164.056198 
L 127.096364 164.056198 
L 127.096364 158.499731 
L 129.632727 158.499731 
L 129.632727 158.286021 
L 132.169091 158.286021 
L 132.169091 157.858601 
L 134.705455 157.858601 
L 134.705455 151.661004 
L 137.241818 151.661004 
L 137.241818 150.592452 
L 139.778182 150.592452 
L 139.778182 149.523901 
L 142.314545 149.523901 
L 142.314545 149.310191 
L 144.850909 149.310191 
L 144.850909 147.600509 
L 147.387273 147.600509 
L 147.387273 145.463406 
L 149.923636 145.463406 
L 149.923636 145.249696 
L 152.46 145.249696 
L 152.46 142.257753 
L 154.996364 142.257753 
L 154.996364 136.701286 
L 157.532727 136.701286 
L 157.532727 134.564184 
L 160.069091 134.564184 
L 160.069091 133.281922 
L 162.605455 133.281922 
L 162.605455 131.14482 
L 165.141818 131.14482 
L 165.141818 130.93111 
L 167.678182 130.93111 
L 167.678182 129.435138 
L 170.214545 129.435138 
L 170.214545 127.939166 
L 172.750909 127.939166 
L 172.750909 126.229484 
L 175.287273 126.229484 
L 175.287273 125.374643 
L 177.823636 125.374643 
L 177.823636 120.245597 
L 180.36 120.245597 
L 180.36 116.612523 
L 182.896364 116.612523 
L 182.896364 114.048 
L 185.432727 114.048 
L 185.432727 113.406869 
L 190.505455 113.406869 
L 190.505455 111.910898 
L 193.041818 111.910898 
L 193.041818 111.697187 
L 198.114545 111.697187 
L 198.114545 109.773795 
L 200.650909 109.773795 
L 200.650909 108.705244 
L 203.187273 108.705244 
L 203.187273 107.636693 
L 205.723636 107.636693 
L 205.723636 96.310049 
L 208.26 96.310049 
L 208.26 94.172947 
L 210.796364 94.172947 
L 210.796364 93.745527 
L 213.332727 93.745527 
L 213.332727 93.531816 
L 218.405455 93.531816 
L 218.405455 92.890686 
L 220.941818 92.890686 
L 220.941818 92.249555 
L 223.478182 92.249555 
L 223.478182 91.181004 
L 226.014545 91.181004 
L 226.014545 89.685032 
L 228.550909 89.685032 
L 228.550909 89.471322 
L 231.087273 89.471322 
L 231.087273 89.043901 
L 233.623636 89.043901 
L 233.623636 88.830191 
L 236.16 88.830191 
L 236.16 86.906799 
L 241.232727 86.906799 
L 241.232727 86.693088 
L 246.305455 86.693088 
L 246.305455 85.838247 
L 248.841818 85.838247 
L 248.841818 85.624537 
L 251.378182 85.624537 
L 251.378182 85.197117 
L 253.914545 85.197117 
L 253.914545 82.846304 
L 256.450909 82.846304 
L 256.450909 82.418883 
L 258.987273 82.418883 
L 258.987273 81.777753 
L 261.523636 81.777753 
L 261.523636 81.136622 
L 264.06 81.136622 
L 264.06 80.495491 
L 266.596364 80.495491 
L 266.596364 80.281781 
L 269.132727 80.281781 
L 269.132727 79.42694 
L 271.669091 79.42694 
L 271.669091 78.572099 
L 274.205455 78.572099 
L 274.205455 78.144678 
L 279.278182 78.144678 
L 279.278182 77.930968 
L 284.350909 77.930968 
L 284.350909 76.648707 
L 286.887273 76.648707 
L 286.887273 76.434996 
L 289.423636 76.434996 
L 289.423636 75.580155 
L 297.032727 75.580155 
L 297.032727 75.366445 
L 302.105455 75.366445 
L 302.105455 75.152735 
L 307.178182 75.152735 
L 307.178182 74.939025 
L 309.714545 74.939025 
L 309.714545 73.870473 
L 312.250909 73.870473 
L 312.250909 70.66482 
L 314.787273 70.66482 
L 314.787273 70.237399 
L 317.323636 70.237399 
L 317.323636 68.314007 
L 319.86 68.314007 
L 319.86 66.818035 
L 327.469091 66.818035 
L 327.469091 66.176905 
L 330.005455 66.176905 
L 330.005455 64.894643 
L 332.541818 64.894643 
L 332.541818 63.398671 
L 335.078182 63.398671 
L 335.078182 62.757541 
L 337.614545 62.757541 
L 337.614545 62.54383 
L 340.150909 62.54383 
L 340.150909 61.9027 
L 342.687273 61.9027 
L 342.687273 61.475279 
L 350.296364 61.475279 
L 350.296364 60.620438 
L 352.832727 60.620438 
L 352.832727 56.987364 
L 355.369091 56.987364 
L 355.369091 56.559943 
L 357.905455 56.559943 
L 357.905455 55.063972 
L 360.441818 55.063972 
L 360.441818 54.636551 
L 365.514545 54.636551 
L 365.514545 54.422841 
L 368.050909 54.422841 
L 368.050909 53.78171 
L 370.587273 53.78171 
L 370.587273 53.568 
L 398.487273 53.568 
L 398.487273 53.568 
" style="fill:none;stroke:#d62728;stroke-linecap:square;stroke-width:1.5;"/>
   </g>
   <g id="patch_3">
    <path d="M 57.6 307.584 
L 57.6 41.472 
" style="fill:none;stroke:#000000;stroke-linecap:square;stroke-linejoin:miter;stroke-width:0.8;"/>
   </g>
   <g id="patch_4">
    <path d="M 414.72 307.584 
L 414.72 41.472 
" style="fill:none;stroke:#000000;stroke-linecap:square;stroke-linejoin:miter;stroke-width:0.8;"/>
   </g>
   <g id="patch_5">
    <path d="M 57.6 307.584 
L 414.72 307.584 
" style="fill:none;stroke:#000000;stroke-linecap:square;stroke-linejoin:miter;stroke-width:0.8;"/>
   </g>
   <g id="patch_6">
    <path d="M 57.6 41.472 
L 414.72 41.472 
" style="fill:none;stroke:#000000;stroke-linecap:square;stroke-linejoin:miter;stroke-width:0.8;"/>
   </g>
   <g id="text_15">
    <!-- Gabor ROC -->
    <defs>
     <path d="M 59.515625 10.40625 
L 59.515625 29.984375 
L 43.40625 29.984375 
L 43.40625 38.09375 
L 69.28125 38.09375 
L 69.28125 6.78125 
Q 63.578125 2.734375 56.6875 0.65625 
Q 49.8125 -1.421875 42 -1.421875 
Q 24.90625 -1.421875 15.25 8.5625 
Q 5.609375 18.5625 5.609375 36.375 
Q 5.609375 54.25 15.25 64.234375 
Q 24.90625 74.21875 42 74.21875 
Q 49.125 74.21875 55.546875 72.453125 
Q 61.96875 70.703125 67.390625 67.28125 
L 67.390625 56.78125 
Q 61.921875 61.421875 55.765625 63.765625 
Q 49.609375 66.109375 42.828125 66.109375 
Q 29.4375 66.109375 22.71875 58.640625 
Q 16.015625 51.171875 16.015625 36.375 
Q 16.015625 21.625 22.71875 14.15625 
Q 29.4375 6.6875 42.828125 6.6875 
Q 48.046875 6.6875 52.140625 7.59375 
Q 56.25 8.5 59.515625 10.40625 
z
" id="DejaVuSans-71"/>
     <path d="M 48.6875 27.296875 
Q 48.6875 37.203125 44.609375 42.84375 
Q 40.53125 48.484375 33.40625 48.484375 
Q 26.265625 48.484375 22.1875 42.84375 
Q 18.109375 37.203125 18.109375 27.296875 
Q 18.109375 17.390625 22.1875 11.75 
Q 26.265625 6.109375 33.40625 6.109375 
Q 40.53125 6.109375 44.609375 11.75 
Q 48.6875 17.390625 48.6875 27.296875 
z
M 18.109375 46.390625 
Q 20.953125 51.265625 25.265625 53.625 
Q 29.59375 56 35.59375 56 
Q 45.5625 56 51.78125 48.09375 
Q 58.015625 40.1875 58.015625 27.296875 
Q 58.015625 14.40625 51.78125 6.484375 
Q 45.5625 -1.421875 35.59375 -1.421875 
Q 29.59375 -1.421875 25.265625 0.953125 
Q 20.953125 3.328125 18.109375 8.203125 
L 18.109375 0 
L 9.078125 0 
L 9.078125 75.984375 
L 18.109375 75.984375 
z
" id="DejaVuSans-98"/>
     <path d="M 44.390625 34.1875 
Q 47.5625 33.109375 50.5625 29.59375 
Q 53.5625 26.078125 56.59375 19.921875 
L 66.609375 0 
L 56 0 
L 46.6875 18.703125 
Q 43.0625 26.03125 39.671875 28.421875 
Q 36.28125 30.8125 30.421875 30.8125 
L 19.671875 30.8125 
L 19.671875 0 
L 9.8125 0 
L 9.8125 72.90625 
L 32.078125 72.90625 
Q 44.578125 72.90625 50.734375 67.671875 
Q 56.890625 62.453125 56.890625 51.90625 
Q 56.890625 45.015625 53.6875 40.46875 
Q 50.484375 35.9375 44.390625 34.1875 
z
M 19.671875 64.796875 
L 19.671875 38.921875 
L 32.078125 38.921875 
Q 39.203125 38.921875 42.84375 42.21875 
Q 46.484375 45.515625 46.484375 51.90625 
Q 46.484375 58.296875 42.84375 61.546875 
Q 39.203125 64.796875 32.078125 64.796875 
z
" id="DejaVuSans-82"/>
     <path d="M 39.40625 66.21875 
Q 28.65625 66.21875 22.328125 58.203125 
Q 16.015625 50.203125 16.015625 36.375 
Q 16.015625 22.609375 22.328125 14.59375 
Q 28.65625 6.59375 39.40625 6.59375 
Q 50.140625 6.59375 56.421875 14.59375 
Q 62.703125 22.609375 62.703125 36.375 
Q 62.703125 50.203125 56.421875 58.203125 
Q 50.140625 66.21875 39.40625 66.21875 
z
M 39.40625 74.21875 
Q 54.734375 74.21875 63.90625 63.9375 
Q 73.09375 53.65625 73.09375 36.375 
Q 73.09375 19.140625 63.90625 8.859375 
Q 54.734375 -1.421875 39.40625 -1.421875 
Q 24.03125 -1.421875 14.8125 8.828125 
Q 5.609375 19.09375 5.609375 36.375 
Q 5.609375 53.65625 14.8125 63.9375 
Q 24.03125 74.21875 39.40625 74.21875 
z
" id="DejaVuSans-79"/>
     <path d="M 64.40625 67.28125 
L 64.40625 56.890625 
Q 59.421875 61.53125 53.78125 63.8125 
Q 48.140625 66.109375 41.796875 66.109375 
Q 29.296875 66.109375 22.65625 58.46875 
Q 16.015625 50.828125 16.015625 36.375 
Q 16.015625 21.96875 22.65625 14.328125 
Q 29.296875 6.6875 41.796875 6.6875 
Q 48.140625 6.6875 53.78125 8.984375 
Q 59.421875 11.28125 64.40625 15.921875 
L 64.40625 5.609375 
Q 59.234375 2.09375 53.4375 0.328125 
Q 47.65625 -1.421875 41.21875 -1.421875 
Q 24.65625 -1.421875 15.125 8.703125 
Q 5.609375 18.84375 5.609375 36.375 
Q 5.609375 53.953125 15.125 64.078125 
Q 24.65625 74.21875 41.21875 74.21875 
Q 47.75 74.21875 53.53125 72.484375 
Q 59.328125 70.75 64.40625 67.28125 
z
" id="DejaVuSans-67"/>
    </defs>
    <g transform="translate(202.898438 35.472)scale(0.12 -0.12)">
     <use xlink:href="#DejaVuSans-71"/>
     <use x="77.490234" xlink:href="#DejaVuSans-97"/>
     <use x="138.769531" xlink:href="#DejaVuSans-98"/>
     <use x="202.246094" xlink:href="#DejaVuSans-111"/>
     <use x="263.427734" xlink:href="#DejaVuSans-114"/>
     <use x="304.541016" xlink:href="#DejaVuSans-32"/>
     <use x="336.328125" xlink:href="#DejaVuSans-82"/>
     <use x="405.810547" xlink:href="#DejaVuSans-79"/>
     <use x="484.521484" xlink:href="#DejaVuSans-67"/>
    </g>
   </g>
   <g id="legend_1">
    <g id="patch_7">
     <path d="M 318.545 302.584 
L 407.72 302.584 
Q 409.72 302.584 409.72 300.584 
L 409.72 242.8715 
Q 409.72 240.8715 407.72 240.8715 
L 318.545 240.8715 
Q 316.545 240.8715 316.545 242.8715 
L 316.545 300.584 
Q 316.545 302.584 318.545 302.584 
z
" style="fill:#ffffff;opacity:0.8;stroke:#cccccc;stroke-linejoin:miter;"/>
    </g>
    <g id="line2d_18">
     <path d="M 320.545 248.969937 
L 340.545 248.969937 
" style="fill:none;stroke:#1f77b4;stroke-linecap:square;stroke-width:1.5;"/>
    </g>
    <g id="line2d_19"/>
    <g id="text_16">
     <!-- iForest -->
     <g transform="translate(348.545 252.469937)scale(0.1 -0.1)">
      <use xlink:href="#DejaVuSans-105"/>
      <use x="27.783203" xlink:href="#DejaVuSans-70"/>
      <use x="85.255859" xlink:href="#DejaVuSans-111"/>
      <use x="146.4375" xlink:href="#DejaVuSans-114"/>
      <use x="187.519531" xlink:href="#DejaVuSans-101"/>
      <use x="249.042969" xlink:href="#DejaVuSans-115"/>
      <use x="301.142578" xlink:href="#DejaVuSans-116"/>
     </g>
    </g>
    <g id="line2d_20">
     <path d="M 320.545 263.648062 
L 340.545 263.648062 
" style="fill:none;stroke:#ff7f0e;stroke-linecap:square;stroke-width:1.5;"/>
    </g>
    <g id="line2d_21"/>
    <g id="text_17">
     <!-- OC-SVM -->
     <defs>
      <path d="M 4.890625 31.390625 
L 31.203125 31.390625 
L 31.203125 23.390625 
L 4.890625 23.390625 
z
" id="DejaVuSans-45"/>
      <path d="M 53.515625 70.515625 
L 53.515625 60.890625 
Q 47.90625 63.578125 42.921875 64.890625 
Q 37.9375 66.21875 33.296875 66.21875 
Q 25.25 66.21875 20.875 63.09375 
Q 16.5 59.96875 16.5 54.203125 
Q 16.5 49.359375 19.40625 46.890625 
Q 22.3125 44.4375 30.421875 42.921875 
L 36.375 41.703125 
Q 47.40625 39.59375 52.65625 34.296875 
Q 57.90625 29 57.90625 20.125 
Q 57.90625 9.515625 50.796875 4.046875 
Q 43.703125 -1.421875 29.984375 -1.421875 
Q 24.8125 -1.421875 18.96875 -0.25 
Q 13.140625 0.921875 6.890625 3.21875 
L 6.890625 13.375 
Q 12.890625 10.015625 18.65625 8.296875 
Q 24.421875 6.59375 29.984375 6.59375 
Q 38.421875 6.59375 43.015625 9.90625 
Q 47.609375 13.234375 47.609375 19.390625 
Q 47.609375 24.75 44.3125 27.78125 
Q 41.015625 30.8125 33.5 32.328125 
L 27.484375 33.5 
Q 16.453125 35.6875 11.515625 40.375 
Q 6.59375 45.0625 6.59375 53.421875 
Q 6.59375 63.09375 13.40625 68.65625 
Q 20.21875 74.21875 32.171875 74.21875 
Q 37.3125 74.21875 42.625 73.28125 
Q 47.953125 72.359375 53.515625 70.515625 
z
" id="DejaVuSans-83"/>
      <path d="M 28.609375 0 
L 0.78125 72.90625 
L 11.078125 72.90625 
L 34.1875 11.53125 
L 57.328125 72.90625 
L 67.578125 72.90625 
L 39.796875 0 
z
" id="DejaVuSans-86"/>
      <path d="M 9.8125 72.90625 
L 24.515625 72.90625 
L 43.109375 23.296875 
L 61.8125 72.90625 
L 76.515625 72.90625 
L 76.515625 0 
L 66.890625 0 
L 66.890625 64.015625 
L 48.09375 14.015625 
L 38.1875 14.015625 
L 19.390625 64.015625 
L 19.390625 0 
L 9.8125 0 
z
" id="DejaVuSans-77"/>
     </defs>
     <g transform="translate(348.545 267.148062)scale(0.1 -0.1)">
      <use xlink:href="#DejaVuSans-79"/>
      <use x="78.710938" xlink:href="#DejaVuSans-67"/>
      <use x="148.535156" xlink:href="#DejaVuSans-45"/>
      <use x="184.619141" xlink:href="#DejaVuSans-83"/>
      <use x="248.095703" xlink:href="#DejaVuSans-86"/>
      <use x="316.503906" xlink:href="#DejaVuSans-77"/>
     </g>
    </g>
    <g id="line2d_22">
     <path d="M 320.545 278.326187 
L 340.545 278.326187 
" style="fill:none;stroke:#2ca02c;stroke-linecap:square;stroke-width:1.5;"/>
    </g>
    <g id="line2d_23"/>
    <g id="text_18">
     <!-- Gaussion-D -->
     <defs>
      <path d="M 54.890625 33.015625 
L 54.890625 0 
L 45.90625 0 
L 45.90625 32.71875 
Q 45.90625 40.484375 42.875 44.328125 
Q 39.84375 48.1875 33.796875 48.1875 
Q 26.515625 48.1875 22.3125 43.546875 
Q 18.109375 38.921875 18.109375 30.90625 
L 18.109375 0 
L 9.078125 0 
L 9.078125 54.6875 
L 18.109375 54.6875 
L 18.109375 46.1875 
Q 21.34375 51.125 25.703125 53.5625 
Q 30.078125 56 35.796875 56 
Q 45.21875 56 50.046875 50.171875 
Q 54.890625 44.34375 54.890625 33.015625 
z
" id="DejaVuSans-110"/>
      <path d="M 19.671875 64.796875 
L 19.671875 8.109375 
L 31.59375 8.109375 
Q 46.6875 8.109375 53.6875 14.9375 
Q 60.6875 21.78125 60.6875 36.53125 
Q 60.6875 51.171875 53.6875 57.984375 
Q 46.6875 64.796875 31.59375 64.796875 
z
M 9.8125 72.90625 
L 30.078125 72.90625 
Q 51.265625 72.90625 61.171875 64.09375 
Q 71.09375 55.28125 71.09375 36.53125 
Q 71.09375 17.671875 61.125 8.828125 
Q 51.171875 0 30.078125 0 
L 9.8125 0 
z
" id="DejaVuSans-68"/>
     </defs>
     <g transform="translate(348.545 281.826187)scale(0.1 -0.1)">
      <use xlink:href="#DejaVuSans-71"/>
      <use x="77.490234" xlink:href="#DejaVuSans-97"/>
      <use x="138.769531" xlink:href="#DejaVuSans-117"/>
      <use x="202.148438" xlink:href="#DejaVuSans-115"/>
      <use x="254.248047" xlink:href="#DejaVuSans-115"/>
      <use x="306.347656" xlink:href="#DejaVuSans-105"/>
      <use x="334.130859" xlink:href="#DejaVuSans-111"/>
      <use x="395.3125" xlink:href="#DejaVuSans-110"/>
      <use x="458.691406" xlink:href="#DejaVuSans-45"/>
      <use x="494.775391" xlink:href="#DejaVuSans-68"/>
     </g>
    </g>
    <g id="line2d_24">
     <path d="M 320.545 293.004312 
L 340.545 293.004312 
" style="fill:none;stroke:#d62728;stroke-linecap:square;stroke-width:1.5;"/>
    </g>
    <g id="line2d_25"/>
    <g id="text_19">
     <!-- LOF -->
     <defs>
      <path d="M 9.8125 72.90625 
L 19.671875 72.90625 
L 19.671875 8.296875 
L 55.171875 8.296875 
L 55.171875 0 
L 9.8125 0 
z
" id="DejaVuSans-76"/>
     </defs>
     <g transform="translate(348.545 296.504312)scale(0.1 -0.1)">
      <use xlink:href="#DejaVuSans-76"/>
      <use x="55.666016" xlink:href="#DejaVuSans-79"/>
      <use x="134.376953" xlink:href="#DejaVuSans-70"/>
     </g>
    </g>
   </g>
  </g>
 </g>
 <defs>
  <clipPath id="p769313404d">
   <rect height="266.112" width="357.12" x="57.6" y="41.472"/>
  </clipPath>
 </defs>
</svg>
