<?xml version="1.0" encoding="utf-8" standalone="no"?>
<!DOCTYPE svg PUBLIC "-//W3C//DTD SVG 1.1//EN"
  "http://www.w3.org/Graphics/SVG/1.1/DTD/svg11.dtd">
<!-- Created with matplotlib (https://matplotlib.org/) -->
<svg height="345.6pt" version="1.1" viewBox="0 0 460.8 345.6" width="460.8pt" xmlns="http://www.w3.org/2000/svg" xmlns:xlink="http://www.w3.org/1999/xlink">
 <defs>
  <style type="text/css">
*{stroke-linecap:butt;stroke-linejoin:round;}
  </style>
 </defs>
 <g id="figure_1">
  <g id="patch_1">
   <path d="M 0 345.6 
L 460.8 345.6 
L 460.8 0 
L 0 0 
z
" style="fill:#ffffff;"/>
  </g>
  <g id="axes_1">
   <g id="patch_2">
    <path d="M 57.6 307.584 
L 414.72 307.584 
L 414.72 41.472 
L 57.6 41.472 
z
" style="fill:#ffffff;"/>
   </g>
   <g id="matplotlib.axis_1">
    <g id="xtick_1">
     <g id="line2d_1">
      <defs>
       <path d="M 0 0 
L 0 3.5 
" id="m51ae2c2026" style="stroke:#000000;stroke-width:0.8;"/>
      </defs>
      <g>
       <use style="stroke:#000000;stroke-width:0.8;" x="73.832727" xlink:href="#m51ae2c2026" y="307.584"/>
      </g>
     </g>
     <g id="text_1">
      <!-- 0.0 -->
      <defs>
       <path d="M 31.78125 66.40625 
Q 24.171875 66.40625 20.328125 58.90625 
Q 16.5 51.421875 16.5 36.375 
Q 16.5 21.390625 20.328125 13.890625 
Q 24.171875 6.390625 31.78125 6.390625 
Q 39.453125 6.390625 43.28125 13.890625 
Q 47.125 21.390625 47.125 36.375 
Q 47.125 51.421875 43.28125 58.90625 
Q 39.453125 66.40625 31.78125 66.40625 
z
M 31.78125 74.21875 
Q 44.046875 74.21875 50.515625 64.515625 
Q 56.984375 54.828125 56.984375 36.375 
Q 56.984375 17.96875 50.515625 8.265625 
Q 44.046875 -1.421875 31.78125 -1.421875 
Q 19.53125 -1.421875 13.0625 8.265625 
Q 6.59375 17.96875 6.59375 36.375 
Q 6.59375 54.828125 13.0625 64.515625 
Q 19.53125 74.21875 31.78125 74.21875 
z
" id="DejaVuSans-48"/>
       <path d="M 10.6875 12.40625 
L 21 12.40625 
L 21 0 
L 10.6875 0 
z
" id="DejaVuSans-46"/>
      </defs>
      <g transform="translate(65.881165 322.182437)scale(0.1 -0.1)">
       <use xlink:href="#DejaVuSans-48"/>
       <use x="63.623047" xlink:href="#DejaVuSans-46"/>
       <use x="95.410156" xlink:href="#DejaVuSans-48"/>
      </g>
     </g>
    </g>
    <g id="xtick_2">
     <g id="line2d_2">
      <g>
       <use style="stroke:#000000;stroke-width:0.8;" x="138.763636" xlink:href="#m51ae2c2026" y="307.584"/>
      </g>
     </g>
     <g id="text_2">
      <!-- 0.2 -->
      <defs>
       <path d="M 19.1875 8.296875 
L 53.609375 8.296875 
L 53.609375 0 
L 7.328125 0 
L 7.328125 8.296875 
Q 12.9375 14.109375 22.625 23.890625 
Q 32.328125 33.6875 34.8125 36.53125 
Q 39.546875 41.84375 41.421875 45.53125 
Q 43.3125 49.21875 43.3125 52.78125 
Q 43.3125 58.59375 39.234375 62.25 
Q 35.15625 65.921875 28.609375 65.921875 
Q 23.96875 65.921875 18.8125 64.3125 
Q 13.671875 62.703125 7.8125 59.421875 
L 7.8125 69.390625 
Q 13.765625 71.78125 18.9375 73 
Q 24.125 74.21875 28.421875 74.21875 
Q 39.75 74.21875 46.484375 68.546875 
Q 53.21875 62.890625 53.21875 53.421875 
Q 53.21875 48.921875 51.53125 44.890625 
Q 49.859375 40.875 45.40625 35.40625 
Q 44.1875 33.984375 37.640625 27.21875 
Q 31.109375 20.453125 19.1875 8.296875 
z
" id="DejaVuSans-50"/>
      </defs>
      <g transform="translate(130.812074 322.182437)scale(0.1 -0.1)">
       <use xlink:href="#DejaVuSans-48"/>
       <use x="63.623047" xlink:href="#DejaVuSans-46"/>
       <use x="95.410156" xlink:href="#DejaVuSans-50"/>
      </g>
     </g>
    </g>
    <g id="xtick_3">
     <g id="line2d_3">
      <g>
       <use style="stroke:#000000;stroke-width:0.8;" x="203.694545" xlink:href="#m51ae2c2026" y="307.584"/>
      </g>
     </g>
     <g id="text_3">
      <!-- 0.4 -->
      <defs>
       <path d="M 37.796875 64.3125 
L 12.890625 25.390625 
L 37.796875 25.390625 
z
M 35.203125 72.90625 
L 47.609375 72.90625 
L 47.609375 25.390625 
L 58.015625 25.390625 
L 58.015625 17.1875 
L 47.609375 17.1875 
L 47.609375 0 
L 37.796875 0 
L 37.796875 17.1875 
L 4.890625 17.1875 
L 4.890625 26.703125 
z
" id="DejaVuSans-52"/>
      </defs>
      <g transform="translate(195.742983 322.182437)scale(0.1 -0.1)">
       <use xlink:href="#DejaVuSans-48"/>
       <use x="63.623047" xlink:href="#DejaVuSans-46"/>
       <use x="95.410156" xlink:href="#DejaVuSans-52"/>
      </g>
     </g>
    </g>
    <g id="xtick_4">
     <g id="line2d_4">
      <g>
       <use style="stroke:#000000;stroke-width:0.8;" x="268.625455" xlink:href="#m51ae2c2026" y="307.584"/>
      </g>
     </g>
     <g id="text_4">
      <!-- 0.6 -->
      <defs>
       <path d="M 33.015625 40.375 
Q 26.375 40.375 22.484375 35.828125 
Q 18.609375 31.296875 18.609375 23.390625 
Q 18.609375 15.53125 22.484375 10.953125 
Q 26.375 6.390625 33.015625 6.390625 
Q 39.65625 6.390625 43.53125 10.953125 
Q 47.40625 15.53125 47.40625 23.390625 
Q 47.40625 31.296875 43.53125 35.828125 
Q 39.65625 40.375 33.015625 40.375 
z
M 52.59375 71.296875 
L 52.59375 62.3125 
Q 48.875 64.0625 45.09375 64.984375 
Q 41.3125 65.921875 37.59375 65.921875 
Q 27.828125 65.921875 22.671875 59.328125 
Q 17.53125 52.734375 16.796875 39.40625 
Q 19.671875 43.65625 24.015625 45.921875 
Q 28.375 48.1875 33.59375 48.1875 
Q 44.578125 48.1875 50.953125 41.515625 
Q 57.328125 34.859375 57.328125 23.390625 
Q 57.328125 12.15625 50.6875 5.359375 
Q 44.046875 -1.421875 33.015625 -1.421875 
Q 20.359375 -1.421875 13.671875 8.265625 
Q 6.984375 17.96875 6.984375 36.375 
Q 6.984375 53.65625 15.1875 63.9375 
Q 23.390625 74.21875 37.203125 74.21875 
Q 40.921875 74.21875 44.703125 73.484375 
Q 48.484375 72.75 52.59375 71.296875 
z
" id="DejaVuSans-54"/>
      </defs>
      <g transform="translate(260.673892 322.182437)scale(0.1 -0.1)">
       <use xlink:href="#DejaVuSans-48"/>
       <use x="63.623047" xlink:href="#DejaVuSans-46"/>
       <use x="95.410156" xlink:href="#DejaVuSans-54"/>
      </g>
     </g>
    </g>
    <g id="xtick_5">
     <g id="line2d_5">
      <g>
       <use style="stroke:#000000;stroke-width:0.8;" x="333.556364" xlink:href="#m51ae2c2026" y="307.584"/>
      </g>
     </g>
     <g id="text_5">
      <!-- 0.8 -->
      <defs>
       <path d="M 31.78125 34.625 
Q 24.75 34.625 20.71875 30.859375 
Q 16.703125 27.09375 16.703125 20.515625 
Q 16.703125 13.921875 20.71875 10.15625 
Q 24.75 6.390625 31.78125 6.390625 
Q 38.8125 6.390625 42.859375 10.171875 
Q 46.921875 13.96875 46.921875 20.515625 
Q 46.921875 27.09375 42.890625 30.859375 
Q 38.875 34.625 31.78125 34.625 
z
M 21.921875 38.8125 
Q 15.578125 40.375 12.03125 44.71875 
Q 8.5 49.078125 8.5 55.328125 
Q 8.5 64.0625 14.71875 69.140625 
Q 20.953125 74.21875 31.78125 74.21875 
Q 42.671875 74.21875 48.875 69.140625 
Q 55.078125 64.0625 55.078125 55.328125 
Q 55.078125 49.078125 51.53125 44.71875 
Q 48 40.375 41.703125 38.8125 
Q 48.828125 37.15625 52.796875 32.3125 
Q 56.78125 27.484375 56.78125 20.515625 
Q 56.78125 9.90625 50.3125 4.234375 
Q 43.84375 -1.421875 31.78125 -1.421875 
Q 19.734375 -1.421875 13.25 4.234375 
Q 6.78125 9.90625 6.78125 20.515625 
Q 6.78125 27.484375 10.78125 32.3125 
Q 14.796875 37.15625 21.921875 38.8125 
z
M 18.3125 54.390625 
Q 18.3125 48.734375 21.84375 45.5625 
Q 25.390625 42.390625 31.78125 42.390625 
Q 38.140625 42.390625 41.71875 45.5625 
Q 45.3125 48.734375 45.3125 54.390625 
Q 45.3125 60.0625 41.71875 63.234375 
Q 38.140625 66.40625 31.78125 66.40625 
Q 25.390625 66.40625 21.84375 63.234375 
Q 18.3125 60.0625 18.3125 54.390625 
z
" id="DejaVuSans-56"/>
      </defs>
      <g transform="translate(325.604801 322.182437)scale(0.1 -0.1)">
       <use xlink:href="#DejaVuSans-48"/>
       <use x="63.623047" xlink:href="#DejaVuSans-46"/>
       <use x="95.410156" xlink:href="#DejaVuSans-56"/>
      </g>
     </g>
    </g>
    <g id="xtick_6">
     <g id="line2d_6">
      <g>
       <use style="stroke:#000000;stroke-width:0.8;" x="398.487273" xlink:href="#m51ae2c2026" y="307.584"/>
      </g>
     </g>
     <g id="text_6">
      <!-- 1.0 -->
      <defs>
       <path d="M 12.40625 8.296875 
L 28.515625 8.296875 
L 28.515625 63.921875 
L 10.984375 60.40625 
L 10.984375 69.390625 
L 28.421875 72.90625 
L 38.28125 72.90625 
L 38.28125 8.296875 
L 54.390625 8.296875 
L 54.390625 0 
L 12.40625 0 
z
" id="DejaVuSans-49"/>
      </defs>
      <g transform="translate(390.53571 322.182437)scale(0.1 -0.1)">
       <use xlink:href="#DejaVuSans-49"/>
       <use x="63.623047" xlink:href="#DejaVuSans-46"/>
       <use x="95.410156" xlink:href="#DejaVuSans-48"/>
      </g>
     </g>
    </g>
    <g id="text_7">
     <!-- False positive rate -->
     <defs>
      <path d="M 9.8125 72.90625 
L 51.703125 72.90625 
L 51.703125 64.59375 
L 19.671875 64.59375 
L 19.671875 43.109375 
L 48.578125 43.109375 
L 48.578125 34.8125 
L 19.671875 34.8125 
L 19.671875 0 
L 9.8125 0 
z
" id="DejaVuSans-70"/>
      <path d="M 34.28125 27.484375 
Q 23.390625 27.484375 19.1875 25 
Q 14.984375 22.515625 14.984375 16.5 
Q 14.984375 11.71875 18.140625 8.90625 
Q 21.296875 6.109375 26.703125 6.109375 
Q 34.1875 6.109375 38.703125 11.40625 
Q 43.21875 16.703125 43.21875 25.484375 
L 43.21875 27.484375 
z
M 52.203125 31.203125 
L 52.203125 0 
L 43.21875 0 
L 43.21875 8.296875 
Q 40.140625 3.328125 35.546875 0.953125 
Q 30.953125 -1.421875 24.3125 -1.421875 
Q 15.921875 -1.421875 10.953125 3.296875 
Q 6 8.015625 6 15.921875 
Q 6 25.140625 12.171875 29.828125 
Q 18.359375 34.515625 30.609375 34.515625 
L 43.21875 34.515625 
L 43.21875 35.40625 
Q 43.21875 41.609375 39.140625 45 
Q 35.0625 48.390625 27.6875 48.390625 
Q 23 48.390625 18.546875 47.265625 
Q 14.109375 46.140625 10.015625 43.890625 
L 10.015625 52.203125 
Q 14.9375 54.109375 19.578125 55.046875 
Q 24.21875 56 28.609375 56 
Q 40.484375 56 46.34375 49.84375 
Q 52.203125 43.703125 52.203125 31.203125 
z
" id="DejaVuSans-97"/>
      <path d="M 9.421875 75.984375 
L 18.40625 75.984375 
L 18.40625 0 
L 9.421875 0 
z
" id="DejaVuSans-108"/>
      <path d="M 44.28125 53.078125 
L 44.28125 44.578125 
Q 40.484375 46.53125 36.375 47.5 
Q 32.28125 48.484375 27.875 48.484375 
Q 21.1875 48.484375 17.84375 46.4375 
Q 14.5 44.390625 14.5 40.28125 
Q 14.5 37.15625 16.890625 35.375 
Q 19.28125 33.59375 26.515625 31.984375 
L 29.59375 31.296875 
Q 39.15625 29.25 43.1875 25.515625 
Q 47.21875 21.78125 47.21875 15.09375 
Q 47.21875 7.46875 41.1875 3.015625 
Q 35.15625 -1.421875 24.609375 -1.421875 
Q 20.21875 -1.421875 15.453125 -0.5625 
Q 10.6875 0.296875 5.421875 2 
L 5.421875 11.28125 
Q 10.40625 8.6875 15.234375 7.390625 
Q 20.0625 6.109375 24.8125 6.109375 
Q 31.15625 6.109375 34.5625 8.28125 
Q 37.984375 10.453125 37.984375 14.40625 
Q 37.984375 18.0625 35.515625 20.015625 
Q 33.0625 21.96875 24.703125 23.78125 
L 21.578125 24.515625 
Q 13.234375 26.265625 9.515625 29.90625 
Q 5.8125 33.546875 5.8125 39.890625 
Q 5.8125 47.609375 11.28125 51.796875 
Q 16.75 56 26.8125 56 
Q 31.78125 56 36.171875 55.265625 
Q 40.578125 54.546875 44.28125 53.078125 
z
" id="DejaVuSans-115"/>
      <path d="M 56.203125 29.59375 
L 56.203125 25.203125 
L 14.890625 25.203125 
Q 15.484375 15.921875 20.484375 11.0625 
Q 25.484375 6.203125 34.421875 6.203125 
Q 39.59375 6.203125 44.453125 7.46875 
Q 49.3125 8.734375 54.109375 11.28125 
L 54.109375 2.78125 
Q 49.265625 0.734375 44.1875 -0.34375 
Q 39.109375 -1.421875 33.890625 -1.421875 
Q 20.796875 -1.421875 13.15625 6.1875 
Q 5.515625 13.8125 5.515625 26.8125 
Q 5.515625 40.234375 12.765625 48.109375 
Q 20.015625 56 32.328125 56 
Q 43.359375 56 49.78125 48.890625 
Q 56.203125 41.796875 56.203125 29.59375 
z
M 47.21875 32.234375 
Q 47.125 39.59375 43.09375 43.984375 
Q 39.0625 48.390625 32.421875 48.390625 
Q 24.90625 48.390625 20.390625 44.140625 
Q 15.875 39.890625 15.1875 32.171875 
z
" id="DejaVuSans-101"/>
      <path id="DejaVuSans-32"/>
      <path d="M 18.109375 8.203125 
L 18.109375 -20.796875 
L 9.078125 -20.796875 
L 9.078125 54.6875 
L 18.109375 54.6875 
L 18.109375 46.390625 
Q 20.953125 51.265625 25.265625 53.625 
Q 29.59375 56 35.59375 56 
Q 45.5625 56 51.78125 48.09375 
Q 58.015625 40.1875 58.015625 27.296875 
Q 58.015625 14.40625 51.78125 6.484375 
Q 45.5625 -1.421875 35.59375 -1.421875 
Q 29.59375 -1.421875 25.265625 0.953125 
Q 20.953125 3.328125 18.109375 8.203125 
z
M 48.6875 27.296875 
Q 48.6875 37.203125 44.609375 42.84375 
Q 40.53125 48.484375 33.40625 48.484375 
Q 26.265625 48.484375 22.1875 42.84375 
Q 18.109375 37.203125 18.109375 27.296875 
Q 18.109375 17.390625 22.1875 11.75 
Q 26.265625 6.109375 33.40625 6.109375 
Q 40.53125 6.109375 44.609375 11.75 
Q 48.6875 17.390625 48.6875 27.296875 
z
" id="DejaVuSans-112"/>
      <path d="M 30.609375 48.390625 
Q 23.390625 48.390625 19.1875 42.75 
Q 14.984375 37.109375 14.984375 27.296875 
Q 14.984375 17.484375 19.15625 11.84375 
Q 23.34375 6.203125 30.609375 6.203125 
Q 37.796875 6.203125 41.984375 11.859375 
Q 46.1875 17.53125 46.1875 27.296875 
Q 46.1875 37.015625 41.984375 42.703125 
Q 37.796875 48.390625 30.609375 48.390625 
z
M 30.609375 56 
Q 42.328125 56 49.015625 48.375 
Q 55.71875 40.765625 55.71875 27.296875 
Q 55.71875 13.875 49.015625 6.21875 
Q 42.328125 -1.421875 30.609375 -1.421875 
Q 18.84375 -1.421875 12.171875 6.21875 
Q 5.515625 13.875 5.515625 27.296875 
Q 5.515625 40.765625 12.171875 48.375 
Q 18.84375 56 30.609375 56 
z
" id="DejaVuSans-111"/>
      <path d="M 9.421875 54.6875 
L 18.40625 54.6875 
L 18.40625 0 
L 9.421875 0 
z
M 9.421875 75.984375 
L 18.40625 75.984375 
L 18.40625 64.59375 
L 9.421875 64.59375 
z
" id="DejaVuSans-105"/>
      <path d="M 18.3125 70.21875 
L 18.3125 54.6875 
L 36.8125 54.6875 
L 36.8125 47.703125 
L 18.3125 47.703125 
L 18.3125 18.015625 
Q 18.3125 11.328125 20.140625 9.421875 
Q 21.96875 7.515625 27.59375 7.515625 
L 36.8125 7.515625 
L 36.8125 0 
L 27.59375 0 
Q 17.1875 0 13.234375 3.875 
Q 9.28125 7.765625 9.28125 18.015625 
L 9.28125 47.703125 
L 2.6875 47.703125 
L 2.6875 54.6875 
L 9.28125 54.6875 
L 9.28125 70.21875 
z
" id="DejaVuSans-116"/>
      <path d="M 2.984375 54.6875 
L 12.5 54.6875 
L 29.59375 8.796875 
L 46.6875 54.6875 
L 56.203125 54.6875 
L 35.6875 0 
L 23.484375 0 
z
" id="DejaVuSans-118"/>
      <path d="M 41.109375 46.296875 
Q 39.59375 47.171875 37.8125 47.578125 
Q 36.03125 48 33.890625 48 
Q 26.265625 48 22.1875 43.046875 
Q 18.109375 38.09375 18.109375 28.8125 
L 18.109375 0 
L 9.078125 0 
L 9.078125 54.6875 
L 18.109375 54.6875 
L 18.109375 46.1875 
Q 20.953125 51.171875 25.484375 53.578125 
Q 30.03125 56 36.53125 56 
Q 37.453125 56 38.578125 55.875 
Q 39.703125 55.765625 41.0625 55.515625 
z
" id="DejaVuSans-114"/>
     </defs>
     <g transform="translate(190.21 335.860562)scale(0.1 -0.1)">
      <use xlink:href="#DejaVuSans-70"/>
      <use x="57.378906" xlink:href="#DejaVuSans-97"/>
      <use x="118.658203" xlink:href="#DejaVuSans-108"/>
      <use x="146.441406" xlink:href="#DejaVuSans-115"/>
      <use x="198.541016" xlink:href="#DejaVuSans-101"/>
      <use x="260.064453" xlink:href="#DejaVuSans-32"/>
      <use x="291.851562" xlink:href="#DejaVuSans-112"/>
      <use x="355.328125" xlink:href="#DejaVuSans-111"/>
      <use x="416.509766" xlink:href="#DejaVuSans-115"/>
      <use x="468.609375" xlink:href="#DejaVuSans-105"/>
      <use x="496.392578" xlink:href="#DejaVuSans-116"/>
      <use x="535.601562" xlink:href="#DejaVuSans-105"/>
      <use x="563.384766" xlink:href="#DejaVuSans-118"/>
      <use x="622.564453" xlink:href="#DejaVuSans-101"/>
      <use x="684.087891" xlink:href="#DejaVuSans-32"/>
      <use x="715.875" xlink:href="#DejaVuSans-114"/>
      <use x="756.988281" xlink:href="#DejaVuSans-97"/>
      <use x="818.267578" xlink:href="#DejaVuSans-116"/>
      <use x="857.476562" xlink:href="#DejaVuSans-101"/>
     </g>
    </g>
   </g>
   <g id="matplotlib.axis_2">
    <g id="ytick_1">
     <g id="line2d_7">
      <defs>
       <path d="M 0 0 
L -3.5 0 
" id="ma595f7930f" style="stroke:#000000;stroke-width:0.8;"/>
      </defs>
      <g>
       <use style="stroke:#000000;stroke-width:0.8;" x="57.6" xlink:href="#ma595f7930f" y="295.488"/>
      </g>
     </g>
     <g id="text_8">
      <!-- 0.0 -->
      <g transform="translate(34.696875 299.287219)scale(0.1 -0.1)">
       <use xlink:href="#DejaVuSans-48"/>
       <use x="63.623047" xlink:href="#DejaVuSans-46"/>
       <use x="95.410156" xlink:href="#DejaVuSans-48"/>
      </g>
     </g>
    </g>
    <g id="ytick_2">
     <g id="line2d_8">
      <g>
       <use style="stroke:#000000;stroke-width:0.8;" x="57.6" xlink:href="#ma595f7930f" y="247.104"/>
      </g>
     </g>
     <g id="text_9">
      <!-- 0.2 -->
      <g transform="translate(34.696875 250.903219)scale(0.1 -0.1)">
       <use xlink:href="#DejaVuSans-48"/>
       <use x="63.623047" xlink:href="#DejaVuSans-46"/>
       <use x="95.410156" xlink:href="#DejaVuSans-50"/>
      </g>
     </g>
    </g>
    <g id="ytick_3">
     <g id="line2d_9">
      <g>
       <use style="stroke:#000000;stroke-width:0.8;" x="57.6" xlink:href="#ma595f7930f" y="198.72"/>
      </g>
     </g>
     <g id="text_10">
      <!-- 0.4 -->
      <g transform="translate(34.696875 202.519219)scale(0.1 -0.1)">
       <use xlink:href="#DejaVuSans-48"/>
       <use x="63.623047" xlink:href="#DejaVuSans-46"/>
       <use x="95.410156" xlink:href="#DejaVuSans-52"/>
      </g>
     </g>
    </g>
    <g id="ytick_4">
     <g id="line2d_10">
      <g>
       <use style="stroke:#000000;stroke-width:0.8;" x="57.6" xlink:href="#ma595f7930f" y="150.336"/>
      </g>
     </g>
     <g id="text_11">
      <!-- 0.6 -->
      <g transform="translate(34.696875 154.135219)scale(0.1 -0.1)">
       <use xlink:href="#DejaVuSans-48"/>
       <use x="63.623047" xlink:href="#DejaVuSans-46"/>
       <use x="95.410156" xlink:href="#DejaVuSans-54"/>
      </g>
     </g>
    </g>
    <g id="ytick_5">
     <g id="line2d_11">
      <g>
       <use style="stroke:#000000;stroke-width:0.8;" x="57.6" xlink:href="#ma595f7930f" y="101.952"/>
      </g>
     </g>
     <g id="text_12">
      <!-- 0.8 -->
      <g transform="translate(34.696875 105.751219)scale(0.1 -0.1)">
       <use xlink:href="#DejaVuSans-48"/>
       <use x="63.623047" xlink:href="#DejaVuSans-46"/>
       <use x="95.410156" xlink:href="#DejaVuSans-56"/>
      </g>
     </g>
    </g>
    <g id="ytick_6">
     <g id="line2d_12">
      <g>
       <use style="stroke:#000000;stroke-width:0.8;" x="57.6" xlink:href="#ma595f7930f" y="53.568"/>
      </g>
     </g>
     <g id="text_13">
      <!-- 1.0 -->
      <g transform="translate(34.696875 57.367219)scale(0.1 -0.1)">
       <use xlink:href="#DejaVuSans-49"/>
       <use x="63.623047" xlink:href="#DejaVuSans-46"/>
       <use x="95.410156" xlink:href="#DejaVuSans-48"/>
      </g>
     </g>
    </g>
    <g id="text_14">
     <!-- True positive rate -->
     <defs>
      <path d="M -0.296875 72.90625 
L 61.375 72.90625 
L 61.375 64.59375 
L 35.5 64.59375 
L 35.5 0 
L 25.59375 0 
L 25.59375 64.59375 
L -0.296875 64.59375 
z
" id="DejaVuSans-84"/>
      <path d="M 8.5 21.578125 
L 8.5 54.6875 
L 17.484375 54.6875 
L 17.484375 21.921875 
Q 17.484375 14.15625 20.5 10.265625 
Q 23.53125 6.390625 29.59375 6.390625 
Q 36.859375 6.390625 41.078125 11.03125 
Q 45.3125 15.671875 45.3125 23.6875 
L 45.3125 54.6875 
L 54.296875 54.6875 
L 54.296875 0 
L 45.3125 0 
L 45.3125 8.40625 
Q 42.046875 3.421875 37.71875 1 
Q 33.40625 -1.421875 27.6875 -1.421875 
Q 18.265625 -1.421875 13.375 4.4375 
Q 8.5 10.296875 8.5 21.578125 
z
M 31.109375 56 
z
" id="DejaVuSans-117"/>
     </defs>
     <g transform="translate(28.617187 218.818625)rotate(-90)scale(0.1 -0.1)">
      <use xlink:href="#DejaVuSans-84"/>
      <use x="60.865234" xlink:href="#DejaVuSans-114"/>
      <use x="101.978516" xlink:href="#DejaVuSans-117"/>
      <use x="165.357422" xlink:href="#DejaVuSans-101"/>
      <use x="226.880859" xlink:href="#DejaVuSans-32"/>
      <use x="258.667969" xlink:href="#DejaVuSans-112"/>
      <use x="322.144531" xlink:href="#DejaVuSans-111"/>
      <use x="383.326172" xlink:href="#DejaVuSans-115"/>
      <use x="435.425781" xlink:href="#DejaVuSans-105"/>
      <use x="463.208984" xlink:href="#DejaVuSans-116"/>
      <use x="502.417969" xlink:href="#DejaVuSans-105"/>
      <use x="530.201172" xlink:href="#DejaVuSans-118"/>
      <use x="589.380859" xlink:href="#DejaVuSans-101"/>
      <use x="650.904297" xlink:href="#DejaVuSans-32"/>
      <use x="682.691406" xlink:href="#DejaVuSans-114"/>
      <use x="723.804688" xlink:href="#DejaVuSans-97"/>
      <use x="785.083984" xlink:href="#DejaVuSans-116"/>
      <use x="824.292969" xlink:href="#DejaVuSans-101"/>
     </g>
    </g>
   </g>
   <g id="line2d_13">
    <path clip-path="url(#p904ae1e2dc)" d="M 73.832727 295.488 
L 398.487273 53.568 
" style="fill:none;stroke:#000000;stroke-dasharray:5.55,2.4;stroke-dashoffset:0;stroke-width:1.5;"/>
   </g>
   <g id="line2d_14">
    <path clip-path="url(#p904ae1e2dc)" d="M 73.832727 295.488 
L 73.832727 293.137187 
L 76.369091 293.137187 
L 76.369091 284.588777 
L 78.905455 284.588777 
L 78.905455 251.036269 
L 81.441818 251.036269 
L 81.441818 196.540155 
L 83.978182 196.540155 
L 83.978182 146.531958 
L 86.514545 146.531958 
L 86.514545 133.068212 
L 89.050909 133.068212 
L 89.050909 128.152876 
L 91.587273 128.152876 
L 91.587273 127.298035 
L 94.123636 127.298035 
L 94.123636 125.588353 
L 96.66 125.588353 
L 96.66 120.245597 
L 99.196364 120.245597 
L 99.196364 116.398813 
L 101.732727 116.398813 
L 101.732727 114.47542 
L 104.269091 114.47542 
L 104.269091 111.910898 
L 106.805455 111.910898 
L 106.805455 111.056057 
L 109.341818 111.056057 
L 109.341818 110.414926 
L 111.878182 110.414926 
L 111.878182 107.422982 
L 114.414545 107.422982 
L 114.414545 106.995562 
L 119.487273 106.995562 
L 119.487273 106.568141 
L 122.023636 106.568141 
L 122.023636 104.858459 
L 124.56 104.858459 
L 124.56 102.721357 
L 129.632727 102.721357 
L 129.632727 102.080226 
L 134.705455 102.080226 
L 134.705455 101.652806 
L 137.241818 101.652806 
L 137.241818 100.584254 
L 142.314545 100.584254 
L 142.314545 100.156834 
L 147.387273 100.156834 
L 147.387273 99.515703 
L 149.923636 99.515703 
L 149.923636 99.088283 
L 154.996364 99.088283 
L 154.996364 98.019731 
L 160.069091 98.019731 
L 160.069091 96.95118 
L 162.605455 96.95118 
L 162.605455 94.600367 
L 165.141818 94.600367 
L 165.141818 94.172947 
L 167.678182 94.172947 
L 167.678182 93.959237 
L 170.214545 93.959237 
L 170.214545 93.531816 
L 172.750909 93.531816 
L 172.750909 92.035845 
L 175.287273 92.035845 
L 175.287273 91.822134 
L 180.36 91.822134 
L 180.36 91.608424 
L 182.896364 91.608424 
L 182.896364 90.326163 
L 187.969091 90.326163 
L 187.969091 89.257611 
L 190.505455 89.257611 
L 190.505455 87.76164 
L 195.578182 87.76164 
L 195.578182 86.051958 
L 198.114545 86.051958 
L 198.114545 84.769696 
L 203.187273 84.769696 
L 203.187273 82.846304 
L 205.723636 82.846304 
L 205.723636 80.281781 
L 208.26 80.281781 
L 208.26 75.580155 
L 210.796364 75.580155 
L 210.796364 73.870473 
L 213.332727 73.870473 
L 213.332727 73.229343 
L 215.869091 73.229343 
L 215.869091 71.305951 
L 218.405455 71.305951 
L 218.405455 70.45111 
L 220.941818 70.45111 
L 220.941818 70.023689 
L 223.478182 70.023689 
L 223.478182 69.596269 
L 226.014545 69.596269 
L 226.014545 68.314007 
L 228.550909 68.314007 
L 228.550909 67.672876 
L 231.087273 67.672876 
L 231.087273 66.390615 
L 233.623636 66.390615 
L 233.623636 65.963194 
L 238.696364 65.963194 
L 238.696364 65.535774 
L 243.769091 65.535774 
L 243.769091 65.108353 
L 246.305455 65.108353 
L 246.305455 63.826092 
L 248.841818 63.826092 
L 248.841818 61.688989 
L 251.378182 61.688989 
L 251.378182 61.475279 
L 253.914545 61.475279 
L 253.914545 59.979307 
L 256.450909 59.979307 
L 256.450909 56.773654 
L 258.987273 56.773654 
L 258.987273 56.346233 
L 261.523636 56.346233 
L 261.523636 54.636551 
L 264.06 54.636551 
L 264.06 54.422841 
L 279.278182 54.422841 
L 279.278182 53.568 
L 398.487273 53.568 
L 398.487273 53.568 
" style="fill:none;stroke:#1f77b4;stroke-linecap:square;stroke-width:1.5;"/>
   </g>
   <g id="line2d_15">
    <path clip-path="url(#p904ae1e2dc)" d="M 73.832727 295.488 
L 73.832727 268.346799 
L 76.369091 268.346799 
L 76.369091 231.802346 
L 78.905455 231.802346 
L 78.905455 207.439378 
L 81.441818 207.439378 
L 81.441818 204.447435 
L 83.978182 204.447435 
L 83.978182 202.524042 
L 86.514545 202.524042 
L 86.514545 198.890968 
L 89.050909 198.890968 
L 89.050909 194.189343 
L 91.587273 194.189343 
L 91.587273 193.120792 
L 94.123636 193.120792 
L 94.123636 184.999802 
L 96.66 184.999802 
L 96.66 179.015915 
L 99.196364 179.015915 
L 99.196364 173.459449 
L 101.732727 173.459449 
L 101.732727 165.76588 
L 104.269091 165.76588 
L 104.269091 159.568283 
L 106.805455 159.568283 
L 106.805455 157.858601 
L 109.341818 157.858601 
L 109.341818 152.729555 
L 111.878182 152.729555 
L 111.878182 148.45535 
L 114.414545 148.45535 
L 114.414545 144.181145 
L 116.950909 144.181145 
L 116.950909 141.830332 
L 119.487273 141.830332 
L 119.487273 139.265809 
L 122.023636 139.265809 
L 122.023636 136.060155 
L 124.56 136.060155 
L 124.56 135.632735 
L 127.096364 135.632735 
L 127.096364 133.281922 
L 129.632727 133.281922 
L 129.632727 130.076269 
L 132.169091 130.076269 
L 132.169091 129.435138 
L 134.705455 129.435138 
L 134.705455 125.802064 
L 137.241818 125.802064 
L 137.241818 125.374643 
L 144.850909 125.374643 
L 144.850909 124.947223 
L 147.387273 124.947223 
L 147.387273 123.878671 
L 149.923636 123.878671 
L 149.923636 123.664961 
L 152.46 123.664961 
L 152.46 121.741569 
L 154.996364 121.741569 
L 154.996364 121.527859 
L 157.532727 121.527859 
L 157.532727 121.314148 
L 160.069091 121.314148 
L 160.069091 120.245597 
L 165.141818 120.245597 
L 165.141818 120.031887 
L 167.678182 120.031887 
L 167.678182 118.963336 
L 170.214545 118.963336 
L 170.214545 117.894784 
L 172.750909 117.894784 
L 172.750909 116.612523 
L 175.287273 116.612523 
L 175.287273 116.185102 
L 177.823636 116.185102 
L 177.823636 115.971392 
L 180.36 115.971392 
L 180.36 115.757682 
L 182.896364 115.757682 
L 182.896364 114.902841 
L 185.432727 114.902841 
L 185.432727 113.83429 
L 187.969091 113.83429 
L 187.969091 111.697187 
L 190.505455 111.697187 
L 190.505455 111.483477 
L 195.578182 111.483477 
L 195.578182 109.560085 
L 198.114545 109.560085 
L 198.114545 109.132664 
L 200.650909 109.132664 
L 200.650909 104.003618 
L 203.187273 104.003618 
L 203.187273 103.362488 
L 205.723636 103.362488 
L 205.723636 103.148777 
L 208.26 103.148777 
L 208.26 102.935067 
L 210.796364 102.935067 
L 210.796364 102.080226 
L 215.869091 102.080226 
L 215.869091 101.439095 
L 218.405455 101.439095 
L 218.405455 99.088283 
L 223.478182 99.088283 
L 223.478182 98.660862 
L 233.623636 98.660862 
L 233.623636 98.233442 
L 236.16 98.233442 
L 236.16 97.592311 
L 238.696364 97.592311 
L 238.696364 96.52376 
L 246.305455 96.52376 
L 246.305455 96.096339 
L 248.841818 96.096339 
L 248.841818 95.455208 
L 251.378182 95.455208 
L 251.378182 94.600367 
L 256.450909 94.600367 
L 256.450909 94.172947 
L 258.987273 94.172947 
L 258.987273 92.890686 
L 264.06 92.890686 
L 264.06 92.249555 
L 266.596364 92.249555 
L 266.596364 92.035845 
L 269.132727 92.035845 
L 269.132727 91.822134 
L 271.669091 91.822134 
L 271.669091 90.753583 
L 274.205455 90.753583 
L 274.205455 89.685032 
L 276.741818 89.685032 
L 276.741818 89.471322 
L 281.814545 89.471322 
L 281.814545 89.257611 
L 284.350909 89.257611 
L 284.350909 88.830191 
L 286.887273 88.830191 
L 286.887273 88.616481 
L 289.423636 88.616481 
L 289.423636 87.97535 
L 291.96 87.97535 
L 291.96 87.334219 
L 297.032727 87.334219 
L 297.032727 85.838247 
L 299.569091 85.838247 
L 299.569091 85.197117 
L 302.105455 85.197117 
L 302.105455 84.983406 
L 304.641818 84.983406 
L 304.641818 84.769696 
L 307.178182 84.769696 
L 307.178182 82.846304 
L 312.250909 82.846304 
L 312.250909 82.632594 
L 317.323636 82.632594 
L 317.323636 80.922912 
L 322.396364 80.922912 
L 322.396364 79.21323 
L 324.932727 79.21323 
L 324.932727 78.144678 
L 327.469091 78.144678 
L 327.469091 77.289837 
L 330.005455 77.289837 
L 330.005455 76.862417 
L 332.541818 76.862417 
L 332.541818 76.434996 
L 335.078182 76.434996 
L 335.078182 76.221286 
L 337.614545 76.221286 
L 337.614545 72.801922 
L 340.150909 72.801922 
L 340.150909 71.947081 
L 342.687273 71.947081 
L 342.687273 71.305951 
L 345.223636 71.305951 
L 345.223636 69.168848 
L 347.76 69.168848 
L 347.76 68.955138 
L 350.296364 68.955138 
L 350.296364 68.100297 
L 355.369091 68.100297 
L 355.369091 67.886587 
L 365.514545 67.886587 
L 365.514545 67.672876 
L 368.050909 67.672876 
L 368.050909 67.031746 
L 370.587273 67.031746 
L 370.587273 65.535774 
L 373.123636 65.535774 
L 373.123636 64.680933 
L 375.66 64.680933 
L 375.66 62.33012 
L 378.196364 62.33012 
L 378.196364 60.193018 
L 380.732727 60.193018 
L 380.732727 59.551887 
L 383.269091 59.551887 
L 383.269091 57.842205 
L 388.341818 57.842205 
L 388.341818 57.201074 
L 390.878182 57.201074 
L 390.878182 54.850261 
L 393.414545 54.850261 
L 393.414545 54.422841 
L 398.487273 54.422841 
L 398.487273 53.568 
L 398.487273 53.568 
" style="fill:none;stroke:#ff7f0e;stroke-linecap:square;stroke-width:1.5;"/>
   </g>
   <g id="line2d_16">
    <path clip-path="url(#p904ae1e2dc)" d="M 73.832727 295.488 
L 73.832727 295.27429 
L 73.832727 120.245597 
L 76.369091 120.245597 
L 76.369091 107.422982 
L 78.905455 107.422982 
L 78.905455 104.003618 
L 81.441818 104.003618 
L 81.441818 100.584254 
L 83.978182 100.584254 
L 83.978182 96.52376 
L 86.514545 96.52376 
L 86.514545 93.318106 
L 89.050909 93.318106 
L 89.050909 92.676975 
L 96.66 92.676975 
L 96.66 91.181004 
L 99.196364 91.181004 
L 99.196364 90.753583 
L 101.732727 90.753583 
L 101.732727 88.18906 
L 104.269091 88.18906 
L 104.269091 87.76164 
L 106.805455 87.76164 
L 106.805455 82.846304 
L 109.341818 82.846304 
L 109.341818 80.495491 
L 116.950909 80.495491 
L 116.950909 79.21323 
L 119.487273 79.21323 
L 119.487273 78.999519 
L 124.56 78.999519 
L 124.56 78.785809 
L 127.096364 78.785809 
L 127.096364 76.862417 
L 129.632727 76.862417 
L 129.632727 76.007576 
L 139.778182 76.007576 
L 139.778182 75.152735 
L 142.314545 75.152735 
L 142.314545 74.939025 
L 144.850909 74.939025 
L 144.850909 74.297894 
L 147.387273 74.297894 
L 147.387273 74.084184 
L 149.923636 74.084184 
L 149.923636 73.656763 
L 154.996364 73.656763 
L 154.996364 73.443053 
L 157.532727 73.443053 
L 157.532727 72.801922 
L 190.505455 72.801922 
L 190.505455 72.374502 
L 200.650909 72.374502 
L 200.650909 72.160792 
L 203.187273 72.160792 
L 203.187273 71.947081 
L 215.869091 71.947081 
L 215.869091 71.733371 
L 236.16 71.733371 
L 236.16 71.305951 
L 238.696364 71.305951 
L 238.696364 71.09224 
L 243.769091 71.09224 
L 243.769091 70.87853 
L 253.914545 70.87853 
L 253.914545 70.66482 
L 256.450909 70.66482 
L 256.450909 70.45111 
L 258.987273 70.45111 
L 258.987273 69.168848 
L 261.523636 69.168848 
L 261.523636 68.955138 
L 264.06 68.955138 
L 264.06 68.527717 
L 269.132727 68.527717 
L 269.132727 67.245456 
L 271.669091 67.245456 
L 271.669091 66.390615 
L 274.205455 66.390615 
L 274.205455 65.322064 
L 276.741818 65.322064 
L 276.741818 62.971251 
L 279.278182 62.971251 
L 279.278182 55.491392 
L 281.814545 55.491392 
L 281.814545 53.568 
L 398.487273 53.568 
" style="fill:none;stroke:#2ca02c;stroke-linecap:square;stroke-width:1.5;"/>
   </g>
   <g id="line2d_17">
    <path clip-path="url(#p904ae1e2dc)" d="M 73.832727 295.488 
L 73.832727 189.060297 
L 76.369091 189.060297 
L 76.369091 188.419166 
L 78.905455 188.419166 
L 78.905455 179.870756 
L 81.441818 179.870756 
L 81.441818 176.878813 
L 83.978182 176.878813 
L 83.978182 175.169131 
L 89.050909 175.169131 
L 89.050909 171.749767 
L 91.587273 171.749767 
L 91.587273 168.971534 
L 94.123636 168.971534 
L 94.123636 168.544113 
L 96.66 168.544113 
L 96.66 168.116693 
L 99.196364 168.116693 
L 99.196364 160.209413 
L 101.732727 160.209413 
L 101.732727 157.43118 
L 104.269091 157.43118 
L 104.269091 155.935208 
L 106.805455 155.935208 
L 106.805455 155.507788 
L 109.341818 155.507788 
L 109.341818 153.798106 
L 111.878182 153.798106 
L 111.878182 150.806163 
L 114.414545 150.806163 
L 114.414545 148.24164 
L 116.950909 148.24164 
L 116.950909 147.600509 
L 122.023636 147.600509 
L 122.023636 140.975491 
L 127.096364 140.975491 
L 127.096364 139.90694 
L 129.632727 139.90694 
L 129.632727 139.052099 
L 132.169091 139.052099 
L 132.169091 138.838389 
L 134.705455 138.838389 
L 134.705455 135.846445 
L 137.241818 135.846445 
L 137.241818 135.632735 
L 139.778182 135.632735 
L 139.778182 135.419025 
L 142.314545 135.419025 
L 142.314545 132.427081 
L 144.850909 132.427081 
L 144.850909 131.999661 
L 147.387273 131.999661 
L 147.387273 131.785951 
L 149.923636 131.785951 
L 149.923636 131.57224 
L 154.996364 131.57224 
L 154.996364 131.35853 
L 157.532727 131.35853 
L 157.532727 129.648848 
L 160.069091 129.648848 
L 160.069091 128.152876 
L 162.605455 128.152876 
L 162.605455 125.802064 
L 165.141818 125.802064 
L 165.141818 125.374643 
L 167.678182 125.374643 
L 167.678182 125.160933 
L 170.214545 125.160933 
L 170.214545 124.733512 
L 172.750909 124.733512 
L 172.750909 123.451251 
L 175.287273 123.451251 
L 175.287273 120.031887 
L 177.823636 120.031887 
L 177.823636 119.390756 
L 180.36 119.390756 
L 180.36 117.253654 
L 185.432727 117.253654 
L 185.432727 115.757682 
L 187.969091 115.757682 
L 187.969091 114.47542 
L 190.505455 114.47542 
L 190.505455 112.979449 
L 193.041818 112.979449 
L 193.041818 112.124608 
L 195.578182 112.124608 
L 195.578182 111.697187 
L 200.650909 111.697187 
L 200.650909 110.628636 
L 203.187273 110.628636 
L 203.187273 110.201216 
L 205.723636 110.201216 
L 205.723636 108.491534 
L 208.26 108.491534 
L 208.26 107.850403 
L 210.796364 107.850403 
L 210.796364 106.995562 
L 213.332727 106.995562 
L 213.332727 106.781852 
L 215.869091 106.781852 
L 215.869091 106.140721 
L 218.405455 106.140721 
L 218.405455 105.28588 
L 220.941818 105.28588 
L 220.941818 104.858459 
L 223.478182 104.858459 
L 223.478182 104.003618 
L 228.550909 104.003618 
L 228.550909 103.576198 
L 231.087273 103.576198 
L 231.087273 103.362488 
L 233.623636 103.362488 
L 233.623636 102.080226 
L 241.232727 102.080226 
L 241.232727 100.797965 
L 243.769091 100.797965 
L 243.769091 99.729413 
L 248.841818 99.729413 
L 248.841818 99.301993 
L 253.914545 99.301993 
L 253.914545 99.088283 
L 256.450909 99.088283 
L 256.450909 98.660862 
L 261.523636 98.660862 
L 261.523636 96.096339 
L 264.06 96.096339 
L 264.06 95.668919 
L 266.596364 95.668919 
L 266.596364 95.027788 
L 269.132727 95.027788 
L 269.132727 94.600367 
L 271.669091 94.600367 
L 271.669091 94.386657 
L 274.205455 94.386657 
L 274.205455 93.531816 
L 279.278182 93.531816 
L 279.278182 92.676975 
L 286.887273 92.676975 
L 286.887273 92.463265 
L 289.423636 92.463265 
L 289.423636 92.035845 
L 291.96 92.035845 
L 291.96 91.181004 
L 294.496364 91.181004 
L 294.496364 90.539873 
L 297.032727 90.539873 
L 297.032727 89.898742 
L 299.569091 89.898742 
L 299.569091 89.685032 
L 302.105455 89.685032 
L 302.105455 89.043901 
L 304.641818 89.043901 
L 304.641818 88.40277 
L 307.178182 88.40277 
L 307.178182 86.693088 
L 309.714545 86.693088 
L 309.714545 84.128565 
L 312.250909 84.128565 
L 312.250909 83.701145 
L 317.323636 83.701145 
L 317.323636 82.632594 
L 319.86 82.632594 
L 319.86 82.418883 
L 324.932727 82.418883 
L 324.932727 80.495491 
L 327.469091 80.495491 
L 327.469091 77.289837 
L 332.541818 77.289837 
L 332.541818 76.648707 
L 335.078182 76.648707 
L 335.078182 75.366445 
L 337.614545 75.366445 
L 337.614545 75.152735 
L 340.150909 75.152735 
L 340.150909 74.725314 
L 342.687273 74.725314 
L 342.687273 72.374502 
L 345.223636 72.374502 
L 345.223636 71.947081 
L 350.296364 71.947081 
L 350.296364 71.733371 
L 352.832727 71.733371 
L 352.832727 69.596269 
L 355.369091 69.596269 
L 355.369091 68.527717 
L 357.905455 68.527717 
L 357.905455 68.100297 
L 360.441818 68.100297 
L 360.441818 66.176905 
L 362.978182 66.176905 
L 362.978182 65.535774 
L 365.514545 65.535774 
L 365.514545 64.680933 
L 368.050909 64.680933 
L 368.050909 63.826092 
L 370.587273 63.826092 
L 370.587273 63.612382 
L 373.123636 63.612382 
L 373.123636 62.54383 
L 380.732727 62.54383 
L 380.732727 61.9027 
L 383.269091 61.9027 
L 383.269091 61.261569 
L 388.341818 61.261569 
L 388.341818 60.406728 
L 390.878182 60.406728 
L 390.878182 60.193018 
L 393.414545 60.193018 
L 393.414545 57.414784 
L 395.950909 57.414784 
L 395.950909 53.568 
L 398.487273 53.568 
L 398.487273 53.568 
" style="fill:none;stroke:#d62728;stroke-linecap:square;stroke-width:1.5;"/>
   </g>
   <g id="patch_3">
    <path d="M 57.6 307.584 
L 57.6 41.472 
" style="fill:none;stroke:#000000;stroke-linecap:square;stroke-linejoin:miter;stroke-width:0.8;"/>
   </g>
   <g id="patch_4">
    <path d="M 414.72 307.584 
L 414.72 41.472 
" style="fill:none;stroke:#000000;stroke-linecap:square;stroke-linejoin:miter;stroke-width:0.8;"/>
   </g>
   <g id="patch_5">
    <path d="M 57.6 307.584 
L 414.72 307.584 
" style="fill:none;stroke:#000000;stroke-linecap:square;stroke-linejoin:miter;stroke-width:0.8;"/>
   </g>
   <g id="patch_6">
    <path d="M 57.6 41.472 
L 414.72 41.472 
" style="fill:none;stroke:#000000;stroke-linecap:square;stroke-linejoin:miter;stroke-width:0.8;"/>
   </g>
   <g id="text_15">
    <!-- GLCM ROC -->
    <defs>
     <path d="M 59.515625 10.40625 
L 59.515625 29.984375 
L 43.40625 29.984375 
L 43.40625 38.09375 
L 69.28125 38.09375 
L 69.28125 6.78125 
Q 63.578125 2.734375 56.6875 0.65625 
Q 49.8125 -1.421875 42 -1.421875 
Q 24.90625 -1.421875 15.25 8.5625 
Q 5.609375 18.5625 5.609375 36.375 
Q 5.609375 54.25 15.25 64.234375 
Q 24.90625 74.21875 42 74.21875 
Q 49.125 74.21875 55.546875 72.453125 
Q 61.96875 70.703125 67.390625 67.28125 
L 67.390625 56.78125 
Q 61.921875 61.421875 55.765625 63.765625 
Q 49.609375 66.109375 42.828125 66.109375 
Q 29.4375 66.109375 22.71875 58.640625 
Q 16.015625 51.171875 16.015625 36.375 
Q 16.015625 21.625 22.71875 14.15625 
Q 29.4375 6.6875 42.828125 6.6875 
Q 48.046875 6.6875 52.140625 7.59375 
Q 56.25 8.5 59.515625 10.40625 
z
" id="DejaVuSans-71"/>
     <path d="M 9.8125 72.90625 
L 19.671875 72.90625 
L 19.671875 8.296875 
L 55.171875 8.296875 
L 55.171875 0 
L 9.8125 0 
z
" id="DejaVuSans-76"/>
     <path d="M 64.40625 67.28125 
L 64.40625 56.890625 
Q 59.421875 61.53125 53.78125 63.8125 
Q 48.140625 66.109375 41.796875 66.109375 
Q 29.296875 66.109375 22.65625 58.46875 
Q 16.015625 50.828125 16.015625 36.375 
Q 16.015625 21.96875 22.65625 14.328125 
Q 29.296875 6.6875 41.796875 6.6875 
Q 48.140625 6.6875 53.78125 8.984375 
Q 59.421875 11.28125 64.40625 15.921875 
L 64.40625 5.609375 
Q 59.234375 2.09375 53.4375 0.328125 
Q 47.65625 -1.421875 41.21875 -1.421875 
Q 24.65625 -1.421875 15.125 8.703125 
Q 5.609375 18.84375 5.609375 36.375 
Q 5.609375 53.953125 15.125 64.078125 
Q 24.65625 74.21875 41.21875 74.21875 
Q 47.75 74.21875 53.53125 72.484375 
Q 59.328125 70.75 64.40625 67.28125 
z
" id="DejaVuSans-67"/>
     <path d="M 9.8125 72.90625 
L 24.515625 72.90625 
L 43.109375 23.296875 
L 61.8125 72.90625 
L 76.515625 72.90625 
L 76.515625 0 
L 66.890625 0 
L 66.890625 64.015625 
L 48.09375 14.015625 
L 38.1875 14.015625 
L 19.390625 64.015625 
L 19.390625 0 
L 9.8125 0 
z
" id="DejaVuSans-77"/>
     <path d="M 44.390625 34.1875 
Q 47.5625 33.109375 50.5625 29.59375 
Q 53.5625 26.078125 56.59375 19.921875 
L 66.609375 0 
L 56 0 
L 46.6875 18.703125 
Q 43.0625 26.03125 39.671875 28.421875 
Q 36.28125 30.8125 30.421875 30.8125 
L 19.671875 30.8125 
L 19.671875 0 
L 9.8125 0 
L 9.8125 72.90625 
L 32.078125 72.90625 
Q 44.578125 72.90625 50.734375 67.671875 
Q 56.890625 62.453125 56.890625 51.90625 
Q 56.890625 45.015625 53.6875 40.46875 
Q 50.484375 35.9375 44.390625 34.1875 
z
M 19.671875 64.796875 
L 19.671875 38.921875 
L 32.078125 38.921875 
Q 39.203125 38.921875 42.84375 42.21875 
Q 46.484375 45.515625 46.484375 51.90625 
Q 46.484375 58.296875 42.84375 61.546875 
Q 39.203125 64.796875 32.078125 64.796875 
z
" id="DejaVuSans-82"/>
     <path d="M 39.40625 66.21875 
Q 28.65625 66.21875 22.328125 58.203125 
Q 16.015625 50.203125 16.015625 36.375 
Q 16.015625 22.609375 22.328125 14.59375 
Q 28.65625 6.59375 39.40625 6.59375 
Q 50.140625 6.59375 56.421875 14.59375 
Q 62.703125 22.609375 62.703125 36.375 
Q 62.703125 50.203125 56.421875 58.203125 
Q 50.140625 66.21875 39.40625 66.21875 
z
M 39.40625 74.21875 
Q 54.734375 74.21875 63.90625 63.9375 
Q 73.09375 53.65625 73.09375 36.375 
Q 73.09375 19.140625 63.90625 8.859375 
Q 54.734375 -1.421875 39.40625 -1.421875 
Q 24.03125 -1.421875 14.8125 8.828125 
Q 5.609375 19.09375 5.609375 36.375 
Q 5.609375 53.65625 14.8125 63.9375 
Q 24.03125 74.21875 39.40625 74.21875 
z
" id="DejaVuSans-79"/>
    </defs>
    <g transform="translate(203.8125 35.472)scale(0.12 -0.12)">
     <use xlink:href="#DejaVuSans-71"/>
     <use x="77.490234" xlink:href="#DejaVuSans-76"/>
     <use x="133.203125" xlink:href="#DejaVuSans-67"/>
     <use x="203.027344" xlink:href="#DejaVuSans-77"/>
     <use x="289.306641" xlink:href="#DejaVuSans-32"/>
     <use x="321.09375" xlink:href="#DejaVuSans-82"/>
     <use x="390.576172" xlink:href="#DejaVuSans-79"/>
     <use x="469.287109" xlink:href="#DejaVuSans-67"/>
    </g>
   </g>
   <g id="legend_1">
    <g id="patch_7">
     <path d="M 318.545 302.584 
L 407.72 302.584 
Q 409.72 302.584 409.72 300.584 
L 409.72 242.8715 
Q 409.72 240.8715 407.72 240.8715 
L 318.545 240.8715 
Q 316.545 240.8715 316.545 242.8715 
L 316.545 300.584 
Q 316.545 302.584 318.545 302.584 
z
" style="fill:#ffffff;opacity:0.8;stroke:#cccccc;stroke-linejoin:miter;"/>
    </g>
    <g id="line2d_18">
     <path d="M 320.545 248.969937 
L 340.545 248.969937 
" style="fill:none;stroke:#1f77b4;stroke-linecap:square;stroke-width:1.5;"/>
    </g>
    <g id="line2d_19"/>
    <g id="text_16">
     <!-- iForest -->
     <g transform="translate(348.545 252.469937)scale(0.1 -0.1)">
      <use xlink:href="#DejaVuSans-105"/>
      <use x="27.783203" xlink:href="#DejaVuSans-70"/>
      <use x="85.255859" xlink:href="#DejaVuSans-111"/>
      <use x="146.4375" xlink:href="#DejaVuSans-114"/>
      <use x="187.519531" xlink:href="#DejaVuSans-101"/>
      <use x="249.042969" xlink:href="#DejaVuSans-115"/>
      <use x="301.142578" xlink:href="#DejaVuSans-116"/>
     </g>
    </g>
    <g id="line2d_20">
     <path d="M 320.545 263.648062 
L 340.545 263.648062 
" style="fill:none;stroke:#ff7f0e;stroke-linecap:square;stroke-width:1.5;"/>
    </g>
    <g id="line2d_21"/>
    <g id="text_17">
     <!-- OC-SVM -->
     <defs>
      <path d="M 4.890625 31.390625 
L 31.203125 31.390625 
L 31.203125 23.390625 
L 4.890625 23.390625 
z
" id="DejaVuSans-45"/>
      <path d="M 53.515625 70.515625 
L 53.515625 60.890625 
Q 47.90625 63.578125 42.921875 64.890625 
Q 37.9375 66.21875 33.296875 66.21875 
Q 25.25 66.21875 20.875 63.09375 
Q 16.5 59.96875 16.5 54.203125 
Q 16.5 49.359375 19.40625 46.890625 
Q 22.3125 44.4375 30.421875 42.921875 
L 36.375 41.703125 
Q 47.40625 39.59375 52.65625 34.296875 
Q 57.90625 29 57.90625 20.125 
Q 57.90625 9.515625 50.796875 4.046875 
Q 43.703125 -1.421875 29.984375 -1.421875 
Q 24.8125 -1.421875 18.96875 -0.25 
Q 13.140625 0.921875 6.890625 3.21875 
L 6.890625 13.375 
Q 12.890625 10.015625 18.65625 8.296875 
Q 24.421875 6.59375 29.984375 6.59375 
Q 38.421875 6.59375 43.015625 9.90625 
Q 47.609375 13.234375 47.609375 19.390625 
Q 47.609375 24.75 44.3125 27.78125 
Q 41.015625 30.8125 33.5 32.328125 
L 27.484375 33.5 
Q 16.453125 35.6875 11.515625 40.375 
Q 6.59375 45.0625 6.59375 53.421875 
Q 6.59375 63.09375 13.40625 68.65625 
Q 20.21875 74.21875 32.171875 74.21875 
Q 37.3125 74.21875 42.625 73.28125 
Q 47.953125 72.359375 53.515625 70.515625 
z
" id="DejaVuSans-83"/>
      <path d="M 28.609375 0 
L 0.78125 72.90625 
L 11.078125 72.90625 
L 34.1875 11.53125 
L 57.328125 72.90625 
L 67.578125 72.90625 
L 39.796875 0 
z
" id="DejaVuSans-86"/>
     </defs>
     <g transform="translate(348.545 267.148062)scale(0.1 -0.1)">
      <use xlink:href="#DejaVuSans-79"/>
      <use x="78.710938" xlink:href="#DejaVuSans-67"/>
      <use x="148.535156" xlink:href="#DejaVuSans-45"/>
      <use x="184.619141" xlink:href="#DejaVuSans-83"/>
      <use x="248.095703" xlink:href="#DejaVuSans-86"/>
      <use x="316.503906" xlink:href="#DejaVuSans-77"/>
     </g>
    </g>
    <g id="line2d_22">
     <path d="M 320.545 278.326187 
L 340.545 278.326187 
" style="fill:none;stroke:#2ca02c;stroke-linecap:square;stroke-width:1.5;"/>
    </g>
    <g id="line2d_23"/>
    <g id="text_18">
     <!-- Gaussion-D -->
     <defs>
      <path d="M 54.890625 33.015625 
L 54.890625 0 
L 45.90625 0 
L 45.90625 32.71875 
Q 45.90625 40.484375 42.875 44.328125 
Q 39.84375 48.1875 33.796875 48.1875 
Q 26.515625 48.1875 22.3125 43.546875 
Q 18.109375 38.921875 18.109375 30.90625 
L 18.109375 0 
L 9.078125 0 
L 9.078125 54.6875 
L 18.109375 54.6875 
L 18.109375 46.1875 
Q 21.34375 51.125 25.703125 53.5625 
Q 30.078125 56 35.796875 56 
Q 45.21875 56 50.046875 50.171875 
Q 54.890625 44.34375 54.890625 33.015625 
z
" id="DejaVuSans-110"/>
      <path d="M 19.671875 64.796875 
L 19.671875 8.109375 
L 31.59375 8.109375 
Q 46.6875 8.109375 53.6875 14.9375 
Q 60.6875 21.78125 60.6875 36.53125 
Q 60.6875 51.171875 53.6875 57.984375 
Q 46.6875 64.796875 31.59375 64.796875 
z
M 9.8125 72.90625 
L 30.078125 72.90625 
Q 51.265625 72.90625 61.171875 64.09375 
Q 71.09375 55.28125 71.09375 36.53125 
Q 71.09375 17.671875 61.125 8.828125 
Q 51.171875 0 30.078125 0 
L 9.8125 0 
z
" id="DejaVuSans-68"/>
     </defs>
     <g transform="translate(348.545 281.826187)scale(0.1 -0.1)">
      <use xlink:href="#DejaVuSans-71"/>
      <use x="77.490234" xlink:href="#DejaVuSans-97"/>
      <use x="138.769531" xlink:href="#DejaVuSans-117"/>
      <use x="202.148438" xlink:href="#DejaVuSans-115"/>
      <use x="254.248047" xlink:href="#DejaVuSans-115"/>
      <use x="306.347656" xlink:href="#DejaVuSans-105"/>
      <use x="334.130859" xlink:href="#DejaVuSans-111"/>
      <use x="395.3125" xlink:href="#DejaVuSans-110"/>
      <use x="458.691406" xlink:href="#DejaVuSans-45"/>
      <use x="494.775391" xlink:href="#DejaVuSans-68"/>
     </g>
    </g>
    <g id="line2d_24">
     <path d="M 320.545 293.004312 
L 340.545 293.004312 
" style="fill:none;stroke:#d62728;stroke-linecap:square;stroke-width:1.5;"/>
    </g>
    <g id="line2d_25"/>
    <g id="text_19">
     <!-- LOF -->
     <g transform="translate(348.545 296.504312)scale(0.1 -0.1)">
      <use xlink:href="#DejaVuSans-76"/>
      <use x="55.666016" xlink:href="#DejaVuSans-79"/>
      <use x="134.376953" xlink:href="#DejaVuSans-70"/>
     </g>
    </g>
   </g>
  </g>
 </g>
 <defs>
  <clipPath id="p904ae1e2dc">
   <rect height="266.112" width="357.12" x="57.6" y="41.472"/>
  </clipPath>
 </defs>
</svg>
