<?xml version="1.0" encoding="utf-8" standalone="no"?>
<!DOCTYPE svg PUBLIC "-//W3C//DTD SVG 1.1//EN"
  "http://www.w3.org/Graphics/SVG/1.1/DTD/svg11.dtd">
<!-- Created with matplotlib (https://matplotlib.org/) -->
<svg height="345.6pt" version="1.1" viewBox="0 0 460.8 345.6" width="460.8pt" xmlns="http://www.w3.org/2000/svg" xmlns:xlink="http://www.w3.org/1999/xlink">
 <defs>
  <style type="text/css">
*{stroke-linecap:butt;stroke-linejoin:round;}
  </style>
 </defs>
 <g id="figure_1">
  <g id="patch_1">
   <path d="M 0 345.6 
L 460.8 345.6 
L 460.8 0 
L 0 0 
z
" style="fill:#ffffff;"/>
  </g>
  <g id="axes_1">
   <g id="patch_2">
    <path d="M 57.6 307.584 
L 414.72 307.584 
L 414.72 41.472 
L 57.6 41.472 
z
" style="fill:#ffffff;"/>
   </g>
   <g id="matplotlib.axis_1">
    <g id="xtick_1">
     <g id="line2d_1">
      <defs>
       <path d="M 0 0 
L 0 3.5 
" id="m93c22ba05d" style="stroke:#000000;stroke-width:0.8;"/>
      </defs>
      <g>
       <use style="stroke:#000000;stroke-width:0.8;" x="73.832727" xlink:href="#m93c22ba05d" y="307.584"/>
      </g>
     </g>
     <g id="text_1">
      <!-- 0.0 -->
      <defs>
       <path d="M 31.78125 66.40625 
Q 24.171875 66.40625 20.328125 58.90625 
Q 16.5 51.421875 16.5 36.375 
Q 16.5 21.390625 20.328125 13.890625 
Q 24.171875 6.390625 31.78125 6.390625 
Q 39.453125 6.390625 43.28125 13.890625 
Q 47.125 21.390625 47.125 36.375 
Q 47.125 51.421875 43.28125 58.90625 
Q 39.453125 66.40625 31.78125 66.40625 
z
M 31.78125 74.21875 
Q 44.046875 74.21875 50.515625 64.515625 
Q 56.984375 54.828125 56.984375 36.375 
Q 56.984375 17.96875 50.515625 8.265625 
Q 44.046875 -1.421875 31.78125 -1.421875 
Q 19.53125 -1.421875 13.0625 8.265625 
Q 6.59375 17.96875 6.59375 36.375 
Q 6.59375 54.828125 13.0625 64.515625 
Q 19.53125 74.21875 31.78125 74.21875 
z
" id="DejaVuSans-48"/>
       <path d="M 10.6875 12.40625 
L 21 12.40625 
L 21 0 
L 10.6875 0 
z
" id="DejaVuSans-46"/>
      </defs>
      <g transform="translate(65.881165 322.182437)scale(0.1 -0.1)">
       <use xlink:href="#DejaVuSans-48"/>
       <use x="63.623047" xlink:href="#DejaVuSans-46"/>
       <use x="95.410156" xlink:href="#DejaVuSans-48"/>
      </g>
     </g>
    </g>
    <g id="xtick_2">
     <g id="line2d_2">
      <g>
       <use style="stroke:#000000;stroke-width:0.8;" x="138.763636" xlink:href="#m93c22ba05d" y="307.584"/>
      </g>
     </g>
     <g id="text_2">
      <!-- 0.2 -->
      <defs>
       <path d="M 19.1875 8.296875 
L 53.609375 8.296875 
L 53.609375 0 
L 7.328125 0 
L 7.328125 8.296875 
Q 12.9375 14.109375 22.625 23.890625 
Q 32.328125 33.6875 34.8125 36.53125 
Q 39.546875 41.84375 41.421875 45.53125 
Q 43.3125 49.21875 43.3125 52.78125 
Q 43.3125 58.59375 39.234375 62.25 
Q 35.15625 65.921875 28.609375 65.921875 
Q 23.96875 65.921875 18.8125 64.3125 
Q 13.671875 62.703125 7.8125 59.421875 
L 7.8125 69.390625 
Q 13.765625 71.78125 18.9375 73 
Q 24.125 74.21875 28.421875 74.21875 
Q 39.75 74.21875 46.484375 68.546875 
Q 53.21875 62.890625 53.21875 53.421875 
Q 53.21875 48.921875 51.53125 44.890625 
Q 49.859375 40.875 45.40625 35.40625 
Q 44.1875 33.984375 37.640625 27.21875 
Q 31.109375 20.453125 19.1875 8.296875 
z
" id="DejaVuSans-50"/>
      </defs>
      <g transform="translate(130.812074 322.182437)scale(0.1 -0.1)">
       <use xlink:href="#DejaVuSans-48"/>
       <use x="63.623047" xlink:href="#DejaVuSans-46"/>
       <use x="95.410156" xlink:href="#DejaVuSans-50"/>
      </g>
     </g>
    </g>
    <g id="xtick_3">
     <g id="line2d_3">
      <g>
       <use style="stroke:#000000;stroke-width:0.8;" x="203.694545" xlink:href="#m93c22ba05d" y="307.584"/>
      </g>
     </g>
     <g id="text_3">
      <!-- 0.4 -->
      <defs>
       <path d="M 37.796875 64.3125 
L 12.890625 25.390625 
L 37.796875 25.390625 
z
M 35.203125 72.90625 
L 47.609375 72.90625 
L 47.609375 25.390625 
L 58.015625 25.390625 
L 58.015625 17.1875 
L 47.609375 17.1875 
L 47.609375 0 
L 37.796875 0 
L 37.796875 17.1875 
L 4.890625 17.1875 
L 4.890625 26.703125 
z
" id="DejaVuSans-52"/>
      </defs>
      <g transform="translate(195.742983 322.182437)scale(0.1 -0.1)">
       <use xlink:href="#DejaVuSans-48"/>
       <use x="63.623047" xlink:href="#DejaVuSans-46"/>
       <use x="95.410156" xlink:href="#DejaVuSans-52"/>
      </g>
     </g>
    </g>
    <g id="xtick_4">
     <g id="line2d_4">
      <g>
       <use style="stroke:#000000;stroke-width:0.8;" x="268.625455" xlink:href="#m93c22ba05d" y="307.584"/>
      </g>
     </g>
     <g id="text_4">
      <!-- 0.6 -->
      <defs>
       <path d="M 33.015625 40.375 
Q 26.375 40.375 22.484375 35.828125 
Q 18.609375 31.296875 18.609375 23.390625 
Q 18.609375 15.53125 22.484375 10.953125 
Q 26.375 6.390625 33.015625 6.390625 
Q 39.65625 6.390625 43.53125 10.953125 
Q 47.40625 15.53125 47.40625 23.390625 
Q 47.40625 31.296875 43.53125 35.828125 
Q 39.65625 40.375 33.015625 40.375 
z
M 52.59375 71.296875 
L 52.59375 62.3125 
Q 48.875 64.0625 45.09375 64.984375 
Q 41.3125 65.921875 37.59375 65.921875 
Q 27.828125 65.921875 22.671875 59.328125 
Q 17.53125 52.734375 16.796875 39.40625 
Q 19.671875 43.65625 24.015625 45.921875 
Q 28.375 48.1875 33.59375 48.1875 
Q 44.578125 48.1875 50.953125 41.515625 
Q 57.328125 34.859375 57.328125 23.390625 
Q 57.328125 12.15625 50.6875 5.359375 
Q 44.046875 -1.421875 33.015625 -1.421875 
Q 20.359375 -1.421875 13.671875 8.265625 
Q 6.984375 17.96875 6.984375 36.375 
Q 6.984375 53.65625 15.1875 63.9375 
Q 23.390625 74.21875 37.203125 74.21875 
Q 40.921875 74.21875 44.703125 73.484375 
Q 48.484375 72.75 52.59375 71.296875 
z
" id="DejaVuSans-54"/>
      </defs>
      <g transform="translate(260.673892 322.182437)scale(0.1 -0.1)">
       <use xlink:href="#DejaVuSans-48"/>
       <use x="63.623047" xlink:href="#DejaVuSans-46"/>
       <use x="95.410156" xlink:href="#DejaVuSans-54"/>
      </g>
     </g>
    </g>
    <g id="xtick_5">
     <g id="line2d_5">
      <g>
       <use style="stroke:#000000;stroke-width:0.8;" x="333.556364" xlink:href="#m93c22ba05d" y="307.584"/>
      </g>
     </g>
     <g id="text_5">
      <!-- 0.8 -->
      <defs>
       <path d="M 31.78125 34.625 
Q 24.75 34.625 20.71875 30.859375 
Q 16.703125 27.09375 16.703125 20.515625 
Q 16.703125 13.921875 20.71875 10.15625 
Q 24.75 6.390625 31.78125 6.390625 
Q 38.8125 6.390625 42.859375 10.171875 
Q 46.921875 13.96875 46.921875 20.515625 
Q 46.921875 27.09375 42.890625 30.859375 
Q 38.875 34.625 31.78125 34.625 
z
M 21.921875 38.8125 
Q 15.578125 40.375 12.03125 44.71875 
Q 8.5 49.078125 8.5 55.328125 
Q 8.5 64.0625 14.71875 69.140625 
Q 20.953125 74.21875 31.78125 74.21875 
Q 42.671875 74.21875 48.875 69.140625 
Q 55.078125 64.0625 55.078125 55.328125 
Q 55.078125 49.078125 51.53125 44.71875 
Q 48 40.375 41.703125 38.8125 
Q 48.828125 37.15625 52.796875 32.3125 
Q 56.78125 27.484375 56.78125 20.515625 
Q 56.78125 9.90625 50.3125 4.234375 
Q 43.84375 -1.421875 31.78125 -1.421875 
Q 19.734375 -1.421875 13.25 4.234375 
Q 6.78125 9.90625 6.78125 20.515625 
Q 6.78125 27.484375 10.78125 32.3125 
Q 14.796875 37.15625 21.921875 38.8125 
z
M 18.3125 54.390625 
Q 18.3125 48.734375 21.84375 45.5625 
Q 25.390625 42.390625 31.78125 42.390625 
Q 38.140625 42.390625 41.71875 45.5625 
Q 45.3125 48.734375 45.3125 54.390625 
Q 45.3125 60.0625 41.71875 63.234375 
Q 38.140625 66.40625 31.78125 66.40625 
Q 25.390625 66.40625 21.84375 63.234375 
Q 18.3125 60.0625 18.3125 54.390625 
z
" id="DejaVuSans-56"/>
      </defs>
      <g transform="translate(325.604801 322.182437)scale(0.1 -0.1)">
       <use xlink:href="#DejaVuSans-48"/>
       <use x="63.623047" xlink:href="#DejaVuSans-46"/>
       <use x="95.410156" xlink:href="#DejaVuSans-56"/>
      </g>
     </g>
    </g>
    <g id="xtick_6">
     <g id="line2d_6">
      <g>
       <use style="stroke:#000000;stroke-width:0.8;" x="398.487273" xlink:href="#m93c22ba05d" y="307.584"/>
      </g>
     </g>
     <g id="text_6">
      <!-- 1.0 -->
      <defs>
       <path d="M 12.40625 8.296875 
L 28.515625 8.296875 
L 28.515625 63.921875 
L 10.984375 60.40625 
L 10.984375 69.390625 
L 28.421875 72.90625 
L 38.28125 72.90625 
L 38.28125 8.296875 
L 54.390625 8.296875 
L 54.390625 0 
L 12.40625 0 
z
" id="DejaVuSans-49"/>
      </defs>
      <g transform="translate(390.53571 322.182437)scale(0.1 -0.1)">
       <use xlink:href="#DejaVuSans-49"/>
       <use x="63.623047" xlink:href="#DejaVuSans-46"/>
       <use x="95.410156" xlink:href="#DejaVuSans-48"/>
      </g>
     </g>
    </g>
    <g id="text_7">
     <!-- False positive rate -->
     <defs>
      <path d="M 9.8125 72.90625 
L 51.703125 72.90625 
L 51.703125 64.59375 
L 19.671875 64.59375 
L 19.671875 43.109375 
L 48.578125 43.109375 
L 48.578125 34.8125 
L 19.671875 34.8125 
L 19.671875 0 
L 9.8125 0 
z
" id="DejaVuSans-70"/>
      <path d="M 34.28125 27.484375 
Q 23.390625 27.484375 19.1875 25 
Q 14.984375 22.515625 14.984375 16.5 
Q 14.984375 11.71875 18.140625 8.90625 
Q 21.296875 6.109375 26.703125 6.109375 
Q 34.1875 6.109375 38.703125 11.40625 
Q 43.21875 16.703125 43.21875 25.484375 
L 43.21875 27.484375 
z
M 52.203125 31.203125 
L 52.203125 0 
L 43.21875 0 
L 43.21875 8.296875 
Q 40.140625 3.328125 35.546875 0.953125 
Q 30.953125 -1.421875 24.3125 -1.421875 
Q 15.921875 -1.421875 10.953125 3.296875 
Q 6 8.015625 6 15.921875 
Q 6 25.140625 12.171875 29.828125 
Q 18.359375 34.515625 30.609375 34.515625 
L 43.21875 34.515625 
L 43.21875 35.40625 
Q 43.21875 41.609375 39.140625 45 
Q 35.0625 48.390625 27.6875 48.390625 
Q 23 48.390625 18.546875 47.265625 
Q 14.109375 46.140625 10.015625 43.890625 
L 10.015625 52.203125 
Q 14.9375 54.109375 19.578125 55.046875 
Q 24.21875 56 28.609375 56 
Q 40.484375 56 46.34375 49.84375 
Q 52.203125 43.703125 52.203125 31.203125 
z
" id="DejaVuSans-97"/>
      <path d="M 9.421875 75.984375 
L 18.40625 75.984375 
L 18.40625 0 
L 9.421875 0 
z
" id="DejaVuSans-108"/>
      <path d="M 44.28125 53.078125 
L 44.28125 44.578125 
Q 40.484375 46.53125 36.375 47.5 
Q 32.28125 48.484375 27.875 48.484375 
Q 21.1875 48.484375 17.84375 46.4375 
Q 14.5 44.390625 14.5 40.28125 
Q 14.5 37.15625 16.890625 35.375 
Q 19.28125 33.59375 26.515625 31.984375 
L 29.59375 31.296875 
Q 39.15625 29.25 43.1875 25.515625 
Q 47.21875 21.78125 47.21875 15.09375 
Q 47.21875 7.46875 41.1875 3.015625 
Q 35.15625 -1.421875 24.609375 -1.421875 
Q 20.21875 -1.421875 15.453125 -0.5625 
Q 10.6875 0.296875 5.421875 2 
L 5.421875 11.28125 
Q 10.40625 8.6875 15.234375 7.390625 
Q 20.0625 6.109375 24.8125 6.109375 
Q 31.15625 6.109375 34.5625 8.28125 
Q 37.984375 10.453125 37.984375 14.40625 
Q 37.984375 18.0625 35.515625 20.015625 
Q 33.0625 21.96875 24.703125 23.78125 
L 21.578125 24.515625 
Q 13.234375 26.265625 9.515625 29.90625 
Q 5.8125 33.546875 5.8125 39.890625 
Q 5.8125 47.609375 11.28125 51.796875 
Q 16.75 56 26.8125 56 
Q 31.78125 56 36.171875 55.265625 
Q 40.578125 54.546875 44.28125 53.078125 
z
" id="DejaVuSans-115"/>
      <path d="M 56.203125 29.59375 
L 56.203125 25.203125 
L 14.890625 25.203125 
Q 15.484375 15.921875 20.484375 11.0625 
Q 25.484375 6.203125 34.421875 6.203125 
Q 39.59375 6.203125 44.453125 7.46875 
Q 49.3125 8.734375 54.109375 11.28125 
L 54.109375 2.78125 
Q 49.265625 0.734375 44.1875 -0.34375 
Q 39.109375 -1.421875 33.890625 -1.421875 
Q 20.796875 -1.421875 13.15625 6.1875 
Q 5.515625 13.8125 5.515625 26.8125 
Q 5.515625 40.234375 12.765625 48.109375 
Q 20.015625 56 32.328125 56 
Q 43.359375 56 49.78125 48.890625 
Q 56.203125 41.796875 56.203125 29.59375 
z
M 47.21875 32.234375 
Q 47.125 39.59375 43.09375 43.984375 
Q 39.0625 48.390625 32.421875 48.390625 
Q 24.90625 48.390625 20.390625 44.140625 
Q 15.875 39.890625 15.1875 32.171875 
z
" id="DejaVuSans-101"/>
      <path id="DejaVuSans-32"/>
      <path d="M 18.109375 8.203125 
L 18.109375 -20.796875 
L 9.078125 -20.796875 
L 9.078125 54.6875 
L 18.109375 54.6875 
L 18.109375 46.390625 
Q 20.953125 51.265625 25.265625 53.625 
Q 29.59375 56 35.59375 56 
Q 45.5625 56 51.78125 48.09375 
Q 58.015625 40.1875 58.015625 27.296875 
Q 58.015625 14.40625 51.78125 6.484375 
Q 45.5625 -1.421875 35.59375 -1.421875 
Q 29.59375 -1.421875 25.265625 0.953125 
Q 20.953125 3.328125 18.109375 8.203125 
z
M 48.6875 27.296875 
Q 48.6875 37.203125 44.609375 42.84375 
Q 40.53125 48.484375 33.40625 48.484375 
Q 26.265625 48.484375 22.1875 42.84375 
Q 18.109375 37.203125 18.109375 27.296875 
Q 18.109375 17.390625 22.1875 11.75 
Q 26.265625 6.109375 33.40625 6.109375 
Q 40.53125 6.109375 44.609375 11.75 
Q 48.6875 17.390625 48.6875 27.296875 
z
" id="DejaVuSans-112"/>
      <path d="M 30.609375 48.390625 
Q 23.390625 48.390625 19.1875 42.75 
Q 14.984375 37.109375 14.984375 27.296875 
Q 14.984375 17.484375 19.15625 11.84375 
Q 23.34375 6.203125 30.609375 6.203125 
Q 37.796875 6.203125 41.984375 11.859375 
Q 46.1875 17.53125 46.1875 27.296875 
Q 46.1875 37.015625 41.984375 42.703125 
Q 37.796875 48.390625 30.609375 48.390625 
z
M 30.609375 56 
Q 42.328125 56 49.015625 48.375 
Q 55.71875 40.765625 55.71875 27.296875 
Q 55.71875 13.875 49.015625 6.21875 
Q 42.328125 -1.421875 30.609375 -1.421875 
Q 18.84375 -1.421875 12.171875 6.21875 
Q 5.515625 13.875 5.515625 27.296875 
Q 5.515625 40.765625 12.171875 48.375 
Q 18.84375 56 30.609375 56 
z
" id="DejaVuSans-111"/>
      <path d="M 9.421875 54.6875 
L 18.40625 54.6875 
L 18.40625 0 
L 9.421875 0 
z
M 9.421875 75.984375 
L 18.40625 75.984375 
L 18.40625 64.59375 
L 9.421875 64.59375 
z
" id="DejaVuSans-105"/>
      <path d="M 18.3125 70.21875 
L 18.3125 54.6875 
L 36.8125 54.6875 
L 36.8125 47.703125 
L 18.3125 47.703125 
L 18.3125 18.015625 
Q 18.3125 11.328125 20.140625 9.421875 
Q 21.96875 7.515625 27.59375 7.515625 
L 36.8125 7.515625 
L 36.8125 0 
L 27.59375 0 
Q 17.1875 0 13.234375 3.875 
Q 9.28125 7.765625 9.28125 18.015625 
L 9.28125 47.703125 
L 2.6875 47.703125 
L 2.6875 54.6875 
L 9.28125 54.6875 
L 9.28125 70.21875 
z
" id="DejaVuSans-116"/>
      <path d="M 2.984375 54.6875 
L 12.5 54.6875 
L 29.59375 8.796875 
L 46.6875 54.6875 
L 56.203125 54.6875 
L 35.6875 0 
L 23.484375 0 
z
" id="DejaVuSans-118"/>
      <path d="M 41.109375 46.296875 
Q 39.59375 47.171875 37.8125 47.578125 
Q 36.03125 48 33.890625 48 
Q 26.265625 48 22.1875 43.046875 
Q 18.109375 38.09375 18.109375 28.8125 
L 18.109375 0 
L 9.078125 0 
L 9.078125 54.6875 
L 18.109375 54.6875 
L 18.109375 46.1875 
Q 20.953125 51.171875 25.484375 53.578125 
Q 30.03125 56 36.53125 56 
Q 37.453125 56 38.578125 55.875 
Q 39.703125 55.765625 41.0625 55.515625 
z
" id="DejaVuSans-114"/>
     </defs>
     <g transform="translate(190.21 335.860562)scale(0.1 -0.1)">
      <use xlink:href="#DejaVuSans-70"/>
      <use x="57.378906" xlink:href="#DejaVuSans-97"/>
      <use x="118.658203" xlink:href="#DejaVuSans-108"/>
      <use x="146.441406" xlink:href="#DejaVuSans-115"/>
      <use x="198.541016" xlink:href="#DejaVuSans-101"/>
      <use x="260.064453" xlink:href="#DejaVuSans-32"/>
      <use x="291.851562" xlink:href="#DejaVuSans-112"/>
      <use x="355.328125" xlink:href="#DejaVuSans-111"/>
      <use x="416.509766" xlink:href="#DejaVuSans-115"/>
      <use x="468.609375" xlink:href="#DejaVuSans-105"/>
      <use x="496.392578" xlink:href="#DejaVuSans-116"/>
      <use x="535.601562" xlink:href="#DejaVuSans-105"/>
      <use x="563.384766" xlink:href="#DejaVuSans-118"/>
      <use x="622.564453" xlink:href="#DejaVuSans-101"/>
      <use x="684.087891" xlink:href="#DejaVuSans-32"/>
      <use x="715.875" xlink:href="#DejaVuSans-114"/>
      <use x="756.988281" xlink:href="#DejaVuSans-97"/>
      <use x="818.267578" xlink:href="#DejaVuSans-116"/>
      <use x="857.476562" xlink:href="#DejaVuSans-101"/>
     </g>
    </g>
   </g>
   <g id="matplotlib.axis_2">
    <g id="ytick_1">
     <g id="line2d_7">
      <defs>
       <path d="M 0 0 
L -3.5 0 
" id="m981972ee04" style="stroke:#000000;stroke-width:0.8;"/>
      </defs>
      <g>
       <use style="stroke:#000000;stroke-width:0.8;" x="57.6" xlink:href="#m981972ee04" y="295.488"/>
      </g>
     </g>
     <g id="text_8">
      <!-- 0.0 -->
      <g transform="translate(34.696875 299.287219)scale(0.1 -0.1)">
       <use xlink:href="#DejaVuSans-48"/>
       <use x="63.623047" xlink:href="#DejaVuSans-46"/>
       <use x="95.410156" xlink:href="#DejaVuSans-48"/>
      </g>
     </g>
    </g>
    <g id="ytick_2">
     <g id="line2d_8">
      <g>
       <use style="stroke:#000000;stroke-width:0.8;" x="57.6" xlink:href="#m981972ee04" y="247.104"/>
      </g>
     </g>
     <g id="text_9">
      <!-- 0.2 -->
      <g transform="translate(34.696875 250.903219)scale(0.1 -0.1)">
       <use xlink:href="#DejaVuSans-48"/>
       <use x="63.623047" xlink:href="#DejaVuSans-46"/>
       <use x="95.410156" xlink:href="#DejaVuSans-50"/>
      </g>
     </g>
    </g>
    <g id="ytick_3">
     <g id="line2d_9">
      <g>
       <use style="stroke:#000000;stroke-width:0.8;" x="57.6" xlink:href="#m981972ee04" y="198.72"/>
      </g>
     </g>
     <g id="text_10">
      <!-- 0.4 -->
      <g transform="translate(34.696875 202.519219)scale(0.1 -0.1)">
       <use xlink:href="#DejaVuSans-48"/>
       <use x="63.623047" xlink:href="#DejaVuSans-46"/>
       <use x="95.410156" xlink:href="#DejaVuSans-52"/>
      </g>
     </g>
    </g>
    <g id="ytick_4">
     <g id="line2d_10">
      <g>
       <use style="stroke:#000000;stroke-width:0.8;" x="57.6" xlink:href="#m981972ee04" y="150.336"/>
      </g>
     </g>
     <g id="text_11">
      <!-- 0.6 -->
      <g transform="translate(34.696875 154.135219)scale(0.1 -0.1)">
       <use xlink:href="#DejaVuSans-48"/>
       <use x="63.623047" xlink:href="#DejaVuSans-46"/>
       <use x="95.410156" xlink:href="#DejaVuSans-54"/>
      </g>
     </g>
    </g>
    <g id="ytick_5">
     <g id="line2d_11">
      <g>
       <use style="stroke:#000000;stroke-width:0.8;" x="57.6" xlink:href="#m981972ee04" y="101.952"/>
      </g>
     </g>
     <g id="text_12">
      <!-- 0.8 -->
      <g transform="translate(34.696875 105.751219)scale(0.1 -0.1)">
       <use xlink:href="#DejaVuSans-48"/>
       <use x="63.623047" xlink:href="#DejaVuSans-46"/>
       <use x="95.410156" xlink:href="#DejaVuSans-56"/>
      </g>
     </g>
    </g>
    <g id="ytick_6">
     <g id="line2d_12">
      <g>
       <use style="stroke:#000000;stroke-width:0.8;" x="57.6" xlink:href="#m981972ee04" y="53.568"/>
      </g>
     </g>
     <g id="text_13">
      <!-- 1.0 -->
      <g transform="translate(34.696875 57.367219)scale(0.1 -0.1)">
       <use xlink:href="#DejaVuSans-49"/>
       <use x="63.623047" xlink:href="#DejaVuSans-46"/>
       <use x="95.410156" xlink:href="#DejaVuSans-48"/>
      </g>
     </g>
    </g>
    <g id="text_14">
     <!-- True positive rate -->
     <defs>
      <path d="M -0.296875 72.90625 
L 61.375 72.90625 
L 61.375 64.59375 
L 35.5 64.59375 
L 35.5 0 
L 25.59375 0 
L 25.59375 64.59375 
L -0.296875 64.59375 
z
" id="DejaVuSans-84"/>
      <path d="M 8.5 21.578125 
L 8.5 54.6875 
L 17.484375 54.6875 
L 17.484375 21.921875 
Q 17.484375 14.15625 20.5 10.265625 
Q 23.53125 6.390625 29.59375 6.390625 
Q 36.859375 6.390625 41.078125 11.03125 
Q 45.3125 15.671875 45.3125 23.6875 
L 45.3125 54.6875 
L 54.296875 54.6875 
L 54.296875 0 
L 45.3125 0 
L 45.3125 8.40625 
Q 42.046875 3.421875 37.71875 1 
Q 33.40625 -1.421875 27.6875 -1.421875 
Q 18.265625 -1.421875 13.375 4.4375 
Q 8.5 10.296875 8.5 21.578125 
z
M 31.109375 56 
z
" id="DejaVuSans-117"/>
     </defs>
     <g transform="translate(28.617187 218.818625)rotate(-90)scale(0.1 -0.1)">
      <use xlink:href="#DejaVuSans-84"/>
      <use x="60.865234" xlink:href="#DejaVuSans-114"/>
      <use x="101.978516" xlink:href="#DejaVuSans-117"/>
      <use x="165.357422" xlink:href="#DejaVuSans-101"/>
      <use x="226.880859" xlink:href="#DejaVuSans-32"/>
      <use x="258.667969" xlink:href="#DejaVuSans-112"/>
      <use x="322.144531" xlink:href="#DejaVuSans-111"/>
      <use x="383.326172" xlink:href="#DejaVuSans-115"/>
      <use x="435.425781" xlink:href="#DejaVuSans-105"/>
      <use x="463.208984" xlink:href="#DejaVuSans-116"/>
      <use x="502.417969" xlink:href="#DejaVuSans-105"/>
      <use x="530.201172" xlink:href="#DejaVuSans-118"/>
      <use x="589.380859" xlink:href="#DejaVuSans-101"/>
      <use x="650.904297" xlink:href="#DejaVuSans-32"/>
      <use x="682.691406" xlink:href="#DejaVuSans-114"/>
      <use x="723.804688" xlink:href="#DejaVuSans-97"/>
      <use x="785.083984" xlink:href="#DejaVuSans-116"/>
      <use x="824.292969" xlink:href="#DejaVuSans-101"/>
     </g>
    </g>
   </g>
   <g id="line2d_13">
    <path clip-path="url(#p54e66f303d)" d="M 73.832727 295.488 
L 398.487273 53.568 
" style="fill:none;stroke:#000000;stroke-dasharray:5.55,2.4;stroke-dashoffset:0;stroke-width:1.5;"/>
   </g>
   <g id="line2d_14">
    <path clip-path="url(#p54e66f303d)" d="M 73.832727 295.488 
L 73.832727 293.992028 
L 76.369091 293.992028 
L 76.369091 286.93959 
L 78.905455 286.93959 
L 78.905455 279.459731 
L 81.441818 279.459731 
L 81.441818 279.032311 
L 83.978182 279.032311 
L 83.978182 277.96376 
L 86.514545 277.96376 
L 86.514545 276.467788 
L 89.050909 276.467788 
L 89.050909 275.826657 
L 91.587273 275.826657 
L 91.587273 262.362912 
L 94.123636 262.362912 
L 94.123636 251.677399 
L 96.66 251.677399 
L 96.66 251.036269 
L 99.196364 251.036269 
L 99.196364 247.189484 
L 101.732727 247.189484 
L 101.732727 246.334643 
L 104.269091 246.334643 
L 104.269091 245.266092 
L 106.805455 245.266092 
L 106.805455 244.411251 
L 109.341818 244.411251 
L 109.341818 243.98383 
L 111.878182 243.98383 
L 111.878182 241.633018 
L 114.414545 241.633018 
L 114.414545 240.991887 
L 116.950909 240.991887 
L 116.950909 236.717682 
L 119.487273 236.717682 
L 119.487273 224.963618 
L 122.023636 224.963618 
L 122.023636 223.895067 
L 124.56 223.895067 
L 124.56 209.576481 
L 127.096364 209.576481 
L 127.096364 207.866799 
L 129.632727 207.866799 
L 129.632727 200.81436 
L 132.169091 200.81436 
L 132.169091 190.342558 
L 134.705455 190.342558 
L 134.705455 186.923194 
L 137.241818 186.923194 
L 137.241818 182.648989 
L 139.778182 182.648989 
L 139.778182 179.229625 
L 142.314545 179.229625 
L 142.314545 176.023972 
L 144.850909 176.023972 
L 144.850909 175.169131 
L 147.387273 175.169131 
L 147.387273 172.818318 
L 149.923636 172.818318 
L 149.923636 170.467505 
L 152.46 170.467505 
L 152.46 165.97959 
L 154.996364 165.97959 
L 154.996364 161.064254 
L 157.532727 161.064254 
L 157.532727 160.423124 
L 162.605455 160.423124 
L 162.605455 158.927152 
L 165.141818 158.927152 
L 165.141818 154.011816 
L 167.678182 154.011816 
L 167.678182 153.370686 
L 170.214545 153.370686 
L 170.214545 151.661004 
L 172.750909 151.661004 
L 172.750909 147.386799 
L 175.287273 147.386799 
L 175.287273 144.181145 
L 177.823636 144.181145 
L 177.823636 143.753724 
L 180.36 143.753724 
L 180.36 139.265809 
L 182.896364 139.265809 
L 182.896364 134.564184 
L 185.432727 134.564184 
L 185.432727 132.427081 
L 190.505455 132.427081 
L 190.505455 132.213371 
L 195.578182 132.213371 
L 195.578182 130.93111 
L 198.114545 130.93111 
L 198.114545 126.870615 
L 203.187273 126.870615 
L 203.187273 121.314148 
L 205.723636 121.314148 
L 205.723636 117.253654 
L 208.26 117.253654 
L 208.26 111.697187 
L 213.332727 111.697187 
L 213.332727 110.842346 
L 215.869091 110.842346 
L 215.869091 108.277823 
L 218.405455 108.277823 
L 218.405455 107.636693 
L 223.478182 107.636693 
L 223.478182 106.354431 
L 226.014545 106.354431 
L 226.014545 105.7133 
L 228.550909 105.7133 
L 228.550909 105.49959 
L 231.087273 105.49959 
L 231.087273 104.644749 
L 233.623636 104.644749 
L 233.623636 91.394714 
L 236.16 91.394714 
L 236.16 89.043901 
L 238.696364 89.043901 
L 238.696364 83.487435 
L 241.232727 83.487435 
L 241.232727 81.350332 
L 243.769091 81.350332 
L 243.769091 71.305951 
L 246.305455 71.305951 
L 246.305455 67.031746 
L 248.841818 67.031746 
L 248.841818 66.818035 
L 251.378182 66.818035 
L 251.378182 66.176905 
L 258.987273 66.176905 
L 258.987273 65.963194 
L 271.669091 65.963194 
L 271.669091 65.749484 
L 276.741818 65.749484 
L 276.741818 64.894643 
L 279.278182 64.894643 
L 279.278182 64.467223 
L 281.814545 64.467223 
L 281.814545 64.253512 
L 284.350909 64.253512 
L 284.350909 64.039802 
L 289.423636 64.039802 
L 289.423636 63.612382 
L 291.96 63.612382 
L 291.96 63.398671 
L 294.496364 63.398671 
L 294.496364 61.688989 
L 297.032727 61.688989 
L 297.032727 61.261569 
L 299.569091 61.261569 
L 299.569091 60.620438 
L 304.641818 60.620438 
L 304.641818 60.406728 
L 312.250909 60.406728 
L 312.250909 59.979307 
L 319.86 59.979307 
L 319.86 58.697046 
L 322.396364 58.697046 
L 322.396364 58.483336 
L 324.932727 58.483336 
L 324.932727 58.269625 
L 327.469091 58.269625 
L 327.469091 57.842205 
L 337.614545 57.842205 
L 337.614545 57.414784 
L 342.687273 57.414784 
L 342.687273 57.201074 
L 347.76 57.201074 
L 347.76 56.987364 
L 360.441818 56.987364 
L 360.441818 56.773654 
L 365.514545 56.773654 
L 365.514545 56.559943 
L 373.123636 56.559943 
L 373.123636 56.346233 
L 378.196364 56.346233 
L 378.196364 56.132523 
L 380.732727 56.132523 
L 380.732727 54.422841 
L 383.269091 54.422841 
L 383.269091 54.209131 
L 385.805455 54.209131 
L 385.805455 53.99542 
L 390.878182 53.99542 
L 390.878182 53.78171 
L 393.414545 53.78171 
L 393.414545 53.568 
L 398.487273 53.568 
L 398.487273 53.568 
" style="fill:none;stroke:#1f77b4;stroke-linecap:square;stroke-width:1.5;"/>
   </g>
   <g id="line2d_15">
    <path clip-path="url(#p54e66f303d)" d="M 73.832727 295.488 
L 73.832727 293.350898 
L 76.369091 293.350898 
L 76.369091 289.717823 
L 78.905455 289.717823 
L 78.905455 284.161357 
L 81.441818 284.161357 
L 81.441818 283.733936 
L 83.978182 283.733936 
L 83.978182 280.955703 
L 86.514545 280.955703 
L 86.514545 277.750049 
L 89.050909 277.750049 
L 89.050909 269.62906 
L 91.587273 269.62906 
L 91.587273 266.423406 
L 94.123636 266.423406 
L 94.123636 263.431463 
L 96.66 263.431463 
L 96.66 258.302417 
L 99.196364 258.302417 
L 99.196364 246.334643 
L 101.732727 246.334643 
L 101.732727 243.128989 
L 104.269091 243.128989 
L 104.269091 242.487859 
L 106.805455 242.487859 
L 106.805455 238.427364 
L 109.341818 238.427364 
L 109.341818 227.100721 
L 114.414545 227.100721 
L 114.414545 223.681357 
L 119.487273 223.681357 
L 119.487273 222.399095 
L 122.023636 222.399095 
L 122.023636 220.475703 
L 124.56 220.475703 
L 124.56 218.12489 
L 127.096364 218.12489 
L 127.096364 215.774078 
L 129.632727 215.774078 
L 129.632727 213.636975 
L 132.169091 213.636975 
L 132.169091 211.072452 
L 134.705455 211.072452 
L 134.705455 209.36277 
L 137.241818 209.36277 
L 137.241818 206.798247 
L 139.778182 206.798247 
L 139.778182 206.157117 
L 142.314545 206.157117 
L 142.314545 200.38694 
L 144.850909 200.38694 
L 144.850909 191.83853 
L 147.387273 191.83853 
L 147.387273 189.487717 
L 149.923636 189.487717 
L 149.923636 182.221569 
L 152.46 182.221569 
L 152.46 179.870756 
L 154.996364 179.870756 
L 154.996364 179.015915 
L 157.532727 179.015915 
L 157.532727 177.519943 
L 160.069091 177.519943 
L 160.069091 176.665102 
L 162.605455 176.665102 
L 162.605455 164.911039 
L 165.141818 164.911039 
L 165.141818 160.423124 
L 170.214545 160.423124 
L 170.214545 156.362629 
L 177.823636 156.362629 
L 177.823636 153.156975 
L 182.896364 153.156975 
L 182.896364 146.745668 
L 185.432727 146.745668 
L 185.432727 144.608565 
L 187.969091 144.608565 
L 187.969091 137.556127 
L 190.505455 137.556127 
L 190.505455 137.128707 
L 193.041818 137.128707 
L 193.041818 136.914996 
L 195.578182 136.914996 
L 195.578182 136.060155 
L 198.114545 136.060155 
L 198.114545 135.632735 
L 203.187273 135.632735 
L 203.187273 131.57224 
L 208.26 131.57224 
L 208.26 128.366587 
L 210.796364 128.366587 
L 210.796364 127.084325 
L 213.332727 127.084325 
L 213.332727 126.656905 
L 215.869091 126.656905 
L 215.869091 126.015774 
L 218.405455 126.015774 
L 218.405455 123.664961 
L 220.941818 123.664961 
L 220.941818 123.237541 
L 223.478182 123.237541 
L 223.478182 121.741569 
L 226.014545 121.741569 
L 226.014545 118.963336 
L 228.550909 118.963336 
L 228.550909 118.749625 
L 231.087273 118.749625 
L 231.087273 117.894784 
L 233.623636 117.894784 
L 233.623636 117.681074 
L 236.16 117.681074 
L 236.16 115.757682 
L 238.696364 115.757682 
L 238.696364 112.765739 
L 241.232727 112.765739 
L 241.232727 111.269767 
L 243.769091 111.269767 
L 243.769091 110.414926 
L 246.305455 110.414926 
L 246.305455 109.560085 
L 248.841818 109.560085 
L 248.841818 106.995562 
L 251.378182 106.995562 
L 251.378182 106.568141 
L 253.914545 106.568141 
L 253.914545 104.858459 
L 258.987273 104.858459 
L 258.987273 103.362488 
L 261.523636 103.362488 
L 261.523636 102.507647 
L 264.06 102.507647 
L 264.06 102.293936 
L 266.596364 102.293936 
L 266.596364 101.866516 
L 271.669091 101.866516 
L 271.669091 101.652806 
L 274.205455 101.652806 
L 274.205455 100.370544 
L 281.814545 100.370544 
L 281.814545 97.16489 
L 284.350909 97.16489 
L 284.350909 96.52376 
L 286.887273 96.52376 
L 286.887273 96.310049 
L 289.423636 96.310049 
L 289.423636 96.096339 
L 291.96 96.096339 
L 291.96 95.455208 
L 297.032727 95.455208 
L 297.032727 94.600367 
L 299.569091 94.600367 
L 299.569091 92.890686 
L 302.105455 92.890686 
L 302.105455 92.676975 
L 304.641818 92.676975 
L 304.641818 91.608424 
L 307.178182 91.608424 
L 307.178182 90.967293 
L 309.714545 90.967293 
L 309.714545 90.753583 
L 312.250909 90.753583 
L 312.250909 89.685032 
L 314.787273 89.685032 
L 314.787273 89.043901 
L 317.323636 89.043901 
L 317.323636 88.40277 
L 322.396364 88.40277 
L 322.396364 87.76164 
L 327.469091 87.76164 
L 327.469091 87.547929 
L 330.005455 87.547929 
L 330.005455 86.693088 
L 332.541818 86.693088 
L 332.541818 86.265668 
L 335.078182 86.265668 
L 335.078182 84.555986 
L 337.614545 84.555986 
L 337.614545 84.128565 
L 340.150909 84.128565 
L 340.150909 83.914855 
L 345.223636 83.914855 
L 345.223636 83.487435 
L 347.76 83.487435 
L 347.76 78.999519 
L 350.296364 78.999519 
L 350.296364 78.358389 
L 352.832727 78.358389 
L 352.832727 77.503548 
L 355.369091 77.503548 
L 355.369091 76.434996 
L 357.905455 76.434996 
L 357.905455 75.366445 
L 362.978182 75.366445 
L 362.978182 75.152735 
L 365.514545 75.152735 
L 365.514545 74.939025 
L 368.050909 74.939025 
L 368.050909 70.023689 
L 373.123636 70.023689 
L 373.123636 67.672876 
L 378.196364 67.672876 
L 378.196364 66.818035 
L 380.732727 66.818035 
L 380.732727 64.894643 
L 383.269091 64.894643 
L 383.269091 58.055915 
L 385.805455 58.055915 
L 385.805455 56.559943 
L 388.341818 56.559943 
L 388.341818 56.132523 
L 390.878182 56.132523 
L 390.878182 54.850261 
L 393.414545 54.850261 
L 393.414545 54.209131 
L 395.950909 54.209131 
L 395.950909 53.99542 
L 398.487273 53.99542 
L 398.487273 53.568 
L 398.487273 53.568 
" style="fill:none;stroke:#ff7f0e;stroke-linecap:square;stroke-width:1.5;"/>
   </g>
   <g id="line2d_16">
    <path clip-path="url(#p54e66f303d)" d="M 73.832727 295.488 
L 73.832727 272.621004 
L 76.369091 272.621004 
L 76.369091 268.133088 
L 78.905455 268.133088 
L 78.905455 239.923336 
L 81.441818 239.923336 
L 81.441818 206.798247 
L 83.978182 206.798247 
L 83.978182 205.302276 
L 89.050909 205.302276 
L 89.050909 204.661145 
L 91.587273 204.661145 
L 91.587273 201.455491 
L 94.123636 201.455491 
L 94.123636 195.257894 
L 96.66 195.257894 
L 96.66 182.435279 
L 99.196364 182.435279 
L 99.196364 176.237682 
L 101.732727 176.237682 
L 101.732727 170.253795 
L 104.269091 170.253795 
L 104.269091 169.185244 
L 106.805455 169.185244 
L 106.805455 165.97959 
L 109.341818 165.97959 
L 109.341818 159.995703 
L 111.878182 159.995703 
L 111.878182 157.00376 
L 114.414545 157.00376 
L 114.414545 156.576339 
L 116.950909 156.576339 
L 116.950909 152.943265 
L 119.487273 152.943265 
L 119.487273 152.088424 
L 124.56 152.088424 
L 124.56 151.447293 
L 127.096364 151.447293 
L 127.096364 150.592452 
L 129.632727 150.592452 
L 129.632727 148.66906 
L 132.169091 148.66906 
L 132.169091 145.249696 
L 134.705455 145.249696 
L 134.705455 141.830332 
L 137.241818 141.830332 
L 137.241818 140.548071 
L 139.778182 140.548071 
L 139.778182 134.991604 
L 142.314545 134.991604 
L 142.314545 132.213371 
L 144.850909 132.213371 
L 144.850909 131.35853 
L 147.387273 131.35853 
L 147.387273 129.862558 
L 149.923636 129.862558 
L 149.923636 129.435138 
L 152.46 129.435138 
L 152.46 123.878671 
L 154.996364 123.878671 
L 154.996364 123.237541 
L 157.532727 123.237541 
L 157.532727 117.894784 
L 160.069091 117.894784 
L 160.069091 117.681074 
L 162.605455 117.681074 
L 162.605455 117.253654 
L 165.141818 117.253654 
L 165.141818 114.048 
L 167.678182 114.048 
L 167.678182 113.83429 
L 170.214545 113.83429 
L 170.214545 113.62058 
L 172.750909 113.62058 
L 172.750909 110.628636 
L 177.823636 110.628636 
L 177.823636 109.987505 
L 180.36 109.987505 
L 180.36 108.491534 
L 182.896364 108.491534 
L 182.896364 108.064113 
L 185.432727 108.064113 
L 185.432727 103.789908 
L 187.969091 103.789908 
L 187.969091 103.148777 
L 190.505455 103.148777 
L 190.505455 102.507647 
L 193.041818 102.507647 
L 193.041818 100.797965 
L 195.578182 100.797965 
L 195.578182 100.584254 
L 198.114545 100.584254 
L 198.114545 100.370544 
L 200.650909 100.370544 
L 200.650909 99.301993 
L 203.187273 99.301993 
L 203.187273 98.660862 
L 205.723636 98.660862 
L 205.723636 98.233442 
L 208.26 98.233442 
L 208.26 96.310049 
L 213.332727 96.310049 
L 213.332727 95.241498 
L 215.869091 95.241498 
L 215.869091 94.600367 
L 218.405455 94.600367 
L 218.405455 93.531816 
L 220.941818 93.531816 
L 220.941818 93.318106 
L 223.478182 93.318106 
L 223.478182 93.104396 
L 297.032727 93.104396 
L 297.032727 92.463265 
L 309.714545 92.463265 
L 309.714545 92.249555 
L 319.86 92.249555 
L 319.86 92.035845 
L 322.396364 92.035845 
L 322.396364 91.608424 
L 324.932727 91.608424 
L 324.932727 91.394714 
L 327.469091 91.394714 
L 327.469091 90.753583 
L 330.005455 90.753583 
L 330.005455 88.830191 
L 332.541818 88.830191 
L 332.541818 87.97535 
L 337.614545 87.97535 
L 337.614545 84.983406 
L 340.150909 84.983406 
L 340.150909 81.564042 
L 342.687273 81.564042 
L 342.687273 76.862417 
L 345.223636 76.862417 
L 345.223636 76.221286 
L 347.76 76.221286 
L 347.76 65.322064 
L 350.296364 65.322064 
L 350.296364 63.398671 
L 352.832727 63.398671 
L 352.832727 62.971251 
L 362.978182 62.971251 
L 362.978182 62.11641 
L 373.123636 62.11641 
L 373.123636 61.9027 
L 375.66 61.9027 
L 375.66 61.688989 
L 378.196364 61.688989 
L 378.196364 61.475279 
L 383.269091 61.475279 
L 383.269091 61.261569 
L 393.414545 61.261569 
L 393.414545 61.047859 
L 395.950909 61.047859 
L 395.950909 56.987364 
L 398.487273 56.987364 
L 398.487273 53.568 
L 398.487273 53.568 
" style="fill:none;stroke:#2ca02c;stroke-linecap:square;stroke-width:1.5;"/>
   </g>
   <g id="line2d_17">
    <path clip-path="url(#p54e66f303d)" d="M 73.832727 295.488 
L 73.832727 290.786375 
L 76.369091 290.786375 
L 76.369091 290.358954 
L 81.441818 290.358954 
L 81.441818 287.367011 
L 83.978182 287.367011 
L 83.978182 287.1533 
L 86.514545 287.1533 
L 86.514545 285.657329 
L 89.050909 285.657329 
L 89.050909 284.161357 
L 91.587273 284.161357 
L 91.587273 283.947647 
L 94.123636 283.947647 
L 94.123636 283.306516 
L 96.66 283.306516 
L 96.66 282.879095 
L 99.196364 282.879095 
L 99.196364 282.665385 
L 104.269091 282.665385 
L 104.269091 282.237965 
L 106.805455 282.237965 
L 106.805455 282.024254 
L 109.341818 282.024254 
L 109.341818 281.169413 
L 114.414545 281.169413 
L 114.414545 279.887152 
L 116.950909 279.887152 
L 116.950909 278.60489 
L 119.487273 278.60489 
L 119.487273 264.927435 
L 122.023636 264.927435 
L 122.023636 252.745951 
L 124.56 252.745951 
L 124.56 252.53224 
L 127.096364 252.53224 
L 127.096364 244.411251 
L 129.632727 244.411251 
L 129.632727 228.596693 
L 132.169091 228.596693 
L 132.169091 226.6733 
L 134.705455 226.6733 
L 134.705455 225.818459 
L 137.241818 225.818459 
L 137.241818 211.713583 
L 139.778182 211.713583 
L 139.778182 209.14906 
L 142.314545 209.14906 
L 142.314545 205.729696 
L 144.850909 205.729696 
L 144.850909 204.447435 
L 147.387273 204.447435 
L 147.387273 190.769979 
L 149.923636 190.769979 
L 149.923636 186.282064 
L 152.46 186.282064 
L 152.46 184.572382 
L 154.996364 184.572382 
L 154.996364 179.657046 
L 157.532727 179.657046 
L 157.532727 179.015915 
L 160.069091 179.015915 
L 160.069091 178.161074 
L 162.605455 178.161074 
L 162.605455 173.886869 
L 165.141818 173.886869 
L 165.141818 159.781993 
L 167.678182 159.781993 
L 167.678182 147.173088 
L 170.214545 147.173088 
L 170.214545 145.463406 
L 172.750909 145.463406 
L 172.750909 142.898883 
L 175.287273 142.898883 
L 175.287273 139.265809 
L 177.823636 139.265809 
L 177.823636 137.556127 
L 180.36 137.556127 
L 180.36 136.273866 
L 182.896364 136.273866 
L 182.896364 134.991604 
L 185.432727 134.991604 
L 185.432727 134.136763 
L 187.969091 134.136763 
L 187.969091 129.648848 
L 190.505455 129.648848 
L 190.505455 126.870615 
L 193.041818 126.870615 
L 193.041818 121.100438 
L 195.578182 121.100438 
L 195.578182 120.459307 
L 198.114545 120.459307 
L 198.114545 119.604466 
L 200.650909 119.604466 
L 200.650909 119.177046 
L 203.187273 119.177046 
L 203.187273 118.322205 
L 205.723636 118.322205 
L 205.723636 115.757682 
L 208.26 115.757682 
L 208.26 112.124608 
L 210.796364 112.124608 
L 210.796364 110.201216 
L 213.332727 110.201216 
L 213.332727 108.918954 
L 215.869091 108.918954 
L 215.869091 108.705244 
L 218.405455 108.705244 
L 218.405455 107.636693 
L 223.478182 107.636693 
L 223.478182 103.362488 
L 226.014545 103.362488 
L 226.014545 100.370544 
L 228.550909 100.370544 
L 228.550909 100.156834 
L 231.087273 100.156834 
L 231.087273 99.729413 
L 233.623636 99.729413 
L 233.623636 99.088283 
L 236.16 99.088283 
L 236.16 98.447152 
L 238.696364 98.447152 
L 238.696364 97.806021 
L 241.232727 97.806021 
L 241.232727 95.027788 
L 243.769091 95.027788 
L 243.769091 94.386657 
L 246.305455 94.386657 
L 246.305455 92.249555 
L 248.841818 92.249555 
L 248.841818 89.898742 
L 251.378182 89.898742 
L 251.378182 88.18906 
L 253.914545 88.18906 
L 253.914545 87.334219 
L 256.450909 87.334219 
L 256.450909 86.906799 
L 261.523636 86.906799 
L 261.523636 84.769696 
L 264.06 84.769696 
L 264.06 81.564042 
L 266.596364 81.564042 
L 266.596364 80.709201 
L 269.132727 80.709201 
L 269.132727 79.42694 
L 271.669091 79.42694 
L 271.669091 77.289837 
L 274.205455 77.289837 
L 274.205455 76.434996 
L 276.741818 76.434996 
L 276.741818 66.390615 
L 279.278182 66.390615 
L 279.278182 65.749484 
L 281.814545 65.749484 
L 281.814545 63.826092 
L 284.350909 63.826092 
L 284.350909 62.757541 
L 286.887273 62.757541 
L 286.887273 62.54383 
L 289.423636 62.54383 
L 289.423636 62.33012 
L 291.96 62.33012 
L 291.96 62.11641 
L 294.496364 62.11641 
L 294.496364 61.9027 
L 297.032727 61.9027 
L 297.032727 61.688989 
L 299.569091 61.688989 
L 299.569091 61.475279 
L 302.105455 61.475279 
L 302.105455 60.834148 
L 307.178182 60.834148 
L 307.178182 59.979307 
L 309.714545 59.979307 
L 309.714545 59.551887 
L 312.250909 59.551887 
L 312.250909 59.338177 
L 314.787273 59.338177 
L 314.787273 58.910756 
L 317.323636 58.910756 
L 317.323636 55.277682 
L 319.86 55.277682 
L 319.86 55.063972 
L 322.396364 55.063972 
L 322.396364 54.850261 
L 324.932727 54.850261 
L 324.932727 54.636551 
L 327.469091 54.636551 
L 327.469091 54.422841 
L 337.614545 54.422841 
L 337.614545 53.568 
L 398.487273 53.568 
L 398.487273 53.568 
" style="fill:none;stroke:#d62728;stroke-linecap:square;stroke-width:1.5;"/>
   </g>
   <g id="patch_3">
    <path d="M 57.6 307.584 
L 57.6 41.472 
" style="fill:none;stroke:#000000;stroke-linecap:square;stroke-linejoin:miter;stroke-width:0.8;"/>
   </g>
   <g id="patch_4">
    <path d="M 414.72 307.584 
L 414.72 41.472 
" style="fill:none;stroke:#000000;stroke-linecap:square;stroke-linejoin:miter;stroke-width:0.8;"/>
   </g>
   <g id="patch_5">
    <path d="M 57.6 307.584 
L 414.72 307.584 
" style="fill:none;stroke:#000000;stroke-linecap:square;stroke-linejoin:miter;stroke-width:0.8;"/>
   </g>
   <g id="patch_6">
    <path d="M 57.6 41.472 
L 414.72 41.472 
" style="fill:none;stroke:#000000;stroke-linecap:square;stroke-linejoin:miter;stroke-width:0.8;"/>
   </g>
   <g id="text_15">
    <!-- HOG ROC -->
    <defs>
     <path d="M 9.8125 72.90625 
L 19.671875 72.90625 
L 19.671875 43.015625 
L 55.515625 43.015625 
L 55.515625 72.90625 
L 65.375 72.90625 
L 65.375 0 
L 55.515625 0 
L 55.515625 34.71875 
L 19.671875 34.71875 
L 19.671875 0 
L 9.8125 0 
z
" id="DejaVuSans-72"/>
     <path d="M 39.40625 66.21875 
Q 28.65625 66.21875 22.328125 58.203125 
Q 16.015625 50.203125 16.015625 36.375 
Q 16.015625 22.609375 22.328125 14.59375 
Q 28.65625 6.59375 39.40625 6.59375 
Q 50.140625 6.59375 56.421875 14.59375 
Q 62.703125 22.609375 62.703125 36.375 
Q 62.703125 50.203125 56.421875 58.203125 
Q 50.140625 66.21875 39.40625 66.21875 
z
M 39.40625 74.21875 
Q 54.734375 74.21875 63.90625 63.9375 
Q 73.09375 53.65625 73.09375 36.375 
Q 73.09375 19.140625 63.90625 8.859375 
Q 54.734375 -1.421875 39.40625 -1.421875 
Q 24.03125 -1.421875 14.8125 8.828125 
Q 5.609375 19.09375 5.609375 36.375 
Q 5.609375 53.65625 14.8125 63.9375 
Q 24.03125 74.21875 39.40625 74.21875 
z
" id="DejaVuSans-79"/>
     <path d="M 59.515625 10.40625 
L 59.515625 29.984375 
L 43.40625 29.984375 
L 43.40625 38.09375 
L 69.28125 38.09375 
L 69.28125 6.78125 
Q 63.578125 2.734375 56.6875 0.65625 
Q 49.8125 -1.421875 42 -1.421875 
Q 24.90625 -1.421875 15.25 8.5625 
Q 5.609375 18.5625 5.609375 36.375 
Q 5.609375 54.25 15.25 64.234375 
Q 24.90625 74.21875 42 74.21875 
Q 49.125 74.21875 55.546875 72.453125 
Q 61.96875 70.703125 67.390625 67.28125 
L 67.390625 56.78125 
Q 61.921875 61.421875 55.765625 63.765625 
Q 49.609375 66.109375 42.828125 66.109375 
Q 29.4375 66.109375 22.71875 58.640625 
Q 16.015625 51.171875 16.015625 36.375 
Q 16.015625 21.625 22.71875 14.15625 
Q 29.4375 6.6875 42.828125 6.6875 
Q 48.046875 6.6875 52.140625 7.59375 
Q 56.25 8.5 59.515625 10.40625 
z
" id="DejaVuSans-71"/>
     <path d="M 44.390625 34.1875 
Q 47.5625 33.109375 50.5625 29.59375 
Q 53.5625 26.078125 56.59375 19.921875 
L 66.609375 0 
L 56 0 
L 46.6875 18.703125 
Q 43.0625 26.03125 39.671875 28.421875 
Q 36.28125 30.8125 30.421875 30.8125 
L 19.671875 30.8125 
L 19.671875 0 
L 9.8125 0 
L 9.8125 72.90625 
L 32.078125 72.90625 
Q 44.578125 72.90625 50.734375 67.671875 
Q 56.890625 62.453125 56.890625 51.90625 
Q 56.890625 45.015625 53.6875 40.46875 
Q 50.484375 35.9375 44.390625 34.1875 
z
M 19.671875 64.796875 
L 19.671875 38.921875 
L 32.078125 38.921875 
Q 39.203125 38.921875 42.84375 42.21875 
Q 46.484375 45.515625 46.484375 51.90625 
Q 46.484375 58.296875 42.84375 61.546875 
Q 39.203125 64.796875 32.078125 64.796875 
z
" id="DejaVuSans-82"/>
     <path d="M 64.40625 67.28125 
L 64.40625 56.890625 
Q 59.421875 61.53125 53.78125 63.8125 
Q 48.140625 66.109375 41.796875 66.109375 
Q 29.296875 66.109375 22.65625 58.46875 
Q 16.015625 50.828125 16.015625 36.375 
Q 16.015625 21.96875 22.65625 14.328125 
Q 29.296875 6.6875 41.796875 6.6875 
Q 48.140625 6.6875 53.78125 8.984375 
Q 59.421875 11.28125 64.40625 15.921875 
L 64.40625 5.609375 
Q 59.234375 2.09375 53.4375 0.328125 
Q 47.65625 -1.421875 41.21875 -1.421875 
Q 24.65625 -1.421875 15.125 8.703125 
Q 5.609375 18.84375 5.609375 36.375 
Q 5.609375 53.953125 15.125 64.078125 
Q 24.65625 74.21875 41.21875 74.21875 
Q 47.75 74.21875 53.53125 72.484375 
Q 59.328125 70.75 64.40625 67.28125 
z
" id="DejaVuSans-67"/>
    </defs>
    <g transform="translate(207.286875 35.472)scale(0.12 -0.12)">
     <use xlink:href="#DejaVuSans-72"/>
     <use x="75.195312" xlink:href="#DejaVuSans-79"/>
     <use x="153.90625" xlink:href="#DejaVuSans-71"/>
     <use x="231.396484" xlink:href="#DejaVuSans-32"/>
     <use x="263.183594" xlink:href="#DejaVuSans-82"/>
     <use x="332.666016" xlink:href="#DejaVuSans-79"/>
     <use x="411.376953" xlink:href="#DejaVuSans-67"/>
    </g>
   </g>
   <g id="legend_1">
    <g id="patch_7">
     <path d="M 318.545 302.584 
L 407.72 302.584 
Q 409.72 302.584 409.72 300.584 
L 409.72 242.8715 
Q 409.72 240.8715 407.72 240.8715 
L 318.545 240.8715 
Q 316.545 240.8715 316.545 242.8715 
L 316.545 300.584 
Q 316.545 302.584 318.545 302.584 
z
" style="fill:#ffffff;opacity:0.8;stroke:#cccccc;stroke-linejoin:miter;"/>
    </g>
    <g id="line2d_18">
     <path d="M 320.545 248.969937 
L 340.545 248.969937 
" style="fill:none;stroke:#1f77b4;stroke-linecap:square;stroke-width:1.5;"/>
    </g>
    <g id="line2d_19"/>
    <g id="text_16">
     <!-- iForest -->
     <g transform="translate(348.545 252.469937)scale(0.1 -0.1)">
      <use xlink:href="#DejaVuSans-105"/>
      <use x="27.783203" xlink:href="#DejaVuSans-70"/>
      <use x="85.255859" xlink:href="#DejaVuSans-111"/>
      <use x="146.4375" xlink:href="#DejaVuSans-114"/>
      <use x="187.519531" xlink:href="#DejaVuSans-101"/>
      <use x="249.042969" xlink:href="#DejaVuSans-115"/>
      <use x="301.142578" xlink:href="#DejaVuSans-116"/>
     </g>
    </g>
    <g id="line2d_20">
     <path d="M 320.545 263.648062 
L 340.545 263.648062 
" style="fill:none;stroke:#ff7f0e;stroke-linecap:square;stroke-width:1.5;"/>
    </g>
    <g id="line2d_21"/>
    <g id="text_17">
     <!-- OC-SVM -->
     <defs>
      <path d="M 4.890625 31.390625 
L 31.203125 31.390625 
L 31.203125 23.390625 
L 4.890625 23.390625 
z
" id="DejaVuSans-45"/>
      <path d="M 53.515625 70.515625 
L 53.515625 60.890625 
Q 47.90625 63.578125 42.921875 64.890625 
Q 37.9375 66.21875 33.296875 66.21875 
Q 25.25 66.21875 20.875 63.09375 
Q 16.5 59.96875 16.5 54.203125 
Q 16.5 49.359375 19.40625 46.890625 
Q 22.3125 44.4375 30.421875 42.921875 
L 36.375 41.703125 
Q 47.40625 39.59375 52.65625 34.296875 
Q 57.90625 29 57.90625 20.125 
Q 57.90625 9.515625 50.796875 4.046875 
Q 43.703125 -1.421875 29.984375 -1.421875 
Q 24.8125 -1.421875 18.96875 -0.25 
Q 13.140625 0.921875 6.890625 3.21875 
L 6.890625 13.375 
Q 12.890625 10.015625 18.65625 8.296875 
Q 24.421875 6.59375 29.984375 6.59375 
Q 38.421875 6.59375 43.015625 9.90625 
Q 47.609375 13.234375 47.609375 19.390625 
Q 47.609375 24.75 44.3125 27.78125 
Q 41.015625 30.8125 33.5 32.328125 
L 27.484375 33.5 
Q 16.453125 35.6875 11.515625 40.375 
Q 6.59375 45.0625 6.59375 53.421875 
Q 6.59375 63.09375 13.40625 68.65625 
Q 20.21875 74.21875 32.171875 74.21875 
Q 37.3125 74.21875 42.625 73.28125 
Q 47.953125 72.359375 53.515625 70.515625 
z
" id="DejaVuSans-83"/>
      <path d="M 28.609375 0 
L 0.78125 72.90625 
L 11.078125 72.90625 
L 34.1875 11.53125 
L 57.328125 72.90625 
L 67.578125 72.90625 
L 39.796875 0 
z
" id="DejaVuSans-86"/>
      <path d="M 9.8125 72.90625 
L 24.515625 72.90625 
L 43.109375 23.296875 
L 61.8125 72.90625 
L 76.515625 72.90625 
L 76.515625 0 
L 66.890625 0 
L 66.890625 64.015625 
L 48.09375 14.015625 
L 38.1875 14.015625 
L 19.390625 64.015625 
L 19.390625 0 
L 9.8125 0 
z
" id="DejaVuSans-77"/>
     </defs>
     <g transform="translate(348.545 267.148062)scale(0.1 -0.1)">
      <use xlink:href="#DejaVuSans-79"/>
      <use x="78.710938" xlink:href="#DejaVuSans-67"/>
      <use x="148.535156" xlink:href="#DejaVuSans-45"/>
      <use x="184.619141" xlink:href="#DejaVuSans-83"/>
      <use x="248.095703" xlink:href="#DejaVuSans-86"/>
      <use x="316.503906" xlink:href="#DejaVuSans-77"/>
     </g>
    </g>
    <g id="line2d_22">
     <path d="M 320.545 278.326187 
L 340.545 278.326187 
" style="fill:none;stroke:#2ca02c;stroke-linecap:square;stroke-width:1.5;"/>
    </g>
    <g id="line2d_23"/>
    <g id="text_18">
     <!-- Gaussion-D -->
     <defs>
      <path d="M 54.890625 33.015625 
L 54.890625 0 
L 45.90625 0 
L 45.90625 32.71875 
Q 45.90625 40.484375 42.875 44.328125 
Q 39.84375 48.1875 33.796875 48.1875 
Q 26.515625 48.1875 22.3125 43.546875 
Q 18.109375 38.921875 18.109375 30.90625 
L 18.109375 0 
L 9.078125 0 
L 9.078125 54.6875 
L 18.109375 54.6875 
L 18.109375 46.1875 
Q 21.34375 51.125 25.703125 53.5625 
Q 30.078125 56 35.796875 56 
Q 45.21875 56 50.046875 50.171875 
Q 54.890625 44.34375 54.890625 33.015625 
z
" id="DejaVuSans-110"/>
      <path d="M 19.671875 64.796875 
L 19.671875 8.109375 
L 31.59375 8.109375 
Q 46.6875 8.109375 53.6875 14.9375 
Q 60.6875 21.78125 60.6875 36.53125 
Q 60.6875 51.171875 53.6875 57.984375 
Q 46.6875 64.796875 31.59375 64.796875 
z
M 9.8125 72.90625 
L 30.078125 72.90625 
Q 51.265625 72.90625 61.171875 64.09375 
Q 71.09375 55.28125 71.09375 36.53125 
Q 71.09375 17.671875 61.125 8.828125 
Q 51.171875 0 30.078125 0 
L 9.8125 0 
z
" id="DejaVuSans-68"/>
     </defs>
     <g transform="translate(348.545 281.826187)scale(0.1 -0.1)">
      <use xlink:href="#DejaVuSans-71"/>
      <use x="77.490234" xlink:href="#DejaVuSans-97"/>
      <use x="138.769531" xlink:href="#DejaVuSans-117"/>
      <use x="202.148438" xlink:href="#DejaVuSans-115"/>
      <use x="254.248047" xlink:href="#DejaVuSans-115"/>
      <use x="306.347656" xlink:href="#DejaVuSans-105"/>
      <use x="334.130859" xlink:href="#DejaVuSans-111"/>
      <use x="395.3125" xlink:href="#DejaVuSans-110"/>
      <use x="458.691406" xlink:href="#DejaVuSans-45"/>
      <use x="494.775391" xlink:href="#DejaVuSans-68"/>
     </g>
    </g>
    <g id="line2d_24">
     <path d="M 320.545 293.004312 
L 340.545 293.004312 
" style="fill:none;stroke:#d62728;stroke-linecap:square;stroke-width:1.5;"/>
    </g>
    <g id="line2d_25"/>
    <g id="text_19">
     <!-- LOF -->
     <defs>
      <path d="M 9.8125 72.90625 
L 19.671875 72.90625 
L 19.671875 8.296875 
L 55.171875 8.296875 
L 55.171875 0 
L 9.8125 0 
z
" id="DejaVuSans-76"/>
     </defs>
     <g transform="translate(348.545 296.504312)scale(0.1 -0.1)">
      <use xlink:href="#DejaVuSans-76"/>
      <use x="55.666016" xlink:href="#DejaVuSans-79"/>
      <use x="134.376953" xlink:href="#DejaVuSans-70"/>
     </g>
    </g>
   </g>
  </g>
 </g>
 <defs>
  <clipPath id="p54e66f303d">
   <rect height="266.112" width="357.12" x="57.6" y="41.472"/>
  </clipPath>
 </defs>
</svg>
