<?xml version="1.0" encoding="utf-8" standalone="no"?>
<!DOCTYPE svg PUBLIC "-//W3C//DTD SVG 1.1//EN"
  "http://www.w3.org/Graphics/SVG/1.1/DTD/svg11.dtd">
<!-- Created with matplotlib (https://matplotlib.org/) -->
<svg height="345.6pt" version="1.1" viewBox="0 0 460.8 345.6" width="460.8pt" xmlns="http://www.w3.org/2000/svg" xmlns:xlink="http://www.w3.org/1999/xlink">
 <defs>
  <style type="text/css">
*{stroke-linecap:butt;stroke-linejoin:round;}
  </style>
 </defs>
 <g id="figure_1">
  <g id="patch_1">
   <path d="M 0 345.6 
L 460.8 345.6 
L 460.8 0 
L 0 0 
z
" style="fill:#ffffff;"/>
  </g>
  <g id="axes_1">
   <g id="patch_2">
    <path d="M 57.6 307.584 
L 414.72 307.584 
L 414.72 41.472 
L 57.6 41.472 
z
" style="fill:#ffffff;"/>
   </g>
   <g id="matplotlib.axis_1">
    <g id="xtick_1">
     <g id="line2d_1">
      <defs>
       <path d="M 0 0 
L 0 3.5 
" id="m40a9c7e378" style="stroke:#000000;stroke-width:0.8;"/>
      </defs>
      <g>
       <use style="stroke:#000000;stroke-width:0.8;" x="73.832727" xlink:href="#m40a9c7e378" y="307.584"/>
      </g>
     </g>
     <g id="text_1">
      <!-- 0.0 -->
      <defs>
       <path d="M 31.78125 66.40625 
Q 24.171875 66.40625 20.328125 58.90625 
Q 16.5 51.421875 16.5 36.375 
Q 16.5 21.390625 20.328125 13.890625 
Q 24.171875 6.390625 31.78125 6.390625 
Q 39.453125 6.390625 43.28125 13.890625 
Q 47.125 21.390625 47.125 36.375 
Q 47.125 51.421875 43.28125 58.90625 
Q 39.453125 66.40625 31.78125 66.40625 
z
M 31.78125 74.21875 
Q 44.046875 74.21875 50.515625 64.515625 
Q 56.984375 54.828125 56.984375 36.375 
Q 56.984375 17.96875 50.515625 8.265625 
Q 44.046875 -1.421875 31.78125 -1.421875 
Q 19.53125 -1.421875 13.0625 8.265625 
Q 6.59375 17.96875 6.59375 36.375 
Q 6.59375 54.828125 13.0625 64.515625 
Q 19.53125 74.21875 31.78125 74.21875 
z
" id="DejaVuSans-48"/>
       <path d="M 10.6875 12.40625 
L 21 12.40625 
L 21 0 
L 10.6875 0 
z
" id="DejaVuSans-46"/>
      </defs>
      <g transform="translate(65.881165 322.182437)scale(0.1 -0.1)">
       <use xlink:href="#DejaVuSans-48"/>
       <use x="63.623047" xlink:href="#DejaVuSans-46"/>
       <use x="95.410156" xlink:href="#DejaVuSans-48"/>
      </g>
     </g>
    </g>
    <g id="xtick_2">
     <g id="line2d_2">
      <g>
       <use style="stroke:#000000;stroke-width:0.8;" x="138.763636" xlink:href="#m40a9c7e378" y="307.584"/>
      </g>
     </g>
     <g id="text_2">
      <!-- 0.2 -->
      <defs>
       <path d="M 19.1875 8.296875 
L 53.609375 8.296875 
L 53.609375 0 
L 7.328125 0 
L 7.328125 8.296875 
Q 12.9375 14.109375 22.625 23.890625 
Q 32.328125 33.6875 34.8125 36.53125 
Q 39.546875 41.84375 41.421875 45.53125 
Q 43.3125 49.21875 43.3125 52.78125 
Q 43.3125 58.59375 39.234375 62.25 
Q 35.15625 65.921875 28.609375 65.921875 
Q 23.96875 65.921875 18.8125 64.3125 
Q 13.671875 62.703125 7.8125 59.421875 
L 7.8125 69.390625 
Q 13.765625 71.78125 18.9375 73 
Q 24.125 74.21875 28.421875 74.21875 
Q 39.75 74.21875 46.484375 68.546875 
Q 53.21875 62.890625 53.21875 53.421875 
Q 53.21875 48.921875 51.53125 44.890625 
Q 49.859375 40.875 45.40625 35.40625 
Q 44.1875 33.984375 37.640625 27.21875 
Q 31.109375 20.453125 19.1875 8.296875 
z
" id="DejaVuSans-50"/>
      </defs>
      <g transform="translate(130.812074 322.182437)scale(0.1 -0.1)">
       <use xlink:href="#DejaVuSans-48"/>
       <use x="63.623047" xlink:href="#DejaVuSans-46"/>
       <use x="95.410156" xlink:href="#DejaVuSans-50"/>
      </g>
     </g>
    </g>
    <g id="xtick_3">
     <g id="line2d_3">
      <g>
       <use style="stroke:#000000;stroke-width:0.8;" x="203.694545" xlink:href="#m40a9c7e378" y="307.584"/>
      </g>
     </g>
     <g id="text_3">
      <!-- 0.4 -->
      <defs>
       <path d="M 37.796875 64.3125 
L 12.890625 25.390625 
L 37.796875 25.390625 
z
M 35.203125 72.90625 
L 47.609375 72.90625 
L 47.609375 25.390625 
L 58.015625 25.390625 
L 58.015625 17.1875 
L 47.609375 17.1875 
L 47.609375 0 
L 37.796875 0 
L 37.796875 17.1875 
L 4.890625 17.1875 
L 4.890625 26.703125 
z
" id="DejaVuSans-52"/>
      </defs>
      <g transform="translate(195.742983 322.182437)scale(0.1 -0.1)">
       <use xlink:href="#DejaVuSans-48"/>
       <use x="63.623047" xlink:href="#DejaVuSans-46"/>
       <use x="95.410156" xlink:href="#DejaVuSans-52"/>
      </g>
     </g>
    </g>
    <g id="xtick_4">
     <g id="line2d_4">
      <g>
       <use style="stroke:#000000;stroke-width:0.8;" x="268.625455" xlink:href="#m40a9c7e378" y="307.584"/>
      </g>
     </g>
     <g id="text_4">
      <!-- 0.6 -->
      <defs>
       <path d="M 33.015625 40.375 
Q 26.375 40.375 22.484375 35.828125 
Q 18.609375 31.296875 18.609375 23.390625 
Q 18.609375 15.53125 22.484375 10.953125 
Q 26.375 6.390625 33.015625 6.390625 
Q 39.65625 6.390625 43.53125 10.953125 
Q 47.40625 15.53125 47.40625 23.390625 
Q 47.40625 31.296875 43.53125 35.828125 
Q 39.65625 40.375 33.015625 40.375 
z
M 52.59375 71.296875 
L 52.59375 62.3125 
Q 48.875 64.0625 45.09375 64.984375 
Q 41.3125 65.921875 37.59375 65.921875 
Q 27.828125 65.921875 22.671875 59.328125 
Q 17.53125 52.734375 16.796875 39.40625 
Q 19.671875 43.65625 24.015625 45.921875 
Q 28.375 48.1875 33.59375 48.1875 
Q 44.578125 48.1875 50.953125 41.515625 
Q 57.328125 34.859375 57.328125 23.390625 
Q 57.328125 12.15625 50.6875 5.359375 
Q 44.046875 -1.421875 33.015625 -1.421875 
Q 20.359375 -1.421875 13.671875 8.265625 
Q 6.984375 17.96875 6.984375 36.375 
Q 6.984375 53.65625 15.1875 63.9375 
Q 23.390625 74.21875 37.203125 74.21875 
Q 40.921875 74.21875 44.703125 73.484375 
Q 48.484375 72.75 52.59375 71.296875 
z
" id="DejaVuSans-54"/>
      </defs>
      <g transform="translate(260.673892 322.182437)scale(0.1 -0.1)">
       <use xlink:href="#DejaVuSans-48"/>
       <use x="63.623047" xlink:href="#DejaVuSans-46"/>
       <use x="95.410156" xlink:href="#DejaVuSans-54"/>
      </g>
     </g>
    </g>
    <g id="xtick_5">
     <g id="line2d_5">
      <g>
       <use style="stroke:#000000;stroke-width:0.8;" x="333.556364" xlink:href="#m40a9c7e378" y="307.584"/>
      </g>
     </g>
     <g id="text_5">
      <!-- 0.8 -->
      <defs>
       <path d="M 31.78125 34.625 
Q 24.75 34.625 20.71875 30.859375 
Q 16.703125 27.09375 16.703125 20.515625 
Q 16.703125 13.921875 20.71875 10.15625 
Q 24.75 6.390625 31.78125 6.390625 
Q 38.8125 6.390625 42.859375 10.171875 
Q 46.921875 13.96875 46.921875 20.515625 
Q 46.921875 27.09375 42.890625 30.859375 
Q 38.875 34.625 31.78125 34.625 
z
M 21.921875 38.8125 
Q 15.578125 40.375 12.03125 44.71875 
Q 8.5 49.078125 8.5 55.328125 
Q 8.5 64.0625 14.71875 69.140625 
Q 20.953125 74.21875 31.78125 74.21875 
Q 42.671875 74.21875 48.875 69.140625 
Q 55.078125 64.0625 55.078125 55.328125 
Q 55.078125 49.078125 51.53125 44.71875 
Q 48 40.375 41.703125 38.8125 
Q 48.828125 37.15625 52.796875 32.3125 
Q 56.78125 27.484375 56.78125 20.515625 
Q 56.78125 9.90625 50.3125 4.234375 
Q 43.84375 -1.421875 31.78125 -1.421875 
Q 19.734375 -1.421875 13.25 4.234375 
Q 6.78125 9.90625 6.78125 20.515625 
Q 6.78125 27.484375 10.78125 32.3125 
Q 14.796875 37.15625 21.921875 38.8125 
z
M 18.3125 54.390625 
Q 18.3125 48.734375 21.84375 45.5625 
Q 25.390625 42.390625 31.78125 42.390625 
Q 38.140625 42.390625 41.71875 45.5625 
Q 45.3125 48.734375 45.3125 54.390625 
Q 45.3125 60.0625 41.71875 63.234375 
Q 38.140625 66.40625 31.78125 66.40625 
Q 25.390625 66.40625 21.84375 63.234375 
Q 18.3125 60.0625 18.3125 54.390625 
z
" id="DejaVuSans-56"/>
      </defs>
      <g transform="translate(325.604801 322.182437)scale(0.1 -0.1)">
       <use xlink:href="#DejaVuSans-48"/>
       <use x="63.623047" xlink:href="#DejaVuSans-46"/>
       <use x="95.410156" xlink:href="#DejaVuSans-56"/>
      </g>
     </g>
    </g>
    <g id="xtick_6">
     <g id="line2d_6">
      <g>
       <use style="stroke:#000000;stroke-width:0.8;" x="398.487273" xlink:href="#m40a9c7e378" y="307.584"/>
      </g>
     </g>
     <g id="text_6">
      <!-- 1.0 -->
      <defs>
       <path d="M 12.40625 8.296875 
L 28.515625 8.296875 
L 28.515625 63.921875 
L 10.984375 60.40625 
L 10.984375 69.390625 
L 28.421875 72.90625 
L 38.28125 72.90625 
L 38.28125 8.296875 
L 54.390625 8.296875 
L 54.390625 0 
L 12.40625 0 
z
" id="DejaVuSans-49"/>
      </defs>
      <g transform="translate(390.53571 322.182437)scale(0.1 -0.1)">
       <use xlink:href="#DejaVuSans-49"/>
       <use x="63.623047" xlink:href="#DejaVuSans-46"/>
       <use x="95.410156" xlink:href="#DejaVuSans-48"/>
      </g>
     </g>
    </g>
    <g id="text_7">
     <!-- False positive rate -->
     <defs>
      <path d="M 9.8125 72.90625 
L 51.703125 72.90625 
L 51.703125 64.59375 
L 19.671875 64.59375 
L 19.671875 43.109375 
L 48.578125 43.109375 
L 48.578125 34.8125 
L 19.671875 34.8125 
L 19.671875 0 
L 9.8125 0 
z
" id="DejaVuSans-70"/>
      <path d="M 34.28125 27.484375 
Q 23.390625 27.484375 19.1875 25 
Q 14.984375 22.515625 14.984375 16.5 
Q 14.984375 11.71875 18.140625 8.90625 
Q 21.296875 6.109375 26.703125 6.109375 
Q 34.1875 6.109375 38.703125 11.40625 
Q 43.21875 16.703125 43.21875 25.484375 
L 43.21875 27.484375 
z
M 52.203125 31.203125 
L 52.203125 0 
L 43.21875 0 
L 43.21875 8.296875 
Q 40.140625 3.328125 35.546875 0.953125 
Q 30.953125 -1.421875 24.3125 -1.421875 
Q 15.921875 -1.421875 10.953125 3.296875 
Q 6 8.015625 6 15.921875 
Q 6 25.140625 12.171875 29.828125 
Q 18.359375 34.515625 30.609375 34.515625 
L 43.21875 34.515625 
L 43.21875 35.40625 
Q 43.21875 41.609375 39.140625 45 
Q 35.0625 48.390625 27.6875 48.390625 
Q 23 48.390625 18.546875 47.265625 
Q 14.109375 46.140625 10.015625 43.890625 
L 10.015625 52.203125 
Q 14.9375 54.109375 19.578125 55.046875 
Q 24.21875 56 28.609375 56 
Q 40.484375 56 46.34375 49.84375 
Q 52.203125 43.703125 52.203125 31.203125 
z
" id="DejaVuSans-97"/>
      <path d="M 9.421875 75.984375 
L 18.40625 75.984375 
L 18.40625 0 
L 9.421875 0 
z
" id="DejaVuSans-108"/>
      <path d="M 44.28125 53.078125 
L 44.28125 44.578125 
Q 40.484375 46.53125 36.375 47.5 
Q 32.28125 48.484375 27.875 48.484375 
Q 21.1875 48.484375 17.84375 46.4375 
Q 14.5 44.390625 14.5 40.28125 
Q 14.5 37.15625 16.890625 35.375 
Q 19.28125 33.59375 26.515625 31.984375 
L 29.59375 31.296875 
Q 39.15625 29.25 43.1875 25.515625 
Q 47.21875 21.78125 47.21875 15.09375 
Q 47.21875 7.46875 41.1875 3.015625 
Q 35.15625 -1.421875 24.609375 -1.421875 
Q 20.21875 -1.421875 15.453125 -0.5625 
Q 10.6875 0.296875 5.421875 2 
L 5.421875 11.28125 
Q 10.40625 8.6875 15.234375 7.390625 
Q 20.0625 6.109375 24.8125 6.109375 
Q 31.15625 6.109375 34.5625 8.28125 
Q 37.984375 10.453125 37.984375 14.40625 
Q 37.984375 18.0625 35.515625 20.015625 
Q 33.0625 21.96875 24.703125 23.78125 
L 21.578125 24.515625 
Q 13.234375 26.265625 9.515625 29.90625 
Q 5.8125 33.546875 5.8125 39.890625 
Q 5.8125 47.609375 11.28125 51.796875 
Q 16.75 56 26.8125 56 
Q 31.78125 56 36.171875 55.265625 
Q 40.578125 54.546875 44.28125 53.078125 
z
" id="DejaVuSans-115"/>
      <path d="M 56.203125 29.59375 
L 56.203125 25.203125 
L 14.890625 25.203125 
Q 15.484375 15.921875 20.484375 11.0625 
Q 25.484375 6.203125 34.421875 6.203125 
Q 39.59375 6.203125 44.453125 7.46875 
Q 49.3125 8.734375 54.109375 11.28125 
L 54.109375 2.78125 
Q 49.265625 0.734375 44.1875 -0.34375 
Q 39.109375 -1.421875 33.890625 -1.421875 
Q 20.796875 -1.421875 13.15625 6.1875 
Q 5.515625 13.8125 5.515625 26.8125 
Q 5.515625 40.234375 12.765625 48.109375 
Q 20.015625 56 32.328125 56 
Q 43.359375 56 49.78125 48.890625 
Q 56.203125 41.796875 56.203125 29.59375 
z
M 47.21875 32.234375 
Q 47.125 39.59375 43.09375 43.984375 
Q 39.0625 48.390625 32.421875 48.390625 
Q 24.90625 48.390625 20.390625 44.140625 
Q 15.875 39.890625 15.1875 32.171875 
z
" id="DejaVuSans-101"/>
      <path id="DejaVuSans-32"/>
      <path d="M 18.109375 8.203125 
L 18.109375 -20.796875 
L 9.078125 -20.796875 
L 9.078125 54.6875 
L 18.109375 54.6875 
L 18.109375 46.390625 
Q 20.953125 51.265625 25.265625 53.625 
Q 29.59375 56 35.59375 56 
Q 45.5625 56 51.78125 48.09375 
Q 58.015625 40.1875 58.015625 27.296875 
Q 58.015625 14.40625 51.78125 6.484375 
Q 45.5625 -1.421875 35.59375 -1.421875 
Q 29.59375 -1.421875 25.265625 0.953125 
Q 20.953125 3.328125 18.109375 8.203125 
z
M 48.6875 27.296875 
Q 48.6875 37.203125 44.609375 42.84375 
Q 40.53125 48.484375 33.40625 48.484375 
Q 26.265625 48.484375 22.1875 42.84375 
Q 18.109375 37.203125 18.109375 27.296875 
Q 18.109375 17.390625 22.1875 11.75 
Q 26.265625 6.109375 33.40625 6.109375 
Q 40.53125 6.109375 44.609375 11.75 
Q 48.6875 17.390625 48.6875 27.296875 
z
" id="DejaVuSans-112"/>
      <path d="M 30.609375 48.390625 
Q 23.390625 48.390625 19.1875 42.75 
Q 14.984375 37.109375 14.984375 27.296875 
Q 14.984375 17.484375 19.15625 11.84375 
Q 23.34375 6.203125 30.609375 6.203125 
Q 37.796875 6.203125 41.984375 11.859375 
Q 46.1875 17.53125 46.1875 27.296875 
Q 46.1875 37.015625 41.984375 42.703125 
Q 37.796875 48.390625 30.609375 48.390625 
z
M 30.609375 56 
Q 42.328125 56 49.015625 48.375 
Q 55.71875 40.765625 55.71875 27.296875 
Q 55.71875 13.875 49.015625 6.21875 
Q 42.328125 -1.421875 30.609375 -1.421875 
Q 18.84375 -1.421875 12.171875 6.21875 
Q 5.515625 13.875 5.515625 27.296875 
Q 5.515625 40.765625 12.171875 48.375 
Q 18.84375 56 30.609375 56 
z
" id="DejaVuSans-111"/>
      <path d="M 9.421875 54.6875 
L 18.40625 54.6875 
L 18.40625 0 
L 9.421875 0 
z
M 9.421875 75.984375 
L 18.40625 75.984375 
L 18.40625 64.59375 
L 9.421875 64.59375 
z
" id="DejaVuSans-105"/>
      <path d="M 18.3125 70.21875 
L 18.3125 54.6875 
L 36.8125 54.6875 
L 36.8125 47.703125 
L 18.3125 47.703125 
L 18.3125 18.015625 
Q 18.3125 11.328125 20.140625 9.421875 
Q 21.96875 7.515625 27.59375 7.515625 
L 36.8125 7.515625 
L 36.8125 0 
L 27.59375 0 
Q 17.1875 0 13.234375 3.875 
Q 9.28125 7.765625 9.28125 18.015625 
L 9.28125 47.703125 
L 2.6875 47.703125 
L 2.6875 54.6875 
L 9.28125 54.6875 
L 9.28125 70.21875 
z
" id="DejaVuSans-116"/>
      <path d="M 2.984375 54.6875 
L 12.5 54.6875 
L 29.59375 8.796875 
L 46.6875 54.6875 
L 56.203125 54.6875 
L 35.6875 0 
L 23.484375 0 
z
" id="DejaVuSans-118"/>
      <path d="M 41.109375 46.296875 
Q 39.59375 47.171875 37.8125 47.578125 
Q 36.03125 48 33.890625 48 
Q 26.265625 48 22.1875 43.046875 
Q 18.109375 38.09375 18.109375 28.8125 
L 18.109375 0 
L 9.078125 0 
L 9.078125 54.6875 
L 18.109375 54.6875 
L 18.109375 46.1875 
Q 20.953125 51.171875 25.484375 53.578125 
Q 30.03125 56 36.53125 56 
Q 37.453125 56 38.578125 55.875 
Q 39.703125 55.765625 41.0625 55.515625 
z
" id="DejaVuSans-114"/>
     </defs>
     <g transform="translate(190.21 335.860562)scale(0.1 -0.1)">
      <use xlink:href="#DejaVuSans-70"/>
      <use x="57.378906" xlink:href="#DejaVuSans-97"/>
      <use x="118.658203" xlink:href="#DejaVuSans-108"/>
      <use x="146.441406" xlink:href="#DejaVuSans-115"/>
      <use x="198.541016" xlink:href="#DejaVuSans-101"/>
      <use x="260.064453" xlink:href="#DejaVuSans-32"/>
      <use x="291.851562" xlink:href="#DejaVuSans-112"/>
      <use x="355.328125" xlink:href="#DejaVuSans-111"/>
      <use x="416.509766" xlink:href="#DejaVuSans-115"/>
      <use x="468.609375" xlink:href="#DejaVuSans-105"/>
      <use x="496.392578" xlink:href="#DejaVuSans-116"/>
      <use x="535.601562" xlink:href="#DejaVuSans-105"/>
      <use x="563.384766" xlink:href="#DejaVuSans-118"/>
      <use x="622.564453" xlink:href="#DejaVuSans-101"/>
      <use x="684.087891" xlink:href="#DejaVuSans-32"/>
      <use x="715.875" xlink:href="#DejaVuSans-114"/>
      <use x="756.988281" xlink:href="#DejaVuSans-97"/>
      <use x="818.267578" xlink:href="#DejaVuSans-116"/>
      <use x="857.476562" xlink:href="#DejaVuSans-101"/>
     </g>
    </g>
   </g>
   <g id="matplotlib.axis_2">
    <g id="ytick_1">
     <g id="line2d_7">
      <defs>
       <path d="M 0 0 
L -3.5 0 
" id="m9da1391934" style="stroke:#000000;stroke-width:0.8;"/>
      </defs>
      <g>
       <use style="stroke:#000000;stroke-width:0.8;" x="57.6" xlink:href="#m9da1391934" y="295.488"/>
      </g>
     </g>
     <g id="text_8">
      <!-- 0.0 -->
      <g transform="translate(34.696875 299.287219)scale(0.1 -0.1)">
       <use xlink:href="#DejaVuSans-48"/>
       <use x="63.623047" xlink:href="#DejaVuSans-46"/>
       <use x="95.410156" xlink:href="#DejaVuSans-48"/>
      </g>
     </g>
    </g>
    <g id="ytick_2">
     <g id="line2d_8">
      <g>
       <use style="stroke:#000000;stroke-width:0.8;" x="57.6" xlink:href="#m9da1391934" y="247.104"/>
      </g>
     </g>
     <g id="text_9">
      <!-- 0.2 -->
      <g transform="translate(34.696875 250.903219)scale(0.1 -0.1)">
       <use xlink:href="#DejaVuSans-48"/>
       <use x="63.623047" xlink:href="#DejaVuSans-46"/>
       <use x="95.410156" xlink:href="#DejaVuSans-50"/>
      </g>
     </g>
    </g>
    <g id="ytick_3">
     <g id="line2d_9">
      <g>
       <use style="stroke:#000000;stroke-width:0.8;" x="57.6" xlink:href="#m9da1391934" y="198.72"/>
      </g>
     </g>
     <g id="text_10">
      <!-- 0.4 -->
      <g transform="translate(34.696875 202.519219)scale(0.1 -0.1)">
       <use xlink:href="#DejaVuSans-48"/>
       <use x="63.623047" xlink:href="#DejaVuSans-46"/>
       <use x="95.410156" xlink:href="#DejaVuSans-52"/>
      </g>
     </g>
    </g>
    <g id="ytick_4">
     <g id="line2d_10">
      <g>
       <use style="stroke:#000000;stroke-width:0.8;" x="57.6" xlink:href="#m9da1391934" y="150.336"/>
      </g>
     </g>
     <g id="text_11">
      <!-- 0.6 -->
      <g transform="translate(34.696875 154.135219)scale(0.1 -0.1)">
       <use xlink:href="#DejaVuSans-48"/>
       <use x="63.623047" xlink:href="#DejaVuSans-46"/>
       <use x="95.410156" xlink:href="#DejaVuSans-54"/>
      </g>
     </g>
    </g>
    <g id="ytick_5">
     <g id="line2d_11">
      <g>
       <use style="stroke:#000000;stroke-width:0.8;" x="57.6" xlink:href="#m9da1391934" y="101.952"/>
      </g>
     </g>
     <g id="text_12">
      <!-- 0.8 -->
      <g transform="translate(34.696875 105.751219)scale(0.1 -0.1)">
       <use xlink:href="#DejaVuSans-48"/>
       <use x="63.623047" xlink:href="#DejaVuSans-46"/>
       <use x="95.410156" xlink:href="#DejaVuSans-56"/>
      </g>
     </g>
    </g>
    <g id="ytick_6">
     <g id="line2d_12">
      <g>
       <use style="stroke:#000000;stroke-width:0.8;" x="57.6" xlink:href="#m9da1391934" y="53.568"/>
      </g>
     </g>
     <g id="text_13">
      <!-- 1.0 -->
      <g transform="translate(34.696875 57.367219)scale(0.1 -0.1)">
       <use xlink:href="#DejaVuSans-49"/>
       <use x="63.623047" xlink:href="#DejaVuSans-46"/>
       <use x="95.410156" xlink:href="#DejaVuSans-48"/>
      </g>
     </g>
    </g>
    <g id="text_14">
     <!-- True positive rate -->
     <defs>
      <path d="M -0.296875 72.90625 
L 61.375 72.90625 
L 61.375 64.59375 
L 35.5 64.59375 
L 35.5 0 
L 25.59375 0 
L 25.59375 64.59375 
L -0.296875 64.59375 
z
" id="DejaVuSans-84"/>
      <path d="M 8.5 21.578125 
L 8.5 54.6875 
L 17.484375 54.6875 
L 17.484375 21.921875 
Q 17.484375 14.15625 20.5 10.265625 
Q 23.53125 6.390625 29.59375 6.390625 
Q 36.859375 6.390625 41.078125 11.03125 
Q 45.3125 15.671875 45.3125 23.6875 
L 45.3125 54.6875 
L 54.296875 54.6875 
L 54.296875 0 
L 45.3125 0 
L 45.3125 8.40625 
Q 42.046875 3.421875 37.71875 1 
Q 33.40625 -1.421875 27.6875 -1.421875 
Q 18.265625 -1.421875 13.375 4.4375 
Q 8.5 10.296875 8.5 21.578125 
z
M 31.109375 56 
z
" id="DejaVuSans-117"/>
     </defs>
     <g transform="translate(28.617187 218.818625)rotate(-90)scale(0.1 -0.1)">
      <use xlink:href="#DejaVuSans-84"/>
      <use x="60.865234" xlink:href="#DejaVuSans-114"/>
      <use x="101.978516" xlink:href="#DejaVuSans-117"/>
      <use x="165.357422" xlink:href="#DejaVuSans-101"/>
      <use x="226.880859" xlink:href="#DejaVuSans-32"/>
      <use x="258.667969" xlink:href="#DejaVuSans-112"/>
      <use x="322.144531" xlink:href="#DejaVuSans-111"/>
      <use x="383.326172" xlink:href="#DejaVuSans-115"/>
      <use x="435.425781" xlink:href="#DejaVuSans-105"/>
      <use x="463.208984" xlink:href="#DejaVuSans-116"/>
      <use x="502.417969" xlink:href="#DejaVuSans-105"/>
      <use x="530.201172" xlink:href="#DejaVuSans-118"/>
      <use x="589.380859" xlink:href="#DejaVuSans-101"/>
      <use x="650.904297" xlink:href="#DejaVuSans-32"/>
      <use x="682.691406" xlink:href="#DejaVuSans-114"/>
      <use x="723.804688" xlink:href="#DejaVuSans-97"/>
      <use x="785.083984" xlink:href="#DejaVuSans-116"/>
      <use x="824.292969" xlink:href="#DejaVuSans-101"/>
     </g>
    </g>
   </g>
   <g id="line2d_13">
    <path clip-path="url(#p8ab16cc6f4)" d="M 73.832727 295.488 
L 398.487273 53.568 
" style="fill:none;stroke:#000000;stroke-dasharray:5.55,2.4;stroke-dashoffset:0;stroke-width:1.5;"/>
   </g>
   <g id="line2d_14">
    <path clip-path="url(#p8ab16cc6f4)" d="M 73.832727 295.488 
L 73.832727 293.564608 
L 76.369091 293.564608 
L 76.369091 292.709767 
L 78.905455 292.709767 
L 78.905455 292.068636 
L 81.441818 292.068636 
L 81.441818 285.871039 
L 83.978182 285.871039 
L 83.978182 282.665385 
L 86.514545 282.665385 
L 86.514545 281.810544 
L 89.050909 281.810544 
L 89.050909 276.040367 
L 91.587273 276.040367 
L 91.587273 273.048424 
L 94.123636 273.048424 
L 94.123636 272.193583 
L 96.66 272.193583 
L 96.66 271.979873 
L 99.196364 271.979873 
L 99.196364 269.41535 
L 101.732727 269.41535 
L 101.732727 267.919378 
L 104.269091 267.919378 
L 104.269091 259.157258 
L 106.805455 259.157258 
L 106.805455 251.463689 
L 109.341818 251.463689 
L 109.341818 251.036269 
L 111.878182 251.036269 
L 111.878182 246.975774 
L 114.414545 246.975774 
L 114.414545 246.120933 
L 116.950909 246.120933 
L 116.950909 240.778177 
L 119.487273 240.778177 
L 119.487273 238.641074 
L 122.023636 238.641074 
L 122.023636 235.649131 
L 124.56 235.649131 
L 124.56 235.43542 
L 127.096364 235.43542 
L 127.096364 232.229767 
L 129.632727 232.229767 
L 129.632727 230.092664 
L 132.169091 230.092664 
L 132.169091 225.818459 
L 134.705455 225.818459 
L 134.705455 221.544254 
L 137.241818 221.544254 
L 137.241818 217.91118 
L 139.778182 217.91118 
L 139.778182 217.056339 
L 142.314545 217.056339 
L 142.314545 214.919237 
L 144.850909 214.919237 
L 144.850909 213.636975 
L 147.387273 213.636975 
L 147.387273 209.576481 
L 149.923636 209.576481 
L 149.923636 209.14906 
L 152.46 209.14906 
L 152.46 208.507929 
L 154.996364 208.507929 
L 154.996364 207.439378 
L 157.532727 207.439378 
L 157.532727 205.302276 
L 160.069091 205.302276 
L 160.069091 203.378883 
L 162.605455 203.378883 
L 162.605455 202.737753 
L 165.141818 202.737753 
L 165.141818 199.104678 
L 167.678182 199.104678 
L 167.678182 188.419166 
L 172.750909 188.419166 
L 172.750909 187.991746 
L 175.287273 187.991746 
L 175.287273 182.8627 
L 177.823636 182.8627 
L 177.823636 180.725597 
L 180.36 180.725597 
L 180.36 177.733654 
L 182.896364 177.733654 
L 182.896364 177.092523 
L 185.432727 177.092523 
L 185.432727 174.528 
L 187.969091 174.528 
L 187.969091 174.31429 
L 190.505455 174.31429 
L 190.505455 173.459449 
L 193.041818 173.459449 
L 193.041818 171.322346 
L 195.578182 171.322346 
L 195.578182 167.689272 
L 198.114545 167.689272 
L 198.114545 159.568283 
L 200.650909 159.568283 
L 200.650909 157.64489 
L 203.187273 157.64489 
L 203.187273 157.21747 
L 205.723636 157.21747 
L 205.723636 157.00376 
L 208.26 157.00376 
L 208.26 155.294078 
L 210.796364 155.294078 
L 210.796364 155.080367 
L 213.332727 155.080367 
L 213.332727 154.866657 
L 215.869091 154.866657 
L 215.869091 153.584396 
L 218.405455 153.584396 
L 218.405455 152.515845 
L 220.941818 152.515845 
L 220.941818 151.233583 
L 226.014545 151.233583 
L 226.014545 148.88277 
L 228.550909 148.88277 
L 228.550909 144.822276 
L 231.087273 144.822276 
L 231.087273 138.410968 
L 233.623636 138.410968 
L 233.623636 132.427081 
L 236.16 132.427081 
L 236.16 130.503689 
L 238.696364 130.503689 
L 238.696364 125.588353 
L 241.232727 125.588353 
L 241.232727 124.947223 
L 243.769091 124.947223 
L 243.769091 123.878671 
L 246.305455 123.878671 
L 246.305455 123.451251 
L 248.841818 123.451251 
L 248.841818 121.527859 
L 251.378182 121.527859 
L 251.378182 120.031887 
L 253.914545 120.031887 
L 253.914545 119.390756 
L 256.450909 119.390756 
L 256.450909 118.108495 
L 258.987273 118.108495 
L 258.987273 117.894784 
L 261.523636 117.894784 
L 261.523636 116.398813 
L 264.06 116.398813 
L 264.06 115.757682 
L 266.596364 115.757682 
L 266.596364 114.47542 
L 269.132727 114.47542 
L 269.132727 114.048 
L 276.741818 114.048 
L 276.741818 113.193159 
L 279.278182 113.193159 
L 279.278182 111.056057 
L 281.814545 111.056057 
L 281.814545 108.491534 
L 284.350909 108.491534 
L 284.350909 100.584254 
L 289.423636 100.584254 
L 289.423636 96.096339 
L 291.96 96.096339 
L 291.96 94.172947 
L 294.496364 94.172947 
L 294.496364 93.959237 
L 297.032727 93.959237 
L 297.032727 89.257611 
L 302.105455 89.257611 
L 302.105455 89.043901 
L 304.641818 89.043901 
L 304.641818 86.906799 
L 307.178182 86.906799 
L 307.178182 85.838247 
L 312.250909 85.838247 
L 312.250909 84.555986 
L 314.787273 84.555986 
L 314.787273 83.273724 
L 317.323636 83.273724 
L 317.323636 82.418883 
L 319.86 82.418883 
L 319.86 80.922912 
L 322.396364 80.922912 
L 322.396364 80.281781 
L 324.932727 80.281781 
L 324.932727 79.21323 
L 327.469091 79.21323 
L 327.469091 78.144678 
L 330.005455 78.144678 
L 330.005455 74.297894 
L 332.541818 74.297894 
L 332.541818 73.443053 
L 335.078182 73.443053 
L 335.078182 69.596269 
L 337.614545 69.596269 
L 337.614545 68.955138 
L 340.150909 68.955138 
L 340.150909 67.672876 
L 347.76 67.672876 
L 347.76 64.680933 
L 350.296364 64.680933 
L 350.296364 63.612382 
L 352.832727 63.612382 
L 352.832727 62.757541 
L 355.369091 62.757541 
L 355.369091 62.11641 
L 357.905455 62.11641 
L 357.905455 61.688989 
L 360.441818 61.688989 
L 360.441818 61.047859 
L 362.978182 61.047859 
L 362.978182 60.834148 
L 365.514545 60.834148 
L 365.514545 60.193018 
L 368.050909 60.193018 
L 368.050909 59.979307 
L 373.123636 59.979307 
L 373.123636 59.551887 
L 375.66 59.551887 
L 375.66 58.697046 
L 378.196364 58.697046 
L 378.196364 58.269625 
L 380.732727 58.269625 
L 380.732727 58.055915 
L 383.269091 58.055915 
L 383.269091 57.201074 
L 385.805455 57.201074 
L 385.805455 56.987364 
L 388.341818 56.987364 
L 388.341818 56.132523 
L 390.878182 56.132523 
L 390.878182 55.277682 
L 395.950909 55.277682 
L 395.950909 54.850261 
L 398.487273 54.850261 
L 398.487273 53.568 
L 398.487273 53.568 
" style="fill:none;stroke:#1f77b4;stroke-linecap:square;stroke-width:1.5;"/>
   </g>
   <g id="line2d_15">
    <path clip-path="url(#p8ab16cc6f4)" d="M 73.832727 295.488 
L 73.832727 293.137187 
L 76.369091 293.137187 
L 76.369091 270.697611 
L 78.905455 270.697611 
L 78.905455 263.858883 
L 81.441818 263.858883 
L 81.441818 260.86694 
L 83.978182 260.86694 
L 83.978182 259.157258 
L 86.514545 259.157258 
L 86.514545 258.729837 
L 89.050909 258.729837 
L 89.050909 258.516127 
L 91.587273 258.516127 
L 91.587273 256.806445 
L 94.123636 256.806445 
L 94.123636 256.379025 
L 96.66 256.379025 
L 96.66 253.814502 
L 99.196364 253.814502 
L 99.196364 251.249979 
L 101.732727 251.249979 
L 101.732727 249.540297 
L 104.269091 249.540297 
L 104.269091 245.693512 
L 106.805455 245.693512 
L 106.805455 244.838671 
L 109.341818 244.838671 
L 109.341818 237.786233 
L 111.878182 237.786233 
L 111.878182 237.572523 
L 114.414545 237.572523 
L 114.414545 232.443477 
L 116.950909 232.443477 
L 116.950909 223.040226 
L 119.487273 223.040226 
L 119.487273 221.544254 
L 122.023636 221.544254 
L 122.023636 219.193442 
L 124.56 219.193442 
L 124.56 217.48376 
L 127.096364 217.48376 
L 127.096364 214.705527 
L 129.632727 214.705527 
L 129.632727 212.995845 
L 134.705455 212.995845 
L 134.705455 211.927293 
L 137.241818 211.927293 
L 137.241818 210.217611 
L 139.778182 210.217611 
L 139.778182 209.14906 
L 142.314545 209.14906 
L 142.314545 204.874855 
L 144.850909 204.874855 
L 144.850909 202.737753 
L 147.387273 202.737753 
L 147.387273 198.036127 
L 152.46 198.036127 
L 152.46 196.540155 
L 154.996364 196.540155 
L 154.996364 195.685314 
L 157.532727 195.685314 
L 157.532727 190.983689 
L 160.069091 190.983689 
L 160.069091 190.342558 
L 162.605455 190.342558 
L 162.605455 188.846587 
L 165.141818 188.846587 
L 165.141818 186.923194 
L 167.678182 186.923194 
L 167.678182 182.8627 
L 170.214545 182.8627 
L 170.214545 181.153018 
L 172.750909 181.153018 
L 172.750909 170.253795 
L 175.287273 170.253795 
L 175.287273 165.97959 
L 177.823636 165.97959 
L 177.823636 164.483618 
L 180.36 164.483618 
L 180.36 160.636834 
L 182.896364 160.636834 
L 182.896364 159.140862 
L 187.969091 159.140862 
L 187.969091 154.439237 
L 193.041818 154.439237 
L 193.041818 152.515845 
L 195.578182 152.515845 
L 195.578182 150.806163 
L 198.114545 150.806163 
L 198.114545 149.096481 
L 200.650909 149.096481 
L 200.650909 147.173088 
L 203.187273 147.173088 
L 203.187273 146.745668 
L 205.723636 146.745668 
L 205.723636 145.677117 
L 208.26 145.677117 
L 208.26 144.394855 
L 210.796364 144.394855 
L 210.796364 141.616622 
L 213.332727 141.616622 
L 213.332727 139.265809 
L 215.869091 139.265809 
L 215.869091 135.632735 
L 218.405455 135.632735 
L 218.405455 132.213371 
L 220.941818 132.213371 
L 220.941818 130.717399 
L 223.478182 130.717399 
L 223.478182 127.511746 
L 226.014545 127.511746 
L 226.014545 125.588353 
L 228.550909 125.588353 
L 228.550909 123.878671 
L 231.087273 123.878671 
L 231.087273 117.039943 
L 233.623636 117.039943 
L 233.623636 116.185102 
L 236.16 116.185102 
L 236.16 115.757682 
L 238.696364 115.757682 
L 238.696364 115.330261 
L 241.232727 115.330261 
L 241.232727 113.62058 
L 243.769091 113.62058 
L 243.769091 108.064113 
L 246.305455 108.064113 
L 246.305455 107.209272 
L 248.841818 107.209272 
L 248.841818 106.140721 
L 251.378182 106.140721 
L 251.378182 105.927011 
L 253.914545 105.927011 
L 253.914545 100.370544 
L 258.987273 100.370544 
L 258.987273 99.943124 
L 264.06 99.943124 
L 264.06 97.592311 
L 266.596364 97.592311 
L 266.596364 97.16489 
L 269.132727 97.16489 
L 269.132727 96.310049 
L 271.669091 96.310049 
L 271.669091 94.386657 
L 274.205455 94.386657 
L 274.205455 93.745527 
L 276.741818 93.745527 
L 276.741818 93.318106 
L 281.814545 93.318106 
L 281.814545 93.104396 
L 284.350909 93.104396 
L 284.350909 91.608424 
L 289.423636 91.608424 
L 289.423636 91.394714 
L 294.496364 91.394714 
L 294.496364 90.967293 
L 297.032727 90.967293 
L 297.032727 90.326163 
L 299.569091 90.326163 
L 299.569091 86.479378 
L 302.105455 86.479378 
L 302.105455 83.701145 
L 304.641818 83.701145 
L 304.641818 83.273724 
L 307.178182 83.273724 
L 307.178182 82.632594 
L 309.714545 82.632594 
L 309.714545 82.205173 
L 312.250909 82.205173 
L 312.250909 81.991463 
L 314.787273 81.991463 
L 314.787273 80.709201 
L 317.323636 80.709201 
L 317.323636 80.495491 
L 322.396364 80.495491 
L 322.396364 78.358389 
L 324.932727 78.358389 
L 324.932727 77.503548 
L 327.469091 77.503548 
L 327.469091 76.221286 
L 330.005455 76.221286 
L 330.005455 75.366445 
L 332.541818 75.366445 
L 332.541818 74.297894 
L 335.078182 74.297894 
L 335.078182 73.443053 
L 337.614545 73.443053 
L 337.614545 72.160792 
L 340.150909 72.160792 
L 340.150909 70.45111 
L 342.687273 70.45111 
L 342.687273 69.809979 
L 345.223636 69.809979 
L 345.223636 69.596269 
L 347.76 69.596269 
L 347.76 68.741428 
L 352.832727 68.741428 
L 352.832727 68.527717 
L 357.905455 68.527717 
L 357.905455 66.390615 
L 360.441818 66.390615 
L 360.441818 63.612382 
L 365.514545 63.612382 
L 365.514545 62.33012 
L 368.050909 62.33012 
L 368.050909 61.9027 
L 370.587273 61.9027 
L 370.587273 59.124466 
L 373.123636 59.124466 
L 373.123636 58.483336 
L 375.66 58.483336 
L 375.66 58.269625 
L 378.196364 58.269625 
L 378.196364 56.132523 
L 383.269091 56.132523 
L 383.269091 55.705102 
L 385.805455 55.705102 
L 385.805455 55.063972 
L 390.878182 55.063972 
L 390.878182 54.209131 
L 393.414545 54.209131 
L 393.414545 53.99542 
L 398.487273 53.99542 
L 398.487273 53.568 
L 398.487273 53.568 
" style="fill:none;stroke:#ff7f0e;stroke-linecap:square;stroke-width:1.5;"/>
   </g>
   <g id="line2d_16">
    <path clip-path="url(#p8ab16cc6f4)" d="M 73.832727 295.488 
L 73.832727 235.649131 
L 76.369091 235.649131 
L 76.369091 218.12489 
L 78.905455 218.12489 
L 78.905455 199.959519 
L 81.441818 199.959519 
L 81.441818 148.88277 
L 83.978182 148.88277 
L 83.978182 137.983548 
L 86.514545 137.983548 
L 86.514545 131.14482 
L 89.050909 131.14482 
L 89.050909 129.007717 
L 91.587273 129.007717 
L 91.587273 124.733512 
L 96.66 124.733512 
L 96.66 118.108495 
L 99.196364 118.108495 
L 99.196364 117.681074 
L 101.732727 117.681074 
L 101.732727 117.039943 
L 104.269091 117.039943 
L 104.269091 115.116551 
L 106.805455 115.116551 
L 106.805455 114.902841 
L 109.341818 114.902841 
L 109.341818 114.26171 
L 111.878182 114.26171 
L 111.878182 110.201216 
L 119.487273 110.201216 
L 119.487273 105.7133 
L 122.023636 105.7133 
L 122.023636 95.668919 
L 124.56 95.668919 
L 124.56 95.455208 
L 127.096364 95.455208 
L 127.096364 88.18906 
L 129.632727 88.18906 
L 129.632727 87.547929 
L 132.169091 87.547929 
L 132.169091 87.120509 
L 134.705455 87.120509 
L 134.705455 85.410827 
L 137.241818 85.410827 
L 137.241818 84.128565 
L 142.314545 84.128565 
L 142.314545 83.701145 
L 144.850909 83.701145 
L 144.850909 79.42694 
L 147.387273 79.42694 
L 147.387273 77.717258 
L 149.923636 77.717258 
L 149.923636 77.289837 
L 152.46 77.289837 
L 152.46 75.793866 
L 157.532727 75.793866 
L 157.532727 73.656763 
L 160.069091 73.656763 
L 160.069091 73.015633 
L 165.141818 73.015633 
L 165.141818 72.801922 
L 167.678182 72.801922 
L 167.678182 71.947081 
L 172.750909 71.947081 
L 172.750909 71.733371 
L 175.287273 71.733371 
L 175.287273 71.09224 
L 177.823636 71.09224 
L 177.823636 70.45111 
L 180.36 70.45111 
L 180.36 70.023689 
L 190.505455 70.023689 
L 190.505455 68.527717 
L 193.041818 68.527717 
L 193.041818 68.314007 
L 195.578182 68.314007 
L 195.578182 67.886587 
L 198.114545 67.886587 
L 198.114545 67.459166 
L 203.187273 67.459166 
L 203.187273 67.245456 
L 205.723636 67.245456 
L 205.723636 67.031746 
L 208.26 67.031746 
L 208.26 66.818035 
L 213.332727 66.818035 
L 213.332727 66.390615 
L 215.869091 66.390615 
L 215.869091 64.680933 
L 220.941818 64.680933 
L 220.941818 64.467223 
L 226.014545 64.467223 
L 226.014545 64.039802 
L 228.550909 64.039802 
L 228.550909 63.398671 
L 233.623636 63.398671 
L 233.623636 63.184961 
L 238.696364 63.184961 
L 238.696364 62.971251 
L 243.769091 62.971251 
L 243.769091 62.757541 
L 251.378182 62.757541 
L 251.378182 62.33012 
L 253.914545 62.33012 
L 253.914545 62.11641 
L 258.987273 62.11641 
L 258.987273 61.475279 
L 266.596364 61.475279 
L 266.596364 61.261569 
L 269.132727 61.261569 
L 269.132727 61.047859 
L 271.669091 61.047859 
L 271.669091 60.834148 
L 276.741818 60.834148 
L 276.741818 60.406728 
L 279.278182 60.406728 
L 279.278182 59.765597 
L 281.814545 59.765597 
L 281.814545 58.910756 
L 286.887273 58.910756 
L 286.887273 58.483336 
L 291.96 58.483336 
L 291.96 58.269625 
L 294.496364 58.269625 
L 294.496364 57.842205 
L 297.032727 57.842205 
L 297.032727 57.414784 
L 304.641818 57.414784 
L 304.641818 56.987364 
L 307.178182 56.987364 
L 307.178182 56.559943 
L 312.250909 56.559943 
L 312.250909 56.346233 
L 319.86 56.346233 
L 319.86 56.132523 
L 335.078182 56.132523 
L 335.078182 55.918813 
L 357.905455 55.918813 
L 357.905455 55.705102 
L 360.441818 55.705102 
L 360.441818 55.277682 
L 368.050909 55.277682 
L 368.050909 55.063972 
L 393.414545 55.063972 
L 393.414545 54.850261 
L 398.487273 54.850261 
L 398.487273 53.568 
L 398.487273 53.568 
" style="fill:none;stroke:#2ca02c;stroke-linecap:square;stroke-width:1.5;"/>
   </g>
   <g id="line2d_17">
    <path clip-path="url(#p8ab16cc6f4)" d="M 73.832727 295.488 
L 73.832727 243.77012 
L 76.369091 243.77012 
L 76.369091 243.3427 
L 78.905455 243.3427 
L 78.905455 232.870898 
L 81.441818 232.870898 
L 81.441818 223.895067 
L 83.978182 223.895067 
L 83.978182 221.757965 
L 86.514545 221.757965 
L 86.514545 213.423265 
L 89.050909 213.423265 
L 89.050909 201.882912 
L 91.587273 201.882912 
L 91.587273 192.693371 
L 94.123636 192.693371 
L 94.123636 190.983689 
L 96.66 190.983689 
L 96.66 185.640933 
L 99.196364 185.640933 
L 99.196364 177.733654 
L 101.732727 177.733654 
L 101.732727 175.382841 
L 104.269091 175.382841 
L 104.269091 166.1933 
L 106.805455 166.1933 
L 106.805455 162.987647 
L 109.341818 162.987647 
L 109.341818 161.705385 
L 111.878182 161.705385 
L 111.878182 151.233583 
L 116.950909 151.233583 
L 116.950909 150.165032 
L 119.487273 150.165032 
L 119.487273 145.677117 
L 122.023636 145.677117 
L 122.023636 142.471463 
L 124.56 142.471463 
L 124.56 140.761781 
L 127.096364 140.761781 
L 127.096364 134.777894 
L 129.632727 134.777894 
L 129.632727 125.802064 
L 132.169091 125.802064 
L 132.169091 121.527859 
L 134.705455 121.527859 
L 134.705455 120.031887 
L 137.241818 120.031887 
L 137.241818 118.322205 
L 139.778182 118.322205 
L 139.778182 113.193159 
L 142.314545 113.193159 
L 142.314545 112.338318 
L 144.850909 112.338318 
L 144.850909 111.269767 
L 147.387273 111.269767 
L 147.387273 110.842346 
L 149.923636 110.842346 
L 149.923636 110.414926 
L 152.46 110.414926 
L 152.46 109.773795 
L 154.996364 109.773795 
L 154.996364 108.918954 
L 157.532727 108.918954 
L 157.532727 107.636693 
L 160.069091 107.636693 
L 160.069091 106.568141 
L 162.605455 106.568141 
L 162.605455 104.431039 
L 165.141818 104.431039 
L 165.141818 103.576198 
L 167.678182 103.576198 
L 167.678182 101.866516 
L 170.214545 101.866516 
L 170.214545 99.943124 
L 172.750909 99.943124 
L 172.750909 99.515703 
L 175.287273 99.515703 
L 175.287273 99.301993 
L 177.823636 99.301993 
L 177.823636 98.233442 
L 180.36 98.233442 
L 180.36 97.378601 
L 182.896364 97.378601 
L 182.896364 96.310049 
L 185.432727 96.310049 
L 185.432727 96.096339 
L 187.969091 96.096339 
L 187.969091 95.882629 
L 190.505455 95.882629 
L 190.505455 95.668919 
L 193.041818 95.668919 
L 193.041818 95.027788 
L 198.114545 95.027788 
L 198.114545 94.172947 
L 200.650909 94.172947 
L 200.650909 93.104396 
L 203.187273 93.104396 
L 203.187273 92.249555 
L 205.723636 92.249555 
L 205.723636 91.608424 
L 208.26 91.608424 
L 208.26 90.326163 
L 210.796364 90.326163 
L 210.796364 90.112452 
L 213.332727 90.112452 
L 213.332727 89.685032 
L 220.941818 89.685032 
L 220.941818 89.043901 
L 223.478182 89.043901 
L 223.478182 88.40277 
L 226.014545 88.40277 
L 226.014545 86.693088 
L 228.550909 86.693088 
L 228.550909 86.265668 
L 231.087273 86.265668 
L 231.087273 85.197117 
L 233.623636 85.197117 
L 233.623636 81.777753 
L 236.16 81.777753 
L 236.16 81.564042 
L 238.696364 81.564042 
L 238.696364 80.068071 
L 243.769091 80.068071 
L 243.769091 79.42694 
L 246.305455 79.42694 
L 246.305455 78.999519 
L 248.841818 78.999519 
L 248.841818 78.785809 
L 251.378182 78.785809 
L 251.378182 77.503548 
L 253.914545 77.503548 
L 253.914545 77.289837 
L 256.450909 77.289837 
L 256.450909 77.076127 
L 258.987273 77.076127 
L 258.987273 76.007576 
L 261.523636 76.007576 
L 261.523636 75.580155 
L 264.06 75.580155 
L 264.06 71.733371 
L 266.596364 71.733371 
L 266.596364 70.66482 
L 274.205455 70.66482 
L 274.205455 70.237399 
L 284.350909 70.237399 
L 284.350909 68.955138 
L 294.496364 68.955138 
L 294.496364 67.886587 
L 297.032727 67.886587 
L 297.032727 67.672876 
L 304.641818 67.672876 
L 304.641818 66.604325 
L 314.787273 66.604325 
L 314.787273 65.749484 
L 317.323636 65.749484 
L 317.323636 64.680933 
L 322.396364 64.680933 
L 322.396364 64.467223 
L 330.005455 64.467223 
L 330.005455 64.253512 
L 332.541818 64.253512 
L 332.541818 63.612382 
L 335.078182 63.612382 
L 335.078182 63.398671 
L 337.614545 63.398671 
L 337.614545 62.757541 
L 340.150909 62.757541 
L 340.150909 60.834148 
L 350.296364 60.834148 
L 350.296364 60.406728 
L 357.905455 60.406728 
L 357.905455 59.765597 
L 362.978182 59.765597 
L 362.978182 59.124466 
L 365.514545 59.124466 
L 365.514545 58.697046 
L 368.050909 58.697046 
L 368.050909 58.269625 
L 370.587273 58.269625 
L 370.587273 57.842205 
L 373.123636 57.842205 
L 373.123636 57.628495 
L 380.732727 57.628495 
L 380.732727 56.987364 
L 383.269091 56.987364 
L 383.269091 56.559943 
L 385.805455 56.559943 
L 385.805455 56.132523 
L 388.341818 56.132523 
L 388.341818 54.636551 
L 390.878182 54.636551 
L 390.878182 54.422841 
L 393.414545 54.422841 
L 393.414545 54.209131 
L 395.950909 54.209131 
L 395.950909 53.99542 
L 398.487273 53.99542 
L 398.487273 53.568 
L 398.487273 53.568 
" style="fill:none;stroke:#d62728;stroke-linecap:square;stroke-width:1.5;"/>
   </g>
   <g id="patch_3">
    <path d="M 57.6 307.584 
L 57.6 41.472 
" style="fill:none;stroke:#000000;stroke-linecap:square;stroke-linejoin:miter;stroke-width:0.8;"/>
   </g>
   <g id="patch_4">
    <path d="M 414.72 307.584 
L 414.72 41.472 
" style="fill:none;stroke:#000000;stroke-linecap:square;stroke-linejoin:miter;stroke-width:0.8;"/>
   </g>
   <g id="patch_5">
    <path d="M 57.6 307.584 
L 414.72 307.584 
" style="fill:none;stroke:#000000;stroke-linecap:square;stroke-linejoin:miter;stroke-width:0.8;"/>
   </g>
   <g id="patch_6">
    <path d="M 57.6 41.472 
L 414.72 41.472 
" style="fill:none;stroke:#000000;stroke-linecap:square;stroke-linejoin:miter;stroke-width:0.8;"/>
   </g>
   <g id="text_15">
    <!-- LBP ROC -->
    <defs>
     <path d="M 9.8125 72.90625 
L 19.671875 72.90625 
L 19.671875 8.296875 
L 55.171875 8.296875 
L 55.171875 0 
L 9.8125 0 
z
" id="DejaVuSans-76"/>
     <path d="M 19.671875 34.8125 
L 19.671875 8.109375 
L 35.5 8.109375 
Q 43.453125 8.109375 47.28125 11.40625 
Q 51.125 14.703125 51.125 21.484375 
Q 51.125 28.328125 47.28125 31.5625 
Q 43.453125 34.8125 35.5 34.8125 
z
M 19.671875 64.796875 
L 19.671875 42.828125 
L 34.28125 42.828125 
Q 41.5 42.828125 45.03125 45.53125 
Q 48.578125 48.25 48.578125 53.8125 
Q 48.578125 59.328125 45.03125 62.0625 
Q 41.5 64.796875 34.28125 64.796875 
z
M 9.8125 72.90625 
L 35.015625 72.90625 
Q 46.296875 72.90625 52.390625 68.21875 
Q 58.5 63.53125 58.5 54.890625 
Q 58.5 48.1875 55.375 44.234375 
Q 52.25 40.28125 46.1875 39.3125 
Q 53.46875 37.75 57.5 32.78125 
Q 61.53125 27.828125 61.53125 20.40625 
Q 61.53125 10.640625 54.890625 5.3125 
Q 48.25 0 35.984375 0 
L 9.8125 0 
z
" id="DejaVuSans-66"/>
     <path d="M 19.671875 64.796875 
L 19.671875 37.40625 
L 32.078125 37.40625 
Q 38.96875 37.40625 42.71875 40.96875 
Q 46.484375 44.53125 46.484375 51.125 
Q 46.484375 57.671875 42.71875 61.234375 
Q 38.96875 64.796875 32.078125 64.796875 
z
M 9.8125 72.90625 
L 32.078125 72.90625 
Q 44.34375 72.90625 50.609375 67.359375 
Q 56.890625 61.8125 56.890625 51.125 
Q 56.890625 40.328125 50.609375 34.8125 
Q 44.34375 29.296875 32.078125 29.296875 
L 19.671875 29.296875 
L 19.671875 0 
L 9.8125 0 
z
" id="DejaVuSans-80"/>
     <path d="M 44.390625 34.1875 
Q 47.5625 33.109375 50.5625 29.59375 
Q 53.5625 26.078125 56.59375 19.921875 
L 66.609375 0 
L 56 0 
L 46.6875 18.703125 
Q 43.0625 26.03125 39.671875 28.421875 
Q 36.28125 30.8125 30.421875 30.8125 
L 19.671875 30.8125 
L 19.671875 0 
L 9.8125 0 
L 9.8125 72.90625 
L 32.078125 72.90625 
Q 44.578125 72.90625 50.734375 67.671875 
Q 56.890625 62.453125 56.890625 51.90625 
Q 56.890625 45.015625 53.6875 40.46875 
Q 50.484375 35.9375 44.390625 34.1875 
z
M 19.671875 64.796875 
L 19.671875 38.921875 
L 32.078125 38.921875 
Q 39.203125 38.921875 42.84375 42.21875 
Q 46.484375 45.515625 46.484375 51.90625 
Q 46.484375 58.296875 42.84375 61.546875 
Q 39.203125 64.796875 32.078125 64.796875 
z
" id="DejaVuSans-82"/>
     <path d="M 39.40625 66.21875 
Q 28.65625 66.21875 22.328125 58.203125 
Q 16.015625 50.203125 16.015625 36.375 
Q 16.015625 22.609375 22.328125 14.59375 
Q 28.65625 6.59375 39.40625 6.59375 
Q 50.140625 6.59375 56.421875 14.59375 
Q 62.703125 22.609375 62.703125 36.375 
Q 62.703125 50.203125 56.421875 58.203125 
Q 50.140625 66.21875 39.40625 66.21875 
z
M 39.40625 74.21875 
Q 54.734375 74.21875 63.90625 63.9375 
Q 73.09375 53.65625 73.09375 36.375 
Q 73.09375 19.140625 63.90625 8.859375 
Q 54.734375 -1.421875 39.40625 -1.421875 
Q 24.03125 -1.421875 14.8125 8.828125 
Q 5.609375 19.09375 5.609375 36.375 
Q 5.609375 53.65625 14.8125 63.9375 
Q 24.03125 74.21875 39.40625 74.21875 
z
" id="DejaVuSans-79"/>
     <path d="M 64.40625 67.28125 
L 64.40625 56.890625 
Q 59.421875 61.53125 53.78125 63.8125 
Q 48.140625 66.109375 41.796875 66.109375 
Q 29.296875 66.109375 22.65625 58.46875 
Q 16.015625 50.828125 16.015625 36.375 
Q 16.015625 21.96875 22.65625 14.328125 
Q 29.296875 6.6875 41.796875 6.6875 
Q 48.140625 6.6875 53.78125 8.984375 
Q 59.421875 11.28125 64.40625 15.921875 
L 64.40625 5.609375 
Q 59.234375 2.09375 53.4375 0.328125 
Q 47.65625 -1.421875 41.21875 -1.421875 
Q 24.65625 -1.421875 15.125 8.703125 
Q 5.609375 18.84375 5.609375 36.375 
Q 5.609375 53.953125 15.125 64.078125 
Q 24.65625 74.21875 41.21875 74.21875 
Q 47.75 74.21875 53.53125 72.484375 
Q 59.328125 70.75 64.40625 67.28125 
z
" id="DejaVuSans-67"/>
    </defs>
    <g transform="translate(210.09375 35.472)scale(0.12 -0.12)">
     <use xlink:href="#DejaVuSans-76"/>
     <use x="55.712891" xlink:href="#DejaVuSans-66"/>
     <use x="124.316406" xlink:href="#DejaVuSans-80"/>
     <use x="184.619141" xlink:href="#DejaVuSans-32"/>
     <use x="216.40625" xlink:href="#DejaVuSans-82"/>
     <use x="285.888672" xlink:href="#DejaVuSans-79"/>
     <use x="364.599609" xlink:href="#DejaVuSans-67"/>
    </g>
   </g>
   <g id="legend_1">
    <g id="patch_7">
     <path d="M 318.545 302.584 
L 407.72 302.584 
Q 409.72 302.584 409.72 300.584 
L 409.72 242.8715 
Q 409.72 240.8715 407.72 240.8715 
L 318.545 240.8715 
Q 316.545 240.8715 316.545 242.8715 
L 316.545 300.584 
Q 316.545 302.584 318.545 302.584 
z
" style="fill:#ffffff;opacity:0.8;stroke:#cccccc;stroke-linejoin:miter;"/>
    </g>
    <g id="line2d_18">
     <path d="M 320.545 248.969937 
L 340.545 248.969937 
" style="fill:none;stroke:#1f77b4;stroke-linecap:square;stroke-width:1.5;"/>
    </g>
    <g id="line2d_19"/>
    <g id="text_16">
     <!-- iForest -->
     <g transform="translate(348.545 252.469937)scale(0.1 -0.1)">
      <use xlink:href="#DejaVuSans-105"/>
      <use x="27.783203" xlink:href="#DejaVuSans-70"/>
      <use x="85.255859" xlink:href="#DejaVuSans-111"/>
      <use x="146.4375" xlink:href="#DejaVuSans-114"/>
      <use x="187.519531" xlink:href="#DejaVuSans-101"/>
      <use x="249.042969" xlink:href="#DejaVuSans-115"/>
      <use x="301.142578" xlink:href="#DejaVuSans-116"/>
     </g>
    </g>
    <g id="line2d_20">
     <path d="M 320.545 263.648062 
L 340.545 263.648062 
" style="fill:none;stroke:#ff7f0e;stroke-linecap:square;stroke-width:1.5;"/>
    </g>
    <g id="line2d_21"/>
    <g id="text_17">
     <!-- OC-SVM -->
     <defs>
      <path d="M 4.890625 31.390625 
L 31.203125 31.390625 
L 31.203125 23.390625 
L 4.890625 23.390625 
z
" id="DejaVuSans-45"/>
      <path d="M 53.515625 70.515625 
L 53.515625 60.890625 
Q 47.90625 63.578125 42.921875 64.890625 
Q 37.9375 66.21875 33.296875 66.21875 
Q 25.25 66.21875 20.875 63.09375 
Q 16.5 59.96875 16.5 54.203125 
Q 16.5 49.359375 19.40625 46.890625 
Q 22.3125 44.4375 30.421875 42.921875 
L 36.375 41.703125 
Q 47.40625 39.59375 52.65625 34.296875 
Q 57.90625 29 57.90625 20.125 
Q 57.90625 9.515625 50.796875 4.046875 
Q 43.703125 -1.421875 29.984375 -1.421875 
Q 24.8125 -1.421875 18.96875 -0.25 
Q 13.140625 0.921875 6.890625 3.21875 
L 6.890625 13.375 
Q 12.890625 10.015625 18.65625 8.296875 
Q 24.421875 6.59375 29.984375 6.59375 
Q 38.421875 6.59375 43.015625 9.90625 
Q 47.609375 13.234375 47.609375 19.390625 
Q 47.609375 24.75 44.3125 27.78125 
Q 41.015625 30.8125 33.5 32.328125 
L 27.484375 33.5 
Q 16.453125 35.6875 11.515625 40.375 
Q 6.59375 45.0625 6.59375 53.421875 
Q 6.59375 63.09375 13.40625 68.65625 
Q 20.21875 74.21875 32.171875 74.21875 
Q 37.3125 74.21875 42.625 73.28125 
Q 47.953125 72.359375 53.515625 70.515625 
z
" id="DejaVuSans-83"/>
      <path d="M 28.609375 0 
L 0.78125 72.90625 
L 11.078125 72.90625 
L 34.1875 11.53125 
L 57.328125 72.90625 
L 67.578125 72.90625 
L 39.796875 0 
z
" id="DejaVuSans-86"/>
      <path d="M 9.8125 72.90625 
L 24.515625 72.90625 
L 43.109375 23.296875 
L 61.8125 72.90625 
L 76.515625 72.90625 
L 76.515625 0 
L 66.890625 0 
L 66.890625 64.015625 
L 48.09375 14.015625 
L 38.1875 14.015625 
L 19.390625 64.015625 
L 19.390625 0 
L 9.8125 0 
z
" id="DejaVuSans-77"/>
     </defs>
     <g transform="translate(348.545 267.148062)scale(0.1 -0.1)">
      <use xlink:href="#DejaVuSans-79"/>
      <use x="78.710938" xlink:href="#DejaVuSans-67"/>
      <use x="148.535156" xlink:href="#DejaVuSans-45"/>
      <use x="184.619141" xlink:href="#DejaVuSans-83"/>
      <use x="248.095703" xlink:href="#DejaVuSans-86"/>
      <use x="316.503906" xlink:href="#DejaVuSans-77"/>
     </g>
    </g>
    <g id="line2d_22">
     <path d="M 320.545 278.326187 
L 340.545 278.326187 
" style="fill:none;stroke:#2ca02c;stroke-linecap:square;stroke-width:1.5;"/>
    </g>
    <g id="line2d_23"/>
    <g id="text_18">
     <!-- Gaussion-D -->
     <defs>
      <path d="M 59.515625 10.40625 
L 59.515625 29.984375 
L 43.40625 29.984375 
L 43.40625 38.09375 
L 69.28125 38.09375 
L 69.28125 6.78125 
Q 63.578125 2.734375 56.6875 0.65625 
Q 49.8125 -1.421875 42 -1.421875 
Q 24.90625 -1.421875 15.25 8.5625 
Q 5.609375 18.5625 5.609375 36.375 
Q 5.609375 54.25 15.25 64.234375 
Q 24.90625 74.21875 42 74.21875 
Q 49.125 74.21875 55.546875 72.453125 
Q 61.96875 70.703125 67.390625 67.28125 
L 67.390625 56.78125 
Q 61.921875 61.421875 55.765625 63.765625 
Q 49.609375 66.109375 42.828125 66.109375 
Q 29.4375 66.109375 22.71875 58.640625 
Q 16.015625 51.171875 16.015625 36.375 
Q 16.015625 21.625 22.71875 14.15625 
Q 29.4375 6.6875 42.828125 6.6875 
Q 48.046875 6.6875 52.140625 7.59375 
Q 56.25 8.5 59.515625 10.40625 
z
" id="DejaVuSans-71"/>
      <path d="M 54.890625 33.015625 
L 54.890625 0 
L 45.90625 0 
L 45.90625 32.71875 
Q 45.90625 40.484375 42.875 44.328125 
Q 39.84375 48.1875 33.796875 48.1875 
Q 26.515625 48.1875 22.3125 43.546875 
Q 18.109375 38.921875 18.109375 30.90625 
L 18.109375 0 
L 9.078125 0 
L 9.078125 54.6875 
L 18.109375 54.6875 
L 18.109375 46.1875 
Q 21.34375 51.125 25.703125 53.5625 
Q 30.078125 56 35.796875 56 
Q 45.21875 56 50.046875 50.171875 
Q 54.890625 44.34375 54.890625 33.015625 
z
" id="DejaVuSans-110"/>
      <path d="M 19.671875 64.796875 
L 19.671875 8.109375 
L 31.59375 8.109375 
Q 46.6875 8.109375 53.6875 14.9375 
Q 60.6875 21.78125 60.6875 36.53125 
Q 60.6875 51.171875 53.6875 57.984375 
Q 46.6875 64.796875 31.59375 64.796875 
z
M 9.8125 72.90625 
L 30.078125 72.90625 
Q 51.265625 72.90625 61.171875 64.09375 
Q 71.09375 55.28125 71.09375 36.53125 
Q 71.09375 17.671875 61.125 8.828125 
Q 51.171875 0 30.078125 0 
L 9.8125 0 
z
" id="DejaVuSans-68"/>
     </defs>
     <g transform="translate(348.545 281.826187)scale(0.1 -0.1)">
      <use xlink:href="#DejaVuSans-71"/>
      <use x="77.490234" xlink:href="#DejaVuSans-97"/>
      <use x="138.769531" xlink:href="#DejaVuSans-117"/>
      <use x="202.148438" xlink:href="#DejaVuSans-115"/>
      <use x="254.248047" xlink:href="#DejaVuSans-115"/>
      <use x="306.347656" xlink:href="#DejaVuSans-105"/>
      <use x="334.130859" xlink:href="#DejaVuSans-111"/>
      <use x="395.3125" xlink:href="#DejaVuSans-110"/>
      <use x="458.691406" xlink:href="#DejaVuSans-45"/>
      <use x="494.775391" xlink:href="#DejaVuSans-68"/>
     </g>
    </g>
    <g id="line2d_24">
     <path d="M 320.545 293.004312 
L 340.545 293.004312 
" style="fill:none;stroke:#d62728;stroke-linecap:square;stroke-width:1.5;"/>
    </g>
    <g id="line2d_25"/>
    <g id="text_19">
     <!-- LOF -->
     <g transform="translate(348.545 296.504312)scale(0.1 -0.1)">
      <use xlink:href="#DejaVuSans-76"/>
      <use x="55.666016" xlink:href="#DejaVuSans-79"/>
      <use x="134.376953" xlink:href="#DejaVuSans-70"/>
     </g>
    </g>
   </g>
  </g>
 </g>
 <defs>
  <clipPath id="p8ab16cc6f4">
   <rect height="266.112" width="357.12" x="57.6" y="41.472"/>
  </clipPath>
 </defs>
</svg>
